%TF.GenerationSoftware,KiCad,Pcbnew,(5.99.0-12255-gad1ee958b0)*%
%TF.CreationDate,2021-11-28T16:30:05+01:00*%
%TF.ProjectId,RPi_car_HAT,5250695f-6361-4725-9f48-41542e6b6963,rev?*%
%TF.SameCoordinates,Original*%
%TF.FileFunction,Legend,Bot*%
%TF.FilePolarity,Positive*%
%FSLAX46Y46*%
G04 Gerber Fmt 4.6, Leading zero omitted, Abs format (unit mm)*
G04 Created by KiCad (PCBNEW (5.99.0-12255-gad1ee958b0)) date 2021-11-28 16:30:05*
%MOMM*%
%LPD*%
G01*
G04 APERTURE LIST*
G04 Aperture macros list*
%AMRoundRect*
0 Rectangle with rounded corners*
0 $1 Rounding radius*
0 $2 $3 $4 $5 $6 $7 $8 $9 X,Y pos of 4 corners*
0 Add a 4 corners polygon primitive as box body*
4,1,4,$2,$3,$4,$5,$6,$7,$8,$9,$2,$3,0*
0 Add four circle primitives for the rounded corners*
1,1,$1+$1,$2,$3*
1,1,$1+$1,$4,$5*
1,1,$1+$1,$6,$7*
1,1,$1+$1,$8,$9*
0 Add four rect primitives between the rounded corners*
20,1,$1+$1,$2,$3,$4,$5,0*
20,1,$1+$1,$4,$5,$6,$7,0*
20,1,$1+$1,$6,$7,$8,$9,0*
20,1,$1+$1,$8,$9,$2,$3,0*%
G04 Aperture macros list end*
%ADD10C,0.200000*%
%ADD11C,0.150000*%
%ADD12C,0.120000*%
%ADD13C,0.010000*%
%ADD14C,3.000000*%
%ADD15C,1.000000*%
%ADD16C,1.600000*%
%ADD17O,1.600000X1.600000*%
%ADD18C,1.440000*%
%ADD19R,1.600000X1.600000*%
%ADD20R,1.500000X1.500000*%
%ADD21C,1.500000*%
%ADD22R,1.800000X1.100000*%
%ADD23RoundRect,0.275000X0.625000X-0.275000X0.625000X0.275000X-0.625000X0.275000X-0.625000X-0.275000X0*%
%ADD24R,1.800000X1.800000*%
%ADD25C,1.800000*%
%ADD26RoundRect,0.275000X-0.625000X0.275000X-0.625000X-0.275000X0.625000X-0.275000X0.625000X0.275000X0*%
%ADD27RoundRect,0.250000X0.725000X-0.600000X0.725000X0.600000X-0.725000X0.600000X-0.725000X-0.600000X0*%
%ADD28O,1.950000X1.700000*%
%ADD29R,1.100000X1.800000*%
%ADD30RoundRect,0.275000X0.275000X0.625000X-0.275000X0.625000X-0.275000X-0.625000X0.275000X-0.625000X0*%
%ADD31R,2.540000X2.540000*%
%ADD32C,2.540000*%
%ADD33R,2.000000X1.905000*%
%ADD34O,2.000000X1.905000*%
%ADD35C,2.000000*%
%ADD36R,1.700000X1.700000*%
%ADD37O,1.700000X1.700000*%
G04 APERTURE END LIST*
D10*
X121665000Y-98014761D02*
X122331666Y-97062380D01*
X122807857Y-98014761D02*
X122807857Y-96014761D01*
X122045952Y-96014761D01*
X121855476Y-96110000D01*
X121760238Y-96205238D01*
X121665000Y-96395714D01*
X121665000Y-96681428D01*
X121760238Y-96871904D01*
X121855476Y-96967142D01*
X122045952Y-97062380D01*
X122807857Y-97062380D01*
X119950714Y-98014761D02*
X119950714Y-96967142D01*
X120045952Y-96776666D01*
X120236428Y-96681428D01*
X120617380Y-96681428D01*
X120807857Y-96776666D01*
X119950714Y-97919523D02*
X120141190Y-98014761D01*
X120617380Y-98014761D01*
X120807857Y-97919523D01*
X120903095Y-97729047D01*
X120903095Y-97538571D01*
X120807857Y-97348095D01*
X120617380Y-97252857D01*
X120141190Y-97252857D01*
X119950714Y-97157619D01*
X119093571Y-97919523D02*
X118903095Y-98014761D01*
X118522142Y-98014761D01*
X118331666Y-97919523D01*
X118236428Y-97729047D01*
X118236428Y-97633809D01*
X118331666Y-97443333D01*
X118522142Y-97348095D01*
X118807857Y-97348095D01*
X118998333Y-97252857D01*
X119093571Y-97062380D01*
X119093571Y-96967142D01*
X118998333Y-96776666D01*
X118807857Y-96681428D01*
X118522142Y-96681428D01*
X118331666Y-96776666D01*
X117379285Y-96681428D02*
X117379285Y-98681428D01*
X117379285Y-96776666D02*
X117188809Y-96681428D01*
X116807857Y-96681428D01*
X116617380Y-96776666D01*
X116522142Y-96871904D01*
X116426904Y-97062380D01*
X116426904Y-97633809D01*
X116522142Y-97824285D01*
X116617380Y-97919523D01*
X116807857Y-98014761D01*
X117188809Y-98014761D01*
X117379285Y-97919523D01*
X115569761Y-98014761D02*
X115569761Y-96014761D01*
X115569761Y-96776666D02*
X115379285Y-96681428D01*
X114998333Y-96681428D01*
X114807857Y-96776666D01*
X114712619Y-96871904D01*
X114617380Y-97062380D01*
X114617380Y-97633809D01*
X114712619Y-97824285D01*
X114807857Y-97919523D01*
X114998333Y-98014761D01*
X115379285Y-98014761D01*
X115569761Y-97919523D01*
X112998333Y-97919523D02*
X113188809Y-98014761D01*
X113569761Y-98014761D01*
X113760238Y-97919523D01*
X113855476Y-97729047D01*
X113855476Y-96967142D01*
X113760238Y-96776666D01*
X113569761Y-96681428D01*
X113188809Y-96681428D01*
X112998333Y-96776666D01*
X112903095Y-96967142D01*
X112903095Y-97157619D01*
X113855476Y-97348095D01*
X112045952Y-98014761D02*
X112045952Y-96681428D01*
X112045952Y-97062380D02*
X111950714Y-96871904D01*
X111855476Y-96776666D01*
X111665000Y-96681428D01*
X111474523Y-96681428D01*
X110807857Y-98014761D02*
X110807857Y-96681428D01*
X110807857Y-97062380D02*
X110712619Y-96871904D01*
X110617380Y-96776666D01*
X110426904Y-96681428D01*
X110236428Y-96681428D01*
X109760238Y-96681428D02*
X109284047Y-98014761D01*
X108807857Y-96681428D02*
X109284047Y-98014761D01*
X109474523Y-98490952D01*
X109569761Y-98586190D01*
X109760238Y-98681428D01*
X106522142Y-98014761D02*
X106522142Y-96014761D01*
X105760238Y-96014761D01*
X105569761Y-96110000D01*
X105474523Y-96205238D01*
X105379285Y-96395714D01*
X105379285Y-96681428D01*
X105474523Y-96871904D01*
X105569761Y-96967142D01*
X105760238Y-97062380D01*
X106522142Y-97062380D01*
X104522142Y-98014761D02*
X104522142Y-96681428D01*
X104522142Y-96014761D02*
X104617380Y-96110000D01*
X104522142Y-96205238D01*
X104426904Y-96110000D01*
X104522142Y-96014761D01*
X104522142Y-96205238D01*
X133236428Y-101044285D02*
X133331666Y-101139523D01*
X133617380Y-101234761D01*
X133807857Y-101234761D01*
X134093571Y-101139523D01*
X134284047Y-100949047D01*
X134379285Y-100758571D01*
X134474523Y-100377619D01*
X134474523Y-100091904D01*
X134379285Y-99710952D01*
X134284047Y-99520476D01*
X134093571Y-99330000D01*
X133807857Y-99234761D01*
X133617380Y-99234761D01*
X133331666Y-99330000D01*
X133236428Y-99425238D01*
X131522142Y-101234761D02*
X131522142Y-100187142D01*
X131617380Y-99996666D01*
X131807857Y-99901428D01*
X132188809Y-99901428D01*
X132379285Y-99996666D01*
X131522142Y-101139523D02*
X131712619Y-101234761D01*
X132188809Y-101234761D01*
X132379285Y-101139523D01*
X132474523Y-100949047D01*
X132474523Y-100758571D01*
X132379285Y-100568095D01*
X132188809Y-100472857D01*
X131712619Y-100472857D01*
X131522142Y-100377619D01*
X130569761Y-101234761D02*
X130569761Y-99901428D01*
X130569761Y-100282380D02*
X130474523Y-100091904D01*
X130379285Y-99996666D01*
X130188809Y-99901428D01*
X129998333Y-99901428D01*
X127807857Y-101234761D02*
X127807857Y-99234761D01*
X127045952Y-99234761D01*
X126855476Y-99330000D01*
X126760238Y-99425238D01*
X126665000Y-99615714D01*
X126665000Y-99901428D01*
X126760238Y-100091904D01*
X126855476Y-100187142D01*
X127045952Y-100282380D01*
X127807857Y-100282380D01*
X125522142Y-101234761D02*
X125712619Y-101139523D01*
X125807857Y-101044285D01*
X125903095Y-100853809D01*
X125903095Y-100282380D01*
X125807857Y-100091904D01*
X125712619Y-99996666D01*
X125522142Y-99901428D01*
X125236428Y-99901428D01*
X125045952Y-99996666D01*
X124950714Y-100091904D01*
X124855476Y-100282380D01*
X124855476Y-100853809D01*
X124950714Y-101044285D01*
X125045952Y-101139523D01*
X125236428Y-101234761D01*
X125522142Y-101234761D01*
X124188809Y-99901428D02*
X123807857Y-101234761D01*
X123426904Y-100282380D01*
X123045952Y-101234761D01*
X122665000Y-99901428D01*
X121141190Y-101139523D02*
X121331666Y-101234761D01*
X121712619Y-101234761D01*
X121903095Y-101139523D01*
X121998333Y-100949047D01*
X121998333Y-100187142D01*
X121903095Y-99996666D01*
X121712619Y-99901428D01*
X121331666Y-99901428D01*
X121141190Y-99996666D01*
X121045952Y-100187142D01*
X121045952Y-100377619D01*
X121998333Y-100568095D01*
X120188809Y-101234761D02*
X120188809Y-99901428D01*
X120188809Y-100282380D02*
X120093571Y-100091904D01*
X119998333Y-99996666D01*
X119807857Y-99901428D01*
X119617380Y-99901428D01*
X117426904Y-101234761D02*
X117426904Y-99234761D01*
X116760238Y-100663333D01*
X116093571Y-99234761D01*
X116093571Y-101234761D01*
X114284047Y-101234761D02*
X114284047Y-100187142D01*
X114379285Y-99996666D01*
X114569761Y-99901428D01*
X114950714Y-99901428D01*
X115141190Y-99996666D01*
X114284047Y-101139523D02*
X114474523Y-101234761D01*
X114950714Y-101234761D01*
X115141190Y-101139523D01*
X115236428Y-100949047D01*
X115236428Y-100758571D01*
X115141190Y-100568095D01*
X114950714Y-100472857D01*
X114474523Y-100472857D01*
X114284047Y-100377619D01*
X113331666Y-99901428D02*
X113331666Y-101234761D01*
X113331666Y-100091904D02*
X113236428Y-99996666D01*
X113045952Y-99901428D01*
X112760238Y-99901428D01*
X112569761Y-99996666D01*
X112474523Y-100187142D01*
X112474523Y-101234761D01*
X110665000Y-101234761D02*
X110665000Y-100187142D01*
X110760238Y-99996666D01*
X110950714Y-99901428D01*
X111331666Y-99901428D01*
X111522142Y-99996666D01*
X110665000Y-101139523D02*
X110855476Y-101234761D01*
X111331666Y-101234761D01*
X111522142Y-101139523D01*
X111617380Y-100949047D01*
X111617380Y-100758571D01*
X111522142Y-100568095D01*
X111331666Y-100472857D01*
X110855476Y-100472857D01*
X110665000Y-100377619D01*
X108855476Y-99901428D02*
X108855476Y-101520476D01*
X108950714Y-101710952D01*
X109045952Y-101806190D01*
X109236428Y-101901428D01*
X109522142Y-101901428D01*
X109712619Y-101806190D01*
X108855476Y-101139523D02*
X109045952Y-101234761D01*
X109426904Y-101234761D01*
X109617380Y-101139523D01*
X109712619Y-101044285D01*
X109807857Y-100853809D01*
X109807857Y-100282380D01*
X109712619Y-100091904D01*
X109617380Y-99996666D01*
X109426904Y-99901428D01*
X109045952Y-99901428D01*
X108855476Y-99996666D01*
X107141190Y-101139523D02*
X107331666Y-101234761D01*
X107712619Y-101234761D01*
X107903095Y-101139523D01*
X107998333Y-100949047D01*
X107998333Y-100187142D01*
X107903095Y-99996666D01*
X107712619Y-99901428D01*
X107331666Y-99901428D01*
X107141190Y-99996666D01*
X107045952Y-100187142D01*
X107045952Y-100377619D01*
X107998333Y-100568095D01*
X106188809Y-101234761D02*
X106188809Y-99901428D01*
X106188809Y-100091904D02*
X106093571Y-99996666D01*
X105903095Y-99901428D01*
X105617380Y-99901428D01*
X105426904Y-99996666D01*
X105331666Y-100187142D01*
X105331666Y-101234761D01*
X105331666Y-100187142D02*
X105236428Y-99996666D01*
X105045952Y-99901428D01*
X104760238Y-99901428D01*
X104569761Y-99996666D01*
X104474523Y-100187142D01*
X104474523Y-101234761D01*
X102760238Y-101139523D02*
X102950714Y-101234761D01*
X103331666Y-101234761D01*
X103522142Y-101139523D01*
X103617380Y-100949047D01*
X103617380Y-100187142D01*
X103522142Y-99996666D01*
X103331666Y-99901428D01*
X102950714Y-99901428D01*
X102760238Y-99996666D01*
X102665000Y-100187142D01*
X102665000Y-100377619D01*
X103617380Y-100568095D01*
X101807857Y-99901428D02*
X101807857Y-101234761D01*
X101807857Y-100091904D02*
X101712619Y-99996666D01*
X101522142Y-99901428D01*
X101236428Y-99901428D01*
X101045952Y-99996666D01*
X100950714Y-100187142D01*
X100950714Y-101234761D01*
X100284047Y-99901428D02*
X99522142Y-99901428D01*
X99998333Y-99234761D02*
X99998333Y-100949047D01*
X99903095Y-101139523D01*
X99712619Y-101234761D01*
X99522142Y-101234761D01*
X97331666Y-101234761D02*
X97331666Y-99234761D01*
X97331666Y-100187142D02*
X96188809Y-100187142D01*
X96188809Y-101234761D02*
X96188809Y-99234761D01*
X95331666Y-100663333D02*
X94379285Y-100663333D01*
X95522142Y-101234761D02*
X94855476Y-99234761D01*
X94188809Y-101234761D01*
X93807857Y-99234761D02*
X92665000Y-99234761D01*
X93236428Y-101234761D02*
X93236428Y-99234761D01*
X116522142Y-103121428D02*
X116045952Y-104454761D01*
X115569761Y-103121428D01*
X113760238Y-104454761D02*
X114903095Y-104454761D01*
X114331666Y-104454761D02*
X114331666Y-102454761D01*
X114522142Y-102740476D01*
X114712619Y-102930952D01*
X114903095Y-103026190D01*
X112903095Y-104264285D02*
X112807857Y-104359523D01*
X112903095Y-104454761D01*
X112998333Y-104359523D01*
X112903095Y-104264285D01*
X112903095Y-104454761D01*
X110903095Y-104454761D02*
X112045952Y-104454761D01*
X111474523Y-104454761D02*
X111474523Y-102454761D01*
X111665000Y-102740476D01*
X111855476Y-102930952D01*
X112045952Y-103026190D01*
D11*
X130276071Y-112501071D02*
X130990357Y-112501071D01*
X130990357Y-111001071D01*
X129133214Y-112501071D02*
X129133214Y-111715357D01*
X129204642Y-111572500D01*
X129347500Y-111501071D01*
X129633214Y-111501071D01*
X129776071Y-111572500D01*
X129133214Y-112429642D02*
X129276071Y-112501071D01*
X129633214Y-112501071D01*
X129776071Y-112429642D01*
X129847500Y-112286785D01*
X129847500Y-112143928D01*
X129776071Y-112001071D01*
X129633214Y-111929642D01*
X129276071Y-111929642D01*
X129133214Y-111858214D01*
X128418928Y-112501071D02*
X128418928Y-111501071D01*
X128418928Y-111786785D02*
X128347500Y-111643928D01*
X128276071Y-111572500D01*
X128133214Y-111501071D01*
X127990357Y-111501071D01*
X127561785Y-112429642D02*
X127418928Y-112501071D01*
X127133214Y-112501071D01*
X126990357Y-112429642D01*
X126918928Y-112286785D01*
X126918928Y-112215357D01*
X126990357Y-112072500D01*
X127133214Y-112001071D01*
X127347500Y-112001071D01*
X127490357Y-111929642D01*
X127561785Y-111786785D01*
X127561785Y-111715357D01*
X127490357Y-111572500D01*
X127347500Y-111501071D01*
X127133214Y-111501071D01*
X126990357Y-111572500D01*
X125347500Y-111001071D02*
X124847500Y-112501071D01*
X124347500Y-111001071D01*
X123276071Y-112429642D02*
X123418928Y-112501071D01*
X123704642Y-112501071D01*
X123847500Y-112429642D01*
X123918928Y-112286785D01*
X123918928Y-111715357D01*
X123847500Y-111572500D01*
X123704642Y-111501071D01*
X123418928Y-111501071D01*
X123276071Y-111572500D01*
X123204642Y-111715357D01*
X123204642Y-111858214D01*
X123918928Y-112001071D01*
X122347500Y-112501071D02*
X122490357Y-112429642D01*
X122561785Y-112286785D01*
X122561785Y-111001071D01*
X121133214Y-112501071D02*
X121133214Y-111001071D01*
X121133214Y-112429642D02*
X121276071Y-112501071D01*
X121561785Y-112501071D01*
X121704642Y-112429642D01*
X121776071Y-112358214D01*
X121847500Y-112215357D01*
X121847500Y-111786785D01*
X121776071Y-111643928D01*
X121704642Y-111572500D01*
X121561785Y-111501071D01*
X121276071Y-111501071D01*
X121133214Y-111572500D01*
X120490357Y-112429642D02*
X120347500Y-112501071D01*
X120061785Y-112501071D01*
X119918928Y-112429642D01*
X119847500Y-112286785D01*
X119847500Y-112215357D01*
X119918928Y-112072500D01*
X120061785Y-112001071D01*
X120276071Y-112001071D01*
X120418928Y-111929642D01*
X120490357Y-111786785D01*
X120490357Y-111715357D01*
X120418928Y-111572500D01*
X120276071Y-111501071D01*
X120061785Y-111501071D01*
X119918928Y-111572500D01*
X118561785Y-112429642D02*
X118704642Y-112501071D01*
X118990357Y-112501071D01*
X119133214Y-112429642D01*
X119204642Y-112358214D01*
X119276071Y-112215357D01*
X119276071Y-111786785D01*
X119204642Y-111643928D01*
X119133214Y-111572500D01*
X118990357Y-111501071D01*
X118704642Y-111501071D01*
X118561785Y-111572500D01*
X117918928Y-112501071D02*
X117918928Y-111001071D01*
X117276071Y-112501071D02*
X117276071Y-111715357D01*
X117347500Y-111572500D01*
X117490357Y-111501071D01*
X117704642Y-111501071D01*
X117847500Y-111572500D01*
X117918928Y-111643928D01*
X116347500Y-112501071D02*
X116490357Y-112429642D01*
X116561785Y-112358214D01*
X116633214Y-112215357D01*
X116633214Y-111786785D01*
X116561785Y-111643928D01*
X116490357Y-111572500D01*
X116347500Y-111501071D01*
X116133214Y-111501071D01*
X115990357Y-111572500D01*
X115918928Y-111643928D01*
X115847500Y-111786785D01*
X115847500Y-112215357D01*
X115918928Y-112358214D01*
X115990357Y-112429642D01*
X116133214Y-112501071D01*
X116347500Y-112501071D01*
X114990357Y-112501071D02*
X115133214Y-112429642D01*
X115204642Y-112286785D01*
X115204642Y-111001071D01*
X114633214Y-111501071D02*
X114061785Y-111501071D01*
X114418928Y-111001071D02*
X114418928Y-112286785D01*
X114347500Y-112429642D01*
X114204642Y-112501071D01*
X114061785Y-112501071D01*
X112990357Y-112429642D02*
X113133214Y-112501071D01*
X113418928Y-112501071D01*
X113561785Y-112429642D01*
X113633214Y-112286785D01*
X113633214Y-111715357D01*
X113561785Y-111572500D01*
X113418928Y-111501071D01*
X113133214Y-111501071D01*
X112990357Y-111572500D01*
X112918928Y-111715357D01*
X112918928Y-111858214D01*
X113633214Y-112001071D01*
X130133214Y-114773214D02*
X130204642Y-114844642D01*
X130418928Y-114916071D01*
X130561785Y-114916071D01*
X130776071Y-114844642D01*
X130918928Y-114701785D01*
X130990357Y-114558928D01*
X131061785Y-114273214D01*
X131061785Y-114058928D01*
X130990357Y-113773214D01*
X130918928Y-113630357D01*
X130776071Y-113487500D01*
X130561785Y-113416071D01*
X130418928Y-113416071D01*
X130204642Y-113487500D01*
X130133214Y-113558928D01*
X129490357Y-114130357D02*
X128990357Y-114130357D01*
X128776071Y-114916071D02*
X129490357Y-114916071D01*
X129490357Y-113416071D01*
X128776071Y-113416071D01*
X127276071Y-114916071D02*
X127776071Y-114201785D01*
X128133214Y-114916071D02*
X128133214Y-113416071D01*
X127561785Y-113416071D01*
X127418928Y-113487500D01*
X127347500Y-113558928D01*
X127276071Y-113701785D01*
X127276071Y-113916071D01*
X127347500Y-114058928D01*
X127418928Y-114130357D01*
X127561785Y-114201785D01*
X128133214Y-114201785D01*
X126633214Y-114916071D02*
X126633214Y-113416071D01*
X125776071Y-114916071D01*
X125776071Y-113416071D01*
X125061785Y-114344642D02*
X123918928Y-114344642D01*
X122918928Y-113416071D02*
X122633214Y-113416071D01*
X122490357Y-113487500D01*
X122347500Y-113630357D01*
X122276071Y-113916071D01*
X122276071Y-114416071D01*
X122347500Y-114701785D01*
X122490357Y-114844642D01*
X122633214Y-114916071D01*
X122918928Y-114916071D01*
X123061785Y-114844642D01*
X123204642Y-114701785D01*
X123276071Y-114416071D01*
X123276071Y-113916071D01*
X123204642Y-113630357D01*
X123061785Y-113487500D01*
X122918928Y-113416071D01*
X121633214Y-114916071D02*
X121633214Y-113416071D01*
X121633214Y-114130357D02*
X120776071Y-114130357D01*
X120776071Y-114916071D02*
X120776071Y-113416071D01*
X119347500Y-114916071D02*
X120061785Y-114916071D01*
X120061785Y-113416071D01*
X118847500Y-114344642D02*
X117704642Y-114344642D01*
X117061785Y-114844642D02*
X116847500Y-114916071D01*
X116490357Y-114916071D01*
X116347500Y-114844642D01*
X116276071Y-114773214D01*
X116204642Y-114630357D01*
X116204642Y-114487500D01*
X116276071Y-114344642D01*
X116347500Y-114273214D01*
X116490357Y-114201785D01*
X116776071Y-114130357D01*
X116918928Y-114058928D01*
X116990357Y-113987500D01*
X117061785Y-113844642D01*
X117061785Y-113701785D01*
X116990357Y-113558928D01*
X116918928Y-113487500D01*
X116776071Y-113416071D01*
X116418928Y-113416071D01*
X116204642Y-113487500D01*
X83602380Y-61896666D02*
X84316666Y-61896666D01*
X84459523Y-61849047D01*
X84554761Y-61753809D01*
X84602380Y-61610952D01*
X84602380Y-61515714D01*
X83602380Y-62277619D02*
X83602380Y-62896666D01*
X83983333Y-62563333D01*
X83983333Y-62706190D01*
X84030952Y-62801428D01*
X84078571Y-62849047D01*
X84173809Y-62896666D01*
X84411904Y-62896666D01*
X84507142Y-62849047D01*
X84554761Y-62801428D01*
X84602380Y-62706190D01*
X84602380Y-62420476D01*
X84554761Y-62325238D01*
X84507142Y-62277619D01*
D12*
X85590000Y-65590000D02*
X85590000Y-66920000D01*
X85590000Y-64320000D02*
X88190000Y-64320000D01*
X88190000Y-66920000D02*
X136510000Y-66920000D01*
X85590000Y-61720000D02*
X85590000Y-64320000D01*
X85590000Y-61720000D02*
X136510000Y-61720000D01*
X136510000Y-61720000D02*
X136510000Y-66920000D01*
X88190000Y-64320000D02*
X88190000Y-66920000D01*
X85590000Y-66920000D02*
X86920000Y-66920000D01*
D13*
X101169057Y-113776920D02*
X101036435Y-113825859D01*
X101036435Y-113825859D02*
X100928990Y-113912419D01*
X100928990Y-113912419D02*
X100886968Y-113973352D01*
X100886968Y-113973352D02*
X100841157Y-114085161D01*
X100841157Y-114085161D02*
X100842109Y-114166006D01*
X100842109Y-114166006D02*
X100890192Y-114220378D01*
X100890192Y-114220378D02*
X100907983Y-114229624D01*
X100907983Y-114229624D02*
X100984796Y-114258450D01*
X100984796Y-114258450D02*
X101024024Y-114251065D01*
X101024024Y-114251065D02*
X101037311Y-114202658D01*
X101037311Y-114202658D02*
X101037988Y-114175920D01*
X101037988Y-114175920D02*
X101062314Y-114077548D01*
X101062314Y-114077548D02*
X101125719Y-114008734D01*
X101125719Y-114008734D02*
X101213846Y-113975498D01*
X101213846Y-113975498D02*
X101312337Y-113983861D01*
X101312337Y-113983861D02*
X101392398Y-114027296D01*
X101392398Y-114027296D02*
X101419439Y-114052072D01*
X101419439Y-114052072D02*
X101438606Y-114082129D01*
X101438606Y-114082129D02*
X101451554Y-114127565D01*
X101451554Y-114127565D02*
X101459936Y-114198476D01*
X101459936Y-114198476D02*
X101465407Y-114304960D01*
X101465407Y-114304960D02*
X101469622Y-114457112D01*
X101469622Y-114457112D02*
X101470713Y-114505287D01*
X101470713Y-114505287D02*
X101474693Y-114670095D01*
X101474693Y-114670095D02*
X101479219Y-114786088D01*
X101479219Y-114786088D02*
X101486005Y-114862833D01*
X101486005Y-114862833D02*
X101496769Y-114909893D01*
X101496769Y-114909893D02*
X101513227Y-114936835D01*
X101513227Y-114936835D02*
X101537094Y-114953223D01*
X101537094Y-114953223D02*
X101552374Y-114960463D01*
X101552374Y-114960463D02*
X101617267Y-114985220D01*
X101617267Y-114985220D02*
X101655466Y-114993391D01*
X101655466Y-114993391D02*
X101668088Y-114966103D01*
X101668088Y-114966103D02*
X101675792Y-114883603D01*
X101675792Y-114883603D02*
X101678620Y-114744941D01*
X101678620Y-114744941D02*
X101676614Y-114549162D01*
X101676614Y-114549162D02*
X101675989Y-114518965D01*
X101675989Y-114518965D02*
X101671579Y-114340349D01*
X101671579Y-114340349D02*
X101666365Y-114209923D01*
X101666365Y-114209923D02*
X101658945Y-114117492D01*
X101658945Y-114117492D02*
X101647918Y-114052858D01*
X101647918Y-114052858D02*
X101631883Y-114005825D01*
X101631883Y-114005825D02*
X101609439Y-113966196D01*
X101609439Y-113966196D02*
X101597698Y-113949215D01*
X101597698Y-113949215D02*
X101530381Y-113874080D01*
X101530381Y-113874080D02*
X101455090Y-113815638D01*
X101455090Y-113815638D02*
X101445872Y-113810536D01*
X101445872Y-113810536D02*
X101310867Y-113770260D01*
X101310867Y-113770260D02*
X101169057Y-113776920D01*
X101169057Y-113776920D02*
X101169057Y-113776920D01*
G36*
X101445872Y-113810536D02*
G01*
X101455090Y-113815638D01*
X101530381Y-113874080D01*
X101597698Y-113949215D01*
X101609439Y-113966196D01*
X101631883Y-114005825D01*
X101647918Y-114052858D01*
X101658945Y-114117492D01*
X101666365Y-114209923D01*
X101671579Y-114340349D01*
X101675989Y-114518965D01*
X101676614Y-114549162D01*
X101678620Y-114744941D01*
X101675792Y-114883603D01*
X101668088Y-114966103D01*
X101655466Y-114993391D01*
X101617267Y-114985220D01*
X101552374Y-114960463D01*
X101537094Y-114953223D01*
X101513227Y-114936835D01*
X101496769Y-114909893D01*
X101486005Y-114862833D01*
X101479219Y-114786088D01*
X101474693Y-114670095D01*
X101470713Y-114505287D01*
X101469622Y-114457112D01*
X101465407Y-114304960D01*
X101459936Y-114198476D01*
X101451554Y-114127565D01*
X101438606Y-114082129D01*
X101419439Y-114052072D01*
X101392398Y-114027296D01*
X101312337Y-113983861D01*
X101213846Y-113975498D01*
X101125719Y-114008734D01*
X101062314Y-114077548D01*
X101037988Y-114175920D01*
X101037311Y-114202658D01*
X101024024Y-114251065D01*
X100984796Y-114258450D01*
X100907983Y-114229624D01*
X100890192Y-114220378D01*
X100842109Y-114166006D01*
X100841157Y-114085161D01*
X100886968Y-113973352D01*
X100928990Y-113912419D01*
X101036435Y-113825859D01*
X101169057Y-113776920D01*
X101310867Y-113770260D01*
X101445872Y-113810536D01*
G37*
X101445872Y-113810536D02*
X101455090Y-113815638D01*
X101530381Y-113874080D01*
X101597698Y-113949215D01*
X101609439Y-113966196D01*
X101631883Y-114005825D01*
X101647918Y-114052858D01*
X101658945Y-114117492D01*
X101666365Y-114209923D01*
X101671579Y-114340349D01*
X101675989Y-114518965D01*
X101676614Y-114549162D01*
X101678620Y-114744941D01*
X101675792Y-114883603D01*
X101668088Y-114966103D01*
X101655466Y-114993391D01*
X101617267Y-114985220D01*
X101552374Y-114960463D01*
X101537094Y-114953223D01*
X101513227Y-114936835D01*
X101496769Y-114909893D01*
X101486005Y-114862833D01*
X101479219Y-114786088D01*
X101474693Y-114670095D01*
X101470713Y-114505287D01*
X101469622Y-114457112D01*
X101465407Y-114304960D01*
X101459936Y-114198476D01*
X101451554Y-114127565D01*
X101438606Y-114082129D01*
X101419439Y-114052072D01*
X101392398Y-114027296D01*
X101312337Y-113983861D01*
X101213846Y-113975498D01*
X101125719Y-114008734D01*
X101062314Y-114077548D01*
X101037988Y-114175920D01*
X101037311Y-114202658D01*
X101024024Y-114251065D01*
X100984796Y-114258450D01*
X100907983Y-114229624D01*
X100890192Y-114220378D01*
X100842109Y-114166006D01*
X100841157Y-114085161D01*
X100886968Y-113973352D01*
X100928990Y-113912419D01*
X101036435Y-113825859D01*
X101169057Y-113776920D01*
X101310867Y-113770260D01*
X101445872Y-113810536D01*
X95891561Y-113811540D02*
X95776050Y-113887034D01*
X95776050Y-113887034D02*
X95720336Y-113954617D01*
X95720336Y-113954617D02*
X95676196Y-114077255D01*
X95676196Y-114077255D02*
X95672691Y-114174298D01*
X95672691Y-114174298D02*
X95680632Y-114304056D01*
X95680632Y-114304056D02*
X95979885Y-114435039D01*
X95979885Y-114435039D02*
X96125389Y-114501958D01*
X96125389Y-114501958D02*
X96220463Y-114555790D01*
X96220463Y-114555790D02*
X96269899Y-114602416D01*
X96269899Y-114602416D02*
X96278489Y-114647720D01*
X96278489Y-114647720D02*
X96251028Y-114697582D01*
X96251028Y-114697582D02*
X96220747Y-114730632D01*
X96220747Y-114730632D02*
X96132637Y-114783633D01*
X96132637Y-114783633D02*
X96036804Y-114787347D01*
X96036804Y-114787347D02*
X95948788Y-114746041D01*
X95948788Y-114746041D02*
X95884131Y-114663983D01*
X95884131Y-114663983D02*
X95872567Y-114635008D01*
X95872567Y-114635008D02*
X95817175Y-114544509D01*
X95817175Y-114544509D02*
X95753447Y-114505940D01*
X95753447Y-114505940D02*
X95666034Y-114472946D01*
X95666034Y-114472946D02*
X95666034Y-114598034D01*
X95666034Y-114598034D02*
X95673762Y-114683156D01*
X95673762Y-114683156D02*
X95704034Y-114754938D01*
X95704034Y-114754938D02*
X95767482Y-114837356D01*
X95767482Y-114837356D02*
X95776912Y-114848066D01*
X95776912Y-114848066D02*
X95847487Y-114921391D01*
X95847487Y-114921391D02*
X95908153Y-114960742D01*
X95908153Y-114960742D02*
X95984050Y-114978845D01*
X95984050Y-114978845D02*
X96046970Y-114984774D01*
X96046970Y-114984774D02*
X96159513Y-114986251D01*
X96159513Y-114986251D02*
X96239630Y-114967535D01*
X96239630Y-114967535D02*
X96289610Y-114939747D01*
X96289610Y-114939747D02*
X96368162Y-114878641D01*
X96368162Y-114878641D02*
X96422537Y-114812554D01*
X96422537Y-114812554D02*
X96456948Y-114729441D01*
X96456948Y-114729441D02*
X96475612Y-114617254D01*
X96475612Y-114617254D02*
X96482744Y-114463946D01*
X96482744Y-114463946D02*
X96483313Y-114386136D01*
X96483313Y-114386136D02*
X96481378Y-114292853D01*
X96481378Y-114292853D02*
X96305101Y-114292853D01*
X96305101Y-114292853D02*
X96303056Y-114342896D01*
X96303056Y-114342896D02*
X96297961Y-114351092D01*
X96297961Y-114351092D02*
X96264334Y-114339958D01*
X96264334Y-114339958D02*
X96191970Y-114310493D01*
X96191970Y-114310493D02*
X96095253Y-114268601D01*
X96095253Y-114268601D02*
X96075027Y-114259597D01*
X96075027Y-114259597D02*
X95952797Y-114197442D01*
X95952797Y-114197442D02*
X95885453Y-114142815D01*
X95885453Y-114142815D02*
X95870652Y-114091649D01*
X95870652Y-114091649D02*
X95906053Y-114039876D01*
X95906053Y-114039876D02*
X95935289Y-114017000D01*
X95935289Y-114017000D02*
X96040784Y-113971250D01*
X96040784Y-113971250D02*
X96139524Y-113978808D01*
X96139524Y-113978808D02*
X96222188Y-114034651D01*
X96222188Y-114034651D02*
X96279452Y-114133753D01*
X96279452Y-114133753D02*
X96297812Y-114212414D01*
X96297812Y-114212414D02*
X96305101Y-114292853D01*
X96305101Y-114292853D02*
X96481378Y-114292853D01*
X96481378Y-114292853D02*
X96479541Y-114204351D01*
X96479541Y-114204351D02*
X96465641Y-114069853D01*
X96465641Y-114069853D02*
X96438106Y-113971916D01*
X96438106Y-113971916D02*
X96393428Y-113899811D01*
X96393428Y-113899811D02*
X96328099Y-113842813D01*
X96328099Y-113842813D02*
X96299617Y-113824393D01*
X96299617Y-113824393D02*
X96170237Y-113776422D01*
X96170237Y-113776422D02*
X96028588Y-113773403D01*
X96028588Y-113773403D02*
X95891561Y-113811540D01*
X95891561Y-113811540D02*
X95891561Y-113811540D01*
G36*
X96482744Y-114463946D02*
G01*
X96475612Y-114617254D01*
X96456948Y-114729441D01*
X96422537Y-114812554D01*
X96368162Y-114878641D01*
X96289610Y-114939747D01*
X96239630Y-114967535D01*
X96159513Y-114986251D01*
X96046970Y-114984774D01*
X95984050Y-114978845D01*
X95908153Y-114960742D01*
X95847487Y-114921391D01*
X95776912Y-114848066D01*
X95767482Y-114837356D01*
X95704034Y-114754938D01*
X95673762Y-114683156D01*
X95666034Y-114598034D01*
X95666034Y-114472946D01*
X95753447Y-114505940D01*
X95817175Y-114544509D01*
X95872567Y-114635008D01*
X95884131Y-114663983D01*
X95948788Y-114746041D01*
X96036804Y-114787347D01*
X96132637Y-114783633D01*
X96220747Y-114730632D01*
X96251028Y-114697582D01*
X96278489Y-114647720D01*
X96269899Y-114602416D01*
X96220463Y-114555790D01*
X96125389Y-114501958D01*
X95979885Y-114435039D01*
X95680632Y-114304056D01*
X95672691Y-114174298D01*
X95675676Y-114091649D01*
X95870652Y-114091649D01*
X95885453Y-114142815D01*
X95952797Y-114197442D01*
X96075027Y-114259597D01*
X96095253Y-114268601D01*
X96191970Y-114310493D01*
X96264334Y-114339958D01*
X96297961Y-114351092D01*
X96303056Y-114342896D01*
X96305101Y-114292853D01*
X96297812Y-114212414D01*
X96279452Y-114133753D01*
X96222188Y-114034651D01*
X96139524Y-113978808D01*
X96040784Y-113971250D01*
X95935289Y-114017000D01*
X95906053Y-114039876D01*
X95870652Y-114091649D01*
X95675676Y-114091649D01*
X95676196Y-114077255D01*
X95720336Y-113954617D01*
X95776050Y-113887034D01*
X95891561Y-113811540D01*
X96028588Y-113773403D01*
X96170237Y-113776422D01*
X96299617Y-113824393D01*
X96328099Y-113842813D01*
X96393428Y-113899811D01*
X96438106Y-113971916D01*
X96465641Y-114069853D01*
X96479541Y-114204351D01*
X96481378Y-114292853D01*
X96483313Y-114386136D01*
X96482744Y-114463946D01*
G37*
X96482744Y-114463946D02*
X96475612Y-114617254D01*
X96456948Y-114729441D01*
X96422537Y-114812554D01*
X96368162Y-114878641D01*
X96289610Y-114939747D01*
X96239630Y-114967535D01*
X96159513Y-114986251D01*
X96046970Y-114984774D01*
X95984050Y-114978845D01*
X95908153Y-114960742D01*
X95847487Y-114921391D01*
X95776912Y-114848066D01*
X95767482Y-114837356D01*
X95704034Y-114754938D01*
X95673762Y-114683156D01*
X95666034Y-114598034D01*
X95666034Y-114472946D01*
X95753447Y-114505940D01*
X95817175Y-114544509D01*
X95872567Y-114635008D01*
X95884131Y-114663983D01*
X95948788Y-114746041D01*
X96036804Y-114787347D01*
X96132637Y-114783633D01*
X96220747Y-114730632D01*
X96251028Y-114697582D01*
X96278489Y-114647720D01*
X96269899Y-114602416D01*
X96220463Y-114555790D01*
X96125389Y-114501958D01*
X95979885Y-114435039D01*
X95680632Y-114304056D01*
X95672691Y-114174298D01*
X95675676Y-114091649D01*
X95870652Y-114091649D01*
X95885453Y-114142815D01*
X95952797Y-114197442D01*
X96075027Y-114259597D01*
X96095253Y-114268601D01*
X96191970Y-114310493D01*
X96264334Y-114339958D01*
X96297961Y-114351092D01*
X96303056Y-114342896D01*
X96305101Y-114292853D01*
X96297812Y-114212414D01*
X96279452Y-114133753D01*
X96222188Y-114034651D01*
X96139524Y-113978808D01*
X96040784Y-113971250D01*
X95935289Y-114017000D01*
X95906053Y-114039876D01*
X95870652Y-114091649D01*
X95675676Y-114091649D01*
X95676196Y-114077255D01*
X95720336Y-113954617D01*
X95776050Y-113887034D01*
X95891561Y-113811540D01*
X96028588Y-113773403D01*
X96170237Y-113776422D01*
X96299617Y-113824393D01*
X96328099Y-113842813D01*
X96393428Y-113899811D01*
X96438106Y-113971916D01*
X96465641Y-114069853D01*
X96479541Y-114204351D01*
X96481378Y-114292853D01*
X96483313Y-114386136D01*
X96482744Y-114463946D01*
X107063100Y-113716903D02*
X106951550Y-113772522D01*
X106951550Y-113772522D02*
X106853092Y-113874931D01*
X106853092Y-113874931D02*
X106825977Y-113912864D01*
X106825977Y-113912864D02*
X106796438Y-113962500D01*
X106796438Y-113962500D02*
X106777272Y-114016412D01*
X106777272Y-114016412D02*
X106766307Y-114088364D01*
X106766307Y-114088364D02*
X106761371Y-114192122D01*
X106761371Y-114192122D02*
X106760287Y-114329101D01*
X106760287Y-114329101D02*
X106765182Y-114516815D01*
X106765182Y-114516815D02*
X106782196Y-114657758D01*
X106782196Y-114657758D02*
X106814823Y-114762908D01*
X106814823Y-114762908D02*
X106866558Y-114843243D01*
X106866558Y-114843243D02*
X106940896Y-114909741D01*
X106940896Y-114909741D02*
X106946358Y-114913678D01*
X106946358Y-114913678D02*
X107019620Y-114953953D01*
X107019620Y-114953953D02*
X107107840Y-114973880D01*
X107107840Y-114973880D02*
X107220038Y-114978793D01*
X107220038Y-114978793D02*
X107402433Y-114978793D01*
X107402433Y-114978793D02*
X107402509Y-115155857D01*
X107402509Y-115155857D02*
X107404207Y-115254470D01*
X107404207Y-115254470D02*
X107414550Y-115312314D01*
X107414550Y-115312314D02*
X107441578Y-115347006D01*
X107441578Y-115347006D02*
X107493332Y-115376164D01*
X107493332Y-115376164D02*
X107505761Y-115382121D01*
X107505761Y-115382121D02*
X107563923Y-115410039D01*
X107563923Y-115410039D02*
X107608956Y-115427672D01*
X107608956Y-115427672D02*
X107642441Y-115429194D01*
X107642441Y-115429194D02*
X107665962Y-115408781D01*
X107665962Y-115408781D02*
X107681100Y-115360607D01*
X107681100Y-115360607D02*
X107689437Y-115278846D01*
X107689437Y-115278846D02*
X107692556Y-115157672D01*
X107692556Y-115157672D02*
X107692040Y-114991260D01*
X107692040Y-114991260D02*
X107689471Y-114773785D01*
X107689471Y-114773785D02*
X107688668Y-114708736D01*
X107688668Y-114708736D02*
X107685778Y-114484502D01*
X107685778Y-114484502D02*
X107683188Y-114337821D01*
X107683188Y-114337821D02*
X107402586Y-114337821D01*
X107402586Y-114337821D02*
X107401009Y-114462326D01*
X107401009Y-114462326D02*
X107394000Y-114543787D01*
X107394000Y-114543787D02*
X107378142Y-114597515D01*
X107378142Y-114597515D02*
X107350019Y-114638823D01*
X107350019Y-114638823D02*
X107330925Y-114658971D01*
X107330925Y-114658971D02*
X107252865Y-114717921D01*
X107252865Y-114717921D02*
X107183753Y-114722720D01*
X107183753Y-114722720D02*
X107112440Y-114674038D01*
X107112440Y-114674038D02*
X107110632Y-114672241D01*
X107110632Y-114672241D02*
X107081617Y-114634618D01*
X107081617Y-114634618D02*
X107063967Y-114583484D01*
X107063967Y-114583484D02*
X107055064Y-114504738D01*
X107055064Y-114504738D02*
X107052291Y-114384276D01*
X107052291Y-114384276D02*
X107052241Y-114357588D01*
X107052241Y-114357588D02*
X107058942Y-114191583D01*
X107058942Y-114191583D02*
X107080752Y-114076505D01*
X107080752Y-114076505D02*
X107120235Y-114006254D01*
X107120235Y-114006254D02*
X107179956Y-113974729D01*
X107179956Y-113974729D02*
X107214472Y-113971552D01*
X107214472Y-113971552D02*
X107296389Y-113986460D01*
X107296389Y-113986460D02*
X107352579Y-114035548D01*
X107352579Y-114035548D02*
X107386402Y-114125362D01*
X107386402Y-114125362D02*
X107401220Y-114262445D01*
X107401220Y-114262445D02*
X107402586Y-114337821D01*
X107402586Y-114337821D02*
X107683188Y-114337821D01*
X107683188Y-114337821D02*
X107682713Y-114310952D01*
X107682713Y-114310952D02*
X107678753Y-114180382D01*
X107678753Y-114180382D02*
X107673174Y-114085087D01*
X107673174Y-114085087D02*
X107665254Y-114017364D01*
X107665254Y-114017364D02*
X107654269Y-113969507D01*
X107654269Y-113969507D02*
X107639499Y-113933813D01*
X107639499Y-113933813D02*
X107620218Y-113902578D01*
X107620218Y-113902578D02*
X107611951Y-113890824D01*
X107611951Y-113890824D02*
X107502288Y-113779797D01*
X107502288Y-113779797D02*
X107363635Y-113716847D01*
X107363635Y-113716847D02*
X107203246Y-113699297D01*
X107203246Y-113699297D02*
X107063100Y-113716903D01*
X107063100Y-113716903D02*
X107063100Y-113716903D01*
G36*
X107688668Y-114708736D02*
G01*
X107689471Y-114773785D01*
X107692040Y-114991260D01*
X107692556Y-115157672D01*
X107689437Y-115278846D01*
X107681100Y-115360607D01*
X107665962Y-115408781D01*
X107642441Y-115429194D01*
X107608956Y-115427672D01*
X107563923Y-115410039D01*
X107505761Y-115382121D01*
X107493332Y-115376164D01*
X107441578Y-115347006D01*
X107414550Y-115312314D01*
X107404207Y-115254470D01*
X107402509Y-115155857D01*
X107402433Y-114978793D01*
X107220038Y-114978793D01*
X107107840Y-114973880D01*
X107019620Y-114953953D01*
X106946358Y-114913678D01*
X106940896Y-114909741D01*
X106866558Y-114843243D01*
X106814823Y-114762908D01*
X106782196Y-114657758D01*
X106765182Y-114516815D01*
X106761030Y-114357588D01*
X107052241Y-114357588D01*
X107052291Y-114384276D01*
X107055064Y-114504738D01*
X107063967Y-114583484D01*
X107081617Y-114634618D01*
X107110632Y-114672241D01*
X107112440Y-114674038D01*
X107183753Y-114722720D01*
X107252865Y-114717921D01*
X107330925Y-114658971D01*
X107350019Y-114638823D01*
X107378142Y-114597515D01*
X107394000Y-114543787D01*
X107401009Y-114462326D01*
X107402586Y-114337821D01*
X107401220Y-114262445D01*
X107386402Y-114125362D01*
X107352579Y-114035548D01*
X107296389Y-113986460D01*
X107214472Y-113971552D01*
X107179956Y-113974729D01*
X107120235Y-114006254D01*
X107080752Y-114076505D01*
X107058942Y-114191583D01*
X107052241Y-114357588D01*
X106761030Y-114357588D01*
X106760287Y-114329101D01*
X106761371Y-114192122D01*
X106766307Y-114088364D01*
X106777272Y-114016412D01*
X106796438Y-113962500D01*
X106825977Y-113912864D01*
X106853092Y-113874931D01*
X106951550Y-113772522D01*
X107063100Y-113716903D01*
X107203246Y-113699297D01*
X107363635Y-113716847D01*
X107502288Y-113779797D01*
X107611951Y-113890824D01*
X107620218Y-113902578D01*
X107639499Y-113933813D01*
X107654269Y-113969507D01*
X107665254Y-114017364D01*
X107673174Y-114085087D01*
X107678753Y-114180382D01*
X107682713Y-114310952D01*
X107683188Y-114337821D01*
X107685778Y-114484502D01*
X107688668Y-114708736D01*
G37*
X107688668Y-114708736D02*
X107689471Y-114773785D01*
X107692040Y-114991260D01*
X107692556Y-115157672D01*
X107689437Y-115278846D01*
X107681100Y-115360607D01*
X107665962Y-115408781D01*
X107642441Y-115429194D01*
X107608956Y-115427672D01*
X107563923Y-115410039D01*
X107505761Y-115382121D01*
X107493332Y-115376164D01*
X107441578Y-115347006D01*
X107414550Y-115312314D01*
X107404207Y-115254470D01*
X107402509Y-115155857D01*
X107402433Y-114978793D01*
X107220038Y-114978793D01*
X107107840Y-114973880D01*
X107019620Y-114953953D01*
X106946358Y-114913678D01*
X106940896Y-114909741D01*
X106866558Y-114843243D01*
X106814823Y-114762908D01*
X106782196Y-114657758D01*
X106765182Y-114516815D01*
X106761030Y-114357588D01*
X107052241Y-114357588D01*
X107052291Y-114384276D01*
X107055064Y-114504738D01*
X107063967Y-114583484D01*
X107081617Y-114634618D01*
X107110632Y-114672241D01*
X107112440Y-114674038D01*
X107183753Y-114722720D01*
X107252865Y-114717921D01*
X107330925Y-114658971D01*
X107350019Y-114638823D01*
X107378142Y-114597515D01*
X107394000Y-114543787D01*
X107401009Y-114462326D01*
X107402586Y-114337821D01*
X107401220Y-114262445D01*
X107386402Y-114125362D01*
X107352579Y-114035548D01*
X107296389Y-113986460D01*
X107214472Y-113971552D01*
X107179956Y-113974729D01*
X107120235Y-114006254D01*
X107080752Y-114076505D01*
X107058942Y-114191583D01*
X107052241Y-114357588D01*
X106761030Y-114357588D01*
X106760287Y-114329101D01*
X106761371Y-114192122D01*
X106766307Y-114088364D01*
X106777272Y-114016412D01*
X106796438Y-113962500D01*
X106825977Y-113912864D01*
X106853092Y-113874931D01*
X106951550Y-113772522D01*
X107063100Y-113716903D01*
X107203246Y-113699297D01*
X107363635Y-113716847D01*
X107502288Y-113779797D01*
X107611951Y-113890824D01*
X107620218Y-113902578D01*
X107639499Y-113933813D01*
X107654269Y-113969507D01*
X107665254Y-114017364D01*
X107673174Y-114085087D01*
X107678753Y-114180382D01*
X107682713Y-114310952D01*
X107683188Y-114337821D01*
X107685778Y-114484502D01*
X107688668Y-114708736D01*
X103490402Y-113578857D02*
X103481846Y-113698188D01*
X103481846Y-113698188D02*
X103472019Y-113768506D01*
X103472019Y-113768506D02*
X103458401Y-113799179D01*
X103458401Y-113799179D02*
X103438473Y-113799571D01*
X103438473Y-113799571D02*
X103432011Y-113795910D01*
X103432011Y-113795910D02*
X103346060Y-113769398D01*
X103346060Y-113769398D02*
X103234255Y-113770946D01*
X103234255Y-113770946D02*
X103120586Y-113798199D01*
X103120586Y-113798199D02*
X103049490Y-113833455D01*
X103049490Y-113833455D02*
X102976595Y-113889778D01*
X102976595Y-113889778D02*
X102923307Y-113953519D01*
X102923307Y-113953519D02*
X102886725Y-114034510D01*
X102886725Y-114034510D02*
X102863950Y-114142586D01*
X102863950Y-114142586D02*
X102852081Y-114287580D01*
X102852081Y-114287580D02*
X102848218Y-114479326D01*
X102848218Y-114479326D02*
X102848149Y-114516109D01*
X102848149Y-114516109D02*
X102848103Y-114929288D01*
X102848103Y-114929288D02*
X102940046Y-114961339D01*
X102940046Y-114961339D02*
X103005348Y-114983144D01*
X103005348Y-114983144D02*
X103041176Y-114993297D01*
X103041176Y-114993297D02*
X103042230Y-114993391D01*
X103042230Y-114993391D02*
X103045758Y-114965860D01*
X103045758Y-114965860D02*
X103048761Y-114889923D01*
X103048761Y-114889923D02*
X103051010Y-114775565D01*
X103051010Y-114775565D02*
X103052276Y-114632769D01*
X103052276Y-114632769D02*
X103052471Y-114545951D01*
X103052471Y-114545951D02*
X103052877Y-114374773D01*
X103052877Y-114374773D02*
X103054968Y-114252088D01*
X103054968Y-114252088D02*
X103060053Y-114168000D01*
X103060053Y-114168000D02*
X103069440Y-114112614D01*
X103069440Y-114112614D02*
X103084439Y-114076032D01*
X103084439Y-114076032D02*
X103106358Y-114048359D01*
X103106358Y-114048359D02*
X103120043Y-114035032D01*
X103120043Y-114035032D02*
X103214051Y-113981328D01*
X103214051Y-113981328D02*
X103316636Y-113977307D01*
X103316636Y-113977307D02*
X103409710Y-114022725D01*
X103409710Y-114022725D02*
X103426922Y-114039123D01*
X103426922Y-114039123D02*
X103452168Y-114069957D01*
X103452168Y-114069957D02*
X103469680Y-114106531D01*
X103469680Y-114106531D02*
X103480858Y-114159415D01*
X103480858Y-114159415D02*
X103487104Y-114239177D01*
X103487104Y-114239177D02*
X103489818Y-114356385D01*
X103489818Y-114356385D02*
X103490402Y-114517991D01*
X103490402Y-114517991D02*
X103490402Y-114929288D01*
X103490402Y-114929288D02*
X103582345Y-114961339D01*
X103582345Y-114961339D02*
X103647647Y-114983144D01*
X103647647Y-114983144D02*
X103683475Y-114993297D01*
X103683475Y-114993297D02*
X103684529Y-114993391D01*
X103684529Y-114993391D02*
X103687225Y-114965448D01*
X103687225Y-114965448D02*
X103689655Y-114886630D01*
X103689655Y-114886630D02*
X103691722Y-114764453D01*
X103691722Y-114764453D02*
X103693329Y-114606432D01*
X103693329Y-114606432D02*
X103694377Y-114420083D01*
X103694377Y-114420083D02*
X103694769Y-114212920D01*
X103694769Y-114212920D02*
X103694770Y-114203706D01*
X103694770Y-114203706D02*
X103694770Y-113414020D01*
X103694770Y-113414020D02*
X103599885Y-113373997D01*
X103599885Y-113373997D02*
X103505000Y-113333973D01*
X103505000Y-113333973D02*
X103490402Y-113578857D01*
X103490402Y-113578857D02*
X103490402Y-113578857D01*
G36*
X103599885Y-113373997D02*
G01*
X103694770Y-113414020D01*
X103694770Y-114203706D01*
X103694769Y-114212920D01*
X103694377Y-114420083D01*
X103693329Y-114606432D01*
X103691722Y-114764453D01*
X103689655Y-114886630D01*
X103687225Y-114965448D01*
X103684529Y-114993391D01*
X103683475Y-114993297D01*
X103647647Y-114983144D01*
X103582345Y-114961339D01*
X103490402Y-114929288D01*
X103490402Y-114517991D01*
X103489818Y-114356385D01*
X103487104Y-114239177D01*
X103480858Y-114159415D01*
X103469680Y-114106531D01*
X103452168Y-114069957D01*
X103426922Y-114039123D01*
X103409710Y-114022725D01*
X103316636Y-113977307D01*
X103214051Y-113981328D01*
X103120043Y-114035032D01*
X103106358Y-114048359D01*
X103084439Y-114076032D01*
X103069440Y-114112614D01*
X103060053Y-114168000D01*
X103054968Y-114252088D01*
X103052877Y-114374773D01*
X103052471Y-114545951D01*
X103052276Y-114632769D01*
X103051010Y-114775565D01*
X103048761Y-114889923D01*
X103045758Y-114965860D01*
X103042230Y-114993391D01*
X103041176Y-114993297D01*
X103005348Y-114983144D01*
X102940046Y-114961339D01*
X102848103Y-114929288D01*
X102848149Y-114516109D01*
X102848218Y-114479326D01*
X102852081Y-114287580D01*
X102863950Y-114142586D01*
X102886725Y-114034510D01*
X102923307Y-113953519D01*
X102976595Y-113889778D01*
X103049490Y-113833455D01*
X103120586Y-113798199D01*
X103234255Y-113770946D01*
X103346060Y-113769398D01*
X103432011Y-113795910D01*
X103438473Y-113799571D01*
X103458401Y-113799179D01*
X103472019Y-113768506D01*
X103481846Y-113698188D01*
X103490402Y-113578857D01*
X103505000Y-113333973D01*
X103599885Y-113373997D01*
G37*
X103599885Y-113373997D02*
X103694770Y-113414020D01*
X103694770Y-114203706D01*
X103694769Y-114212920D01*
X103694377Y-114420083D01*
X103693329Y-114606432D01*
X103691722Y-114764453D01*
X103689655Y-114886630D01*
X103687225Y-114965448D01*
X103684529Y-114993391D01*
X103683475Y-114993297D01*
X103647647Y-114983144D01*
X103582345Y-114961339D01*
X103490402Y-114929288D01*
X103490402Y-114517991D01*
X103489818Y-114356385D01*
X103487104Y-114239177D01*
X103480858Y-114159415D01*
X103469680Y-114106531D01*
X103452168Y-114069957D01*
X103426922Y-114039123D01*
X103409710Y-114022725D01*
X103316636Y-113977307D01*
X103214051Y-113981328D01*
X103120043Y-114035032D01*
X103106358Y-114048359D01*
X103084439Y-114076032D01*
X103069440Y-114112614D01*
X103060053Y-114168000D01*
X103054968Y-114252088D01*
X103052877Y-114374773D01*
X103052471Y-114545951D01*
X103052276Y-114632769D01*
X103051010Y-114775565D01*
X103048761Y-114889923D01*
X103045758Y-114965860D01*
X103042230Y-114993391D01*
X103041176Y-114993297D01*
X103005348Y-114983144D01*
X102940046Y-114961339D01*
X102848103Y-114929288D01*
X102848149Y-114516109D01*
X102848218Y-114479326D01*
X102852081Y-114287580D01*
X102863950Y-114142586D01*
X102886725Y-114034510D01*
X102923307Y-113953519D01*
X102976595Y-113889778D01*
X103049490Y-113833455D01*
X103120586Y-113798199D01*
X103234255Y-113770946D01*
X103346060Y-113769398D01*
X103432011Y-113795910D01*
X103438473Y-113799571D01*
X103458401Y-113799179D01*
X103472019Y-113768506D01*
X103481846Y-113698188D01*
X103490402Y-113578857D01*
X103505000Y-113333973D01*
X103599885Y-113373997D01*
X105919448Y-113739676D02*
X105804342Y-113817111D01*
X105804342Y-113817111D02*
X105715389Y-113928949D01*
X105715389Y-113928949D02*
X105662251Y-114071265D01*
X105662251Y-114071265D02*
X105651503Y-114176015D01*
X105651503Y-114176015D02*
X105652724Y-114219726D01*
X105652724Y-114219726D02*
X105662944Y-114253194D01*
X105662944Y-114253194D02*
X105691039Y-114283179D01*
X105691039Y-114283179D02*
X105745884Y-114316440D01*
X105745884Y-114316440D02*
X105836355Y-114359738D01*
X105836355Y-114359738D02*
X105971328Y-114419833D01*
X105971328Y-114419833D02*
X105972011Y-114420134D01*
X105972011Y-114420134D02*
X106096249Y-114477037D01*
X106096249Y-114477037D02*
X106198127Y-114527565D01*
X106198127Y-114527565D02*
X106267233Y-114566280D01*
X106267233Y-114566280D02*
X106293154Y-114587740D01*
X106293154Y-114587740D02*
X106293161Y-114587913D01*
X106293161Y-114587913D02*
X106270315Y-114634644D01*
X106270315Y-114634644D02*
X106216891Y-114686154D01*
X106216891Y-114686154D02*
X106155558Y-114723261D01*
X106155558Y-114723261D02*
X106124485Y-114730632D01*
X106124485Y-114730632D02*
X106039711Y-114705138D01*
X106039711Y-114705138D02*
X105966707Y-114641291D01*
X105966707Y-114641291D02*
X105931087Y-114571094D01*
X105931087Y-114571094D02*
X105896820Y-114519343D01*
X105896820Y-114519343D02*
X105829697Y-114460409D01*
X105829697Y-114460409D02*
X105750792Y-114409496D01*
X105750792Y-114409496D02*
X105681179Y-114381809D01*
X105681179Y-114381809D02*
X105666623Y-114380287D01*
X105666623Y-114380287D02*
X105650237Y-114405321D01*
X105650237Y-114405321D02*
X105649250Y-114469311D01*
X105649250Y-114469311D02*
X105661292Y-114555593D01*
X105661292Y-114555593D02*
X105683993Y-114647501D01*
X105683993Y-114647501D02*
X105714986Y-114728369D01*
X105714986Y-114728369D02*
X105716552Y-114731509D01*
X105716552Y-114731509D02*
X105809819Y-114861734D01*
X105809819Y-114861734D02*
X105930696Y-114950311D01*
X105930696Y-114950311D02*
X106067973Y-114993786D01*
X106067973Y-114993786D02*
X106210440Y-114988706D01*
X106210440Y-114988706D02*
X106346888Y-114931616D01*
X106346888Y-114931616D02*
X106352955Y-114927602D01*
X106352955Y-114927602D02*
X106460290Y-114830326D01*
X106460290Y-114830326D02*
X106530868Y-114703409D01*
X106530868Y-114703409D02*
X106569926Y-114536526D01*
X106569926Y-114536526D02*
X106575168Y-114489639D01*
X106575168Y-114489639D02*
X106584452Y-114268329D01*
X106584452Y-114268329D02*
X106573322Y-114165124D01*
X106573322Y-114165124D02*
X106293161Y-114165124D01*
X106293161Y-114165124D02*
X106289521Y-114229503D01*
X106289521Y-114229503D02*
X106269611Y-114248291D01*
X106269611Y-114248291D02*
X106219974Y-114234235D01*
X106219974Y-114234235D02*
X106141733Y-114201009D01*
X106141733Y-114201009D02*
X106054274Y-114159359D01*
X106054274Y-114159359D02*
X106052101Y-114158256D01*
X106052101Y-114158256D02*
X105977970Y-114119265D01*
X105977970Y-114119265D02*
X105948219Y-114093244D01*
X105948219Y-114093244D02*
X105955555Y-114065965D01*
X105955555Y-114065965D02*
X105986447Y-114030121D01*
X105986447Y-114030121D02*
X106065040Y-113978251D01*
X106065040Y-113978251D02*
X106149677Y-113974439D01*
X106149677Y-113974439D02*
X106225597Y-114012189D01*
X106225597Y-114012189D02*
X106278035Y-114085001D01*
X106278035Y-114085001D02*
X106293161Y-114165124D01*
X106293161Y-114165124D02*
X106573322Y-114165124D01*
X106573322Y-114165124D02*
X106565356Y-114091261D01*
X106565356Y-114091261D02*
X106516366Y-113950829D01*
X106516366Y-113950829D02*
X106448164Y-113852447D01*
X106448164Y-113852447D02*
X106325065Y-113753030D01*
X106325065Y-113753030D02*
X106189472Y-113703711D01*
X106189472Y-113703711D02*
X106051045Y-113700568D01*
X106051045Y-113700568D02*
X105919448Y-113739676D01*
X105919448Y-113739676D02*
X105919448Y-113739676D01*
G36*
X106575168Y-114489639D02*
G01*
X106569926Y-114536526D01*
X106530868Y-114703409D01*
X106460290Y-114830326D01*
X106352955Y-114927602D01*
X106346888Y-114931616D01*
X106210440Y-114988706D01*
X106067973Y-114993786D01*
X105930696Y-114950311D01*
X105809819Y-114861734D01*
X105716552Y-114731509D01*
X105714986Y-114728369D01*
X105683993Y-114647501D01*
X105661292Y-114555593D01*
X105649250Y-114469311D01*
X105650237Y-114405321D01*
X105666623Y-114380287D01*
X105681179Y-114381809D01*
X105750792Y-114409496D01*
X105829697Y-114460409D01*
X105896820Y-114519343D01*
X105931087Y-114571094D01*
X105966707Y-114641291D01*
X106039711Y-114705138D01*
X106124485Y-114730632D01*
X106155558Y-114723261D01*
X106216891Y-114686154D01*
X106270315Y-114634644D01*
X106293161Y-114587913D01*
X106293154Y-114587740D01*
X106267233Y-114566280D01*
X106198127Y-114527565D01*
X106096249Y-114477037D01*
X105972011Y-114420134D01*
X105971328Y-114419833D01*
X105836355Y-114359738D01*
X105745884Y-114316440D01*
X105691039Y-114283179D01*
X105662944Y-114253194D01*
X105652724Y-114219726D01*
X105651503Y-114176015D01*
X105659996Y-114093244D01*
X105948219Y-114093244D01*
X105977970Y-114119265D01*
X106052101Y-114158256D01*
X106054274Y-114159359D01*
X106141733Y-114201009D01*
X106219974Y-114234235D01*
X106269611Y-114248291D01*
X106289521Y-114229503D01*
X106293161Y-114165124D01*
X106278035Y-114085001D01*
X106225597Y-114012189D01*
X106149677Y-113974439D01*
X106065040Y-113978251D01*
X105986447Y-114030121D01*
X105955555Y-114065965D01*
X105948219Y-114093244D01*
X105659996Y-114093244D01*
X105662251Y-114071265D01*
X105715389Y-113928949D01*
X105804342Y-113817111D01*
X105919448Y-113739676D01*
X106051045Y-113700568D01*
X106189472Y-113703711D01*
X106325065Y-113753030D01*
X106448164Y-113852447D01*
X106516366Y-113950829D01*
X106565356Y-114091261D01*
X106573322Y-114165124D01*
X106584452Y-114268329D01*
X106575168Y-114489639D01*
G37*
X106575168Y-114489639D02*
X106569926Y-114536526D01*
X106530868Y-114703409D01*
X106460290Y-114830326D01*
X106352955Y-114927602D01*
X106346888Y-114931616D01*
X106210440Y-114988706D01*
X106067973Y-114993786D01*
X105930696Y-114950311D01*
X105809819Y-114861734D01*
X105716552Y-114731509D01*
X105714986Y-114728369D01*
X105683993Y-114647501D01*
X105661292Y-114555593D01*
X105649250Y-114469311D01*
X105650237Y-114405321D01*
X105666623Y-114380287D01*
X105681179Y-114381809D01*
X105750792Y-114409496D01*
X105829697Y-114460409D01*
X105896820Y-114519343D01*
X105931087Y-114571094D01*
X105966707Y-114641291D01*
X106039711Y-114705138D01*
X106124485Y-114730632D01*
X106155558Y-114723261D01*
X106216891Y-114686154D01*
X106270315Y-114634644D01*
X106293161Y-114587913D01*
X106293154Y-114587740D01*
X106267233Y-114566280D01*
X106198127Y-114527565D01*
X106096249Y-114477037D01*
X105972011Y-114420134D01*
X105971328Y-114419833D01*
X105836355Y-114359738D01*
X105745884Y-114316440D01*
X105691039Y-114283179D01*
X105662944Y-114253194D01*
X105652724Y-114219726D01*
X105651503Y-114176015D01*
X105659996Y-114093244D01*
X105948219Y-114093244D01*
X105977970Y-114119265D01*
X106052101Y-114158256D01*
X106054274Y-114159359D01*
X106141733Y-114201009D01*
X106219974Y-114234235D01*
X106269611Y-114248291D01*
X106289521Y-114229503D01*
X106293161Y-114165124D01*
X106278035Y-114085001D01*
X106225597Y-114012189D01*
X106149677Y-113974439D01*
X106065040Y-113978251D01*
X105986447Y-114030121D01*
X105955555Y-114065965D01*
X105948219Y-114093244D01*
X105659996Y-114093244D01*
X105662251Y-114071265D01*
X105715389Y-113928949D01*
X105804342Y-113817111D01*
X105919448Y-113739676D01*
X106051045Y-113700568D01*
X106189472Y-113703711D01*
X106325065Y-113753030D01*
X106448164Y-113852447D01*
X106516366Y-113950829D01*
X106565356Y-114091261D01*
X106573322Y-114165124D01*
X106584452Y-114268329D01*
X106575168Y-114489639D01*
X108186779Y-113721015D02*
X108049939Y-113792968D01*
X108049939Y-113792968D02*
X107948949Y-113908766D01*
X107948949Y-113908766D02*
X107913075Y-113983213D01*
X107913075Y-113983213D02*
X107885161Y-114094992D01*
X107885161Y-114094992D02*
X107870871Y-114236227D01*
X107870871Y-114236227D02*
X107869516Y-114390371D01*
X107869516Y-114390371D02*
X107880405Y-114540879D01*
X107880405Y-114540879D02*
X107902847Y-114671205D01*
X107902847Y-114671205D02*
X107936150Y-114764803D01*
X107936150Y-114764803D02*
X107946385Y-114780922D01*
X107946385Y-114780922D02*
X108067618Y-114901249D01*
X108067618Y-114901249D02*
X108211613Y-114973317D01*
X108211613Y-114973317D02*
X108367861Y-114994408D01*
X108367861Y-114994408D02*
X108525852Y-114961802D01*
X108525852Y-114961802D02*
X108569820Y-114942253D01*
X108569820Y-114942253D02*
X108655444Y-114882012D01*
X108655444Y-114882012D02*
X108730592Y-114802135D01*
X108730592Y-114802135D02*
X108737694Y-114792004D01*
X108737694Y-114792004D02*
X108766561Y-114743181D01*
X108766561Y-114743181D02*
X108785643Y-114690990D01*
X108785643Y-114690990D02*
X108796916Y-114622285D01*
X108796916Y-114622285D02*
X108802355Y-114523918D01*
X108802355Y-114523918D02*
X108803938Y-114382744D01*
X108803938Y-114382744D02*
X108803965Y-114351092D01*
X108803965Y-114351092D02*
X108803893Y-114341019D01*
X108803893Y-114341019D02*
X108512011Y-114341019D01*
X108512011Y-114341019D02*
X108510313Y-114474256D01*
X108510313Y-114474256D02*
X108503628Y-114562674D01*
X108503628Y-114562674D02*
X108489575Y-114619785D01*
X108489575Y-114619785D02*
X108465771Y-114659102D01*
X108465771Y-114659102D02*
X108453621Y-114672241D01*
X108453621Y-114672241D02*
X108383764Y-114722172D01*
X108383764Y-114722172D02*
X108315941Y-114719895D01*
X108315941Y-114719895D02*
X108247365Y-114676584D01*
X108247365Y-114676584D02*
X108206465Y-114630346D01*
X108206465Y-114630346D02*
X108182242Y-114562857D01*
X108182242Y-114562857D02*
X108168639Y-114456433D01*
X108168639Y-114456433D02*
X108167706Y-114444020D01*
X108167706Y-114444020D02*
X108165384Y-114251147D01*
X108165384Y-114251147D02*
X108189650Y-114107900D01*
X108189650Y-114107900D02*
X108240176Y-114015160D01*
X108240176Y-114015160D02*
X108316632Y-113973807D01*
X108316632Y-113973807D02*
X108343924Y-113971552D01*
X108343924Y-113971552D02*
X108415589Y-113982893D01*
X108415589Y-113982893D02*
X108464610Y-114022184D01*
X108464610Y-114022184D02*
X108494582Y-114097326D01*
X108494582Y-114097326D02*
X108509101Y-114216222D01*
X108509101Y-114216222D02*
X108512011Y-114341019D01*
X108512011Y-114341019D02*
X108803893Y-114341019D01*
X108803893Y-114341019D02*
X108802878Y-114200659D01*
X108802878Y-114200659D02*
X108798312Y-114095549D01*
X108798312Y-114095549D02*
X108788312Y-114022714D01*
X108788312Y-114022714D02*
X108770921Y-113969108D01*
X108770921Y-113969108D02*
X108744184Y-113921681D01*
X108744184Y-113921681D02*
X108738276Y-113912864D01*
X108738276Y-113912864D02*
X108638968Y-113794007D01*
X108638968Y-113794007D02*
X108530758Y-113725008D01*
X108530758Y-113725008D02*
X108399019Y-113697619D01*
X108399019Y-113697619D02*
X108354283Y-113696281D01*
X108354283Y-113696281D02*
X108186779Y-113721015D01*
X108186779Y-113721015D02*
X108186779Y-113721015D01*
G36*
X108803938Y-114382744D02*
G01*
X108802355Y-114523918D01*
X108796916Y-114622285D01*
X108785643Y-114690990D01*
X108766561Y-114743181D01*
X108737694Y-114792004D01*
X108730592Y-114802135D01*
X108655444Y-114882012D01*
X108569820Y-114942253D01*
X108525852Y-114961802D01*
X108367861Y-114994408D01*
X108211613Y-114973317D01*
X108067618Y-114901249D01*
X107946385Y-114780922D01*
X107936150Y-114764803D01*
X107902847Y-114671205D01*
X107880405Y-114540879D01*
X107869516Y-114390371D01*
X107870740Y-114251147D01*
X108165384Y-114251147D01*
X108167706Y-114444020D01*
X108168639Y-114456433D01*
X108182242Y-114562857D01*
X108206465Y-114630346D01*
X108247365Y-114676584D01*
X108315941Y-114719895D01*
X108383764Y-114722172D01*
X108453621Y-114672241D01*
X108465771Y-114659102D01*
X108489575Y-114619785D01*
X108503628Y-114562674D01*
X108510313Y-114474256D01*
X108512011Y-114341019D01*
X108509101Y-114216222D01*
X108494582Y-114097326D01*
X108464610Y-114022184D01*
X108415589Y-113982893D01*
X108343924Y-113971552D01*
X108316632Y-113973807D01*
X108240176Y-114015160D01*
X108189650Y-114107900D01*
X108165384Y-114251147D01*
X107870740Y-114251147D01*
X107870871Y-114236227D01*
X107885161Y-114094992D01*
X107913075Y-113983213D01*
X107948949Y-113908766D01*
X108049939Y-113792968D01*
X108186779Y-113721015D01*
X108354283Y-113696281D01*
X108399019Y-113697619D01*
X108530758Y-113725008D01*
X108638968Y-113794007D01*
X108738276Y-113912864D01*
X108744184Y-113921681D01*
X108770921Y-113969108D01*
X108788312Y-114022714D01*
X108798312Y-114095549D01*
X108802878Y-114200659D01*
X108803893Y-114341019D01*
X108803965Y-114351092D01*
X108803938Y-114382744D01*
G37*
X108803938Y-114382744D02*
X108802355Y-114523918D01*
X108796916Y-114622285D01*
X108785643Y-114690990D01*
X108766561Y-114743181D01*
X108737694Y-114792004D01*
X108730592Y-114802135D01*
X108655444Y-114882012D01*
X108569820Y-114942253D01*
X108525852Y-114961802D01*
X108367861Y-114994408D01*
X108211613Y-114973317D01*
X108067618Y-114901249D01*
X107946385Y-114780922D01*
X107936150Y-114764803D01*
X107902847Y-114671205D01*
X107880405Y-114540879D01*
X107869516Y-114390371D01*
X107870740Y-114251147D01*
X108165384Y-114251147D01*
X108167706Y-114444020D01*
X108168639Y-114456433D01*
X108182242Y-114562857D01*
X108206465Y-114630346D01*
X108247365Y-114676584D01*
X108315941Y-114719895D01*
X108383764Y-114722172D01*
X108453621Y-114672241D01*
X108465771Y-114659102D01*
X108489575Y-114619785D01*
X108503628Y-114562674D01*
X108510313Y-114474256D01*
X108512011Y-114341019D01*
X108509101Y-114216222D01*
X108494582Y-114097326D01*
X108464610Y-114022184D01*
X108415589Y-113982893D01*
X108343924Y-113971552D01*
X108316632Y-113973807D01*
X108240176Y-114015160D01*
X108189650Y-114107900D01*
X108165384Y-114251147D01*
X107870740Y-114251147D01*
X107870871Y-114236227D01*
X107885161Y-114094992D01*
X107913075Y-113983213D01*
X107948949Y-113908766D01*
X108049939Y-113792968D01*
X108186779Y-113721015D01*
X108354283Y-113696281D01*
X108399019Y-113697619D01*
X108530758Y-113725008D01*
X108638968Y-113794007D01*
X108738276Y-113912864D01*
X108744184Y-113921681D01*
X108770921Y-113969108D01*
X108788312Y-114022714D01*
X108798312Y-114095549D01*
X108802878Y-114200659D01*
X108803893Y-114341019D01*
X108803965Y-114351092D01*
X108803938Y-114382744D01*
X102155056Y-113779360D02*
X102040657Y-113821842D01*
X102040657Y-113821842D02*
X102039348Y-113822658D01*
X102039348Y-113822658D02*
X101968597Y-113874730D01*
X101968597Y-113874730D02*
X101916364Y-113935584D01*
X101916364Y-113935584D02*
X101879629Y-114014887D01*
X101879629Y-114014887D02*
X101855366Y-114122309D01*
X101855366Y-114122309D02*
X101840555Y-114267517D01*
X101840555Y-114267517D02*
X101832171Y-114460179D01*
X101832171Y-114460179D02*
X101831436Y-114487628D01*
X101831436Y-114487628D02*
X101820880Y-114901521D01*
X101820880Y-114901521D02*
X101909709Y-114947456D01*
X101909709Y-114947456D02*
X101973982Y-114978498D01*
X101973982Y-114978498D02*
X102012790Y-114993206D01*
X102012790Y-114993206D02*
X102014585Y-114993391D01*
X102014585Y-114993391D02*
X102021300Y-114966250D01*
X102021300Y-114966250D02*
X102026635Y-114893041D01*
X102026635Y-114893041D02*
X102029917Y-114786081D01*
X102029917Y-114786081D02*
X102030632Y-114699469D01*
X102030632Y-114699469D02*
X102030649Y-114559162D01*
X102030649Y-114559162D02*
X102037063Y-114471051D01*
X102037063Y-114471051D02*
X102059420Y-114429025D01*
X102059420Y-114429025D02*
X102107268Y-114426975D01*
X102107268Y-114426975D02*
X102190151Y-114458790D01*
X102190151Y-114458790D02*
X102315287Y-114517272D01*
X102315287Y-114517272D02*
X102407303Y-114565845D01*
X102407303Y-114565845D02*
X102454629Y-114607986D01*
X102454629Y-114607986D02*
X102468542Y-114653916D01*
X102468542Y-114653916D02*
X102468563Y-114656189D01*
X102468563Y-114656189D02*
X102445605Y-114735311D01*
X102445605Y-114735311D02*
X102377630Y-114778055D01*
X102377630Y-114778055D02*
X102273602Y-114784246D01*
X102273602Y-114784246D02*
X102198670Y-114783172D01*
X102198670Y-114783172D02*
X102159161Y-114804753D01*
X102159161Y-114804753D02*
X102134522Y-114856591D01*
X102134522Y-114856591D02*
X102120341Y-114922632D01*
X102120341Y-114922632D02*
X102140777Y-114960104D01*
X102140777Y-114960104D02*
X102148472Y-114965467D01*
X102148472Y-114965467D02*
X102220917Y-114987006D01*
X102220917Y-114987006D02*
X102322367Y-114990055D01*
X102322367Y-114990055D02*
X102426843Y-114975778D01*
X102426843Y-114975778D02*
X102500875Y-114949688D01*
X102500875Y-114949688D02*
X102603228Y-114862785D01*
X102603228Y-114862785D02*
X102661409Y-114741816D01*
X102661409Y-114741816D02*
X102672931Y-114647308D01*
X102672931Y-114647308D02*
X102664138Y-114562062D01*
X102664138Y-114562062D02*
X102632320Y-114492476D01*
X102632320Y-114492476D02*
X102569316Y-114430672D01*
X102569316Y-114430672D02*
X102466969Y-114368772D01*
X102466969Y-114368772D02*
X102317118Y-114298897D01*
X102317118Y-114298897D02*
X102307988Y-114294948D01*
X102307988Y-114294948D02*
X102173003Y-114232588D01*
X102173003Y-114232588D02*
X102089706Y-114181446D01*
X102089706Y-114181446D02*
X102054003Y-114135488D01*
X102054003Y-114135488D02*
X102061797Y-114088683D01*
X102061797Y-114088683D02*
X102108993Y-114034998D01*
X102108993Y-114034998D02*
X102123106Y-114022644D01*
X102123106Y-114022644D02*
X102217641Y-113974741D01*
X102217641Y-113974741D02*
X102315594Y-113976758D01*
X102315594Y-113976758D02*
X102400903Y-114023724D01*
X102400903Y-114023724D02*
X102457504Y-114110669D01*
X102457504Y-114110669D02*
X102462763Y-114127734D01*
X102462763Y-114127734D02*
X102513977Y-114210504D01*
X102513977Y-114210504D02*
X102578963Y-114250372D01*
X102578963Y-114250372D02*
X102672931Y-114289882D01*
X102672931Y-114289882D02*
X102672931Y-114187658D01*
X102672931Y-114187658D02*
X102644347Y-114039072D01*
X102644347Y-114039072D02*
X102559505Y-113902784D01*
X102559505Y-113902784D02*
X102515355Y-113857191D01*
X102515355Y-113857191D02*
X102414995Y-113798674D01*
X102414995Y-113798674D02*
X102287365Y-113772184D01*
X102287365Y-113772184D02*
X102155056Y-113779360D01*
X102155056Y-113779360D02*
X102155056Y-113779360D01*
G36*
X102414995Y-113798674D02*
G01*
X102515355Y-113857191D01*
X102559505Y-113902784D01*
X102644347Y-114039072D01*
X102672931Y-114187658D01*
X102672931Y-114289882D01*
X102578963Y-114250372D01*
X102513977Y-114210504D01*
X102462763Y-114127734D01*
X102457504Y-114110669D01*
X102400903Y-114023724D01*
X102315594Y-113976758D01*
X102217641Y-113974741D01*
X102123106Y-114022644D01*
X102108993Y-114034998D01*
X102061797Y-114088683D01*
X102054003Y-114135488D01*
X102089706Y-114181446D01*
X102173003Y-114232588D01*
X102307988Y-114294948D01*
X102317118Y-114298897D01*
X102466969Y-114368772D01*
X102569316Y-114430672D01*
X102632320Y-114492476D01*
X102664138Y-114562062D01*
X102672931Y-114647308D01*
X102661409Y-114741816D01*
X102603228Y-114862785D01*
X102500875Y-114949688D01*
X102426843Y-114975778D01*
X102322367Y-114990055D01*
X102220917Y-114987006D01*
X102148472Y-114965467D01*
X102140777Y-114960104D01*
X102120341Y-114922632D01*
X102134522Y-114856591D01*
X102159161Y-114804753D01*
X102198670Y-114783172D01*
X102273602Y-114784246D01*
X102377630Y-114778055D01*
X102445605Y-114735311D01*
X102468563Y-114656189D01*
X102468542Y-114653916D01*
X102454629Y-114607986D01*
X102407303Y-114565845D01*
X102315287Y-114517272D01*
X102190151Y-114458790D01*
X102107268Y-114426975D01*
X102059420Y-114429025D01*
X102037063Y-114471051D01*
X102030649Y-114559162D01*
X102030632Y-114699469D01*
X102029917Y-114786081D01*
X102026635Y-114893041D01*
X102021300Y-114966250D01*
X102014585Y-114993391D01*
X102012790Y-114993206D01*
X101973982Y-114978498D01*
X101909709Y-114947456D01*
X101820880Y-114901521D01*
X101831436Y-114487628D01*
X101832171Y-114460179D01*
X101840555Y-114267517D01*
X101855366Y-114122309D01*
X101879629Y-114014887D01*
X101916364Y-113935584D01*
X101968597Y-113874730D01*
X102039348Y-113822658D01*
X102040657Y-113821842D01*
X102155056Y-113779360D01*
X102287365Y-113772184D01*
X102414995Y-113798674D01*
G37*
X102414995Y-113798674D02*
X102515355Y-113857191D01*
X102559505Y-113902784D01*
X102644347Y-114039072D01*
X102672931Y-114187658D01*
X102672931Y-114289882D01*
X102578963Y-114250372D01*
X102513977Y-114210504D01*
X102462763Y-114127734D01*
X102457504Y-114110669D01*
X102400903Y-114023724D01*
X102315594Y-113976758D01*
X102217641Y-113974741D01*
X102123106Y-114022644D01*
X102108993Y-114034998D01*
X102061797Y-114088683D01*
X102054003Y-114135488D01*
X102089706Y-114181446D01*
X102173003Y-114232588D01*
X102307988Y-114294948D01*
X102317118Y-114298897D01*
X102466969Y-114368772D01*
X102569316Y-114430672D01*
X102632320Y-114492476D01*
X102664138Y-114562062D01*
X102672931Y-114647308D01*
X102661409Y-114741816D01*
X102603228Y-114862785D01*
X102500875Y-114949688D01*
X102426843Y-114975778D01*
X102322367Y-114990055D01*
X102220917Y-114987006D01*
X102148472Y-114965467D01*
X102140777Y-114960104D01*
X102120341Y-114922632D01*
X102134522Y-114856591D01*
X102159161Y-114804753D01*
X102198670Y-114783172D01*
X102273602Y-114784246D01*
X102377630Y-114778055D01*
X102445605Y-114735311D01*
X102468563Y-114656189D01*
X102468542Y-114653916D01*
X102454629Y-114607986D01*
X102407303Y-114565845D01*
X102315287Y-114517272D01*
X102190151Y-114458790D01*
X102107268Y-114426975D01*
X102059420Y-114429025D01*
X102037063Y-114471051D01*
X102030649Y-114559162D01*
X102030632Y-114699469D01*
X102029917Y-114786081D01*
X102026635Y-114893041D01*
X102021300Y-114966250D01*
X102014585Y-114993391D01*
X102012790Y-114993206D01*
X101973982Y-114978498D01*
X101909709Y-114947456D01*
X101820880Y-114901521D01*
X101831436Y-114487628D01*
X101832171Y-114460179D01*
X101840555Y-114267517D01*
X101855366Y-114122309D01*
X101879629Y-114014887D01*
X101916364Y-113935584D01*
X101968597Y-113874730D01*
X102039348Y-113822658D01*
X102040657Y-113821842D01*
X102155056Y-113779360D01*
X102287365Y-113772184D01*
X102414995Y-113798674D01*
X104817571Y-113732719D02*
X104723877Y-113786914D01*
X104723877Y-113786914D02*
X104658736Y-113840707D01*
X104658736Y-113840707D02*
X104611093Y-113897066D01*
X104611093Y-113897066D02*
X104578272Y-113965987D01*
X104578272Y-113965987D02*
X104557594Y-114057468D01*
X104557594Y-114057468D02*
X104546380Y-114181506D01*
X104546380Y-114181506D02*
X104541951Y-114348098D01*
X104541951Y-114348098D02*
X104541437Y-114467851D01*
X104541437Y-114467851D02*
X104541437Y-114908659D01*
X104541437Y-114908659D02*
X104665517Y-114964283D01*
X104665517Y-114964283D02*
X104789598Y-115019907D01*
X104789598Y-115019907D02*
X104804195Y-114537095D01*
X104804195Y-114537095D02*
X104810227Y-114356779D01*
X104810227Y-114356779D02*
X104816555Y-114225901D01*
X104816555Y-114225901D02*
X104824394Y-114135511D01*
X104824394Y-114135511D02*
X104834963Y-114076664D01*
X104834963Y-114076664D02*
X104849477Y-114040413D01*
X104849477Y-114040413D02*
X104869152Y-114017810D01*
X104869152Y-114017810D02*
X104875465Y-114012917D01*
X104875465Y-114012917D02*
X104971112Y-113974706D01*
X104971112Y-113974706D02*
X105067793Y-113989827D01*
X105067793Y-113989827D02*
X105125345Y-114029943D01*
X105125345Y-114029943D02*
X105148755Y-114058370D01*
X105148755Y-114058370D02*
X105164961Y-114095672D01*
X105164961Y-114095672D02*
X105175259Y-114152223D01*
X105175259Y-114152223D02*
X105180951Y-114238394D01*
X105180951Y-114238394D02*
X105183336Y-114364558D01*
X105183336Y-114364558D02*
X105183736Y-114496042D01*
X105183736Y-114496042D02*
X105183814Y-114660999D01*
X105183814Y-114660999D02*
X105186639Y-114777761D01*
X105186639Y-114777761D02*
X105196093Y-114856510D01*
X105196093Y-114856510D02*
X105216060Y-114907431D01*
X105216060Y-114907431D02*
X105250424Y-114940706D01*
X105250424Y-114940706D02*
X105303068Y-114966520D01*
X105303068Y-114966520D02*
X105373383Y-114993344D01*
X105373383Y-114993344D02*
X105450180Y-115022542D01*
X105450180Y-115022542D02*
X105441038Y-114504346D01*
X105441038Y-114504346D02*
X105437357Y-114317539D01*
X105437357Y-114317539D02*
X105433050Y-114179490D01*
X105433050Y-114179490D02*
X105426877Y-114080568D01*
X105426877Y-114080568D02*
X105417598Y-114011145D01*
X105417598Y-114011145D02*
X105403973Y-113961590D01*
X105403973Y-113961590D02*
X105384761Y-113922273D01*
X105384761Y-113922273D02*
X105361598Y-113887584D01*
X105361598Y-113887584D02*
X105249848Y-113776770D01*
X105249848Y-113776770D02*
X105113487Y-113712689D01*
X105113487Y-113712689D02*
X104965175Y-113697339D01*
X104965175Y-113697339D02*
X104817571Y-113732719D01*
X104817571Y-113732719D02*
X104817571Y-113732719D01*
G36*
X105113487Y-113712689D02*
G01*
X105249848Y-113776770D01*
X105361598Y-113887584D01*
X105384761Y-113922273D01*
X105403973Y-113961590D01*
X105417598Y-114011145D01*
X105426877Y-114080568D01*
X105433050Y-114179490D01*
X105437357Y-114317539D01*
X105441038Y-114504346D01*
X105450180Y-115022542D01*
X105373383Y-114993344D01*
X105303068Y-114966520D01*
X105250424Y-114940706D01*
X105216060Y-114907431D01*
X105196093Y-114856510D01*
X105186639Y-114777761D01*
X105183814Y-114660999D01*
X105183736Y-114496042D01*
X105183336Y-114364558D01*
X105180951Y-114238394D01*
X105175259Y-114152223D01*
X105164961Y-114095672D01*
X105148755Y-114058370D01*
X105125345Y-114029943D01*
X105067793Y-113989827D01*
X104971112Y-113974706D01*
X104875465Y-114012917D01*
X104869152Y-114017810D01*
X104849477Y-114040413D01*
X104834963Y-114076664D01*
X104824394Y-114135511D01*
X104816555Y-114225901D01*
X104810227Y-114356779D01*
X104804195Y-114537095D01*
X104789598Y-115019907D01*
X104665517Y-114964283D01*
X104541437Y-114908659D01*
X104541437Y-114467851D01*
X104541951Y-114348098D01*
X104546380Y-114181506D01*
X104557594Y-114057468D01*
X104578272Y-113965987D01*
X104611093Y-113897066D01*
X104658736Y-113840707D01*
X104723877Y-113786914D01*
X104817571Y-113732719D01*
X104965175Y-113697339D01*
X105113487Y-113712689D01*
G37*
X105113487Y-113712689D02*
X105249848Y-113776770D01*
X105361598Y-113887584D01*
X105384761Y-113922273D01*
X105403973Y-113961590D01*
X105417598Y-114011145D01*
X105426877Y-114080568D01*
X105433050Y-114179490D01*
X105437357Y-114317539D01*
X105441038Y-114504346D01*
X105450180Y-115022542D01*
X105373383Y-114993344D01*
X105303068Y-114966520D01*
X105250424Y-114940706D01*
X105216060Y-114907431D01*
X105196093Y-114856510D01*
X105186639Y-114777761D01*
X105183814Y-114660999D01*
X105183736Y-114496042D01*
X105183336Y-114364558D01*
X105180951Y-114238394D01*
X105175259Y-114152223D01*
X105164961Y-114095672D01*
X105148755Y-114058370D01*
X105125345Y-114029943D01*
X105067793Y-113989827D01*
X104971112Y-113974706D01*
X104875465Y-114012917D01*
X104869152Y-114017810D01*
X104849477Y-114040413D01*
X104834963Y-114076664D01*
X104824394Y-114135511D01*
X104816555Y-114225901D01*
X104810227Y-114356779D01*
X104804195Y-114537095D01*
X104789598Y-115019907D01*
X104665517Y-114964283D01*
X104541437Y-114908659D01*
X104541437Y-114467851D01*
X104541951Y-114348098D01*
X104546380Y-114181506D01*
X104557594Y-114057468D01*
X104578272Y-113965987D01*
X104611093Y-113897066D01*
X104658736Y-113840707D01*
X104723877Y-113786914D01*
X104817571Y-113732719D01*
X104965175Y-113697339D01*
X105113487Y-113712689D01*
X99841086Y-114009455D02*
X99841457Y-114227661D01*
X99841457Y-114227661D02*
X99842892Y-114395519D01*
X99842892Y-114395519D02*
X99845998Y-114521070D01*
X99845998Y-114521070D02*
X99851378Y-114612355D01*
X99851378Y-114612355D02*
X99859638Y-114677415D01*
X99859638Y-114677415D02*
X99871384Y-114724291D01*
X99871384Y-114724291D02*
X99887219Y-114761024D01*
X99887219Y-114761024D02*
X99899210Y-114781991D01*
X99899210Y-114781991D02*
X99998510Y-114895694D01*
X99998510Y-114895694D02*
X100124412Y-114966965D01*
X100124412Y-114966965D02*
X100263709Y-114992538D01*
X100263709Y-114992538D02*
X100403195Y-114969150D01*
X100403195Y-114969150D02*
X100486257Y-114927119D01*
X100486257Y-114927119D02*
X100573455Y-114854411D01*
X100573455Y-114854411D02*
X100632883Y-114765612D01*
X100632883Y-114765612D02*
X100668739Y-114649320D01*
X100668739Y-114649320D02*
X100685219Y-114494135D01*
X100685219Y-114494135D02*
X100687553Y-114380287D01*
X100687553Y-114380287D02*
X100687239Y-114372106D01*
X100687239Y-114372106D02*
X100483276Y-114372106D01*
X100483276Y-114372106D02*
X100482030Y-114502657D01*
X100482030Y-114502657D02*
X100476322Y-114589080D01*
X100476322Y-114589080D02*
X100463196Y-114645618D01*
X100463196Y-114645618D02*
X100439694Y-114686514D01*
X100439694Y-114686514D02*
X100411614Y-114717362D01*
X100411614Y-114717362D02*
X100317312Y-114776905D01*
X100317312Y-114776905D02*
X100216060Y-114781992D01*
X100216060Y-114781992D02*
X100120364Y-114732279D01*
X100120364Y-114732279D02*
X100112916Y-114725543D01*
X100112916Y-114725543D02*
X100081126Y-114690502D01*
X100081126Y-114690502D02*
X100061192Y-114648811D01*
X100061192Y-114648811D02*
X100050400Y-114586762D01*
X100050400Y-114586762D02*
X100046035Y-114490644D01*
X100046035Y-114490644D02*
X100045345Y-114384379D01*
X100045345Y-114384379D02*
X100046841Y-114250880D01*
X100046841Y-114250880D02*
X100053036Y-114161822D01*
X100053036Y-114161822D02*
X100066486Y-114103293D01*
X100066486Y-114103293D02*
X100089749Y-114061382D01*
X100089749Y-114061382D02*
X100108825Y-114039123D01*
X100108825Y-114039123D02*
X100197437Y-113982985D01*
X100197437Y-113982985D02*
X100299492Y-113976235D01*
X100299492Y-113976235D02*
X100396905Y-114019114D01*
X100396905Y-114019114D02*
X100415704Y-114035032D01*
X100415704Y-114035032D02*
X100447707Y-114070382D01*
X100447707Y-114070382D02*
X100467682Y-114112502D01*
X100467682Y-114112502D02*
X100478407Y-114175251D01*
X100478407Y-114175251D02*
X100482661Y-114272487D01*
X100482661Y-114272487D02*
X100483276Y-114372106D01*
X100483276Y-114372106D02*
X100687239Y-114372106D01*
X100687239Y-114372106D02*
X100680496Y-114196947D01*
X100680496Y-114196947D02*
X100656528Y-114059195D01*
X100656528Y-114059195D02*
X100611452Y-113955632D01*
X100611452Y-113955632D02*
X100541072Y-113874856D01*
X100541072Y-113874856D02*
X100486257Y-113833455D01*
X100486257Y-113833455D02*
X100386624Y-113788728D01*
X100386624Y-113788728D02*
X100271145Y-113767967D01*
X100271145Y-113767967D02*
X100163801Y-113773525D01*
X100163801Y-113773525D02*
X100103736Y-113795943D01*
X100103736Y-113795943D02*
X100080165Y-113802323D01*
X100080165Y-113802323D02*
X100064523Y-113778535D01*
X100064523Y-113778535D02*
X100053605Y-113714788D01*
X100053605Y-113714788D02*
X100045345Y-113617687D01*
X100045345Y-113617687D02*
X100036301Y-113509541D01*
X100036301Y-113509541D02*
X100023739Y-113444475D01*
X100023739Y-113444475D02*
X100000881Y-113407268D01*
X100000881Y-113407268D02*
X99960949Y-113382699D01*
X99960949Y-113382699D02*
X99935862Y-113371819D01*
X99935862Y-113371819D02*
X99840977Y-113332072D01*
X99840977Y-113332072D02*
X99841086Y-114009455D01*
X99841086Y-114009455D02*
X99841086Y-114009455D01*
G36*
X100685219Y-114494135D02*
G01*
X100668739Y-114649320D01*
X100632883Y-114765612D01*
X100573455Y-114854411D01*
X100486257Y-114927119D01*
X100403195Y-114969150D01*
X100263709Y-114992538D01*
X100124412Y-114966965D01*
X99998510Y-114895694D01*
X99899210Y-114781991D01*
X99887219Y-114761024D01*
X99871384Y-114724291D01*
X99859638Y-114677415D01*
X99851378Y-114612355D01*
X99845998Y-114521070D01*
X99842892Y-114395519D01*
X99842797Y-114384379D01*
X100045345Y-114384379D01*
X100046035Y-114490644D01*
X100050400Y-114586762D01*
X100061192Y-114648811D01*
X100081126Y-114690502D01*
X100112916Y-114725543D01*
X100120364Y-114732279D01*
X100216060Y-114781992D01*
X100317312Y-114776905D01*
X100411614Y-114717362D01*
X100439694Y-114686514D01*
X100463196Y-114645618D01*
X100476322Y-114589080D01*
X100482030Y-114502657D01*
X100483276Y-114372106D01*
X100482661Y-114272487D01*
X100478407Y-114175251D01*
X100467682Y-114112502D01*
X100447707Y-114070382D01*
X100415704Y-114035032D01*
X100396905Y-114019114D01*
X100299492Y-113976235D01*
X100197437Y-113982985D01*
X100108825Y-114039123D01*
X100089749Y-114061382D01*
X100066486Y-114103293D01*
X100053036Y-114161822D01*
X100046841Y-114250880D01*
X100045345Y-114384379D01*
X99842797Y-114384379D01*
X99841457Y-114227661D01*
X99841086Y-114009455D01*
X99840977Y-113332072D01*
X99935862Y-113371819D01*
X99960949Y-113382699D01*
X100000881Y-113407268D01*
X100023739Y-113444475D01*
X100036301Y-113509541D01*
X100045345Y-113617687D01*
X100053605Y-113714788D01*
X100064523Y-113778535D01*
X100080165Y-113802323D01*
X100103736Y-113795943D01*
X100163801Y-113773525D01*
X100271145Y-113767967D01*
X100386624Y-113788728D01*
X100486257Y-113833455D01*
X100541072Y-113874856D01*
X100611452Y-113955632D01*
X100656528Y-114059195D01*
X100680496Y-114196947D01*
X100687239Y-114372106D01*
X100687553Y-114380287D01*
X100685219Y-114494135D01*
G37*
X100685219Y-114494135D02*
X100668739Y-114649320D01*
X100632883Y-114765612D01*
X100573455Y-114854411D01*
X100486257Y-114927119D01*
X100403195Y-114969150D01*
X100263709Y-114992538D01*
X100124412Y-114966965D01*
X99998510Y-114895694D01*
X99899210Y-114781991D01*
X99887219Y-114761024D01*
X99871384Y-114724291D01*
X99859638Y-114677415D01*
X99851378Y-114612355D01*
X99845998Y-114521070D01*
X99842892Y-114395519D01*
X99842797Y-114384379D01*
X100045345Y-114384379D01*
X100046035Y-114490644D01*
X100050400Y-114586762D01*
X100061192Y-114648811D01*
X100081126Y-114690502D01*
X100112916Y-114725543D01*
X100120364Y-114732279D01*
X100216060Y-114781992D01*
X100317312Y-114776905D01*
X100411614Y-114717362D01*
X100439694Y-114686514D01*
X100463196Y-114645618D01*
X100476322Y-114589080D01*
X100482030Y-114502657D01*
X100483276Y-114372106D01*
X100482661Y-114272487D01*
X100478407Y-114175251D01*
X100467682Y-114112502D01*
X100447707Y-114070382D01*
X100415704Y-114035032D01*
X100396905Y-114019114D01*
X100299492Y-113976235D01*
X100197437Y-113982985D01*
X100108825Y-114039123D01*
X100089749Y-114061382D01*
X100066486Y-114103293D01*
X100053036Y-114161822D01*
X100046841Y-114250880D01*
X100045345Y-114384379D01*
X99842797Y-114384379D01*
X99841457Y-114227661D01*
X99841086Y-114009455D01*
X99840977Y-113332072D01*
X99935862Y-113371819D01*
X99960949Y-113382699D01*
X100000881Y-113407268D01*
X100023739Y-113444475D01*
X100036301Y-113509541D01*
X100045345Y-113617687D01*
X100053605Y-113714788D01*
X100064523Y-113778535D01*
X100080165Y-113802323D01*
X100103736Y-113795943D01*
X100163801Y-113773525D01*
X100271145Y-113767967D01*
X100386624Y-113788728D01*
X100486257Y-113833455D01*
X100541072Y-113874856D01*
X100611452Y-113955632D01*
X100656528Y-114059195D01*
X100680496Y-114196947D01*
X100687239Y-114372106D01*
X100687553Y-114380287D01*
X100685219Y-114494135D01*
X98654876Y-113794840D02*
X98650421Y-113871653D01*
X98650421Y-113871653D02*
X98646929Y-113988391D01*
X98646929Y-113988391D02*
X98644685Y-114135821D01*
X98644685Y-114135821D02*
X98643965Y-114290455D01*
X98643965Y-114290455D02*
X98643965Y-114813727D01*
X98643965Y-114813727D02*
X98736355Y-114906117D01*
X98736355Y-114906117D02*
X98800022Y-114963047D01*
X98800022Y-114963047D02*
X98855911Y-114986107D01*
X98855911Y-114986107D02*
X98932298Y-114984647D01*
X98932298Y-114984647D02*
X98962620Y-114980934D01*
X98962620Y-114980934D02*
X99057390Y-114970126D01*
X99057390Y-114970126D02*
X99135778Y-114963933D01*
X99135778Y-114963933D02*
X99154885Y-114963361D01*
X99154885Y-114963361D02*
X99219301Y-114967102D01*
X99219301Y-114967102D02*
X99311429Y-114976494D01*
X99311429Y-114976494D02*
X99347150Y-114980934D01*
X99347150Y-114980934D02*
X99434886Y-114987801D01*
X99434886Y-114987801D02*
X99493847Y-114972885D01*
X99493847Y-114972885D02*
X99552310Y-114926835D01*
X99552310Y-114926835D02*
X99573415Y-114906117D01*
X99573415Y-114906117D02*
X99665805Y-114813727D01*
X99665805Y-114813727D02*
X99665805Y-113834947D01*
X99665805Y-113834947D02*
X99591442Y-113801066D01*
X99591442Y-113801066D02*
X99527410Y-113775970D01*
X99527410Y-113775970D02*
X99489948Y-113767184D01*
X99489948Y-113767184D02*
X99480343Y-113794950D01*
X99480343Y-113794950D02*
X99471365Y-113872530D01*
X99471365Y-113872530D02*
X99463614Y-113991348D01*
X99463614Y-113991348D02*
X99457686Y-114142828D01*
X99457686Y-114142828D02*
X99454827Y-114270805D01*
X99454827Y-114270805D02*
X99446839Y-114774425D01*
X99446839Y-114774425D02*
X99377152Y-114784278D01*
X99377152Y-114784278D02*
X99313771Y-114777389D01*
X99313771Y-114777389D02*
X99282714Y-114755083D01*
X99282714Y-114755083D02*
X99274033Y-114713379D01*
X99274033Y-114713379D02*
X99266622Y-114624544D01*
X99266622Y-114624544D02*
X99261069Y-114499834D01*
X99261069Y-114499834D02*
X99257964Y-114350507D01*
X99257964Y-114350507D02*
X99257516Y-114273661D01*
X99257516Y-114273661D02*
X99257069Y-113831287D01*
X99257069Y-113831287D02*
X99165126Y-113799235D01*
X99165126Y-113799235D02*
X99100051Y-113777443D01*
X99100051Y-113777443D02*
X99064653Y-113767281D01*
X99064653Y-113767281D02*
X99063632Y-113767184D01*
X99063632Y-113767184D02*
X99060080Y-113794809D01*
X99060080Y-113794809D02*
X99056177Y-113871411D01*
X99056177Y-113871411D02*
X99052249Y-113987579D01*
X99052249Y-113987579D02*
X99048624Y-114133904D01*
X99048624Y-114133904D02*
X99046092Y-114270805D01*
X99046092Y-114270805D02*
X99038103Y-114774425D01*
X99038103Y-114774425D02*
X98862931Y-114774425D01*
X98862931Y-114774425D02*
X98854893Y-114314965D01*
X98854893Y-114314965D02*
X98846854Y-113855505D01*
X98846854Y-113855505D02*
X98761457Y-113811344D01*
X98761457Y-113811344D02*
X98698407Y-113781019D01*
X98698407Y-113781019D02*
X98661090Y-113767258D01*
X98661090Y-113767258D02*
X98660013Y-113767184D01*
X98660013Y-113767184D02*
X98654876Y-113794840D01*
X98654876Y-113794840D02*
X98654876Y-113794840D01*
G36*
X99527410Y-113775970D02*
G01*
X99591442Y-113801066D01*
X99665805Y-113834947D01*
X99665805Y-114813727D01*
X99573415Y-114906117D01*
X99552310Y-114926835D01*
X99493847Y-114972885D01*
X99434886Y-114987801D01*
X99347150Y-114980934D01*
X99311429Y-114976494D01*
X99219301Y-114967102D01*
X99154885Y-114963361D01*
X99135778Y-114963933D01*
X99057390Y-114970126D01*
X98962620Y-114980934D01*
X98932298Y-114984647D01*
X98855911Y-114986107D01*
X98800022Y-114963047D01*
X98736355Y-114906117D01*
X98643965Y-114813727D01*
X98643965Y-114290455D01*
X98644685Y-114135821D01*
X98646929Y-113988391D01*
X98650421Y-113871653D01*
X98654876Y-113794840D01*
X98660013Y-113767184D01*
X98661090Y-113767258D01*
X98698407Y-113781019D01*
X98761457Y-113811344D01*
X98846854Y-113855505D01*
X98854893Y-114314965D01*
X98862931Y-114774425D01*
X99038103Y-114774425D01*
X99046092Y-114270805D01*
X99048624Y-114133904D01*
X99052249Y-113987579D01*
X99056177Y-113871411D01*
X99060080Y-113794809D01*
X99063632Y-113767184D01*
X99064653Y-113767281D01*
X99100051Y-113777443D01*
X99165126Y-113799235D01*
X99257069Y-113831287D01*
X99257516Y-114273661D01*
X99257964Y-114350507D01*
X99261069Y-114499834D01*
X99266622Y-114624544D01*
X99274033Y-114713379D01*
X99282714Y-114755083D01*
X99313771Y-114777389D01*
X99377152Y-114784278D01*
X99446839Y-114774425D01*
X99454827Y-114270805D01*
X99457686Y-114142828D01*
X99463614Y-113991348D01*
X99471365Y-113872530D01*
X99480343Y-113794950D01*
X99489948Y-113767184D01*
X99527410Y-113775970D01*
G37*
X99527410Y-113775970D02*
X99591442Y-113801066D01*
X99665805Y-113834947D01*
X99665805Y-114813727D01*
X99573415Y-114906117D01*
X99552310Y-114926835D01*
X99493847Y-114972885D01*
X99434886Y-114987801D01*
X99347150Y-114980934D01*
X99311429Y-114976494D01*
X99219301Y-114967102D01*
X99154885Y-114963361D01*
X99135778Y-114963933D01*
X99057390Y-114970126D01*
X98962620Y-114980934D01*
X98932298Y-114984647D01*
X98855911Y-114986107D01*
X98800022Y-114963047D01*
X98736355Y-114906117D01*
X98643965Y-114813727D01*
X98643965Y-114290455D01*
X98644685Y-114135821D01*
X98646929Y-113988391D01*
X98650421Y-113871653D01*
X98654876Y-113794840D01*
X98660013Y-113767184D01*
X98661090Y-113767258D01*
X98698407Y-113781019D01*
X98761457Y-113811344D01*
X98846854Y-113855505D01*
X98854893Y-114314965D01*
X98862931Y-114774425D01*
X99038103Y-114774425D01*
X99046092Y-114270805D01*
X99048624Y-114133904D01*
X99052249Y-113987579D01*
X99056177Y-113871411D01*
X99060080Y-113794809D01*
X99063632Y-113767184D01*
X99064653Y-113767281D01*
X99100051Y-113777443D01*
X99165126Y-113799235D01*
X99257069Y-113831287D01*
X99257516Y-114273661D01*
X99257964Y-114350507D01*
X99261069Y-114499834D01*
X99266622Y-114624544D01*
X99274033Y-114713379D01*
X99282714Y-114755083D01*
X99313771Y-114777389D01*
X99377152Y-114784278D01*
X99446839Y-114774425D01*
X99454827Y-114270805D01*
X99457686Y-114142828D01*
X99463614Y-113991348D01*
X99471365Y-113872530D01*
X99480343Y-113794950D01*
X99489948Y-113767184D01*
X99527410Y-113775970D01*
X96899310Y-113795018D02*
X96864415Y-113810269D01*
X96864415Y-113810269D02*
X96781123Y-113876235D01*
X96781123Y-113876235D02*
X96709897Y-113971618D01*
X96709897Y-113971618D02*
X96665847Y-114073406D01*
X96665847Y-114073406D02*
X96658678Y-114123587D01*
X96658678Y-114123587D02*
X96682715Y-114193647D01*
X96682715Y-114193647D02*
X96735439Y-114230717D01*
X96735439Y-114230717D02*
X96791969Y-114253164D01*
X96791969Y-114253164D02*
X96817854Y-114257300D01*
X96817854Y-114257300D02*
X96830458Y-114227283D01*
X96830458Y-114227283D02*
X96855346Y-114161961D01*
X96855346Y-114161961D02*
X96866265Y-114132445D01*
X96866265Y-114132445D02*
X96927492Y-114030348D01*
X96927492Y-114030348D02*
X97016139Y-113979423D01*
X97016139Y-113979423D02*
X97129807Y-113980989D01*
X97129807Y-113980989D02*
X97138226Y-113982994D01*
X97138226Y-113982994D02*
X97198912Y-114011767D01*
X97198912Y-114011767D02*
X97243526Y-114067859D01*
X97243526Y-114067859D02*
X97273998Y-114158163D01*
X97273998Y-114158163D02*
X97292256Y-114289571D01*
X97292256Y-114289571D02*
X97300229Y-114468974D01*
X97300229Y-114468974D02*
X97300977Y-114564433D01*
X97300977Y-114564433D02*
X97301348Y-114714913D01*
X97301348Y-114714913D02*
X97303777Y-114817495D01*
X97303777Y-114817495D02*
X97310240Y-114882672D01*
X97310240Y-114882672D02*
X97322712Y-114920938D01*
X97322712Y-114920938D02*
X97343167Y-114942785D01*
X97343167Y-114942785D02*
X97373581Y-114958707D01*
X97373581Y-114958707D02*
X97375339Y-114959509D01*
X97375339Y-114959509D02*
X97433909Y-114984272D01*
X97433909Y-114984272D02*
X97462925Y-114993391D01*
X97462925Y-114993391D02*
X97467384Y-114965822D01*
X97467384Y-114965822D02*
X97471201Y-114889620D01*
X97471201Y-114889620D02*
X97474101Y-114774541D01*
X97474101Y-114774541D02*
X97475809Y-114630341D01*
X97475809Y-114630341D02*
X97476149Y-114524814D01*
X97476149Y-114524814D02*
X97474412Y-114320613D01*
X97474412Y-114320613D02*
X97467618Y-114165697D01*
X97467618Y-114165697D02*
X97453393Y-114051024D01*
X97453393Y-114051024D02*
X97429362Y-113967551D01*
X97429362Y-113967551D02*
X97393152Y-113906236D01*
X97393152Y-113906236D02*
X97342388Y-113858034D01*
X97342388Y-113858034D02*
X97292261Y-113824393D01*
X97292261Y-113824393D02*
X97171725Y-113779619D01*
X97171725Y-113779619D02*
X97031443Y-113769521D01*
X97031443Y-113769521D02*
X96899310Y-113795018D01*
X96899310Y-113795018D02*
X96899310Y-113795018D01*
G36*
X97171725Y-113779619D02*
G01*
X97292261Y-113824393D01*
X97342388Y-113858034D01*
X97393152Y-113906236D01*
X97429362Y-113967551D01*
X97453393Y-114051024D01*
X97467618Y-114165697D01*
X97474412Y-114320613D01*
X97476149Y-114524814D01*
X97475809Y-114630341D01*
X97474101Y-114774541D01*
X97471201Y-114889620D01*
X97467384Y-114965822D01*
X97462925Y-114993391D01*
X97433909Y-114984272D01*
X97375339Y-114959509D01*
X97373581Y-114958707D01*
X97343167Y-114942785D01*
X97322712Y-114920938D01*
X97310240Y-114882672D01*
X97303777Y-114817495D01*
X97301348Y-114714913D01*
X97300977Y-114564433D01*
X97300229Y-114468974D01*
X97292256Y-114289571D01*
X97273998Y-114158163D01*
X97243526Y-114067859D01*
X97198912Y-114011767D01*
X97138226Y-113982994D01*
X97129807Y-113980989D01*
X97016139Y-113979423D01*
X96927492Y-114030348D01*
X96866265Y-114132445D01*
X96855346Y-114161961D01*
X96830458Y-114227283D01*
X96817854Y-114257300D01*
X96791969Y-114253164D01*
X96735439Y-114230717D01*
X96682715Y-114193647D01*
X96658678Y-114123587D01*
X96665847Y-114073406D01*
X96709897Y-113971618D01*
X96781123Y-113876235D01*
X96864415Y-113810269D01*
X96899310Y-113795018D01*
X97031443Y-113769521D01*
X97171725Y-113779619D01*
G37*
X97171725Y-113779619D02*
X97292261Y-113824393D01*
X97342388Y-113858034D01*
X97393152Y-113906236D01*
X97429362Y-113967551D01*
X97453393Y-114051024D01*
X97467618Y-114165697D01*
X97474412Y-114320613D01*
X97476149Y-114524814D01*
X97475809Y-114630341D01*
X97474101Y-114774541D01*
X97471201Y-114889620D01*
X97467384Y-114965822D01*
X97462925Y-114993391D01*
X97433909Y-114984272D01*
X97375339Y-114959509D01*
X97373581Y-114958707D01*
X97343167Y-114942785D01*
X97322712Y-114920938D01*
X97310240Y-114882672D01*
X97303777Y-114817495D01*
X97301348Y-114714913D01*
X97300977Y-114564433D01*
X97300229Y-114468974D01*
X97292256Y-114289571D01*
X97273998Y-114158163D01*
X97243526Y-114067859D01*
X97198912Y-114011767D01*
X97138226Y-113982994D01*
X97129807Y-113980989D01*
X97016139Y-113979423D01*
X96927492Y-114030348D01*
X96866265Y-114132445D01*
X96855346Y-114161961D01*
X96830458Y-114227283D01*
X96817854Y-114257300D01*
X96791969Y-114253164D01*
X96735439Y-114230717D01*
X96682715Y-114193647D01*
X96658678Y-114123587D01*
X96665847Y-114073406D01*
X96709897Y-113971618D01*
X96781123Y-113876235D01*
X96864415Y-113810269D01*
X96899310Y-113795018D01*
X97031443Y-113769521D01*
X97171725Y-113779619D01*
X97920594Y-113790156D02*
X97836531Y-113828393D01*
X97836531Y-113828393D02*
X97770550Y-113874726D01*
X97770550Y-113874726D02*
X97722206Y-113926532D01*
X97722206Y-113926532D02*
X97688828Y-113993363D01*
X97688828Y-113993363D02*
X97667747Y-114084769D01*
X97667747Y-114084769D02*
X97656293Y-114210301D01*
X97656293Y-114210301D02*
X97651797Y-114379508D01*
X97651797Y-114379508D02*
X97651322Y-114490933D01*
X97651322Y-114490933D02*
X97651322Y-114925627D01*
X97651322Y-114925627D02*
X97725684Y-114959509D01*
X97725684Y-114959509D02*
X97784254Y-114984272D01*
X97784254Y-114984272D02*
X97813270Y-114993391D01*
X97813270Y-114993391D02*
X97818821Y-114966257D01*
X97818821Y-114966257D02*
X97823225Y-114893094D01*
X97823225Y-114893094D02*
X97825922Y-114786263D01*
X97825922Y-114786263D02*
X97826494Y-114701437D01*
X97826494Y-114701437D02*
X97828954Y-114578887D01*
X97828954Y-114578887D02*
X97835588Y-114481668D01*
X97835588Y-114481668D02*
X97845274Y-114422134D01*
X97845274Y-114422134D02*
X97852968Y-114409483D01*
X97852968Y-114409483D02*
X97904689Y-114422402D01*
X97904689Y-114422402D02*
X97985883Y-114455539D01*
X97985883Y-114455539D02*
X98079898Y-114500461D01*
X98079898Y-114500461D02*
X98170083Y-114548735D01*
X98170083Y-114548735D02*
X98239785Y-114591928D01*
X98239785Y-114591928D02*
X98272352Y-114621608D01*
X98272352Y-114621608D02*
X98272481Y-114621929D01*
X98272481Y-114621929D02*
X98269680Y-114676857D01*
X98269680Y-114676857D02*
X98244561Y-114729292D01*
X98244561Y-114729292D02*
X98200459Y-114771881D01*
X98200459Y-114771881D02*
X98136091Y-114786126D01*
X98136091Y-114786126D02*
X98081079Y-114784466D01*
X98081079Y-114784466D02*
X98003165Y-114783245D01*
X98003165Y-114783245D02*
X97962268Y-114801498D01*
X97962268Y-114801498D02*
X97937705Y-114849726D01*
X97937705Y-114849726D02*
X97934608Y-114858820D01*
X97934608Y-114858820D02*
X97923960Y-114927598D01*
X97923960Y-114927598D02*
X97952435Y-114969360D01*
X97952435Y-114969360D02*
X98026656Y-114989263D01*
X98026656Y-114989263D02*
X98106832Y-114992944D01*
X98106832Y-114992944D02*
X98251110Y-114965658D01*
X98251110Y-114965658D02*
X98325797Y-114926690D01*
X98325797Y-114926690D02*
X98418037Y-114835148D01*
X98418037Y-114835148D02*
X98466957Y-114722782D01*
X98466957Y-114722782D02*
X98471346Y-114604051D01*
X98471346Y-114604051D02*
X98429999Y-114493411D01*
X98429999Y-114493411D02*
X98367803Y-114424080D01*
X98367803Y-114424080D02*
X98305706Y-114385265D01*
X98305706Y-114385265D02*
X98208105Y-114336125D01*
X98208105Y-114336125D02*
X98094368Y-114286292D01*
X98094368Y-114286292D02*
X98075410Y-114278677D01*
X98075410Y-114278677D02*
X97950479Y-114223545D01*
X97950479Y-114223545D02*
X97878461Y-114174954D01*
X97878461Y-114174954D02*
X97855300Y-114126647D01*
X97855300Y-114126647D02*
X97876936Y-114072370D01*
X97876936Y-114072370D02*
X97914080Y-114029943D01*
X97914080Y-114029943D02*
X98001873Y-113977702D01*
X98001873Y-113977702D02*
X98098470Y-113973784D01*
X98098470Y-113973784D02*
X98187056Y-114014041D01*
X98187056Y-114014041D02*
X98250814Y-114094326D01*
X98250814Y-114094326D02*
X98259183Y-114115040D01*
X98259183Y-114115040D02*
X98307904Y-114191225D01*
X98307904Y-114191225D02*
X98379035Y-114247785D01*
X98379035Y-114247785D02*
X98468793Y-114294201D01*
X98468793Y-114294201D02*
X98468793Y-114162584D01*
X98468793Y-114162584D02*
X98463510Y-114082168D01*
X98463510Y-114082168D02*
X98440858Y-114018786D01*
X98440858Y-114018786D02*
X98390633Y-113951163D01*
X98390633Y-113951163D02*
X98342418Y-113899076D01*
X98342418Y-113899076D02*
X98267446Y-113825322D01*
X98267446Y-113825322D02*
X98209194Y-113785702D01*
X98209194Y-113785702D02*
X98146628Y-113769810D01*
X98146628Y-113769810D02*
X98075807Y-113767184D01*
X98075807Y-113767184D02*
X97920594Y-113790156D01*
X97920594Y-113790156D02*
X97920594Y-113790156D01*
G36*
X98146628Y-113769810D02*
G01*
X98209194Y-113785702D01*
X98267446Y-113825322D01*
X98342418Y-113899076D01*
X98390633Y-113951163D01*
X98440858Y-114018786D01*
X98463510Y-114082168D01*
X98468793Y-114162584D01*
X98468793Y-114294201D01*
X98379035Y-114247785D01*
X98307904Y-114191225D01*
X98259183Y-114115040D01*
X98250814Y-114094326D01*
X98187056Y-114014041D01*
X98098470Y-113973784D01*
X98001873Y-113977702D01*
X97914080Y-114029943D01*
X97876936Y-114072370D01*
X97855300Y-114126647D01*
X97878461Y-114174954D01*
X97950479Y-114223545D01*
X98075410Y-114278677D01*
X98094368Y-114286292D01*
X98208105Y-114336125D01*
X98305706Y-114385265D01*
X98367803Y-114424080D01*
X98429999Y-114493411D01*
X98471346Y-114604051D01*
X98466957Y-114722782D01*
X98418037Y-114835148D01*
X98325797Y-114926690D01*
X98251110Y-114965658D01*
X98106832Y-114992944D01*
X98026656Y-114989263D01*
X97952435Y-114969360D01*
X97923960Y-114927598D01*
X97934608Y-114858820D01*
X97937705Y-114849726D01*
X97962268Y-114801498D01*
X98003165Y-114783245D01*
X98081079Y-114784466D01*
X98136091Y-114786126D01*
X98200459Y-114771881D01*
X98244561Y-114729292D01*
X98269680Y-114676857D01*
X98272481Y-114621929D01*
X98272352Y-114621608D01*
X98239785Y-114591928D01*
X98170083Y-114548735D01*
X98079898Y-114500461D01*
X97985883Y-114455539D01*
X97904689Y-114422402D01*
X97852968Y-114409483D01*
X97845274Y-114422134D01*
X97835588Y-114481668D01*
X97828954Y-114578887D01*
X97826494Y-114701437D01*
X97825922Y-114786263D01*
X97823225Y-114893094D01*
X97818821Y-114966257D01*
X97813270Y-114993391D01*
X97784254Y-114984272D01*
X97725684Y-114959509D01*
X97651322Y-114925627D01*
X97651322Y-114490933D01*
X97651797Y-114379508D01*
X97656293Y-114210301D01*
X97667747Y-114084769D01*
X97688828Y-113993363D01*
X97722206Y-113926532D01*
X97770550Y-113874726D01*
X97836531Y-113828393D01*
X97920594Y-113790156D01*
X98075807Y-113767184D01*
X98146628Y-113769810D01*
G37*
X98146628Y-113769810D02*
X98209194Y-113785702D01*
X98267446Y-113825322D01*
X98342418Y-113899076D01*
X98390633Y-113951163D01*
X98440858Y-114018786D01*
X98463510Y-114082168D01*
X98468793Y-114162584D01*
X98468793Y-114294201D01*
X98379035Y-114247785D01*
X98307904Y-114191225D01*
X98259183Y-114115040D01*
X98250814Y-114094326D01*
X98187056Y-114014041D01*
X98098470Y-113973784D01*
X98001873Y-113977702D01*
X97914080Y-114029943D01*
X97876936Y-114072370D01*
X97855300Y-114126647D01*
X97878461Y-114174954D01*
X97950479Y-114223545D01*
X98075410Y-114278677D01*
X98094368Y-114286292D01*
X98208105Y-114336125D01*
X98305706Y-114385265D01*
X98367803Y-114424080D01*
X98429999Y-114493411D01*
X98471346Y-114604051D01*
X98466957Y-114722782D01*
X98418037Y-114835148D01*
X98325797Y-114926690D01*
X98251110Y-114965658D01*
X98106832Y-114992944D01*
X98026656Y-114989263D01*
X97952435Y-114969360D01*
X97923960Y-114927598D01*
X97934608Y-114858820D01*
X97937705Y-114849726D01*
X97962268Y-114801498D01*
X98003165Y-114783245D01*
X98081079Y-114784466D01*
X98136091Y-114786126D01*
X98200459Y-114771881D01*
X98244561Y-114729292D01*
X98269680Y-114676857D01*
X98272481Y-114621929D01*
X98272352Y-114621608D01*
X98239785Y-114591928D01*
X98170083Y-114548735D01*
X98079898Y-114500461D01*
X97985883Y-114455539D01*
X97904689Y-114422402D01*
X97852968Y-114409483D01*
X97845274Y-114422134D01*
X97835588Y-114481668D01*
X97828954Y-114578887D01*
X97826494Y-114701437D01*
X97825922Y-114786263D01*
X97823225Y-114893094D01*
X97818821Y-114966257D01*
X97813270Y-114993391D01*
X97784254Y-114984272D01*
X97725684Y-114959509D01*
X97651322Y-114925627D01*
X97651322Y-114490933D01*
X97651797Y-114379508D01*
X97656293Y-114210301D01*
X97667747Y-114084769D01*
X97688828Y-113993363D01*
X97722206Y-113926532D01*
X97770550Y-113874726D01*
X97836531Y-113828393D01*
X97920594Y-113790156D01*
X98075807Y-113767184D01*
X98146628Y-113769810D01*
X102025986Y-104307998D02*
X101867994Y-104308863D01*
X101867994Y-104308863D02*
X101753653Y-104311205D01*
X101753653Y-104311205D02*
X101675593Y-104315762D01*
X101675593Y-104315762D02*
X101626446Y-104323270D01*
X101626446Y-104323270D02*
X101598841Y-104334466D01*
X101598841Y-104334466D02*
X101585408Y-104350088D01*
X101585408Y-104350088D02*
X101578779Y-104370873D01*
X101578779Y-104370873D02*
X101578135Y-104373563D01*
X101578135Y-104373563D02*
X101568065Y-104422113D01*
X101568065Y-104422113D02*
X101549425Y-104517905D01*
X101549425Y-104517905D02*
X101524155Y-104650743D01*
X101524155Y-104650743D02*
X101494193Y-104810431D01*
X101494193Y-104810431D02*
X101461478Y-104986774D01*
X101461478Y-104986774D02*
X101460336Y-104992967D01*
X101460336Y-104992967D02*
X101427567Y-105165782D01*
X101427567Y-105165782D02*
X101396907Y-105318469D01*
X101396907Y-105318469D02*
X101370336Y-105441871D01*
X101370336Y-105441871D02*
X101349833Y-105526831D01*
X101349833Y-105526831D02*
X101337374Y-105564190D01*
X101337374Y-105564190D02*
X101336780Y-105564852D01*
X101336780Y-105564852D02*
X101300081Y-105583095D01*
X101300081Y-105583095D02*
X101224414Y-105613497D01*
X101224414Y-105613497D02*
X101126122Y-105649493D01*
X101126122Y-105649493D02*
X101125575Y-105649685D01*
X101125575Y-105649685D02*
X101001767Y-105696222D01*
X101001767Y-105696222D02*
X100855804Y-105755504D01*
X100855804Y-105755504D02*
X100718219Y-105815109D01*
X100718219Y-105815109D02*
X100711707Y-105818056D01*
X100711707Y-105818056D02*
X100487610Y-105919765D01*
X100487610Y-105919765D02*
X99991381Y-105580897D01*
X99991381Y-105580897D02*
X99839154Y-105477592D01*
X99839154Y-105477592D02*
X99701259Y-105385237D01*
X99701259Y-105385237D02*
X99585685Y-105309084D01*
X99585685Y-105309084D02*
X99500421Y-105254385D01*
X99500421Y-105254385D02*
X99453456Y-105226393D01*
X99453456Y-105226393D02*
X99448996Y-105224317D01*
X99448996Y-105224317D02*
X99414866Y-105233560D01*
X99414866Y-105233560D02*
X99351119Y-105278156D01*
X99351119Y-105278156D02*
X99255269Y-105360209D01*
X99255269Y-105360209D02*
X99124831Y-105481821D01*
X99124831Y-105481821D02*
X98991672Y-105611205D01*
X98991672Y-105611205D02*
X98863306Y-105738702D01*
X98863306Y-105738702D02*
X98748419Y-105855046D01*
X98748419Y-105855046D02*
X98653927Y-105953052D01*
X98653927Y-105953052D02*
X98586747Y-106025536D01*
X98586747Y-106025536D02*
X98553794Y-106065313D01*
X98553794Y-106065313D02*
X98552568Y-106067361D01*
X98552568Y-106067361D02*
X98548926Y-106094656D01*
X98548926Y-106094656D02*
X98562650Y-106139234D01*
X98562650Y-106139234D02*
X98597131Y-106207112D01*
X98597131Y-106207112D02*
X98655761Y-106304311D01*
X98655761Y-106304311D02*
X98741930Y-106436851D01*
X98741930Y-106436851D02*
X98856800Y-106607476D01*
X98856800Y-106607476D02*
X98958746Y-106757655D01*
X98958746Y-106757655D02*
X99049877Y-106892350D01*
X99049877Y-106892350D02*
X99124927Y-107003740D01*
X99124927Y-107003740D02*
X99178631Y-107084005D01*
X99178631Y-107084005D02*
X99205720Y-107125325D01*
X99205720Y-107125325D02*
X99207426Y-107128130D01*
X99207426Y-107128130D02*
X99204118Y-107167721D01*
X99204118Y-107167721D02*
X99179047Y-107244669D01*
X99179047Y-107244669D02*
X99137202Y-107344432D01*
X99137202Y-107344432D02*
X99122288Y-107376291D01*
X99122288Y-107376291D02*
X99057214Y-107518226D01*
X99057214Y-107518226D02*
X98987788Y-107679273D01*
X98987788Y-107679273D02*
X98931391Y-107818621D01*
X98931391Y-107818621D02*
X98890753Y-107922044D01*
X98890753Y-107922044D02*
X98858474Y-108000642D01*
X98858474Y-108000642D02*
X98839822Y-108041720D01*
X98839822Y-108041720D02*
X98837503Y-108044885D01*
X98837503Y-108044885D02*
X98803197Y-108050128D01*
X98803197Y-108050128D02*
X98722331Y-108064494D01*
X98722331Y-108064494D02*
X98605657Y-108085937D01*
X98605657Y-108085937D02*
X98463925Y-108112413D01*
X98463925Y-108112413D02*
X98307890Y-108141877D01*
X98307890Y-108141877D02*
X98148302Y-108172283D01*
X98148302Y-108172283D02*
X97995915Y-108201588D01*
X97995915Y-108201588D02*
X97861479Y-108227745D01*
X97861479Y-108227745D02*
X97755748Y-108248710D01*
X97755748Y-108248710D02*
X97689474Y-108262439D01*
X97689474Y-108262439D02*
X97673218Y-108266320D01*
X97673218Y-108266320D02*
X97656427Y-108275900D01*
X97656427Y-108275900D02*
X97643751Y-108297536D01*
X97643751Y-108297536D02*
X97634622Y-108338531D01*
X97634622Y-108338531D02*
X97628469Y-108406189D01*
X97628469Y-108406189D02*
X97624720Y-108507812D01*
X97624720Y-108507812D02*
X97622808Y-108650703D01*
X97622808Y-108650703D02*
X97622160Y-108842165D01*
X97622160Y-108842165D02*
X97622126Y-108920645D01*
X97622126Y-108920645D02*
X97622126Y-109558906D01*
X97622126Y-109558906D02*
X97775402Y-109589160D01*
X97775402Y-109589160D02*
X97860678Y-109605564D01*
X97860678Y-109605564D02*
X97987930Y-109629509D01*
X97987930Y-109629509D02*
X98141685Y-109658107D01*
X98141685Y-109658107D02*
X98306466Y-109688467D01*
X98306466Y-109688467D02*
X98352011Y-109696806D01*
X98352011Y-109696806D02*
X98504068Y-109726370D01*
X98504068Y-109726370D02*
X98636532Y-109755442D01*
X98636532Y-109755442D02*
X98738286Y-109781329D01*
X98738286Y-109781329D02*
X98798212Y-109801337D01*
X98798212Y-109801337D02*
X98808195Y-109807301D01*
X98808195Y-109807301D02*
X98832707Y-109849534D01*
X98832707Y-109849534D02*
X98867852Y-109931370D01*
X98867852Y-109931370D02*
X98906827Y-110036683D01*
X98906827Y-110036683D02*
X98914558Y-110059368D01*
X98914558Y-110059368D02*
X98965640Y-110200018D01*
X98965640Y-110200018D02*
X99029046Y-110358714D01*
X99029046Y-110358714D02*
X99091096Y-110501225D01*
X99091096Y-110501225D02*
X99091402Y-110501886D01*
X99091402Y-110501886D02*
X99194733Y-110725440D01*
X99194733Y-110725440D02*
X98515039Y-111725232D01*
X98515039Y-111725232D02*
X98951379Y-112162300D01*
X98951379Y-112162300D02*
X99083351Y-112292381D01*
X99083351Y-112292381D02*
X99203721Y-112407048D01*
X99203721Y-112407048D02*
X99305727Y-112500181D01*
X99305727Y-112500181D02*
X99382609Y-112565658D01*
X99382609Y-112565658D02*
X99427607Y-112597357D01*
X99427607Y-112597357D02*
X99434062Y-112599368D01*
X99434062Y-112599368D02*
X99471960Y-112583529D01*
X99471960Y-112583529D02*
X99549292Y-112539496D01*
X99549292Y-112539496D02*
X99657611Y-112472490D01*
X99657611Y-112472490D02*
X99788468Y-112387734D01*
X99788468Y-112387734D02*
X99929948Y-112292816D01*
X99929948Y-112292816D02*
X100073539Y-112195998D01*
X100073539Y-112195998D02*
X100201565Y-112111751D01*
X100201565Y-112111751D02*
X100305895Y-112045258D01*
X100305895Y-112045258D02*
X100378400Y-112001702D01*
X100378400Y-112001702D02*
X100410842Y-111986264D01*
X100410842Y-111986264D02*
X100450424Y-111999328D01*
X100450424Y-111999328D02*
X100525481Y-112033750D01*
X100525481Y-112033750D02*
X100620532Y-112082380D01*
X100620532Y-112082380D02*
X100630608Y-112087785D01*
X100630608Y-112087785D02*
X100758609Y-112151980D01*
X100758609Y-112151980D02*
X100846382Y-112183463D01*
X100846382Y-112183463D02*
X100900972Y-112183798D01*
X100900972Y-112183798D02*
X100929425Y-112154548D01*
X100929425Y-112154548D02*
X100929590Y-112154138D01*
X100929590Y-112154138D02*
X100943812Y-112119498D01*
X100943812Y-112119498D02*
X100977731Y-112037269D01*
X100977731Y-112037269D02*
X101028716Y-111913814D01*
X101028716Y-111913814D02*
X101094138Y-111755498D01*
X101094138Y-111755498D02*
X101171366Y-111568686D01*
X101171366Y-111568686D02*
X101257771Y-111359742D01*
X101257771Y-111359742D02*
X101341449Y-111157446D01*
X101341449Y-111157446D02*
X101433412Y-110934200D01*
X101433412Y-110934200D02*
X101517850Y-110727392D01*
X101517850Y-110727392D02*
X101592231Y-110543362D01*
X101592231Y-110543362D02*
X101654026Y-110388451D01*
X101654026Y-110388451D02*
X101700703Y-110268996D01*
X101700703Y-110268996D02*
X101729732Y-110191339D01*
X101729732Y-110191339D02*
X101738678Y-110162356D01*
X101738678Y-110162356D02*
X101716244Y-110129110D01*
X101716244Y-110129110D02*
X101657561Y-110076123D01*
X101657561Y-110076123D02*
X101579311Y-110017704D01*
X101579311Y-110017704D02*
X101356466Y-109832952D01*
X101356466Y-109832952D02*
X101182282Y-109621182D01*
X101182282Y-109621182D02*
X101058846Y-109386856D01*
X101058846Y-109386856D02*
X100988246Y-109134434D01*
X100988246Y-109134434D02*
X100972569Y-108868377D01*
X100972569Y-108868377D02*
X100983964Y-108745575D01*
X100983964Y-108745575D02*
X101046050Y-108490793D01*
X101046050Y-108490793D02*
X101152977Y-108265801D01*
X101152977Y-108265801D02*
X101298111Y-108072817D01*
X101298111Y-108072817D02*
X101474822Y-107914061D01*
X101474822Y-107914061D02*
X101676478Y-107791750D01*
X101676478Y-107791750D02*
X101896446Y-107708105D01*
X101896446Y-107708105D02*
X102128094Y-107665344D01*
X102128094Y-107665344D02*
X102364791Y-107665687D01*
X102364791Y-107665687D02*
X102599905Y-107711352D01*
X102599905Y-107711352D02*
X102826804Y-107804559D01*
X102826804Y-107804559D02*
X103038856Y-107947527D01*
X103038856Y-107947527D02*
X103127364Y-108028383D01*
X103127364Y-108028383D02*
X103297111Y-108236007D01*
X103297111Y-108236007D02*
X103415301Y-108462895D01*
X103415301Y-108462895D02*
X103482722Y-108702433D01*
X103482722Y-108702433D02*
X103500160Y-108948007D01*
X103500160Y-108948007D02*
X103468402Y-109193003D01*
X103468402Y-109193003D02*
X103388235Y-109430808D01*
X103388235Y-109430808D02*
X103260445Y-109654807D01*
X103260445Y-109654807D02*
X103085820Y-109858387D01*
X103085820Y-109858387D02*
X102890688Y-110017704D01*
X102890688Y-110017704D02*
X102809409Y-110078602D01*
X102809409Y-110078602D02*
X102751991Y-110131015D01*
X102751991Y-110131015D02*
X102731322Y-110162406D01*
X102731322Y-110162406D02*
X102742144Y-110196639D01*
X102742144Y-110196639D02*
X102772923Y-110278419D01*
X102772923Y-110278419D02*
X102821126Y-110401407D01*
X102821126Y-110401407D02*
X102884222Y-110559263D01*
X102884222Y-110559263D02*
X102959678Y-110745649D01*
X102959678Y-110745649D02*
X103044962Y-110954226D01*
X103044962Y-110954226D02*
X103128781Y-111157496D01*
X103128781Y-111157496D02*
X103221255Y-111380933D01*
X103221255Y-111380933D02*
X103306911Y-111587984D01*
X103306911Y-111587984D02*
X103383118Y-111772286D01*
X103383118Y-111772286D02*
X103447247Y-111927475D01*
X103447247Y-111927475D02*
X103496668Y-112047188D01*
X103496668Y-112047188D02*
X103528752Y-112125061D01*
X103528752Y-112125061D02*
X103540641Y-112154138D01*
X103540641Y-112154138D02*
X103568726Y-112183677D01*
X103568726Y-112183677D02*
X103623051Y-112183591D01*
X103623051Y-112183591D02*
X103710605Y-112152326D01*
X103710605Y-112152326D02*
X103838381Y-112088329D01*
X103838381Y-112088329D02*
X103839392Y-112087785D01*
X103839392Y-112087785D02*
X103935598Y-112038121D01*
X103935598Y-112038121D02*
X104013369Y-112001945D01*
X104013369Y-112001945D02*
X104057223Y-111986408D01*
X104057223Y-111986408D02*
X104059158Y-111986264D01*
X104059158Y-111986264D02*
X104092171Y-112002024D01*
X104092171Y-112002024D02*
X104165054Y-112045850D01*
X104165054Y-112045850D02*
X104269678Y-112112557D01*
X104269678Y-112112557D02*
X104397910Y-112196964D01*
X104397910Y-112196964D02*
X104540052Y-112292816D01*
X104540052Y-112292816D02*
X104684767Y-112389867D01*
X104684767Y-112389867D02*
X104815196Y-112474270D01*
X104815196Y-112474270D02*
X104922890Y-112540801D01*
X104922890Y-112540801D02*
X104999402Y-112584238D01*
X104999402Y-112584238D02*
X105035938Y-112599368D01*
X105035938Y-112599368D02*
X105069582Y-112579482D01*
X105069582Y-112579482D02*
X105137224Y-112523903D01*
X105137224Y-112523903D02*
X105232107Y-112438754D01*
X105232107Y-112438754D02*
X105347470Y-112330153D01*
X105347470Y-112330153D02*
X105476555Y-112204221D01*
X105476555Y-112204221D02*
X105518771Y-112162149D01*
X105518771Y-112162149D02*
X105955261Y-111724931D01*
X105955261Y-111724931D02*
X105623023Y-111237340D01*
X105623023Y-111237340D02*
X105522054Y-111087605D01*
X105522054Y-111087605D02*
X105433438Y-110953220D01*
X105433438Y-110953220D02*
X105362146Y-110841969D01*
X105362146Y-110841969D02*
X105313150Y-110761639D01*
X105313150Y-110761639D02*
X105291422Y-110720014D01*
X105291422Y-110720014D02*
X105290785Y-110717053D01*
X105290785Y-110717053D02*
X105302240Y-110677818D01*
X105302240Y-110677818D02*
X105333051Y-110598895D01*
X105333051Y-110598895D02*
X105377884Y-110493509D01*
X105377884Y-110493509D02*
X105409353Y-110422954D01*
X105409353Y-110422954D02*
X105468192Y-110287876D01*
X105468192Y-110287876D02*
X105523604Y-110151409D01*
X105523604Y-110151409D02*
X105566564Y-110036103D01*
X105566564Y-110036103D02*
X105578234Y-110000977D01*
X105578234Y-110000977D02*
X105611389Y-109907174D01*
X105611389Y-109907174D02*
X105643799Y-109834694D01*
X105643799Y-109834694D02*
X105661601Y-109807301D01*
X105661601Y-109807301D02*
X105700886Y-109790536D01*
X105700886Y-109790536D02*
X105786626Y-109766770D01*
X105786626Y-109766770D02*
X105907697Y-109738697D01*
X105907697Y-109738697D02*
X106052973Y-109709009D01*
X106052973Y-109709009D02*
X106117988Y-109696806D01*
X106117988Y-109696806D02*
X106283087Y-109666468D01*
X106283087Y-109666468D02*
X106441448Y-109637093D01*
X106441448Y-109637093D02*
X106577596Y-109611569D01*
X106577596Y-109611569D02*
X106676057Y-109592785D01*
X106676057Y-109592785D02*
X106694598Y-109589160D01*
X106694598Y-109589160D02*
X106847873Y-109558906D01*
X106847873Y-109558906D02*
X106847873Y-108920645D01*
X106847873Y-108920645D02*
X106847529Y-108710770D01*
X106847529Y-108710770D02*
X106846116Y-108551980D01*
X106846116Y-108551980D02*
X106843064Y-108436973D01*
X106843064Y-108436973D02*
X106837803Y-108358446D01*
X106837803Y-108358446D02*
X106829763Y-108309096D01*
X106829763Y-108309096D02*
X106818373Y-108281619D01*
X106818373Y-108281619D02*
X106803063Y-108268713D01*
X106803063Y-108268713D02*
X106796782Y-108266320D01*
X106796782Y-108266320D02*
X106758896Y-108257833D01*
X106758896Y-108257833D02*
X106675195Y-108240900D01*
X106675195Y-108240900D02*
X106556433Y-108217566D01*
X106556433Y-108217566D02*
X106413361Y-108189875D01*
X106413361Y-108189875D02*
X106256732Y-108159873D01*
X106256732Y-108159873D02*
X106097297Y-108129604D01*
X106097297Y-108129604D02*
X105945809Y-108101115D01*
X105945809Y-108101115D02*
X105813019Y-108076449D01*
X105813019Y-108076449D02*
X105709681Y-108057651D01*
X105709681Y-108057651D02*
X105646545Y-108046767D01*
X105646545Y-108046767D02*
X105632497Y-108044885D01*
X105632497Y-108044885D02*
X105619770Y-108019704D01*
X105619770Y-108019704D02*
X105591600Y-107952622D01*
X105591600Y-107952622D02*
X105553252Y-107856333D01*
X105553252Y-107856333D02*
X105538609Y-107818621D01*
X105538609Y-107818621D02*
X105479548Y-107672921D01*
X105479548Y-107672921D02*
X105410000Y-107511951D01*
X105410000Y-107511951D02*
X105347712Y-107376291D01*
X105347712Y-107376291D02*
X105301879Y-107272561D01*
X105301879Y-107272561D02*
X105271387Y-107187326D01*
X105271387Y-107187326D02*
X105261208Y-107135126D01*
X105261208Y-107135126D02*
X105262831Y-107128130D01*
X105262831Y-107128130D02*
X105284343Y-107095102D01*
X105284343Y-107095102D02*
X105333465Y-107021643D01*
X105333465Y-107021643D02*
X105404923Y-106915577D01*
X105404923Y-106915577D02*
X105493445Y-106784726D01*
X105493445Y-106784726D02*
X105593759Y-106636912D01*
X105593759Y-106636912D02*
X105613594Y-106607734D01*
X105613594Y-106607734D02*
X105729988Y-106434863D01*
X105729988Y-106434863D02*
X105815548Y-106303226D01*
X105815548Y-106303226D02*
X105873684Y-106206761D01*
X105873684Y-106206761D02*
X105907808Y-106139408D01*
X105907808Y-106139408D02*
X105921331Y-106095106D01*
X105921331Y-106095106D02*
X105917664Y-106067794D01*
X105917664Y-106067794D02*
X105917570Y-106067620D01*
X105917570Y-106067620D02*
X105888707Y-106031746D01*
X105888707Y-106031746D02*
X105824867Y-105962391D01*
X105824867Y-105962391D02*
X105732969Y-105866745D01*
X105732969Y-105866745D02*
X105619933Y-105751999D01*
X105619933Y-105751999D02*
X105492679Y-105625341D01*
X105492679Y-105625341D02*
X105478328Y-105611205D01*
X105478328Y-105611205D02*
X105317957Y-105455903D01*
X105317957Y-105455903D02*
X105194195Y-105341870D01*
X105194195Y-105341870D02*
X105104555Y-105267002D01*
X105104555Y-105267002D02*
X105046552Y-105229196D01*
X105046552Y-105229196D02*
X105021004Y-105224317D01*
X105021004Y-105224317D02*
X104983718Y-105245603D01*
X104983718Y-105245603D02*
X104906343Y-105294773D01*
X104906343Y-105294773D02*
X104796867Y-105366575D01*
X104796867Y-105366575D02*
X104663280Y-105455755D01*
X104663280Y-105455755D02*
X104513570Y-105557063D01*
X104513570Y-105557063D02*
X104478618Y-105580897D01*
X104478618Y-105580897D02*
X103982390Y-105919765D01*
X103982390Y-105919765D02*
X103758293Y-105818056D01*
X103758293Y-105818056D02*
X103622011Y-105758783D01*
X103622011Y-105758783D02*
X103475724Y-105699170D01*
X103475724Y-105699170D02*
X103349965Y-105651640D01*
X103349965Y-105651640D02*
X103344425Y-105649685D01*
X103344425Y-105649685D02*
X103246057Y-105613677D01*
X103246057Y-105613677D02*
X103170229Y-105583229D01*
X103170229Y-105583229D02*
X103133282Y-105564905D01*
X103133282Y-105564905D02*
X103133220Y-105564852D01*
X103133220Y-105564852D02*
X103121496Y-105531729D01*
X103121496Y-105531729D02*
X103101568Y-105450267D01*
X103101568Y-105450267D02*
X103075413Y-105329625D01*
X103075413Y-105329625D02*
X103045010Y-105178959D01*
X103045010Y-105178959D02*
X103012337Y-105007428D01*
X103012337Y-105007428D02*
X103009664Y-104992967D01*
X103009664Y-104992967D02*
X102976890Y-104816235D01*
X102976890Y-104816235D02*
X102946802Y-104655810D01*
X102946802Y-104655810D02*
X102921339Y-104521888D01*
X102921339Y-104521888D02*
X102902441Y-104424663D01*
X102902441Y-104424663D02*
X102892047Y-104374332D01*
X102892047Y-104374332D02*
X102891865Y-104373563D01*
X102891865Y-104373563D02*
X102885539Y-104352153D01*
X102885539Y-104352153D02*
X102873239Y-104335988D01*
X102873239Y-104335988D02*
X102847594Y-104324331D01*
X102847594Y-104324331D02*
X102801235Y-104316445D01*
X102801235Y-104316445D02*
X102726792Y-104311593D01*
X102726792Y-104311593D02*
X102616895Y-104309039D01*
X102616895Y-104309039D02*
X102464175Y-104308045D01*
X102464175Y-104308045D02*
X102261262Y-104307874D01*
X102261262Y-104307874D02*
X102235000Y-104307874D01*
X102235000Y-104307874D02*
X102025986Y-104307998D01*
X102025986Y-104307998D02*
X102025986Y-104307998D01*
G36*
X102464175Y-104308045D02*
G01*
X102616895Y-104309039D01*
X102726792Y-104311593D01*
X102801235Y-104316445D01*
X102847594Y-104324331D01*
X102873239Y-104335988D01*
X102885539Y-104352153D01*
X102891865Y-104373563D01*
X102892047Y-104374332D01*
X102902441Y-104424663D01*
X102921339Y-104521888D01*
X102946802Y-104655810D01*
X102976890Y-104816235D01*
X103009664Y-104992967D01*
X103012337Y-105007428D01*
X103045010Y-105178959D01*
X103075413Y-105329625D01*
X103101568Y-105450267D01*
X103121496Y-105531729D01*
X103133220Y-105564852D01*
X103133282Y-105564905D01*
X103170229Y-105583229D01*
X103246057Y-105613677D01*
X103344425Y-105649685D01*
X103349965Y-105651640D01*
X103475724Y-105699170D01*
X103622011Y-105758783D01*
X103758293Y-105818056D01*
X103982390Y-105919765D01*
X104478618Y-105580897D01*
X104513570Y-105557063D01*
X104663280Y-105455755D01*
X104796867Y-105366575D01*
X104906343Y-105294773D01*
X104983718Y-105245603D01*
X105021004Y-105224317D01*
X105046552Y-105229196D01*
X105104555Y-105267002D01*
X105194195Y-105341870D01*
X105317957Y-105455903D01*
X105478328Y-105611205D01*
X105492679Y-105625341D01*
X105619933Y-105751999D01*
X105732969Y-105866745D01*
X105824867Y-105962391D01*
X105888707Y-106031746D01*
X105917570Y-106067620D01*
X105917664Y-106067794D01*
X105921331Y-106095106D01*
X105907808Y-106139408D01*
X105873684Y-106206761D01*
X105815548Y-106303226D01*
X105729988Y-106434863D01*
X105613594Y-106607734D01*
X105593759Y-106636912D01*
X105493445Y-106784726D01*
X105404923Y-106915577D01*
X105333465Y-107021643D01*
X105284343Y-107095102D01*
X105262831Y-107128130D01*
X105261208Y-107135126D01*
X105271387Y-107187326D01*
X105301879Y-107272561D01*
X105347712Y-107376291D01*
X105410000Y-107511951D01*
X105479548Y-107672921D01*
X105538609Y-107818621D01*
X105553252Y-107856333D01*
X105591600Y-107952622D01*
X105619770Y-108019704D01*
X105632497Y-108044885D01*
X105646545Y-108046767D01*
X105709681Y-108057651D01*
X105813019Y-108076449D01*
X105945809Y-108101115D01*
X106097297Y-108129604D01*
X106256732Y-108159873D01*
X106413361Y-108189875D01*
X106556433Y-108217566D01*
X106675195Y-108240900D01*
X106758896Y-108257833D01*
X106796782Y-108266320D01*
X106803063Y-108268713D01*
X106818373Y-108281619D01*
X106829763Y-108309096D01*
X106837803Y-108358446D01*
X106843064Y-108436973D01*
X106846116Y-108551980D01*
X106847529Y-108710770D01*
X106847873Y-108920645D01*
X106847873Y-109558906D01*
X106694598Y-109589160D01*
X106676057Y-109592785D01*
X106577596Y-109611569D01*
X106441448Y-109637093D01*
X106283087Y-109666468D01*
X106117988Y-109696806D01*
X106052973Y-109709009D01*
X105907697Y-109738697D01*
X105786626Y-109766770D01*
X105700886Y-109790536D01*
X105661601Y-109807301D01*
X105643799Y-109834694D01*
X105611389Y-109907174D01*
X105578234Y-110000977D01*
X105566564Y-110036103D01*
X105523604Y-110151409D01*
X105468192Y-110287876D01*
X105409353Y-110422954D01*
X105377884Y-110493509D01*
X105333051Y-110598895D01*
X105302240Y-110677818D01*
X105290785Y-110717053D01*
X105291422Y-110720014D01*
X105313150Y-110761639D01*
X105362146Y-110841969D01*
X105433438Y-110953220D01*
X105522054Y-111087605D01*
X105623023Y-111237340D01*
X105955261Y-111724931D01*
X105518771Y-112162149D01*
X105476555Y-112204221D01*
X105347470Y-112330153D01*
X105232107Y-112438754D01*
X105137224Y-112523903D01*
X105069582Y-112579482D01*
X105035938Y-112599368D01*
X104999402Y-112584238D01*
X104922890Y-112540801D01*
X104815196Y-112474270D01*
X104684767Y-112389867D01*
X104540052Y-112292816D01*
X104397910Y-112196964D01*
X104269678Y-112112557D01*
X104165054Y-112045850D01*
X104092171Y-112002024D01*
X104059158Y-111986264D01*
X104057223Y-111986408D01*
X104013369Y-112001945D01*
X103935598Y-112038121D01*
X103839392Y-112087785D01*
X103838381Y-112088329D01*
X103710605Y-112152326D01*
X103623051Y-112183591D01*
X103568726Y-112183677D01*
X103540641Y-112154138D01*
X103528752Y-112125061D01*
X103496668Y-112047188D01*
X103447247Y-111927475D01*
X103383118Y-111772286D01*
X103306911Y-111587984D01*
X103221255Y-111380933D01*
X103128781Y-111157496D01*
X103044962Y-110954226D01*
X102959678Y-110745649D01*
X102884222Y-110559263D01*
X102821126Y-110401407D01*
X102772923Y-110278419D01*
X102742144Y-110196639D01*
X102731322Y-110162406D01*
X102751991Y-110131015D01*
X102809409Y-110078602D01*
X102890688Y-110017704D01*
X103085820Y-109858387D01*
X103260445Y-109654807D01*
X103388235Y-109430808D01*
X103468402Y-109193003D01*
X103500160Y-108948007D01*
X103482722Y-108702433D01*
X103415301Y-108462895D01*
X103297111Y-108236007D01*
X103127364Y-108028383D01*
X103038856Y-107947527D01*
X102826804Y-107804559D01*
X102599905Y-107711352D01*
X102364791Y-107665687D01*
X102128094Y-107665344D01*
X101896446Y-107708105D01*
X101676478Y-107791750D01*
X101474822Y-107914061D01*
X101298111Y-108072817D01*
X101152977Y-108265801D01*
X101046050Y-108490793D01*
X100983964Y-108745575D01*
X100972569Y-108868377D01*
X100988246Y-109134434D01*
X101058846Y-109386856D01*
X101182282Y-109621182D01*
X101356466Y-109832952D01*
X101579311Y-110017704D01*
X101657561Y-110076123D01*
X101716244Y-110129110D01*
X101738678Y-110162356D01*
X101729732Y-110191339D01*
X101700703Y-110268996D01*
X101654026Y-110388451D01*
X101592231Y-110543362D01*
X101517850Y-110727392D01*
X101433412Y-110934200D01*
X101341449Y-111157446D01*
X101257771Y-111359742D01*
X101171366Y-111568686D01*
X101094138Y-111755498D01*
X101028716Y-111913814D01*
X100977731Y-112037269D01*
X100943812Y-112119498D01*
X100929590Y-112154138D01*
X100929425Y-112154548D01*
X100900972Y-112183798D01*
X100846382Y-112183463D01*
X100758609Y-112151980D01*
X100630608Y-112087785D01*
X100620532Y-112082380D01*
X100525481Y-112033750D01*
X100450424Y-111999328D01*
X100410842Y-111986264D01*
X100378400Y-112001702D01*
X100305895Y-112045258D01*
X100201565Y-112111751D01*
X100073539Y-112195998D01*
X99929948Y-112292816D01*
X99788468Y-112387734D01*
X99657611Y-112472490D01*
X99549292Y-112539496D01*
X99471960Y-112583529D01*
X99434062Y-112599368D01*
X99427607Y-112597357D01*
X99382609Y-112565658D01*
X99305727Y-112500181D01*
X99203721Y-112407048D01*
X99083351Y-112292381D01*
X98951379Y-112162300D01*
X98515039Y-111725232D01*
X99194733Y-110725440D01*
X99091402Y-110501886D01*
X99091096Y-110501225D01*
X99029046Y-110358714D01*
X98965640Y-110200018D01*
X98914558Y-110059368D01*
X98906827Y-110036683D01*
X98867852Y-109931370D01*
X98832707Y-109849534D01*
X98808195Y-109807301D01*
X98798212Y-109801337D01*
X98738286Y-109781329D01*
X98636532Y-109755442D01*
X98504068Y-109726370D01*
X98352011Y-109696806D01*
X98306466Y-109688467D01*
X98141685Y-109658107D01*
X97987930Y-109629509D01*
X97860678Y-109605564D01*
X97775402Y-109589160D01*
X97622126Y-109558906D01*
X97622126Y-108920645D01*
X97622160Y-108842165D01*
X97622808Y-108650703D01*
X97624720Y-108507812D01*
X97628469Y-108406189D01*
X97634622Y-108338531D01*
X97643751Y-108297536D01*
X97656427Y-108275900D01*
X97673218Y-108266320D01*
X97689474Y-108262439D01*
X97755748Y-108248710D01*
X97861479Y-108227745D01*
X97995915Y-108201588D01*
X98148302Y-108172283D01*
X98307890Y-108141877D01*
X98463925Y-108112413D01*
X98605657Y-108085937D01*
X98722331Y-108064494D01*
X98803197Y-108050128D01*
X98837503Y-108044885D01*
X98839822Y-108041720D01*
X98858474Y-108000642D01*
X98890753Y-107922044D01*
X98931391Y-107818621D01*
X98987788Y-107679273D01*
X99057214Y-107518226D01*
X99122288Y-107376291D01*
X99137202Y-107344432D01*
X99179047Y-107244669D01*
X99204118Y-107167721D01*
X99207426Y-107128130D01*
X99205720Y-107125325D01*
X99178631Y-107084005D01*
X99124927Y-107003740D01*
X99049877Y-106892350D01*
X98958746Y-106757655D01*
X98856800Y-106607476D01*
X98741930Y-106436851D01*
X98655761Y-106304311D01*
X98597131Y-106207112D01*
X98562650Y-106139234D01*
X98548926Y-106094656D01*
X98552568Y-106067361D01*
X98553794Y-106065313D01*
X98586747Y-106025536D01*
X98653927Y-105953052D01*
X98748419Y-105855046D01*
X98863306Y-105738702D01*
X98991672Y-105611205D01*
X99124831Y-105481821D01*
X99255269Y-105360209D01*
X99351119Y-105278156D01*
X99414866Y-105233560D01*
X99448996Y-105224317D01*
X99453456Y-105226393D01*
X99500421Y-105254385D01*
X99585685Y-105309084D01*
X99701259Y-105385237D01*
X99839154Y-105477592D01*
X99991381Y-105580897D01*
X100487610Y-105919765D01*
X100711707Y-105818056D01*
X100718219Y-105815109D01*
X100855804Y-105755504D01*
X101001767Y-105696222D01*
X101125575Y-105649685D01*
X101126122Y-105649493D01*
X101224414Y-105613497D01*
X101300081Y-105583095D01*
X101336780Y-105564852D01*
X101337374Y-105564190D01*
X101349833Y-105526831D01*
X101370336Y-105441871D01*
X101396907Y-105318469D01*
X101427567Y-105165782D01*
X101460336Y-104992967D01*
X101461478Y-104986774D01*
X101494193Y-104810431D01*
X101524155Y-104650743D01*
X101549425Y-104517905D01*
X101568065Y-104422113D01*
X101578135Y-104373563D01*
X101578779Y-104370873D01*
X101585408Y-104350088D01*
X101598841Y-104334466D01*
X101626446Y-104323270D01*
X101675593Y-104315762D01*
X101753653Y-104311205D01*
X101867994Y-104308863D01*
X102025986Y-104307998D01*
X102235000Y-104307874D01*
X102261262Y-104307874D01*
X102464175Y-104308045D01*
G37*
X102464175Y-104308045D02*
X102616895Y-104309039D01*
X102726792Y-104311593D01*
X102801235Y-104316445D01*
X102847594Y-104324331D01*
X102873239Y-104335988D01*
X102885539Y-104352153D01*
X102891865Y-104373563D01*
X102892047Y-104374332D01*
X102902441Y-104424663D01*
X102921339Y-104521888D01*
X102946802Y-104655810D01*
X102976890Y-104816235D01*
X103009664Y-104992967D01*
X103012337Y-105007428D01*
X103045010Y-105178959D01*
X103075413Y-105329625D01*
X103101568Y-105450267D01*
X103121496Y-105531729D01*
X103133220Y-105564852D01*
X103133282Y-105564905D01*
X103170229Y-105583229D01*
X103246057Y-105613677D01*
X103344425Y-105649685D01*
X103349965Y-105651640D01*
X103475724Y-105699170D01*
X103622011Y-105758783D01*
X103758293Y-105818056D01*
X103982390Y-105919765D01*
X104478618Y-105580897D01*
X104513570Y-105557063D01*
X104663280Y-105455755D01*
X104796867Y-105366575D01*
X104906343Y-105294773D01*
X104983718Y-105245603D01*
X105021004Y-105224317D01*
X105046552Y-105229196D01*
X105104555Y-105267002D01*
X105194195Y-105341870D01*
X105317957Y-105455903D01*
X105478328Y-105611205D01*
X105492679Y-105625341D01*
X105619933Y-105751999D01*
X105732969Y-105866745D01*
X105824867Y-105962391D01*
X105888707Y-106031746D01*
X105917570Y-106067620D01*
X105917664Y-106067794D01*
X105921331Y-106095106D01*
X105907808Y-106139408D01*
X105873684Y-106206761D01*
X105815548Y-106303226D01*
X105729988Y-106434863D01*
X105613594Y-106607734D01*
X105593759Y-106636912D01*
X105493445Y-106784726D01*
X105404923Y-106915577D01*
X105333465Y-107021643D01*
X105284343Y-107095102D01*
X105262831Y-107128130D01*
X105261208Y-107135126D01*
X105271387Y-107187326D01*
X105301879Y-107272561D01*
X105347712Y-107376291D01*
X105410000Y-107511951D01*
X105479548Y-107672921D01*
X105538609Y-107818621D01*
X105553252Y-107856333D01*
X105591600Y-107952622D01*
X105619770Y-108019704D01*
X105632497Y-108044885D01*
X105646545Y-108046767D01*
X105709681Y-108057651D01*
X105813019Y-108076449D01*
X105945809Y-108101115D01*
X106097297Y-108129604D01*
X106256732Y-108159873D01*
X106413361Y-108189875D01*
X106556433Y-108217566D01*
X106675195Y-108240900D01*
X106758896Y-108257833D01*
X106796782Y-108266320D01*
X106803063Y-108268713D01*
X106818373Y-108281619D01*
X106829763Y-108309096D01*
X106837803Y-108358446D01*
X106843064Y-108436973D01*
X106846116Y-108551980D01*
X106847529Y-108710770D01*
X106847873Y-108920645D01*
X106847873Y-109558906D01*
X106694598Y-109589160D01*
X106676057Y-109592785D01*
X106577596Y-109611569D01*
X106441448Y-109637093D01*
X106283087Y-109666468D01*
X106117988Y-109696806D01*
X106052973Y-109709009D01*
X105907697Y-109738697D01*
X105786626Y-109766770D01*
X105700886Y-109790536D01*
X105661601Y-109807301D01*
X105643799Y-109834694D01*
X105611389Y-109907174D01*
X105578234Y-110000977D01*
X105566564Y-110036103D01*
X105523604Y-110151409D01*
X105468192Y-110287876D01*
X105409353Y-110422954D01*
X105377884Y-110493509D01*
X105333051Y-110598895D01*
X105302240Y-110677818D01*
X105290785Y-110717053D01*
X105291422Y-110720014D01*
X105313150Y-110761639D01*
X105362146Y-110841969D01*
X105433438Y-110953220D01*
X105522054Y-111087605D01*
X105623023Y-111237340D01*
X105955261Y-111724931D01*
X105518771Y-112162149D01*
X105476555Y-112204221D01*
X105347470Y-112330153D01*
X105232107Y-112438754D01*
X105137224Y-112523903D01*
X105069582Y-112579482D01*
X105035938Y-112599368D01*
X104999402Y-112584238D01*
X104922890Y-112540801D01*
X104815196Y-112474270D01*
X104684767Y-112389867D01*
X104540052Y-112292816D01*
X104397910Y-112196964D01*
X104269678Y-112112557D01*
X104165054Y-112045850D01*
X104092171Y-112002024D01*
X104059158Y-111986264D01*
X104057223Y-111986408D01*
X104013369Y-112001945D01*
X103935598Y-112038121D01*
X103839392Y-112087785D01*
X103838381Y-112088329D01*
X103710605Y-112152326D01*
X103623051Y-112183591D01*
X103568726Y-112183677D01*
X103540641Y-112154138D01*
X103528752Y-112125061D01*
X103496668Y-112047188D01*
X103447247Y-111927475D01*
X103383118Y-111772286D01*
X103306911Y-111587984D01*
X103221255Y-111380933D01*
X103128781Y-111157496D01*
X103044962Y-110954226D01*
X102959678Y-110745649D01*
X102884222Y-110559263D01*
X102821126Y-110401407D01*
X102772923Y-110278419D01*
X102742144Y-110196639D01*
X102731322Y-110162406D01*
X102751991Y-110131015D01*
X102809409Y-110078602D01*
X102890688Y-110017704D01*
X103085820Y-109858387D01*
X103260445Y-109654807D01*
X103388235Y-109430808D01*
X103468402Y-109193003D01*
X103500160Y-108948007D01*
X103482722Y-108702433D01*
X103415301Y-108462895D01*
X103297111Y-108236007D01*
X103127364Y-108028383D01*
X103038856Y-107947527D01*
X102826804Y-107804559D01*
X102599905Y-107711352D01*
X102364791Y-107665687D01*
X102128094Y-107665344D01*
X101896446Y-107708105D01*
X101676478Y-107791750D01*
X101474822Y-107914061D01*
X101298111Y-108072817D01*
X101152977Y-108265801D01*
X101046050Y-108490793D01*
X100983964Y-108745575D01*
X100972569Y-108868377D01*
X100988246Y-109134434D01*
X101058846Y-109386856D01*
X101182282Y-109621182D01*
X101356466Y-109832952D01*
X101579311Y-110017704D01*
X101657561Y-110076123D01*
X101716244Y-110129110D01*
X101738678Y-110162356D01*
X101729732Y-110191339D01*
X101700703Y-110268996D01*
X101654026Y-110388451D01*
X101592231Y-110543362D01*
X101517850Y-110727392D01*
X101433412Y-110934200D01*
X101341449Y-111157446D01*
X101257771Y-111359742D01*
X101171366Y-111568686D01*
X101094138Y-111755498D01*
X101028716Y-111913814D01*
X100977731Y-112037269D01*
X100943812Y-112119498D01*
X100929590Y-112154138D01*
X100929425Y-112154548D01*
X100900972Y-112183798D01*
X100846382Y-112183463D01*
X100758609Y-112151980D01*
X100630608Y-112087785D01*
X100620532Y-112082380D01*
X100525481Y-112033750D01*
X100450424Y-111999328D01*
X100410842Y-111986264D01*
X100378400Y-112001702D01*
X100305895Y-112045258D01*
X100201565Y-112111751D01*
X100073539Y-112195998D01*
X99929948Y-112292816D01*
X99788468Y-112387734D01*
X99657611Y-112472490D01*
X99549292Y-112539496D01*
X99471960Y-112583529D01*
X99434062Y-112599368D01*
X99427607Y-112597357D01*
X99382609Y-112565658D01*
X99305727Y-112500181D01*
X99203721Y-112407048D01*
X99083351Y-112292381D01*
X98951379Y-112162300D01*
X98515039Y-111725232D01*
X99194733Y-110725440D01*
X99091402Y-110501886D01*
X99091096Y-110501225D01*
X99029046Y-110358714D01*
X98965640Y-110200018D01*
X98914558Y-110059368D01*
X98906827Y-110036683D01*
X98867852Y-109931370D01*
X98832707Y-109849534D01*
X98808195Y-109807301D01*
X98798212Y-109801337D01*
X98738286Y-109781329D01*
X98636532Y-109755442D01*
X98504068Y-109726370D01*
X98352011Y-109696806D01*
X98306466Y-109688467D01*
X98141685Y-109658107D01*
X97987930Y-109629509D01*
X97860678Y-109605564D01*
X97775402Y-109589160D01*
X97622126Y-109558906D01*
X97622126Y-108920645D01*
X97622160Y-108842165D01*
X97622808Y-108650703D01*
X97624720Y-108507812D01*
X97628469Y-108406189D01*
X97634622Y-108338531D01*
X97643751Y-108297536D01*
X97656427Y-108275900D01*
X97673218Y-108266320D01*
X97689474Y-108262439D01*
X97755748Y-108248710D01*
X97861479Y-108227745D01*
X97995915Y-108201588D01*
X98148302Y-108172283D01*
X98307890Y-108141877D01*
X98463925Y-108112413D01*
X98605657Y-108085937D01*
X98722331Y-108064494D01*
X98803197Y-108050128D01*
X98837503Y-108044885D01*
X98839822Y-108041720D01*
X98858474Y-108000642D01*
X98890753Y-107922044D01*
X98931391Y-107818621D01*
X98987788Y-107679273D01*
X99057214Y-107518226D01*
X99122288Y-107376291D01*
X99137202Y-107344432D01*
X99179047Y-107244669D01*
X99204118Y-107167721D01*
X99207426Y-107128130D01*
X99205720Y-107125325D01*
X99178631Y-107084005D01*
X99124927Y-107003740D01*
X99049877Y-106892350D01*
X98958746Y-106757655D01*
X98856800Y-106607476D01*
X98741930Y-106436851D01*
X98655761Y-106304311D01*
X98597131Y-106207112D01*
X98562650Y-106139234D01*
X98548926Y-106094656D01*
X98552568Y-106067361D01*
X98553794Y-106065313D01*
X98586747Y-106025536D01*
X98653927Y-105953052D01*
X98748419Y-105855046D01*
X98863306Y-105738702D01*
X98991672Y-105611205D01*
X99124831Y-105481821D01*
X99255269Y-105360209D01*
X99351119Y-105278156D01*
X99414866Y-105233560D01*
X99448996Y-105224317D01*
X99453456Y-105226393D01*
X99500421Y-105254385D01*
X99585685Y-105309084D01*
X99701259Y-105385237D01*
X99839154Y-105477592D01*
X99991381Y-105580897D01*
X100487610Y-105919765D01*
X100711707Y-105818056D01*
X100718219Y-105815109D01*
X100855804Y-105755504D01*
X101001767Y-105696222D01*
X101125575Y-105649685D01*
X101126122Y-105649493D01*
X101224414Y-105613497D01*
X101300081Y-105583095D01*
X101336780Y-105564852D01*
X101337374Y-105564190D01*
X101349833Y-105526831D01*
X101370336Y-105441871D01*
X101396907Y-105318469D01*
X101427567Y-105165782D01*
X101460336Y-104992967D01*
X101461478Y-104986774D01*
X101494193Y-104810431D01*
X101524155Y-104650743D01*
X101549425Y-104517905D01*
X101568065Y-104422113D01*
X101578135Y-104373563D01*
X101578779Y-104370873D01*
X101585408Y-104350088D01*
X101598841Y-104334466D01*
X101626446Y-104323270D01*
X101675593Y-104315762D01*
X101753653Y-104311205D01*
X101867994Y-104308863D01*
X102025986Y-104307998D01*
X102235000Y-104307874D01*
X102261262Y-104307874D01*
X102464175Y-104308045D01*
%LPC*%
D14*
X82040000Y-64310000D03*
X140040000Y-64330000D03*
X82040000Y-113320000D03*
X140030000Y-113310000D03*
D15*
X98425000Y-92710000D03*
D16*
X105410000Y-92710000D03*
D17*
X105410000Y-85090000D03*
D18*
X101184755Y-80425244D03*
X103724755Y-80425244D03*
X106264755Y-80425244D03*
D19*
X88890000Y-73665000D03*
D17*
X88890000Y-71125000D03*
X81270000Y-71125000D03*
X81270000Y-73665000D03*
D20*
X129010000Y-88590000D03*
D21*
X129010000Y-86090000D03*
X129010000Y-84090000D03*
X129010000Y-81590000D03*
X131630000Y-88590000D03*
X131630000Y-86090000D03*
X131630000Y-84090000D03*
X131630000Y-81590000D03*
D14*
X128660000Y-78520000D03*
X134340000Y-78520000D03*
X128660000Y-91660000D03*
X134340000Y-91660000D03*
D16*
X124460000Y-69215000D03*
D17*
X132080000Y-69215000D03*
D16*
X107534755Y-76615244D03*
D17*
X107534755Y-68995244D03*
D16*
X87630000Y-92710000D03*
D17*
X87630000Y-85090000D03*
D22*
X119364755Y-81695244D03*
D23*
X117294755Y-80425244D03*
X119364755Y-79155244D03*
D16*
X91480000Y-76835000D03*
X96480000Y-76835000D03*
D19*
X108595000Y-85100000D03*
D17*
X108595000Y-87640000D03*
X108595000Y-90180000D03*
X108595000Y-92720000D03*
X116215000Y-92720000D03*
X116215000Y-90180000D03*
X116215000Y-87640000D03*
X116215000Y-85100000D03*
D24*
X88265000Y-114940000D03*
D25*
X88265000Y-112400000D03*
D24*
X142240000Y-74930000D03*
D25*
X139700000Y-74930000D03*
D22*
X111579755Y-79155244D03*
D26*
X113649755Y-80425244D03*
X111579755Y-81695244D03*
D16*
X88900000Y-102235000D03*
D17*
X88900000Y-109855000D03*
D24*
X142240000Y-69850000D03*
D25*
X139700000Y-69850000D03*
D16*
X124460000Y-72390000D03*
D17*
X132080000Y-72390000D03*
D16*
X95250000Y-92710000D03*
D17*
X95250000Y-85090000D03*
D16*
X119380000Y-92710000D03*
D17*
X119380000Y-85090000D03*
D27*
X82550000Y-106680000D03*
D28*
X82550000Y-104180000D03*
X82550000Y-101680000D03*
X82550000Y-99180000D03*
D19*
X118319755Y-71540244D03*
D17*
X118319755Y-69000244D03*
X110699755Y-69000244D03*
X110699755Y-71540244D03*
D29*
X102454755Y-73675244D03*
D30*
X101184755Y-75745244D03*
X99914755Y-73675244D03*
D16*
X81280000Y-77470000D03*
D17*
X88900000Y-77470000D03*
D19*
X140970000Y-104140000D03*
D16*
X138470000Y-104140000D03*
D31*
X93345000Y-96520000D03*
D32*
X93345000Y-114300000D03*
X133985000Y-114300000D03*
X133985000Y-96520000D03*
D33*
X83820000Y-91440000D03*
D34*
X83820000Y-88900000D03*
X83820000Y-86360000D03*
D16*
X123190000Y-87670000D03*
X123190000Y-92670000D03*
D24*
X95250000Y-80005000D03*
D25*
X95250000Y-82545000D03*
D16*
X118329755Y-75345244D03*
D17*
X110709755Y-75345244D03*
D16*
X101600000Y-90130000D03*
X101600000Y-85130000D03*
D35*
X137700000Y-96520000D03*
X141700000Y-96520000D03*
D36*
X88900000Y-96520000D03*
D37*
X88900000Y-99060000D03*
D16*
X91440000Y-92710000D03*
D17*
X91440000Y-85090000D03*
D16*
X123190000Y-85090000D03*
D17*
X123190000Y-77470000D03*
D16*
X104359755Y-69630244D03*
X99359755Y-69630244D03*
X81280000Y-81280000D03*
D17*
X88900000Y-81280000D03*
D16*
X121504755Y-73440244D03*
X121504755Y-68440244D03*
D36*
X86920000Y-65590000D03*
D37*
X86920000Y-63050000D03*
X89460000Y-65590000D03*
X89460000Y-63050000D03*
X92000000Y-65590000D03*
X92000000Y-63050000D03*
X94540000Y-65590000D03*
X94540000Y-63050000D03*
X97080000Y-65590000D03*
X97080000Y-63050000D03*
X99620000Y-65590000D03*
X99620000Y-63050000D03*
X102160000Y-65590000D03*
X102160000Y-63050000D03*
X104700000Y-65590000D03*
X104700000Y-63050000D03*
X107240000Y-65590000D03*
X107240000Y-63050000D03*
X109780000Y-65590000D03*
X109780000Y-63050000D03*
X112320000Y-65590000D03*
X112320000Y-63050000D03*
X114860000Y-65590000D03*
X114860000Y-63050000D03*
X117400000Y-65590000D03*
X117400000Y-63050000D03*
X119940000Y-65590000D03*
X119940000Y-63050000D03*
X122480000Y-65590000D03*
X122480000Y-63050000D03*
X125020000Y-65590000D03*
X125020000Y-63050000D03*
X127560000Y-65590000D03*
X127560000Y-63050000D03*
X130100000Y-65590000D03*
X130100000Y-63050000D03*
X132640000Y-65590000D03*
X132640000Y-63050000D03*
X135180000Y-65590000D03*
X135180000Y-63050000D03*
M02*
