  0
SECTION
  2
HEADER
  9
$ANGBASE
  50
0.0
  9
$ANGDIR
  70
1
  9
$MEASUREMENT
  70
1
  0
ENDSEC
  0
SECTION
  2
TABLES
  0
TABLE
  2
LTYPE
  70
4
  0
LTYPE
  5
40F
  2
CONTINUOUS
  70
0
  3
Solid line
  72
65
  73
0
  40
0.0
  0
LTYPE
  5
410
  2
DASHDOT
 70
0
  3
Dash Dot ____ _ ____ _
 72
65
 73
4
 40
2.0
 49
1.25
 49
-0.25
 49
0.25
 49
-0.25
  0
LTYPE
  5
411
  2
DASHED
 70
0
  3
Dashed __ __ __ __ __
 72
65
 73
2
 40
0.75
 49
0.5
 49
-0.25
  0
LTYPE
  5
43B
  2
DOTTED
 70
0
  3
Dotted .  .  .  .
 72
65
 73
2
 40
0.2
 49
0.0
 49
-0.2
  0
ENDTAB
  0
TABLE
  2
STYLE
  70
4
  0
STYLE
  2
KICAD
  70
0
  40
0
  41
1
  42
1
  50
0
  71
0
  3
isocp.shx
  0
STYLE
  2
KICADB
  70
0
  40
0
  41
1
  42
1
  50
0
  71
0
  3
isocp.shx
  0
STYLE
  2
KICADI
  70
0
  40
0
  41
1
  42
1
  50
15
  71
0
  3
isocp.shx
  0
STYLE
  2
KICADBI
  70
0
  40
0
  41
1
  42
1
  50
15
  71
0
  3
isocp.shx
  0
ENDTAB
  0
TABLE
  2
LAYER
  70
1
  0
LAYER
  2
BLACK
  70
0
  62
7
  6
CONTINUOUS
  0
ENDTAB
  0
ENDSEC
  0
SECTION
  2
ENTITIES
0
LINE
8
BLACK
6
CONTINUOUS
10
143.5463509999999872
20
-113.8228469999999959
11
143.546356000000003
21
-63.8176109999999994
0
LINE
8
BLACK
6
CONTINUOUS
10
78.546356000000003
20
-63.8176109999999994
11
78.546356000000003
21
-113.8176109999999994
0
ARC
8
BLACK
10
140.546371999999991
20
-113.8176270000000017
40
2.9999832943194322
50
-90.00031028
51
-0.09968178
0
LINE
8
BLACK
6
CONTINUOUS
10
140.546356000000003
20
-60.8176109999999994
11
81.546356000000003
21
-60.8176109999999994
0
LINE
8
BLACK
6
CONTINUOUS
10
81.546356000000003
20
-116.8176109999999994
11
140.546356000000003
21
-116.8176109999999994
0
ARC
8
BLACK
10
140.5463829999999916
20
-63.8175829999999991
40
2.9999725001260429
50
-0.00052522
51
90.00052522
0
ARC
8
BLACK
10
81.546371999999991
20
-63.8176269999999946
40
3.0000165000453749
50
90.00031513
51
179.99968487
0
ARC
8
BLACK
10
81.5463829999999916
20
-113.8175829999999991
40
3.0000275001260404
50
-179.99947479
51
-90.00052521
0
LINE
8
BLACK
6
CONTINUOUS
10
80.664999999999992
20
-62.9349999999999952
11
83.414999999999992
21
-65.6850000000000023
0
LINE
8
BLACK
6
CONTINUOUS
10
83.414999999999992
20
-62.9349999999999952
11
80.664999999999992
21
-65.6850000000000023
0
LINE
8
BLACK
6
CONTINUOUS
10
80.664999999999992
20
-111.9449999999999932
11
83.414999999999992
21
-114.6949999999999932
0
LINE
8
BLACK
6
CONTINUOUS
10
83.414999999999992
20
-111.9449999999999932
11
80.664999999999992
21
-114.6949999999999932
0
LINE
8
BLACK
6
CONTINUOUS
10
138.6550000000000011
20
-111.9349999999999881
11
141.4050000000000011
21
-114.6849999999999881
0
LINE
8
BLACK
6
CONTINUOUS
10
141.4050000000000011
20
-111.9349999999999881
11
138.6550000000000011
21
-114.6849999999999881
0
LINE
8
BLACK
6
CONTINUOUS
10
138.664999999999992
20
-62.9549999999999983
11
141.414999999999992
21
-65.7049999999999983
0
LINE
8
BLACK
6
CONTINUOUS
10
141.414999999999992
20
-62.9549999999999983
11
138.664999999999992
21
-65.7049999999999983
0
LINE
8
BLACK
6
CONTINUOUS
10
81.1041239999999988
20
-119.9824489999999884
11
81.1041239999999988
21
-117.9824489999999884
0
LINE
8
BLACK
6
CONTINUOUS
10
81.1041239999999988
20
-117.9824489999999884
11
81.5803140000000013
21
-117.9824489999999884
0
LINE
8
BLACK
6
CONTINUOUS
10
81.5803140000000013
20
-117.9824489999999884
11
81.8660289999999975
21
-118.0776869999999974
0
LINE
8
BLACK
6
CONTINUOUS
10
81.8660289999999975
20
-118.0776869999999974
11
82.0565050000000014
21
-118.2681630000000013
0
LINE
8
BLACK
6
CONTINUOUS
10
82.0565050000000014
20
-118.2681630000000013
11
82.1517429999999962
21
-118.4586389999999909
0
LINE
8
BLACK
6
CONTINUOUS
10
82.1517429999999962
20
-118.4586389999999909
11
82.246980999999991
21
-118.8395909999999986
0
LINE
8
BLACK
6
CONTINUOUS
10
82.246980999999991
20
-118.8395909999999986
11
82.246980999999991
21
-119.1253059999999948
0
LINE
8
BLACK
6
CONTINUOUS
10
82.246980999999991
20
-119.1253059999999948
11
82.1517429999999962
21
-119.5062579999999883
0
LINE
8
BLACK
6
CONTINUOUS
10
82.1517429999999962
20
-119.5062579999999883
11
82.0565050000000014
21
-119.6967339999999922
0
LINE
8
BLACK
6
CONTINUOUS
10
82.0565050000000014
20
-119.6967339999999922
11
81.8660289999999975
21
-119.8872109999999935
0
LINE
8
BLACK
6
CONTINUOUS
10
81.8660289999999975
20
-119.8872109999999935
11
81.5803140000000013
21
-119.9824489999999884
0
LINE
8
BLACK
6
CONTINUOUS
10
81.5803140000000013
20
-119.9824489999999884
11
81.1041239999999988
21
-119.9824489999999884
0
LINE
8
BLACK
6
CONTINUOUS
10
83.1041239999999988
20
-119.9824489999999884
11
83.1041239999999988
21
-118.6491149999999948
0
LINE
8
BLACK
6
CONTINUOUS
10
83.1041239999999988
20
-119.030068
11
83.1993619999999936
21
-118.8395909999999986
0
LINE
8
BLACK
6
CONTINUOUS
10
83.1993619999999936
20
-118.8395909999999986
11
83.2946000000000026
21
-118.7443529999999896
0
LINE
8
BLACK
6
CONTINUOUS
10
83.2946000000000026
20
-118.7443529999999896
11
83.4850759999999923
21
-118.6491149999999948
0
LINE
8
BLACK
6
CONTINUOUS
10
83.4850759999999923
20
-118.6491149999999948
11
83.6755529999999936
21
-118.6491149999999948
0
LINE
8
BLACK
6
CONTINUOUS
10
84.3422190000000001
20
-119.9824489999999884
11
84.3422190000000001
21
-118.6491149999999948
0
LINE
8
BLACK
6
CONTINUOUS
10
84.3422190000000001
20
-117.9824489999999884
11
84.246980999999991
21
-118.0776869999999974
0
LINE
8
BLACK
6
CONTINUOUS
10
84.246980999999991
20
-118.0776869999999974
11
84.3422190000000001
21
-118.1729249999999922
0
LINE
8
BLACK
6
CONTINUOUS
10
84.3422190000000001
20
-118.1729249999999922
11
84.4374569999999949
21
-118.0776869999999974
0
LINE
8
BLACK
6
CONTINUOUS
10
84.4374569999999949
20
-118.0776869999999974
11
84.3422190000000001
21
-117.9824489999999884
0
LINE
8
BLACK
6
CONTINUOUS
10
84.3422190000000001
20
-117.9824489999999884
11
84.3422190000000001
21
-118.1729249999999922
0
LINE
8
BLACK
6
CONTINUOUS
10
85.5803140000000013
20
-119.9824489999999884
11
85.3898379999999975
21
-119.8872109999999935
0
LINE
8
BLACK
6
CONTINUOUS
10
85.3898379999999975
20
-119.8872109999999935
11
85.2946000000000026
21
-119.6967339999999922
0
LINE
8
BLACK
6
CONTINUOUS
10
85.2946000000000026
20
-119.6967339999999922
11
85.2946000000000026
21
-117.9824489999999884
0
LINE
8
BLACK
6
CONTINUOUS
10
86.6279329999999987
20
-119.9824489999999884
11
86.4374569999999949
21
-119.8872109999999935
0
LINE
8
BLACK
6
CONTINUOUS
10
86.4374569999999949
20
-119.8872109999999935
11
86.3422190000000001
21
-119.6967339999999922
0
LINE
8
BLACK
6
CONTINUOUS
10
86.3422190000000001
20
-119.6967339999999922
11
86.3422190000000001
21
-117.9824489999999884
0
LINE
8
BLACK
6
CONTINUOUS
10
88.9136479999999949
20
-119.9824489999999884
11
88.9136479999999949
21
-117.9824489999999884
0
LINE
8
BLACK
6
CONTINUOUS
10
88.9136479999999949
20
-117.9824489999999884
11
89.5803149999999988
21
-119.4110199999999935
0
LINE
8
BLACK
6
CONTINUOUS
10
89.5803149999999988
20
-119.4110199999999935
11
90.246980999999991
21
-117.9824489999999884
0
LINE
8
BLACK
6
CONTINUOUS
10
90.246980999999991
20
-117.9824489999999884
11
90.246980999999991
21
-119.9824489999999884
0
LINE
8
BLACK
6
CONTINUOUS
10
92.0565050000000014
20
-119.9824489999999884
11
92.0565050000000014
21
-118.9348299999999909
0
LINE
8
BLACK
6
CONTINUOUS
10
92.0565050000000014
20
-118.9348299999999909
11
91.9612669999999923
21
-118.7443529999999896
0
LINE
8
BLACK
6
CONTINUOUS
10
91.9612669999999923
20
-118.7443529999999896
11
91.7707910000000027
21
-118.6491149999999948
0
LINE
8
BLACK
6
CONTINUOUS
10
91.7707910000000027
20
-118.6491149999999948
11
91.3898379999999975
21
-118.6491149999999948
0
LINE
8
BLACK
6
CONTINUOUS
10
91.3898379999999975
20
-118.6491149999999948
11
91.1993619999999936
21
-118.7443529999999896
0
LINE
8
BLACK
6
CONTINUOUS
10
92.0565050000000014
20
-119.8872109999999935
11
91.8660289999999975
21
-119.9824489999999884
0
LINE
8
BLACK
6
CONTINUOUS
10
91.8660289999999975
20
-119.9824489999999884
11
91.3898379999999975
21
-119.9824489999999884
0
LINE
8
BLACK
6
CONTINUOUS
10
91.3898379999999975
20
-119.9824489999999884
11
91.1993619999999936
21
-119.8872109999999935
0
LINE
8
BLACK
6
CONTINUOUS
10
91.1993619999999936
20
-119.8872109999999935
11
91.1041239999999988
21
-119.6967339999999922
0
LINE
8
BLACK
6
CONTINUOUS
10
91.1041239999999988
20
-119.6967339999999922
11
91.1041239999999988
21
-119.5062579999999883
0
LINE
8
BLACK
6
CONTINUOUS
10
91.1041239999999988
20
-119.5062579999999883
11
91.1993619999999936
21
-119.3157819999999987
0
LINE
8
BLACK
6
CONTINUOUS
10
91.1993619999999936
20
-119.3157819999999987
11
91.3898379999999975
21
-119.2205439999999896
0
LINE
8
BLACK
6
CONTINUOUS
10
91.3898379999999975
20
-119.2205439999999896
11
91.8660289999999975
21
-119.2205439999999896
0
LINE
8
BLACK
6
CONTINUOUS
10
91.8660289999999975
20
-119.2205439999999896
11
92.0565050000000014
21
-119.1253059999999948
0
LINE
8
BLACK
6
CONTINUOUS
10
93.0088859999999897
20
-118.6491149999999948
11
93.0088859999999897
21
-120.6491149999999948
0
LINE
8
BLACK
6
CONTINUOUS
10
93.0088859999999897
20
-118.7443529999999896
11
93.1993619999999936
21
-118.6491149999999948
0
LINE
8
BLACK
6
CONTINUOUS
10
93.1993619999999936
20
-118.6491149999999948
11
93.5803149999999988
21
-118.6491149999999948
0
LINE
8
BLACK
6
CONTINUOUS
10
93.5803149999999988
20
-118.6491149999999948
11
93.7707910000000027
21
-118.7443529999999896
0
LINE
8
BLACK
6
CONTINUOUS
10
93.7707910000000027
20
-118.7443529999999896
11
93.8660289999999975
21
-118.8395909999999986
0
LINE
8
BLACK
6
CONTINUOUS
10
93.8660289999999975
20
-118.8395909999999986
11
93.9612669999999923
21
-119.030068
0
LINE
8
BLACK
6
CONTINUOUS
10
93.9612669999999923
20
-119.030068
11
93.9612669999999923
21
-119.6014959999999974
0
LINE
8
BLACK
6
CONTINUOUS
10
93.9612669999999923
20
-119.6014959999999974
11
93.8660289999999975
21
-119.7919720000000012
0
LINE
8
BLACK
6
CONTINUOUS
10
93.8660289999999975
20
-119.7919720000000012
11
93.7707910000000027
21
-119.8872109999999935
0
LINE
8
BLACK
6
CONTINUOUS
10
93.7707910000000027
20
-119.8872109999999935
11
93.5803149999999988
21
-119.9824489999999884
0
LINE
8
BLACK
6
CONTINUOUS
10
93.5803149999999988
20
-119.9824489999999884
11
93.1993619999999936
21
-119.9824489999999884
0
LINE
8
BLACK
6
CONTINUOUS
10
93.1993619999999936
20
-119.9824489999999884
11
93.0088859999999897
21
-119.8872109999999935
0
LINE
8
BLACK
6
CONTINUOUS
10
94.8184100000000001
20
-119.7919720000000012
11
94.9136479999999949
21
-119.8872109999999935
0
LINE
8
BLACK
6
CONTINUOUS
10
94.9136479999999949
20
-119.8872109999999935
11
94.8184100000000001
21
-119.9824489999999884
0
LINE
8
BLACK
6
CONTINUOUS
10
94.8184100000000001
20
-119.9824489999999884
11
94.723171999999991
21
-119.8872109999999935
0
LINE
8
BLACK
6
CONTINUOUS
10
94.723171999999991
20
-119.8872109999999935
11
94.8184100000000001
21
-119.7919720000000012
0
LINE
8
BLACK
6
CONTINUOUS
10
94.8184100000000001
20
-119.7919720000000012
11
94.8184100000000001
21
-119.9824489999999884
0
LINE
8
BLACK
6
CONTINUOUS
10
94.8184100000000001
20
-118.7443529999999896
11
94.9136479999999949
21
-118.8395909999999986
0
LINE
8
BLACK
6
CONTINUOUS
10
94.9136479999999949
20
-118.8395909999999986
11
94.8184100000000001
21
-118.9348299999999909
0
LINE
8
BLACK
6
CONTINUOUS
10
94.8184100000000001
20
-118.9348299999999909
11
94.723171999999991
21
-118.8395909999999986
0
LINE
8
BLACK
6
CONTINUOUS
10
94.723171999999991
20
-118.8395909999999986
11
94.8184100000000001
21
-118.7443529999999896
0
LINE
8
BLACK
6
CONTINUOUS
10
94.8184100000000001
20
-118.7443529999999896
11
94.8184100000000001
21
-118.9348299999999909
0
LINE
8
BLACK
6
CONTINUOUS
10
76.4963559999999916
20
-122.2676109999999881
11
78.4963559999999916
21
-124.2676109999999881
0
LINE
8
BLACK
6
CONTINUOUS
10
78.4963559999999916
20
-122.2676109999999881
11
76.4963559999999916
21
-124.2676109999999881
0
LINE
8
BLACK
6
CONTINUOUS
10
81.0088859999999897
20
-122.3729249999999951
11
81.1041239999999988
21
-122.2776870000000002
0
LINE
8
BLACK
6
CONTINUOUS
10
81.1041239999999988
20
-122.2776870000000002
11
81.2946000000000026
21
-122.1824489999999912
0
LINE
8
BLACK
6
CONTINUOUS
10
81.2946000000000026
20
-122.1824489999999912
11
81.7707910000000027
21
-122.1824489999999912
0
LINE
8
BLACK
6
CONTINUOUS
10
81.7707910000000027
20
-122.1824489999999912
11
81.9612669999999923
21
-122.2776870000000002
0
LINE
8
BLACK
6
CONTINUOUS
10
81.9612669999999923
20
-122.2776870000000002
11
82.0565050000000014
21
-122.3729249999999951
0
LINE
8
BLACK
6
CONTINUOUS
10
82.0565050000000014
20
-122.3729249999999951
11
82.1517429999999962
21
-122.5634009999999989
0
LINE
8
BLACK
6
CONTINUOUS
10
82.1517429999999962
20
-122.5634009999999989
11
82.1517429999999962
21
-122.7538769999999886
0
LINE
8
BLACK
6
CONTINUOUS
10
82.1517429999999962
20
-122.7538769999999886
11
82.0565050000000014
21
-123.0395910000000015
0
LINE
8
BLACK
6
CONTINUOUS
10
82.0565050000000014
20
-123.0395910000000015
11
80.9136479999999949
21
-124.1824489999999912
0
LINE
8
BLACK
6
CONTINUOUS
10
80.9136479999999949
20
-124.1824489999999912
11
82.1517429999999962
21
-124.1824489999999912
0
LINE
8
BLACK
6
CONTINUOUS
10
83.0088859999999897
20
-123.9919719999999899
11
83.1041239999999988
21
-124.0872109999999964
0
LINE
8
BLACK
6
CONTINUOUS
10
83.1041239999999988
20
-124.0872109999999964
11
83.0088859999999897
21
-124.1824489999999912
0
LINE
8
BLACK
6
CONTINUOUS
10
83.0088859999999897
20
-124.1824489999999912
11
82.9136479999999949
21
-124.0872109999999964
0
LINE
8
BLACK
6
CONTINUOUS
10
82.9136479999999949
20
-124.0872109999999964
11
83.0088859999999897
21
-123.9919719999999899
0
LINE
8
BLACK
6
CONTINUOUS
10
83.0088859999999897
20
-123.9919719999999899
11
83.0088859999999897
21
-124.1824489999999912
0
LINE
8
BLACK
6
CONTINUOUS
10
83.7707910000000027
20
-122.1824489999999912
11
85.1041239999999988
21
-122.1824489999999912
0
LINE
8
BLACK
6
CONTINUOUS
10
85.1041239999999988
20
-122.1824489999999912
11
84.246980999999991
21
-124.1824489999999912
0
LINE
8
BLACK
6
CONTINUOUS
10
86.8184100000000001
20
-122.1824489999999912
11
85.8660289999999975
21
-122.1824489999999912
0
LINE
8
BLACK
6
CONTINUOUS
10
85.8660289999999975
20
-122.1824489999999912
11
85.7707910000000027
21
-123.1348299999999938
0
LINE
8
BLACK
6
CONTINUOUS
10
85.7707910000000027
20
-123.1348299999999938
11
85.8660289999999975
21
-123.0395910000000015
0
LINE
8
BLACK
6
CONTINUOUS
10
85.8660289999999975
20
-123.0395910000000015
11
86.0565050000000014
21
-122.9443529999999924
0
LINE
8
BLACK
6
CONTINUOUS
10
86.0565050000000014
20
-122.9443529999999924
11
86.5326960000000014
21
-122.9443529999999924
0
LINE
8
BLACK
6
CONTINUOUS
10
86.5326960000000014
20
-122.9443529999999924
11
86.723171999999991
21
-123.0395910000000015
0
LINE
8
BLACK
6
CONTINUOUS
10
86.723171999999991
20
-123.0395910000000015
11
86.8184100000000001
21
-123.1348299999999938
0
LINE
8
BLACK
6
CONTINUOUS
10
86.8184100000000001
20
-123.1348299999999938
11
86.9136479999999949
21
-123.3253059999999977
0
LINE
8
BLACK
6
CONTINUOUS
10
86.9136479999999949
20
-123.3253059999999977
11
86.9136479999999949
21
-123.8014960000000002
0
LINE
8
BLACK
6
CONTINUOUS
10
86.9136479999999949
20
-123.8014960000000002
11
86.8184100000000001
21
-123.9919719999999899
0
LINE
8
BLACK
6
CONTINUOUS
10
86.8184100000000001
20
-123.9919719999999899
11
86.723171999999991
21
-124.0872109999999964
0
LINE
8
BLACK
6
CONTINUOUS
10
86.723171999999991
20
-124.0872109999999964
11
86.5326960000000014
21
-124.1824489999999912
0
LINE
8
BLACK
6
CONTINUOUS
10
86.5326960000000014
20
-124.1824489999999912
11
86.0565050000000014
21
-124.1824489999999912
0
LINE
8
BLACK
6
CONTINUOUS
10
86.0565050000000014
20
-124.1824489999999912
11
85.8660289999999975
21
-124.0872109999999964
0
LINE
8
BLACK
6
CONTINUOUS
10
85.8660289999999975
20
-124.0872109999999964
11
85.7707910000000027
21
-123.9919719999999899
0
LINE
8
BLACK
6
CONTINUOUS
10
88.1517429999999962
20
-122.1824489999999912
11
88.3422199999999975
21
-122.1824489999999912
0
LINE
8
BLACK
6
CONTINUOUS
10
88.3422199999999975
20
-122.1824489999999912
11
88.5326960000000014
21
-122.2776870000000002
0
LINE
8
BLACK
6
CONTINUOUS
10
88.5326960000000014
20
-122.2776870000000002
11
88.6279339999999962
21
-122.3729249999999951
0
LINE
8
BLACK
6
CONTINUOUS
10
88.6279339999999962
20
-122.3729249999999951
11
88.723171999999991
21
-122.5634009999999989
0
LINE
8
BLACK
6
CONTINUOUS
10
88.723171999999991
20
-122.5634009999999989
11
88.8184100000000001
21
-122.9443529999999924
0
LINE
8
BLACK
6
CONTINUOUS
10
88.8184100000000001
20
-122.9443529999999924
11
88.8184100000000001
21
-123.4205439999999925
0
LINE
8
BLACK
6
CONTINUOUS
10
88.8184100000000001
20
-123.4205439999999925
11
88.723171999999991
21
-123.8014960000000002
0
LINE
8
BLACK
6
CONTINUOUS
10
88.723171999999991
20
-123.8014960000000002
11
88.6279339999999962
21
-123.9919719999999899
0
LINE
8
BLACK
6
CONTINUOUS
10
88.6279339999999962
20
-123.9919719999999899
11
88.5326960000000014
21
-124.0872109999999964
0
LINE
8
BLACK
6
CONTINUOUS
10
88.5326960000000014
20
-124.0872109999999964
11
88.3422199999999975
21
-124.1824489999999912
0
LINE
8
BLACK
6
CONTINUOUS
10
88.3422199999999975
20
-124.1824489999999912
11
88.1517429999999962
21
-124.1824489999999912
0
LINE
8
BLACK
6
CONTINUOUS
10
88.1517429999999962
20
-124.1824489999999912
11
87.9612669999999923
21
-124.0872109999999964
0
LINE
8
BLACK
6
CONTINUOUS
10
87.9612669999999923
20
-124.0872109999999964
11
87.8660289999999975
21
-123.9919719999999899
0
LINE
8
BLACK
6
CONTINUOUS
10
87.8660289999999975
20
-123.9919719999999899
11
87.7707910000000027
21
-123.8014960000000002
0
LINE
8
BLACK
6
CONTINUOUS
10
87.7707910000000027
20
-123.8014960000000002
11
87.6755529999999936
21
-123.4205439999999925
0
LINE
8
BLACK
6
CONTINUOUS
10
87.6755529999999936
20
-123.4205439999999925
11
87.6755529999999936
21
-122.9443529999999924
0
LINE
8
BLACK
6
CONTINUOUS
10
87.6755529999999936
20
-122.9443529999999924
11
87.7707910000000027
21
-122.5634009999999989
0
LINE
8
BLACK
6
CONTINUOUS
10
87.7707910000000027
20
-122.5634009999999989
11
87.8660289999999975
21
-122.3729249999999951
0
LINE
8
BLACK
6
CONTINUOUS
10
87.8660289999999975
20
-122.3729249999999951
11
87.9612669999999923
21
-122.2776870000000002
0
LINE
8
BLACK
6
CONTINUOUS
10
87.9612669999999923
20
-122.2776870000000002
11
88.1517429999999962
21
-122.1824489999999912
0
LINE
8
BLACK
6
CONTINUOUS
10
89.6755529999999936
20
-124.1824489999999912
11
89.6755529999999936
21
-122.8491149999999976
0
LINE
8
BLACK
6
CONTINUOUS
10
89.6755529999999936
20
-123.0395910000000015
11
89.7707910000000027
21
-122.9443529999999924
0
LINE
8
BLACK
6
CONTINUOUS
10
89.7707910000000027
20
-122.9443529999999924
11
89.9612669999999923
21
-122.8491149999999976
0
LINE
8
BLACK
6
CONTINUOUS
10
89.9612669999999923
20
-122.8491149999999976
11
90.2469820000000027
21
-122.8491149999999976
0
LINE
8
BLACK
6
CONTINUOUS
10
90.2469820000000027
20
-122.8491149999999976
11
90.4374579999999924
21
-122.9443529999999924
0
LINE
8
BLACK
6
CONTINUOUS
10
90.4374579999999924
20
-122.9443529999999924
11
90.5326960000000014
21
-123.1348299999999938
0
LINE
8
BLACK
6
CONTINUOUS
10
90.5326960000000014
20
-123.1348299999999938
11
90.5326960000000014
21
-124.1824489999999912
0
LINE
8
BLACK
6
CONTINUOUS
10
90.5326960000000014
20
-123.1348299999999938
11
90.6279339999999962
21
-122.9443529999999924
0
LINE
8
BLACK
6
CONTINUOUS
10
90.6279339999999962
20
-122.9443529999999924
11
90.8184100000000001
21
-122.8491149999999976
0
LINE
8
BLACK
6
CONTINUOUS
10
90.8184100000000001
20
-122.8491149999999976
11
91.1041239999999988
21
-122.8491149999999976
0
LINE
8
BLACK
6
CONTINUOUS
10
91.1041239999999988
20
-122.8491149999999976
11
91.2946010000000001
21
-122.9443529999999924
0
LINE
8
BLACK
6
CONTINUOUS
10
91.2946010000000001
20
-122.9443529999999924
11
91.3898389999999949
21
-123.1348299999999938
0
LINE
8
BLACK
6
CONTINUOUS
10
91.3898389999999949
20
-123.1348299999999938
11
91.3898389999999949
21
-124.1824489999999912
0
LINE
8
BLACK
6
CONTINUOUS
10
92.3422199999999975
20
-124.1824489999999912
11
92.3422199999999975
21
-122.8491149999999976
0
LINE
8
BLACK
6
CONTINUOUS
10
92.3422199999999975
20
-123.0395910000000015
11
92.4374579999999924
21
-122.9443529999999924
0
LINE
8
BLACK
6
CONTINUOUS
10
92.4374579999999924
20
-122.9443529999999924
11
92.6279339999999962
21
-122.8491149999999976
0
LINE
8
BLACK
6
CONTINUOUS
10
92.6279339999999962
20
-122.8491149999999976
11
92.9136489999999924
21
-122.8491149999999976
0
LINE
8
BLACK
6
CONTINUOUS
10
92.9136489999999924
20
-122.8491149999999976
11
93.1041249999999962
21
-122.9443529999999924
0
LINE
8
BLACK
6
CONTINUOUS
10
93.1041249999999962
20
-122.9443529999999924
11
93.1993629999999911
21
-123.1348299999999938
0
LINE
8
BLACK
6
CONTINUOUS
10
93.1993629999999911
20
-123.1348299999999938
11
93.1993629999999911
21
-124.1824489999999912
0
LINE
8
BLACK
6
CONTINUOUS
10
93.1993629999999911
20
-123.1348299999999938
11
93.2946010000000001
21
-122.9443529999999924
0
LINE
8
BLACK
6
CONTINUOUS
10
93.2946010000000001
20
-122.9443529999999924
11
93.4850769999999898
21
-122.8491149999999976
0
LINE
8
BLACK
6
CONTINUOUS
10
93.4850769999999898
20
-122.8491149999999976
11
93.7707910000000027
21
-122.8491149999999976
0
LINE
8
BLACK
6
CONTINUOUS
10
93.7707910000000027
20
-122.8491149999999976
11
93.9612679999999898
21
-122.9443529999999924
0
LINE
8
BLACK
6
CONTINUOUS
10
93.9612679999999898
20
-122.9443529999999924
11
94.0565059999999988
21
-123.1348299999999938
0
LINE
8
BLACK
6
CONTINUOUS
10
94.0565059999999988
20
-123.1348299999999938
11
94.0565059999999988
21
-124.1824489999999912
0
LINE
8
BLACK
6
CONTINUOUS
10
97.9612679999999898
20
-122.0872109999999964
11
96.2469830000000002
21
-124.6586389999999938
0
LINE
8
BLACK
6
CONTINUOUS
10
100.5326969999999989
20
-122.1824489999999912
11
100.7231740000000002
21
-122.1824489999999912
0
LINE
8
BLACK
6
CONTINUOUS
10
100.7231740000000002
20
-122.1824489999999912
11
100.9136499999999899
21
-122.2776870000000002
0
LINE
8
BLACK
6
CONTINUOUS
10
100.9136499999999899
20
-122.2776870000000002
11
101.0088879999999989
21
-122.3729249999999951
0
LINE
8
BLACK
6
CONTINUOUS
10
101.0088879999999989
20
-122.3729249999999951
11
101.1041259999999937
21
-122.5634009999999989
0
LINE
8
BLACK
6
CONTINUOUS
10
101.1041259999999937
20
-122.5634009999999989
11
101.1993639999999886
21
-122.9443529999999924
0
LINE
8
BLACK
6
CONTINUOUS
10
101.1993639999999886
20
-122.9443529999999924
11
101.1993639999999886
21
-123.4205439999999925
0
LINE
8
BLACK
6
CONTINUOUS
10
101.1993639999999886
20
-123.4205439999999925
11
101.1041259999999937
21
-123.8014960000000002
0
LINE
8
BLACK
6
CONTINUOUS
10
101.1041259999999937
20
-123.8014960000000002
11
101.0088879999999989
21
-123.9919719999999899
0
LINE
8
BLACK
6
CONTINUOUS
10
101.0088879999999989
20
-123.9919719999999899
11
100.9136499999999899
21
-124.0872109999999964
0
LINE
8
BLACK
6
CONTINUOUS
10
100.9136499999999899
20
-124.0872109999999964
11
100.7231740000000002
21
-124.1824489999999912
0
LINE
8
BLACK
6
CONTINUOUS
10
100.7231740000000002
20
-124.1824489999999912
11
100.5326969999999989
21
-124.1824489999999912
0
LINE
8
BLACK
6
CONTINUOUS
10
100.5326969999999989
20
-124.1824489999999912
11
100.342220999999995
21
-124.0872109999999964
0
LINE
8
BLACK
6
CONTINUOUS
10
100.342220999999995
20
-124.0872109999999964
11
100.2469830000000002
21
-123.9919719999999899
0
LINE
8
BLACK
6
CONTINUOUS
10
100.2469830000000002
20
-123.9919719999999899
11
100.1517449999999911
21
-123.8014960000000002
0
LINE
8
BLACK
6
CONTINUOUS
10
100.1517449999999911
20
-123.8014960000000002
11
100.0565069999999963
21
-123.4205439999999925
0
LINE
8
BLACK
6
CONTINUOUS
10
100.0565069999999963
20
-123.4205439999999925
11
100.0565069999999963
21
-122.9443529999999924
0
LINE
8
BLACK
6
CONTINUOUS
10
100.0565069999999963
20
-122.9443529999999924
11
100.1517449999999911
21
-122.5634009999999989
0
LINE
8
BLACK
6
CONTINUOUS
10
100.1517449999999911
20
-122.5634009999999989
11
100.2469830000000002
21
-122.3729249999999951
0
LINE
8
BLACK
6
CONTINUOUS
10
100.2469830000000002
20
-122.3729249999999951
11
100.342220999999995
21
-122.2776870000000002
0
LINE
8
BLACK
6
CONTINUOUS
10
100.342220999999995
20
-122.2776870000000002
11
100.5326969999999989
21
-122.1824489999999912
0
LINE
8
BLACK
6
CONTINUOUS
10
102.0565069999999963
20
-123.9919719999999899
11
102.1517449999999911
21
-124.0872109999999964
0
LINE
8
BLACK
6
CONTINUOUS
10
102.1517449999999911
20
-124.0872109999999964
11
102.0565069999999963
21
-124.1824489999999912
0
LINE
8
BLACK
6
CONTINUOUS
10
102.0565069999999963
20
-124.1824489999999912
11
101.9612690000000015
21
-124.0872109999999964
0
LINE
8
BLACK
6
CONTINUOUS
10
101.9612690000000015
20
-124.0872109999999964
11
102.0565069999999963
21
-123.9919719999999899
0
LINE
8
BLACK
6
CONTINUOUS
10
102.0565069999999963
20
-123.9919719999999899
11
102.0565069999999963
21
-124.1824489999999912
0
LINE
8
BLACK
6
CONTINUOUS
10
104.0565069999999963
20
-124.1824489999999912
11
102.9136499999999899
21
-124.1824489999999912
0
LINE
8
BLACK
6
CONTINUOUS
10
103.4850780000000015
20
-124.1824489999999912
11
103.4850780000000015
21
-122.1824489999999912
0
LINE
8
BLACK
6
CONTINUOUS
10
103.4850780000000015
20
-122.1824489999999912
11
103.2946019999999976
21
-122.4681629999999899
0
LINE
8
BLACK
6
CONTINUOUS
10
103.2946019999999976
20
-122.4681629999999899
11
103.1041259999999937
21
-122.6586389999999938
0
LINE
8
BLACK
6
CONTINUOUS
10
103.1041259999999937
20
-122.6586389999999938
11
102.9136499999999899
21
-122.7538769999999886
0
LINE
8
BLACK
6
CONTINUOUS
10
105.2946019999999976
20
-122.1824489999999912
11
105.4850789999999989
21
-122.1824489999999912
0
LINE
8
BLACK
6
CONTINUOUS
10
105.4850789999999989
20
-122.1824489999999912
11
105.6755549999999886
21
-122.2776870000000002
0
LINE
8
BLACK
6
CONTINUOUS
10
105.6755549999999886
20
-122.2776870000000002
11
105.7707929999999976
21
-122.3729249999999951
0
LINE
8
BLACK
6
CONTINUOUS
10
105.7707929999999976
20
-122.3729249999999951
11
105.8660309999999924
21
-122.5634009999999989
0
LINE
8
BLACK
6
CONTINUOUS
10
105.8660309999999924
20
-122.5634009999999989
11
105.9612690000000015
21
-122.9443529999999924
0
LINE
8
BLACK
6
CONTINUOUS
10
105.9612690000000015
20
-122.9443529999999924
11
105.9612690000000015
21
-123.4205439999999925
0
LINE
8
BLACK
6
CONTINUOUS
10
105.9612690000000015
20
-123.4205439999999925
11
105.8660309999999924
21
-123.8014960000000002
0
LINE
8
BLACK
6
CONTINUOUS
10
105.8660309999999924
20
-123.8014960000000002
11
105.7707929999999976
21
-123.9919719999999899
0
LINE
8
BLACK
6
CONTINUOUS
10
105.7707929999999976
20
-123.9919719999999899
11
105.6755549999999886
21
-124.0872109999999964
0
LINE
8
BLACK
6
CONTINUOUS
10
105.6755549999999886
20
-124.0872109999999964
11
105.4850789999999989
21
-124.1824489999999912
0
LINE
8
BLACK
6
CONTINUOUS
10
105.4850789999999989
20
-124.1824489999999912
11
105.2946019999999976
21
-124.1824489999999912
0
LINE
8
BLACK
6
CONTINUOUS
10
105.2946019999999976
20
-124.1824489999999912
11
105.1041259999999937
21
-124.0872109999999964
0
LINE
8
BLACK
6
CONTINUOUS
10
105.1041259999999937
20
-124.0872109999999964
11
105.0088879999999989
21
-123.9919719999999899
0
LINE
8
BLACK
6
CONTINUOUS
10
105.0088879999999989
20
-123.9919719999999899
11
104.9136499999999899
21
-123.8014960000000002
0
LINE
8
BLACK
6
CONTINUOUS
10
104.9136499999999899
20
-123.8014960000000002
11
104.818411999999995
21
-123.4205439999999925
0
LINE
8
BLACK
6
CONTINUOUS
10
104.818411999999995
20
-123.4205439999999925
11
104.818411999999995
21
-122.9443529999999924
0
LINE
8
BLACK
6
CONTINUOUS
10
104.818411999999995
20
-122.9443529999999924
11
104.9136499999999899
21
-122.5634009999999989
0
LINE
8
BLACK
6
CONTINUOUS
10
104.9136499999999899
20
-122.5634009999999989
11
105.0088879999999989
21
-122.3729249999999951
0
LINE
8
BLACK
6
CONTINUOUS
10
105.0088879999999989
20
-122.3729249999999951
11
105.1041259999999937
21
-122.2776870000000002
0
LINE
8
BLACK
6
CONTINUOUS
10
105.1041259999999937
20
-122.2776870000000002
11
105.2946019999999976
21
-122.1824489999999912
0
LINE
8
BLACK
6
CONTINUOUS
10
107.1041259999999937
20
-123.0395910000000015
11
106.9136499999999899
21
-122.9443529999999924
0
LINE
8
BLACK
6
CONTINUOUS
10
106.9136499999999899
20
-122.9443529999999924
11
106.818411999999995
21
-122.8491149999999976
0
LINE
8
BLACK
6
CONTINUOUS
10
106.818411999999995
20
-122.8491149999999976
11
106.7231740000000002
21
-122.6586389999999938
0
LINE
8
BLACK
6
CONTINUOUS
10
106.7231740000000002
20
-122.6586389999999938
11
106.7231740000000002
21
-122.5634009999999989
0
LINE
8
BLACK
6
CONTINUOUS
10
106.7231740000000002
20
-122.5634009999999989
11
106.818411999999995
21
-122.3729249999999951
0
LINE
8
BLACK
6
CONTINUOUS
10
106.818411999999995
20
-122.3729249999999951
11
106.9136499999999899
21
-122.2776870000000002
0
LINE
8
BLACK
6
CONTINUOUS
10
106.9136499999999899
20
-122.2776870000000002
11
107.1041259999999937
21
-122.1824489999999912
0
LINE
8
BLACK
6
CONTINUOUS
10
107.1041259999999937
20
-122.1824489999999912
11
107.4850789999999989
21
-122.1824489999999912
0
LINE
8
BLACK
6
CONTINUOUS
10
107.4850789999999989
20
-122.1824489999999912
11
107.6755549999999886
21
-122.2776870000000002
0
LINE
8
BLACK
6
CONTINUOUS
10
107.6755549999999886
20
-122.2776870000000002
11
107.7707929999999976
21
-122.3729249999999951
0
LINE
8
BLACK
6
CONTINUOUS
10
107.7707929999999976
20
-122.3729249999999951
11
107.8660309999999924
21
-122.5634009999999989
0
LINE
8
BLACK
6
CONTINUOUS
10
107.8660309999999924
20
-122.5634009999999989
11
107.8660309999999924
21
-122.6586389999999938
0
LINE
8
BLACK
6
CONTINUOUS
10
107.8660309999999924
20
-122.6586389999999938
11
107.7707929999999976
21
-122.8491149999999976
0
LINE
8
BLACK
6
CONTINUOUS
10
107.7707929999999976
20
-122.8491149999999976
11
107.6755549999999886
21
-122.9443529999999924
0
LINE
8
BLACK
6
CONTINUOUS
10
107.6755549999999886
20
-122.9443529999999924
11
107.4850789999999989
21
-123.0395910000000015
0
LINE
8
BLACK
6
CONTINUOUS
10
107.4850789999999989
20
-123.0395910000000015
11
107.1041259999999937
21
-123.0395910000000015
0
LINE
8
BLACK
6
CONTINUOUS
10
107.1041259999999937
20
-123.0395910000000015
11
106.9136499999999899
21
-123.1348299999999938
0
LINE
8
BLACK
6
CONTINUOUS
10
106.9136499999999899
20
-123.1348299999999938
11
106.818411999999995
21
-123.2300679999999886
0
LINE
8
BLACK
6
CONTINUOUS
10
106.818411999999995
20
-123.2300679999999886
11
106.7231740000000002
21
-123.4205439999999925
0
LINE
8
BLACK
6
CONTINUOUS
10
106.7231740000000002
20
-123.4205439999999925
11
106.7231740000000002
21
-123.8014960000000002
0
LINE
8
BLACK
6
CONTINUOUS
10
106.7231740000000002
20
-123.8014960000000002
11
106.818411999999995
21
-123.9919719999999899
0
LINE
8
BLACK
6
CONTINUOUS
10
106.818411999999995
20
-123.9919719999999899
11
106.9136499999999899
21
-124.0872109999999964
0
LINE
8
BLACK
6
CONTINUOUS
10
106.9136499999999899
20
-124.0872109999999964
11
107.1041259999999937
21
-124.1824489999999912
0
LINE
8
BLACK
6
CONTINUOUS
10
107.1041259999999937
20
-124.1824489999999912
11
107.4850789999999989
21
-124.1824489999999912
0
LINE
8
BLACK
6
CONTINUOUS
10
107.4850789999999989
20
-124.1824489999999912
11
107.6755549999999886
21
-124.0872109999999964
0
LINE
8
BLACK
6
CONTINUOUS
10
107.6755549999999886
20
-124.0872109999999964
11
107.7707929999999976
21
-123.9919719999999899
0
LINE
8
BLACK
6
CONTINUOUS
10
107.7707929999999976
20
-123.9919719999999899
11
107.8660309999999924
21
-123.8014960000000002
0
LINE
8
BLACK
6
CONTINUOUS
10
107.8660309999999924
20
-123.8014960000000002
11
107.8660309999999924
21
-123.4205439999999925
0
LINE
8
BLACK
6
CONTINUOUS
10
107.8660309999999924
20
-123.4205439999999925
11
107.7707929999999976
21
-123.2300679999999886
0
LINE
8
BLACK
6
CONTINUOUS
10
107.7707929999999976
20
-123.2300679999999886
11
107.6755549999999886
21
-123.1348299999999938
0
LINE
8
BLACK
6
CONTINUOUS
10
107.6755549999999886
20
-123.1348299999999938
11
107.4850789999999989
21
-123.0395910000000015
0
LINE
8
BLACK
6
CONTINUOUS
10
108.5326979999999963
20
-122.1824489999999912
11
109.7707929999999976
21
-122.1824489999999912
0
LINE
8
BLACK
6
CONTINUOUS
10
109.7707929999999976
20
-122.1824489999999912
11
109.1041259999999937
21
-122.9443529999999924
0
LINE
8
BLACK
6
CONTINUOUS
10
109.1041259999999937
20
-122.9443529999999924
11
109.3898409999999899
21
-122.9443529999999924
0
LINE
8
BLACK
6
CONTINUOUS
10
109.3898409999999899
20
-122.9443529999999924
11
109.5803169999999938
21
-123.0395910000000015
0
LINE
8
BLACK
6
CONTINUOUS
10
109.5803169999999938
20
-123.0395910000000015
11
109.6755549999999886
21
-123.1348299999999938
0
LINE
8
BLACK
6
CONTINUOUS
10
109.6755549999999886
20
-123.1348299999999938
11
109.7707929999999976
21
-123.3253059999999977
0
LINE
8
BLACK
6
CONTINUOUS
10
109.7707929999999976
20
-123.3253059999999977
11
109.7707929999999976
21
-123.8014960000000002
0
LINE
8
BLACK
6
CONTINUOUS
10
109.7707929999999976
20
-123.8014960000000002
11
109.6755549999999886
21
-123.9919719999999899
0
LINE
8
BLACK
6
CONTINUOUS
10
109.6755549999999886
20
-123.9919719999999899
11
109.5803169999999938
21
-124.0872109999999964
0
LINE
8
BLACK
6
CONTINUOUS
10
109.5803169999999938
20
-124.0872109999999964
11
109.3898409999999899
21
-124.1824489999999912
0
LINE
8
BLACK
6
CONTINUOUS
10
109.3898409999999899
20
-124.1824489999999912
11
108.818411999999995
21
-124.1824489999999912
0
LINE
8
BLACK
6
CONTINUOUS
10
108.818411999999995
20
-124.1824489999999912
11
108.6279359999999912
21
-124.0872109999999964
0
LINE
8
BLACK
6
CONTINUOUS
10
108.6279359999999912
20
-124.0872109999999964
11
108.5326979999999963
21
-123.9919719999999899
0
LINE
8
BLACK
6
CONTINUOUS
10
110.5326979999999963
20
-122.1824489999999912
11
110.5326979999999963
21
-122.5634009999999989
0
LINE
8
BLACK
6
CONTINUOUS
10
111.2946029999999951
20
-122.1824489999999912
11
111.2946029999999951
21
-122.5634009999999989
0
LINE
8
BLACK
6
CONTINUOUS
10
114.2469849999999951
20
-124.9443529999999924
11
114.1517459999999886
21
-124.8491149999999976
0
LINE
8
BLACK
6
CONTINUOUS
10
114.1517459999999886
20
-124.8491149999999976
11
113.961269999999999
21
-124.5634009999999989
0
LINE
8
BLACK
6
CONTINUOUS
10
113.961269999999999
20
-124.5634009999999989
11
113.8660319999999899
21
-124.3729249999999951
0
LINE
8
BLACK
6
CONTINUOUS
10
113.8660319999999899
20
-124.3729249999999951
11
113.7707939999999951
21
-124.0872109999999964
0
LINE
8
BLACK
6
CONTINUOUS
10
113.7707939999999951
20
-124.0872109999999964
11
113.6755560000000003
21
-123.6110199999999963
0
LINE
8
BLACK
6
CONTINUOUS
10
113.6755560000000003
20
-123.6110199999999963
11
113.6755560000000003
21
-123.2300679999999886
0
LINE
8
BLACK
6
CONTINUOUS
10
113.6755560000000003
20
-123.2300679999999886
11
113.7707939999999951
21
-122.7538769999999886
0
LINE
8
BLACK
6
CONTINUOUS
10
113.7707939999999951
20
-122.7538769999999886
11
113.8660319999999899
21
-122.4681629999999899
0
LINE
8
BLACK
6
CONTINUOUS
10
113.8660319999999899
20
-122.4681629999999899
11
113.961269999999999
21
-122.2776870000000002
0
LINE
8
BLACK
6
CONTINUOUS
10
113.961269999999999
20
-122.2776870000000002
11
114.1517459999999886
21
-121.9919719999999899
0
LINE
8
BLACK
6
CONTINUOUS
10
114.1517459999999886
20
-121.9919719999999899
11
114.2469849999999951
21
-121.896733999999995
0
LINE
8
BLACK
6
CONTINUOUS
10
115.8660319999999899
20
-122.8491149999999976
11
115.8660319999999899
21
-124.1824489999999912
0
LINE
8
BLACK
6
CONTINUOUS
10
115.3898409999999899
20
-122.0872109999999964
11
114.9136510000000015
21
-123.5157819999999873
0
LINE
8
BLACK
6
CONTINUOUS
10
114.9136510000000015
20
-123.5157819999999873
11
116.1517459999999886
21
-123.5157819999999873
0
LINE
8
BLACK
6
CONTINUOUS
10
118.437460999999999
20
-124.1824489999999912
11
118.437460999999999
21
-122.1824489999999912
0
LINE
8
BLACK
6
CONTINUOUS
10
119.2946039999999925
20
-124.1824489999999912
11
119.2946039999999925
21
-123.1348299999999938
0
LINE
8
BLACK
6
CONTINUOUS
10
119.2946039999999925
20
-123.1348299999999938
11
119.1993659999999977
21
-122.9443529999999924
0
LINE
8
BLACK
6
CONTINUOUS
10
119.1993659999999977
20
-122.9443529999999924
11
119.0088899999999938
21
-122.8491149999999976
0
LINE
8
BLACK
6
CONTINUOUS
10
119.0088899999999938
20
-122.8491149999999976
11
118.7231749999999977
21
-122.8491149999999976
0
LINE
8
BLACK
6
CONTINUOUS
10
118.7231749999999977
20
-122.8491149999999976
11
118.5326989999999938
21
-122.9443529999999924
0
LINE
8
BLACK
6
CONTINUOUS
10
118.5326989999999938
20
-122.9443529999999924
11
118.437460999999999
21
-123.0395910000000015
0
LINE
8
BLACK
6
CONTINUOUS
10
120.5326989999999938
20
-124.1824489999999912
11
120.34222299999999
21
-124.0872109999999964
0
LINE
8
BLACK
6
CONTINUOUS
10
120.34222299999999
20
-124.0872109999999964
11
120.2469849999999951
21
-123.9919719999999899
0
LINE
8
BLACK
6
CONTINUOUS
10
120.2469849999999951
20
-123.9919719999999899
11
120.1517470000000003
21
-123.8014960000000002
0
LINE
8
BLACK
6
CONTINUOUS
10
120.1517470000000003
20
-123.8014960000000002
11
120.1517470000000003
21
-123.2300679999999886
0
LINE
8
BLACK
6
CONTINUOUS
10
120.1517470000000003
20
-123.2300679999999886
11
120.2469849999999951
21
-123.0395910000000015
0
LINE
8
BLACK
6
CONTINUOUS
10
120.2469849999999951
20
-123.0395910000000015
11
120.34222299999999
21
-122.9443529999999924
0
LINE
8
BLACK
6
CONTINUOUS
10
120.34222299999999
20
-122.9443529999999924
11
120.5326989999999938
21
-122.8491149999999976
0
LINE
8
BLACK
6
CONTINUOUS
10
120.5326989999999938
20
-122.8491149999999976
11
120.81841399999999
21
-122.8491149999999976
0
LINE
8
BLACK
6
CONTINUOUS
10
120.81841399999999
20
-122.8491149999999976
11
121.0088899999999938
21
-122.9443529999999924
0
LINE
8
BLACK
6
CONTINUOUS
10
121.0088899999999938
20
-122.9443529999999924
11
121.1041279999999887
21
-123.0395910000000015
0
LINE
8
BLACK
6
CONTINUOUS
10
121.1041279999999887
20
-123.0395910000000015
11
121.1993659999999977
21
-123.2300679999999886
0
LINE
8
BLACK
6
CONTINUOUS
10
121.1993659999999977
20
-123.2300679999999886
11
121.1993659999999977
21
-123.8014960000000002
0
LINE
8
BLACK
6
CONTINUOUS
10
121.1993659999999977
20
-123.8014960000000002
11
121.1041279999999887
21
-123.9919719999999899
0
LINE
8
BLACK
6
CONTINUOUS
10
121.1041279999999887
20
-123.9919719999999899
11
121.0088899999999938
21
-124.0872109999999964
0
LINE
8
BLACK
6
CONTINUOUS
10
121.0088899999999938
20
-124.0872109999999964
11
120.81841399999999
21
-124.1824489999999912
0
LINE
8
BLACK
6
CONTINUOUS
10
120.81841399999999
20
-124.1824489999999912
11
120.5326989999999938
21
-124.1824489999999912
0
LINE
8
BLACK
6
CONTINUOUS
10
122.34222299999999
20
-124.1824489999999912
11
122.1517470000000003
21
-124.0872109999999964
0
LINE
8
BLACK
6
CONTINUOUS
10
122.1517470000000003
20
-124.0872109999999964
11
122.0565089999999913
21
-123.896733999999995
0
LINE
8
BLACK
6
CONTINUOUS
10
122.0565089999999913
20
-123.896733999999995
11
122.0565089999999913
21
-122.1824489999999912
0
LINE
8
BLACK
6
CONTINUOUS
10
123.8660329999999874
20
-124.0872109999999964
11
123.6755569999999977
21
-124.1824489999999912
0
LINE
8
BLACK
6
CONTINUOUS
10
123.6755569999999977
20
-124.1824489999999912
11
123.2946039999999925
21
-124.1824489999999912
0
LINE
8
BLACK
6
CONTINUOUS
10
123.2946039999999925
20
-124.1824489999999912
11
123.1041279999999887
21
-124.0872109999999964
0
LINE
8
BLACK
6
CONTINUOUS
10
123.1041279999999887
20
-124.0872109999999964
11
123.0088899999999938
21
-123.896733999999995
0
LINE
8
BLACK
6
CONTINUOUS
10
123.0088899999999938
20
-123.896733999999995
11
123.0088899999999938
21
-123.1348299999999938
0
LINE
8
BLACK
6
CONTINUOUS
10
123.0088899999999938
20
-123.1348299999999938
11
123.1041279999999887
21
-122.9443529999999924
0
LINE
8
BLACK
6
CONTINUOUS
10
123.1041279999999887
20
-122.9443529999999924
11
123.2946039999999925
21
-122.8491149999999976
0
LINE
8
BLACK
6
CONTINUOUS
10
123.2946039999999925
20
-122.8491149999999976
11
123.6755569999999977
21
-122.8491149999999976
0
LINE
8
BLACK
6
CONTINUOUS
10
123.6755569999999977
20
-122.8491149999999976
11
123.8660329999999874
21
-122.9443529999999924
0
LINE
8
BLACK
6
CONTINUOUS
10
123.8660329999999874
20
-122.9443529999999924
11
123.9612709999999964
21
-123.1348299999999938
0
LINE
8
BLACK
6
CONTINUOUS
10
123.9612709999999964
20
-123.1348299999999938
11
123.9612709999999964
21
-123.3253059999999977
0
LINE
8
BLACK
6
CONTINUOUS
10
123.9612709999999964
20
-123.3253059999999977
11
123.0088899999999938
21
-123.5157819999999873
0
LINE
8
BLACK
6
CONTINUOUS
10
124.7231759999999952
20
-124.0872109999999964
11
124.913651999999999
21
-124.1824489999999912
0
LINE
8
BLACK
6
CONTINUOUS
10
124.913651999999999
20
-124.1824489999999912
11
125.2946039999999925
21
-124.1824489999999912
0
LINE
8
BLACK
6
CONTINUOUS
10
125.2946039999999925
20
-124.1824489999999912
11
125.4850809999999939
21
-124.0872109999999964
0
LINE
8
BLACK
6
CONTINUOUS
10
125.4850809999999939
20
-124.0872109999999964
11
125.5803189999999887
21
-123.896733999999995
0
LINE
8
BLACK
6
CONTINUOUS
10
125.5803189999999887
20
-123.896733999999995
11
125.5803189999999887
21
-123.8014960000000002
0
LINE
8
BLACK
6
CONTINUOUS
10
125.5803189999999887
20
-123.8014960000000002
11
125.4850809999999939
21
-123.6110199999999963
0
LINE
8
BLACK
6
CONTINUOUS
10
125.4850809999999939
20
-123.6110199999999963
11
125.2946039999999925
21
-123.5157819999999873
0
LINE
8
BLACK
6
CONTINUOUS
10
125.2946039999999925
20
-123.5157819999999873
11
125.0088899999999938
21
-123.5157819999999873
0
LINE
8
BLACK
6
CONTINUOUS
10
125.0088899999999938
20
-123.5157819999999873
11
124.81841399999999
21
-123.4205439999999925
0
LINE
8
BLACK
6
CONTINUOUS
10
124.81841399999999
20
-123.4205439999999925
11
124.7231759999999952
21
-123.2300679999999886
0
LINE
8
BLACK
6
CONTINUOUS
10
124.7231759999999952
20
-123.2300679999999886
11
124.7231759999999952
21
-123.1348299999999938
0
LINE
8
BLACK
6
CONTINUOUS
10
124.7231759999999952
20
-123.1348299999999938
11
124.81841399999999
21
-122.9443529999999924
0
LINE
8
BLACK
6
CONTINUOUS
10
124.81841399999999
20
-122.9443529999999924
11
125.0088899999999938
21
-122.8491149999999976
0
LINE
8
BLACK
6
CONTINUOUS
10
125.0088899999999938
20
-122.8491149999999976
11
125.2946039999999925
21
-122.8491149999999976
0
LINE
8
BLACK
6
CONTINUOUS
10
125.2946039999999925
20
-122.8491149999999976
11
125.4850809999999939
21
-122.9443529999999924
0
LINE
8
BLACK
6
CONTINUOUS
10
126.2469859999999926
20
-124.9443529999999924
11
126.3422239999999874
21
-124.8491149999999976
0
LINE
8
BLACK
6
CONTINUOUS
10
126.3422239999999874
20
-124.8491149999999976
11
126.5326999999999913
21
-124.5634009999999989
0
LINE
8
BLACK
6
CONTINUOUS
10
126.5326999999999913
20
-124.5634009999999989
11
126.6279380000000003
21
-124.3729249999999951
0
LINE
8
BLACK
6
CONTINUOUS
10
126.6279380000000003
20
-124.3729249999999951
11
126.7231759999999952
21
-124.0872109999999964
0
LINE
8
BLACK
6
CONTINUOUS
10
126.7231759999999952
20
-124.0872109999999964
11
126.81841399999999
21
-123.6110199999999963
0
LINE
8
BLACK
6
CONTINUOUS
10
126.81841399999999
20
-123.6110199999999963
11
126.81841399999999
21
-123.2300679999999886
0
LINE
8
BLACK
6
CONTINUOUS
10
126.81841399999999
20
-123.2300679999999886
11
126.7231759999999952
21
-122.7538769999999886
0
LINE
8
BLACK
6
CONTINUOUS
10
126.7231759999999952
20
-122.7538769999999886
11
126.6279380000000003
21
-122.4681629999999899
0
LINE
8
BLACK
6
CONTINUOUS
10
126.6279380000000003
20
-122.4681629999999899
11
126.5326999999999913
21
-122.2776870000000002
0
LINE
8
BLACK
6
CONTINUOUS
10
126.5326999999999913
20
-122.2776870000000002
11
126.3422239999999874
21
-121.9919719999999899
0
LINE
8
BLACK
6
CONTINUOUS
10
126.3422239999999874
20
-121.9919719999999899
11
126.2469859999999926
21
-121.896733999999995
0
LINE
8
BLACK
6
CONTINUOUS
10
129.8660339999999849
20
-124.9443529999999924
11
129.7707949999999926
21
-124.8491149999999976
0
LINE
8
BLACK
6
CONTINUOUS
10
129.7707949999999926
20
-124.8491149999999976
11
129.5803190000000029
21
-124.5634009999999989
0
LINE
8
BLACK
6
CONTINUOUS
10
129.5803190000000029
20
-124.5634009999999989
11
129.4850810000000081
21
-124.3729249999999951
0
LINE
8
BLACK
6
CONTINUOUS
10
129.4850810000000081
20
-124.3729249999999951
11
129.3898429999999848
21
-124.0872109999999964
0
LINE
8
BLACK
6
CONTINUOUS
10
129.3898429999999848
20
-124.0872109999999964
11
129.29460499999999
21
-123.6110199999999963
0
LINE
8
BLACK
6
CONTINUOUS
10
129.29460499999999
20
-123.6110199999999963
11
129.29460499999999
21
-123.2300679999999886
0
LINE
8
BLACK
6
CONTINUOUS
10
129.29460499999999
20
-123.2300679999999886
11
129.3898429999999848
21
-122.7538769999999886
0
LINE
8
BLACK
6
CONTINUOUS
10
129.3898429999999848
20
-122.7538769999999886
11
129.4850810000000081
21
-122.4681629999999899
0
LINE
8
BLACK
6
CONTINUOUS
10
129.4850810000000081
20
-122.4681629999999899
11
129.5803190000000029
21
-122.2776870000000002
0
LINE
8
BLACK
6
CONTINUOUS
10
129.5803190000000029
20
-122.2776870000000002
11
129.7707949999999926
21
-121.9919719999999899
0
LINE
8
BLACK
6
CONTINUOUS
10
129.7707949999999926
20
-121.9919719999999899
11
129.8660339999999849
21
-121.896733999999995
0
LINE
8
BLACK
6
CONTINUOUS
10
130.6279380000000003
20
-122.8491149999999976
11
130.6279380000000003
21
-124.1824489999999912
0
LINE
8
BLACK
6
CONTINUOUS
10
130.6279380000000003
20
-123.0395910000000015
11
130.7231759999999952
21
-122.9443529999999924
0
LINE
8
BLACK
6
CONTINUOUS
10
130.7231759999999952
20
-122.9443529999999924
11
130.9136519999999848
21
-122.8491149999999976
0
LINE
8
BLACK
6
CONTINUOUS
10
130.9136519999999848
20
-122.8491149999999976
11
131.1993669999999952
21
-122.8491149999999976
0
LINE
8
BLACK
6
CONTINUOUS
10
131.1993669999999952
20
-122.8491149999999976
11
131.3898429999999848
21
-122.9443529999999924
0
LINE
8
BLACK
6
CONTINUOUS
10
131.3898429999999848
20
-122.9443529999999924
11
131.4850810000000081
21
-123.1348299999999938
0
LINE
8
BLACK
6
CONTINUOUS
10
131.4850810000000081
20
-123.1348299999999938
11
131.4850810000000081
21
-124.1824489999999912
0
LINE
8
BLACK
6
CONTINUOUS
10
132.7231759999999952
20
-124.1824489999999912
11
132.5327000000000055
21
-124.0872109999999964
0
LINE
8
BLACK
6
CONTINUOUS
10
132.5327000000000055
20
-124.0872109999999964
11
132.4374619999999823
21
-123.9919719999999899
0
LINE
8
BLACK
6
CONTINUOUS
10
132.4374619999999823
20
-123.9919719999999899
11
132.3422239999999874
21
-123.8014960000000002
0
LINE
8
BLACK
6
CONTINUOUS
10
132.3422239999999874
20
-123.8014960000000002
11
132.3422239999999874
21
-123.2300679999999886
0
LINE
8
BLACK
6
CONTINUOUS
10
132.3422239999999874
20
-123.2300679999999886
11
132.4374619999999823
21
-123.0395910000000015
0
LINE
8
BLACK
6
CONTINUOUS
10
132.4374619999999823
20
-123.0395910000000015
11
132.5327000000000055
21
-122.9443529999999924
0
LINE
8
BLACK
6
CONTINUOUS
10
132.5327000000000055
20
-122.9443529999999924
11
132.7231759999999952
21
-122.8491149999999976
0
LINE
8
BLACK
6
CONTINUOUS
10
132.7231759999999952
20
-122.8491149999999976
11
133.0088910000000055
21
-122.8491149999999976
0
LINE
8
BLACK
6
CONTINUOUS
10
133.0088910000000055
20
-122.8491149999999976
11
133.1993669999999952
21
-122.9443529999999924
0
LINE
8
BLACK
6
CONTINUOUS
10
133.1993669999999952
20
-122.9443529999999924
11
133.29460499999999
21
-123.0395910000000015
0
LINE
8
BLACK
6
CONTINUOUS
10
133.29460499999999
20
-123.0395910000000015
11
133.3898429999999848
21
-123.2300679999999886
0
LINE
8
BLACK
6
CONTINUOUS
10
133.3898429999999848
20
-123.2300679999999886
11
133.3898429999999848
21
-123.8014960000000002
0
LINE
8
BLACK
6
CONTINUOUS
10
133.3898429999999848
20
-123.8014960000000002
11
133.29460499999999
21
-123.9919719999999899
0
LINE
8
BLACK
6
CONTINUOUS
10
133.29460499999999
20
-123.9919719999999899
11
133.1993669999999952
21
-124.0872109999999964
0
LINE
8
BLACK
6
CONTINUOUS
10
133.1993669999999952
20
-124.0872109999999964
11
133.0088910000000055
21
-124.1824489999999912
0
LINE
8
BLACK
6
CONTINUOUS
10
133.0088910000000055
20
-124.1824489999999912
11
132.7231759999999952
21
-124.1824489999999912
0
LINE
8
BLACK
6
CONTINUOUS
10
133.9612720000000081
20
-122.8491149999999976
11
134.7231759999999952
21
-122.8491149999999976
0
LINE
8
BLACK
6
CONTINUOUS
10
134.2469859999999926
20
-122.1824489999999912
11
134.2469859999999926
21
-123.896733999999995
0
LINE
8
BLACK
6
CONTINUOUS
10
134.2469859999999926
20
-123.896733999999995
11
134.3422239999999874
21
-124.0872109999999964
0
LINE
8
BLACK
6
CONTINUOUS
10
134.3422239999999874
20
-124.0872109999999964
11
134.5327000000000055
21
-124.1824489999999912
0
LINE
8
BLACK
6
CONTINUOUS
10
134.5327000000000055
20
-124.1824489999999912
11
134.7231759999999952
21
-124.1824489999999912
0
LINE
8
BLACK
6
CONTINUOUS
10
136.9136529999999823
20
-122.8491149999999976
11
136.9136529999999823
21
-124.8491149999999976
0
LINE
8
BLACK
6
CONTINUOUS
10
136.9136529999999823
20
-122.9443529999999924
11
137.1041290000000004
21
-122.8491149999999976
0
LINE
8
BLACK
6
CONTINUOUS
10
137.1041290000000004
20
-122.8491149999999976
11
137.4850820000000056
21
-122.8491149999999976
0
LINE
8
BLACK
6
CONTINUOUS
10
137.4850820000000056
20
-122.8491149999999976
11
137.6755579999999952
21
-122.9443529999999924
0
LINE
8
BLACK
6
CONTINUOUS
10
137.6755579999999952
20
-122.9443529999999924
11
137.77079599999999
21
-123.0395910000000015
0
LINE
8
BLACK
6
CONTINUOUS
10
137.77079599999999
20
-123.0395910000000015
11
137.8660339999999849
21
-123.2300679999999886
0
LINE
8
BLACK
6
CONTINUOUS
10
137.8660339999999849
20
-123.2300679999999886
11
137.8660339999999849
21
-123.8014960000000002
0
LINE
8
BLACK
6
CONTINUOUS
10
137.8660339999999849
20
-123.8014960000000002
11
137.77079599999999
21
-123.9919719999999899
0
LINE
8
BLACK
6
CONTINUOUS
10
137.77079599999999
20
-123.9919719999999899
11
137.6755579999999952
21
-124.0872109999999964
0
LINE
8
BLACK
6
CONTINUOUS
10
137.6755579999999952
20
-124.0872109999999964
11
137.4850820000000056
21
-124.1824489999999912
0
LINE
8
BLACK
6
CONTINUOUS
10
137.4850820000000056
20
-124.1824489999999912
11
137.1041290000000004
21
-124.1824489999999912
0
LINE
8
BLACK
6
CONTINUOUS
10
137.1041290000000004
20
-124.1824489999999912
11
136.9136529999999823
21
-124.0872109999999964
0
LINE
8
BLACK
6
CONTINUOUS
10
139.0088910000000055
20
-124.1824489999999912
11
138.8184149999999875
21
-124.0872109999999964
0
LINE
8
BLACK
6
CONTINUOUS
10
138.8184149999999875
20
-124.0872109999999964
11
138.7231769999999926
21
-123.896733999999995
0
LINE
8
BLACK
6
CONTINUOUS
10
138.7231769999999926
20
-123.896733999999995
11
138.7231769999999926
21
-122.1824489999999912
0
LINE
8
BLACK
6
CONTINUOUS
10
140.6279389999999978
20
-124.1824489999999912
11
140.6279389999999978
21
-123.1348299999999938
0
LINE
8
BLACK
6
CONTINUOUS
10
140.6279389999999978
20
-123.1348299999999938
11
140.532701000000003
21
-122.9443529999999924
0
LINE
8
BLACK
6
CONTINUOUS
10
140.532701000000003
20
-122.9443529999999924
11
140.3422249999999849
21
-122.8491149999999976
0
LINE
8
BLACK
6
CONTINUOUS
10
140.3422249999999849
20
-122.8491149999999976
11
139.9612719999999797
21
-122.8491149999999976
0
LINE
8
BLACK
6
CONTINUOUS
10
139.9612719999999797
20
-122.8491149999999976
11
139.77079599999999
21
-122.9443529999999924
0
LINE
8
BLACK
6
CONTINUOUS
10
140.6279389999999978
20
-124.0872109999999964
11
140.4374629999999797
21
-124.1824489999999912
0
LINE
8
BLACK
6
CONTINUOUS
10
140.4374629999999797
20
-124.1824489999999912
11
139.9612719999999797
21
-124.1824489999999912
0
LINE
8
BLACK
6
CONTINUOUS
10
139.9612719999999797
20
-124.1824489999999912
11
139.77079599999999
21
-124.0872109999999964
0
LINE
8
BLACK
6
CONTINUOUS
10
139.77079599999999
20
-124.0872109999999964
11
139.6755579999999952
21
-123.896733999999995
0
LINE
8
BLACK
6
CONTINUOUS
10
139.6755579999999952
20
-123.896733999999995
11
139.6755579999999952
21
-123.7062579999999912
0
LINE
8
BLACK
6
CONTINUOUS
10
139.6755579999999952
20
-123.7062579999999912
11
139.77079599999999
21
-123.5157819999999873
0
LINE
8
BLACK
6
CONTINUOUS
10
139.77079599999999
20
-123.5157819999999873
11
139.9612719999999797
21
-123.4205439999999925
0
LINE
8
BLACK
6
CONTINUOUS
10
139.9612719999999797
20
-123.4205439999999925
11
140.4374629999999797
21
-123.4205439999999925
0
LINE
8
BLACK
6
CONTINUOUS
10
140.4374629999999797
20
-123.4205439999999925
11
140.6279389999999978
21
-123.3253059999999977
0
LINE
8
BLACK
6
CONTINUOUS
10
141.2946059999999875
20
-122.8491149999999976
11
142.0565100000000029
21
-122.8491149999999976
0
LINE
8
BLACK
6
CONTINUOUS
10
141.5803200000000004
20
-122.1824489999999912
11
141.5803200000000004
21
-123.896733999999995
0
LINE
8
BLACK
6
CONTINUOUS
10
141.5803200000000004
20
-123.896733999999995
11
141.6755579999999952
21
-124.0872109999999964
0
LINE
8
BLACK
6
CONTINUOUS
10
141.6755579999999952
20
-124.0872109999999964
11
141.8660339999999849
21
-124.1824489999999912
0
LINE
8
BLACK
6
CONTINUOUS
10
141.8660339999999849
20
-124.1824489999999912
11
142.0565100000000029
21
-124.1824489999999912
0
LINE
8
BLACK
6
CONTINUOUS
10
143.4850820000000056
20
-124.0872109999999964
11
143.2946059999999875
21
-124.1824489999999912
0
LINE
8
BLACK
6
CONTINUOUS
10
143.2946059999999875
20
-124.1824489999999912
11
142.9136529999999823
21
-124.1824489999999912
0
LINE
8
BLACK
6
CONTINUOUS
10
142.9136529999999823
20
-124.1824489999999912
11
142.7231769999999926
21
-124.0872109999999964
0
LINE
8
BLACK
6
CONTINUOUS
10
142.7231769999999926
20
-124.0872109999999964
11
142.6279389999999978
21
-123.896733999999995
0
LINE
8
BLACK
6
CONTINUOUS
10
142.6279389999999978
20
-123.896733999999995
11
142.6279389999999978
21
-123.1348299999999938
0
LINE
8
BLACK
6
CONTINUOUS
10
142.6279389999999978
20
-123.1348299999999938
11
142.7231769999999926
21
-122.9443529999999924
0
LINE
8
BLACK
6
CONTINUOUS
10
142.7231769999999926
20
-122.9443529999999924
11
142.9136529999999823
21
-122.8491149999999976
0
LINE
8
BLACK
6
CONTINUOUS
10
142.9136529999999823
20
-122.8491149999999976
11
143.2946059999999875
21
-122.8491149999999976
0
LINE
8
BLACK
6
CONTINUOUS
10
143.2946059999999875
20
-122.8491149999999976
11
143.4850820000000056
21
-122.9443529999999924
0
LINE
8
BLACK
6
CONTINUOUS
10
143.4850820000000056
20
-122.9443529999999924
11
143.5803200000000004
21
-123.1348299999999938
0
LINE
8
BLACK
6
CONTINUOUS
10
143.5803200000000004
20
-123.1348299999999938
11
143.5803200000000004
21
-123.3253059999999977
0
LINE
8
BLACK
6
CONTINUOUS
10
143.5803200000000004
20
-123.3253059999999977
11
142.6279389999999978
21
-123.5157819999999873
0
LINE
8
BLACK
6
CONTINUOUS
10
145.2946059999999875
20
-124.1824489999999912
11
145.2946059999999875
21
-122.1824489999999912
0
LINE
8
BLACK
6
CONTINUOUS
10
145.2946059999999875
20
-124.0872109999999964
11
145.1041299999999978
21
-124.1824489999999912
0
LINE
8
BLACK
6
CONTINUOUS
10
145.1041299999999978
20
-124.1824489999999912
11
144.7231769999999926
21
-124.1824489999999912
0
LINE
8
BLACK
6
CONTINUOUS
10
144.7231769999999926
20
-124.1824489999999912
11
144.532701000000003
21
-124.0872109999999964
0
LINE
8
BLACK
6
CONTINUOUS
10
144.532701000000003
20
-124.0872109999999964
11
144.4374629999999797
21
-123.9919719999999899
0
LINE
8
BLACK
6
CONTINUOUS
10
144.4374629999999797
20
-123.9919719999999899
11
144.3422249999999849
21
-123.8014960000000002
0
LINE
8
BLACK
6
CONTINUOUS
10
144.3422249999999849
20
-123.8014960000000002
11
144.3422249999999849
21
-123.2300679999999886
0
LINE
8
BLACK
6
CONTINUOUS
10
144.3422249999999849
20
-123.2300679999999886
11
144.4374629999999797
21
-123.0395910000000015
0
LINE
8
BLACK
6
CONTINUOUS
10
144.4374629999999797
20
-123.0395910000000015
11
144.532701000000003
21
-122.9443529999999924
0
LINE
8
BLACK
6
CONTINUOUS
10
144.532701000000003
20
-122.9443529999999924
11
144.7231769999999926
21
-122.8491149999999976
0
LINE
8
BLACK
6
CONTINUOUS
10
144.7231769999999926
20
-122.8491149999999976
11
145.1041299999999978
21
-122.8491149999999976
0
LINE
8
BLACK
6
CONTINUOUS
10
145.1041299999999978
20
-122.8491149999999976
11
145.2946059999999875
21
-122.9443529999999924
0
LINE
8
BLACK
6
CONTINUOUS
10
146.0565110000000004
20
-124.9443529999999924
11
146.1517489999999952
21
-124.8491149999999976
0
LINE
8
BLACK
6
CONTINUOUS
10
146.1517489999999952
20
-124.8491149999999976
11
146.3422249999999849
21
-124.5634009999999989
0
LINE
8
BLACK
6
CONTINUOUS
10
146.3422249999999849
20
-124.5634009999999989
11
146.4374629999999797
21
-124.3729249999999951
0
LINE
8
BLACK
6
CONTINUOUS
10
146.4374629999999797
20
-124.3729249999999951
11
146.532701000000003
21
-124.0872109999999964
0
LINE
8
BLACK
6
CONTINUOUS
10
146.532701000000003
20
-124.0872109999999964
11
146.6279389999999978
21
-123.6110199999999963
0
LINE
8
BLACK
6
CONTINUOUS
10
146.6279389999999978
20
-123.6110199999999963
11
146.6279389999999978
21
-123.2300679999999886
0
LINE
8
BLACK
6
CONTINUOUS
10
146.6279389999999978
20
-123.2300679999999886
11
146.532701000000003
21
-122.7538769999999886
0
LINE
8
BLACK
6
CONTINUOUS
10
146.532701000000003
20
-122.7538769999999886
11
146.4374629999999797
21
-122.4681629999999899
0
LINE
8
BLACK
6
CONTINUOUS
10
146.4374629999999797
20
-122.4681629999999899
11
146.3422249999999849
21
-122.2776870000000002
0
LINE
8
BLACK
6
CONTINUOUS
10
146.3422249999999849
20
-122.2776870000000002
11
146.1517489999999952
21
-121.9919719999999899
0
LINE
8
BLACK
6
CONTINUOUS
10
146.1517489999999952
20
-121.9919719999999899
11
146.0565110000000004
21
-121.896733999999995
  0
ENDSEC
  0
EOF
