%FSLAX45Y45*%
G04 Gerber Fmt 4.5, Leading zero omitted, Abs format (unit mm)*
G04 Created by KiCad (PCBNEW (5.99.0-12255-gad1ee958b0)) date 2021-12-04 14:30:33*
%MOMM*%
%LPD*%
G01*
G04 APERTURE LIST*
%TA.AperFunction,Profile*%
%ADD10C,0.100000*%
%TD*%
%ADD11C,0.200000*%
%ADD12C,0.275000*%
G04 APERTURE END LIST*
D10*
X14354635Y-11382285D02*
X14354636Y-6381761D01*
X7854636Y-6381761D02*
X7854636Y-11381761D01*
X14354635Y-11382285D02*
G75*
G02*
X14054636Y-11681761I-300000J524D01*
G01*
X14054636Y-6081761D02*
X8154636Y-6081761D01*
X8154636Y-11681761D02*
X14054636Y-11681761D01*
X14054636Y-6081761D02*
G75*
G02*
X14354636Y-6381761I0J-300000D01*
G01*
X7854636Y-6381761D02*
G75*
G02*
X8154636Y-6081761I300000J0D01*
G01*
X8154636Y-11681761D02*
G75*
G02*
X7854636Y-11381761I0J300000D01*
G01*
D11*
D12*
X8066500Y-6293500D02*
X8341500Y-6568500D01*
X8341500Y-6293500D02*
X8066500Y-6568500D01*
X8066500Y-11194500D02*
X8341500Y-11469500D01*
X8341500Y-11194500D02*
X8066500Y-11469500D01*
X13865500Y-11193500D02*
X14140500Y-11468500D01*
X14140500Y-11193500D02*
X13865500Y-11468500D01*
X13866500Y-6295500D02*
X14141500Y-6570500D01*
X14141500Y-6295500D02*
X13866500Y-6570500D01*
D11*
X8097255Y-12007237D02*
X8097255Y-11807237D01*
X8144874Y-11807237D01*
X8173445Y-11816761D01*
X8192493Y-11835809D01*
X8202016Y-11854856D01*
X8211540Y-11892951D01*
X8211540Y-11921523D01*
X8202016Y-11959618D01*
X8192493Y-11978666D01*
X8173445Y-11997713D01*
X8144874Y-12007237D01*
X8097255Y-12007237D01*
X8297255Y-12007237D02*
X8297255Y-11873904D01*
X8297255Y-11911999D02*
X8306778Y-11892951D01*
X8316302Y-11883428D01*
X8335350Y-11873904D01*
X8354397Y-11873904D01*
X8421064Y-12007237D02*
X8421064Y-11873904D01*
X8421064Y-11807237D02*
X8411540Y-11816761D01*
X8421064Y-11826285D01*
X8430588Y-11816761D01*
X8421064Y-11807237D01*
X8421064Y-11826285D01*
X8544874Y-12007237D02*
X8525826Y-11997713D01*
X8516302Y-11978666D01*
X8516302Y-11807237D01*
X8649636Y-12007237D02*
X8630588Y-11997713D01*
X8621064Y-11978666D01*
X8621064Y-11807237D01*
X8878207Y-12007237D02*
X8878207Y-11807237D01*
X8944874Y-11950094D01*
X9011540Y-11807237D01*
X9011540Y-12007237D01*
X9192493Y-12007237D02*
X9192493Y-11902475D01*
X9182969Y-11883428D01*
X9163921Y-11873904D01*
X9125826Y-11873904D01*
X9106778Y-11883428D01*
X9192493Y-11997713D02*
X9173445Y-12007237D01*
X9125826Y-12007237D01*
X9106778Y-11997713D01*
X9097255Y-11978666D01*
X9097255Y-11959618D01*
X9106778Y-11940571D01*
X9125826Y-11931047D01*
X9173445Y-11931047D01*
X9192493Y-11921523D01*
X9287731Y-11873904D02*
X9287731Y-12073904D01*
X9287731Y-11883428D02*
X9306778Y-11873904D01*
X9344874Y-11873904D01*
X9363921Y-11883428D01*
X9373445Y-11892951D01*
X9382969Y-11911999D01*
X9382969Y-11969142D01*
X9373445Y-11988190D01*
X9363921Y-11997713D01*
X9344874Y-12007237D01*
X9306778Y-12007237D01*
X9287731Y-11997713D01*
X9468683Y-11988190D02*
X9478207Y-11997713D01*
X9468683Y-12007237D01*
X9459159Y-11997713D01*
X9468683Y-11988190D01*
X9468683Y-12007237D01*
X9468683Y-11883428D02*
X9478207Y-11892951D01*
X9468683Y-11902475D01*
X9459159Y-11892951D01*
X9468683Y-11883428D01*
X9468683Y-11902475D01*
X7639636Y-12236761D02*
X7839636Y-12436761D01*
X7839636Y-12236761D02*
X7639636Y-12436761D01*
X8087731Y-12246285D02*
X8097255Y-12236761D01*
X8116302Y-12227237D01*
X8163921Y-12227237D01*
X8182969Y-12236761D01*
X8192493Y-12246285D01*
X8202016Y-12265332D01*
X8202016Y-12284380D01*
X8192493Y-12312951D01*
X8078207Y-12427237D01*
X8202016Y-12427237D01*
X8287731Y-12408190D02*
X8297255Y-12417713D01*
X8287731Y-12427237D01*
X8278207Y-12417713D01*
X8287731Y-12408190D01*
X8287731Y-12427237D01*
X8363921Y-12227237D02*
X8497255Y-12227237D01*
X8411540Y-12427237D01*
X8668683Y-12227237D02*
X8573445Y-12227237D01*
X8563921Y-12322475D01*
X8573445Y-12312951D01*
X8592493Y-12303428D01*
X8640112Y-12303428D01*
X8659159Y-12312951D01*
X8668683Y-12322475D01*
X8678207Y-12341523D01*
X8678207Y-12389142D01*
X8668683Y-12408190D01*
X8659159Y-12417713D01*
X8640112Y-12427237D01*
X8592493Y-12427237D01*
X8573445Y-12417713D01*
X8563921Y-12408190D01*
X8802017Y-12227237D02*
X8821064Y-12227237D01*
X8840112Y-12236761D01*
X8849636Y-12246285D01*
X8859159Y-12265332D01*
X8868683Y-12303428D01*
X8868683Y-12351047D01*
X8859159Y-12389142D01*
X8849636Y-12408190D01*
X8840112Y-12417713D01*
X8821064Y-12427237D01*
X8802017Y-12427237D01*
X8782969Y-12417713D01*
X8773445Y-12408190D01*
X8763921Y-12389142D01*
X8754398Y-12351047D01*
X8754398Y-12303428D01*
X8763921Y-12265332D01*
X8773445Y-12246285D01*
X8782969Y-12236761D01*
X8802017Y-12227237D01*
X8954398Y-12427237D02*
X8954398Y-12293904D01*
X8954398Y-12312951D02*
X8963921Y-12303428D01*
X8982969Y-12293904D01*
X9011540Y-12293904D01*
X9030588Y-12303428D01*
X9040112Y-12322475D01*
X9040112Y-12427237D01*
X9040112Y-12322475D02*
X9049636Y-12303428D01*
X9068683Y-12293904D01*
X9097255Y-12293904D01*
X9116302Y-12303428D01*
X9125826Y-12322475D01*
X9125826Y-12427237D01*
X9221064Y-12427237D02*
X9221064Y-12293904D01*
X9221064Y-12312951D02*
X9230588Y-12303428D01*
X9249636Y-12293904D01*
X9278207Y-12293904D01*
X9297255Y-12303428D01*
X9306778Y-12322475D01*
X9306778Y-12427237D01*
X9306778Y-12322475D02*
X9316302Y-12303428D01*
X9335350Y-12293904D01*
X9363921Y-12293904D01*
X9382969Y-12303428D01*
X9392493Y-12322475D01*
X9392493Y-12427237D01*
X9782969Y-12217713D02*
X9611540Y-12474856D01*
X10040112Y-12227237D02*
X10059159Y-12227237D01*
X10078207Y-12236761D01*
X10087731Y-12246285D01*
X10097255Y-12265332D01*
X10106778Y-12303428D01*
X10106778Y-12351047D01*
X10097255Y-12389142D01*
X10087731Y-12408190D01*
X10078207Y-12417713D01*
X10059159Y-12427237D01*
X10040112Y-12427237D01*
X10021064Y-12417713D01*
X10011540Y-12408190D01*
X10002017Y-12389142D01*
X9992493Y-12351047D01*
X9992493Y-12303428D01*
X10002017Y-12265332D01*
X10011540Y-12246285D01*
X10021064Y-12236761D01*
X10040112Y-12227237D01*
X10192493Y-12408190D02*
X10202017Y-12417713D01*
X10192493Y-12427237D01*
X10182969Y-12417713D01*
X10192493Y-12408190D01*
X10192493Y-12427237D01*
X10392493Y-12427237D02*
X10278207Y-12427237D01*
X10335350Y-12427237D02*
X10335350Y-12227237D01*
X10316302Y-12255809D01*
X10297255Y-12274856D01*
X10278207Y-12284380D01*
X10516302Y-12227237D02*
X10535350Y-12227237D01*
X10554398Y-12236761D01*
X10563921Y-12246285D01*
X10573445Y-12265332D01*
X10582969Y-12303428D01*
X10582969Y-12351047D01*
X10573445Y-12389142D01*
X10563921Y-12408190D01*
X10554398Y-12417713D01*
X10535350Y-12427237D01*
X10516302Y-12427237D01*
X10497255Y-12417713D01*
X10487731Y-12408190D01*
X10478207Y-12389142D01*
X10468683Y-12351047D01*
X10468683Y-12303428D01*
X10478207Y-12265332D01*
X10487731Y-12246285D01*
X10497255Y-12236761D01*
X10516302Y-12227237D01*
X10697255Y-12312951D02*
X10678207Y-12303428D01*
X10668683Y-12293904D01*
X10659159Y-12274856D01*
X10659159Y-12265332D01*
X10668683Y-12246285D01*
X10678207Y-12236761D01*
X10697255Y-12227237D01*
X10735350Y-12227237D01*
X10754398Y-12236761D01*
X10763921Y-12246285D01*
X10773445Y-12265332D01*
X10773445Y-12274856D01*
X10763921Y-12293904D01*
X10754398Y-12303428D01*
X10735350Y-12312951D01*
X10697255Y-12312951D01*
X10678207Y-12322475D01*
X10668683Y-12331999D01*
X10659159Y-12351047D01*
X10659159Y-12389142D01*
X10668683Y-12408190D01*
X10678207Y-12417713D01*
X10697255Y-12427237D01*
X10735350Y-12427237D01*
X10754398Y-12417713D01*
X10763921Y-12408190D01*
X10773445Y-12389142D01*
X10773445Y-12351047D01*
X10763921Y-12331999D01*
X10754398Y-12322475D01*
X10735350Y-12312951D01*
X10840112Y-12227237D02*
X10963921Y-12227237D01*
X10897255Y-12303428D01*
X10925826Y-12303428D01*
X10944874Y-12312951D01*
X10954398Y-12322475D01*
X10963921Y-12341523D01*
X10963921Y-12389142D01*
X10954398Y-12408190D01*
X10944874Y-12417713D01*
X10925826Y-12427237D01*
X10868683Y-12427237D01*
X10849636Y-12417713D01*
X10840112Y-12408190D01*
X11040112Y-12227237D02*
X11040112Y-12265332D01*
X11116302Y-12227237D02*
X11116302Y-12265332D01*
X11411540Y-12503428D02*
X11402016Y-12493904D01*
X11382969Y-12465332D01*
X11373445Y-12446285D01*
X11363921Y-12417713D01*
X11354397Y-12370094D01*
X11354397Y-12331999D01*
X11363921Y-12284380D01*
X11373445Y-12255809D01*
X11382969Y-12236761D01*
X11402016Y-12208190D01*
X11411540Y-12198666D01*
X11573445Y-12293904D02*
X11573445Y-12427237D01*
X11525826Y-12217713D02*
X11478207Y-12360571D01*
X11602016Y-12360571D01*
X11830588Y-12427237D02*
X11830588Y-12227237D01*
X11916302Y-12427237D02*
X11916302Y-12322475D01*
X11906778Y-12303428D01*
X11887731Y-12293904D01*
X11859159Y-12293904D01*
X11840112Y-12303428D01*
X11830588Y-12312951D01*
X12040112Y-12427237D02*
X12021064Y-12417713D01*
X12011540Y-12408190D01*
X12002016Y-12389142D01*
X12002016Y-12331999D01*
X12011540Y-12312951D01*
X12021064Y-12303428D01*
X12040112Y-12293904D01*
X12068683Y-12293904D01*
X12087731Y-12303428D01*
X12097255Y-12312951D01*
X12106778Y-12331999D01*
X12106778Y-12389142D01*
X12097255Y-12408190D01*
X12087731Y-12417713D01*
X12068683Y-12427237D01*
X12040112Y-12427237D01*
X12221064Y-12427237D02*
X12202016Y-12417713D01*
X12192493Y-12398666D01*
X12192493Y-12227237D01*
X12373445Y-12417713D02*
X12354397Y-12427237D01*
X12316302Y-12427237D01*
X12297255Y-12417713D01*
X12287731Y-12398666D01*
X12287731Y-12322475D01*
X12297255Y-12303428D01*
X12316302Y-12293904D01*
X12354397Y-12293904D01*
X12373445Y-12303428D01*
X12382969Y-12322475D01*
X12382969Y-12341523D01*
X12287731Y-12360571D01*
X12459159Y-12417713D02*
X12478207Y-12427237D01*
X12516302Y-12427237D01*
X12535350Y-12417713D01*
X12544874Y-12398666D01*
X12544874Y-12389142D01*
X12535350Y-12370094D01*
X12516302Y-12360571D01*
X12487731Y-12360571D01*
X12468683Y-12351047D01*
X12459159Y-12331999D01*
X12459159Y-12322475D01*
X12468683Y-12303428D01*
X12487731Y-12293904D01*
X12516302Y-12293904D01*
X12535350Y-12303428D01*
X12611540Y-12503428D02*
X12621064Y-12493904D01*
X12640112Y-12465332D01*
X12649635Y-12446285D01*
X12659159Y-12417713D01*
X12668683Y-12370094D01*
X12668683Y-12331999D01*
X12659159Y-12284380D01*
X12649635Y-12255809D01*
X12640112Y-12236761D01*
X12621064Y-12208190D01*
X12611540Y-12198666D01*
X12973445Y-12503428D02*
X12963921Y-12493904D01*
X12944874Y-12465332D01*
X12935350Y-12446285D01*
X12925826Y-12417713D01*
X12916302Y-12370094D01*
X12916302Y-12331999D01*
X12925826Y-12284380D01*
X12935350Y-12255809D01*
X12944874Y-12236761D01*
X12963921Y-12208190D01*
X12973445Y-12198666D01*
X13049635Y-12293904D02*
X13049635Y-12427237D01*
X13049635Y-12312951D02*
X13059159Y-12303428D01*
X13078207Y-12293904D01*
X13106778Y-12293904D01*
X13125826Y-12303428D01*
X13135350Y-12322475D01*
X13135350Y-12427237D01*
X13259159Y-12427237D02*
X13240112Y-12417713D01*
X13230588Y-12408190D01*
X13221064Y-12389142D01*
X13221064Y-12331999D01*
X13230588Y-12312951D01*
X13240112Y-12303428D01*
X13259159Y-12293904D01*
X13287731Y-12293904D01*
X13306778Y-12303428D01*
X13316302Y-12312951D01*
X13325826Y-12331999D01*
X13325826Y-12389142D01*
X13316302Y-12408190D01*
X13306778Y-12417713D01*
X13287731Y-12427237D01*
X13259159Y-12427237D01*
X13382969Y-12293904D02*
X13459159Y-12293904D01*
X13411540Y-12227237D02*
X13411540Y-12398666D01*
X13421064Y-12417713D01*
X13440112Y-12427237D01*
X13459159Y-12427237D01*
X13678207Y-12293904D02*
X13678207Y-12493904D01*
X13678207Y-12303428D02*
X13697255Y-12293904D01*
X13735350Y-12293904D01*
X13754397Y-12303428D01*
X13763921Y-12312951D01*
X13773445Y-12331999D01*
X13773445Y-12389142D01*
X13763921Y-12408190D01*
X13754397Y-12417713D01*
X13735350Y-12427237D01*
X13697255Y-12427237D01*
X13678207Y-12417713D01*
X13887731Y-12427237D02*
X13868683Y-12417713D01*
X13859159Y-12398666D01*
X13859159Y-12227237D01*
X14049635Y-12427237D02*
X14049635Y-12322475D01*
X14040112Y-12303428D01*
X14021064Y-12293904D01*
X13982969Y-12293904D01*
X13963921Y-12303428D01*
X14049635Y-12417713D02*
X14030588Y-12427237D01*
X13982969Y-12427237D01*
X13963921Y-12417713D01*
X13954397Y-12398666D01*
X13954397Y-12379618D01*
X13963921Y-12360571D01*
X13982969Y-12351047D01*
X14030588Y-12351047D01*
X14049635Y-12341523D01*
X14116302Y-12293904D02*
X14192493Y-12293904D01*
X14144874Y-12227237D02*
X14144874Y-12398666D01*
X14154397Y-12417713D01*
X14173445Y-12427237D01*
X14192493Y-12427237D01*
X14335350Y-12417713D02*
X14316302Y-12427237D01*
X14278207Y-12427237D01*
X14259159Y-12417713D01*
X14249635Y-12398666D01*
X14249635Y-12322475D01*
X14259159Y-12303428D01*
X14278207Y-12293904D01*
X14316302Y-12293904D01*
X14335350Y-12303428D01*
X14344874Y-12322475D01*
X14344874Y-12341523D01*
X14249635Y-12360571D01*
X14516302Y-12427237D02*
X14516302Y-12227237D01*
X14516302Y-12417713D02*
X14497255Y-12427237D01*
X14459159Y-12427237D01*
X14440112Y-12417713D01*
X14430588Y-12408190D01*
X14421064Y-12389142D01*
X14421064Y-12331999D01*
X14430588Y-12312951D01*
X14440112Y-12303428D01*
X14459159Y-12293904D01*
X14497255Y-12293904D01*
X14516302Y-12303428D01*
X14592493Y-12503428D02*
X14602016Y-12493904D01*
X14621064Y-12465332D01*
X14630588Y-12446285D01*
X14640112Y-12417713D01*
X14649635Y-12370094D01*
X14649635Y-12331999D01*
X14640112Y-12284380D01*
X14630588Y-12255809D01*
X14621064Y-12236761D01*
X14602016Y-12208190D01*
X14592493Y-12198666D01*
M02*
