%FSLAX45Y45*%
G04 Gerber Fmt 4.5, Leading zero omitted, Abs format (unit mm)*
G04 Created by KiCad (PCBNEW (5.99.0-12255-gad1ee958b0)) date 2021-11-28 16:30:12*
%MOMM*%
%LPD*%
G01*
G04 APERTURE LIST*
%TA.AperFunction,Profile*%
%ADD10C,0.100000*%
%TD*%
%ADD11C,0.200000*%
%ADD12C,0.050000*%
%ADD13C,0.075000*%
%ADD14C,0.080000*%
%ADD15C,0.090000*%
%ADD16C,0.092000*%
%ADD17C,0.095000*%
%ADD18C,0.100000*%
%ADD19C,0.110000*%
%ADD20C,0.230000*%
G04 APERTURE END LIST*
D10*
X14354635Y-11382285D02*
X14354636Y-6381761D01*
X7854636Y-6381761D02*
X7854636Y-11381761D01*
X14354635Y-11382285D02*
G75*
G02*
X14054636Y-11681761I-300000J524D01*
G01*
X14054636Y-6081761D02*
X8154636Y-6081761D01*
X8154636Y-11681761D02*
X14054636Y-11681761D01*
X14054636Y-6081761D02*
G75*
G02*
X14354636Y-6381761I0J-300000D01*
G01*
X7854636Y-6381761D02*
G75*
G02*
X8154636Y-6081761I300000J0D01*
G01*
X8154636Y-11681761D02*
G75*
G02*
X7854636Y-11381761I0J300000D01*
G01*
D11*
D12*
X9817500Y-9246000D02*
X9867500Y-9296000D01*
X9867500Y-9246000D02*
X9817500Y-9296000D01*
D13*
X10028976Y-7407524D02*
G75*
G03*
X10028976Y-7407524I-37500J0D01*
G01*
X10155976Y-7534524D02*
G75*
G03*
X10155976Y-7534524I-37500J0D01*
G01*
X10282976Y-7407524D02*
G75*
G03*
X10282976Y-7407524I-37500J0D01*
G01*
X11235475Y-7915524D02*
G75*
G03*
X11235475Y-7915524I-37500J0D01*
G01*
X11235475Y-8169524D02*
G75*
G03*
X11235475Y-8169524I-37500J0D01*
G01*
X11362475Y-8042524D02*
G75*
G03*
X11362475Y-8042524I-37500J0D01*
G01*
X11806975Y-8042524D02*
G75*
G03*
X11806975Y-8042524I-37500J0D01*
G01*
X11933975Y-7915524D02*
G75*
G03*
X11933975Y-7915524I-37500J0D01*
G01*
X11933975Y-8169524D02*
G75*
G03*
X11933975Y-8169524I-37500J0D01*
G01*
D14*
X8127000Y-7072500D02*
X8127000Y-7152500D01*
X8087000Y-7112500D02*
X8167000Y-7112500D01*
X8127000Y-7326500D02*
X8127000Y-7406500D01*
X8087000Y-7366500D02*
X8167000Y-7366500D01*
X8128000Y-7707000D02*
X8128000Y-7787000D01*
X8088000Y-7747000D02*
X8168000Y-7747000D01*
X8128000Y-8088000D02*
X8128000Y-8168000D01*
X8088000Y-8128000D02*
X8168000Y-8128000D01*
X8763000Y-8469000D02*
X8763000Y-8549000D01*
X8723000Y-8509000D02*
X8803000Y-8509000D01*
X8763000Y-9231000D02*
X8763000Y-9311000D01*
X8723000Y-9271000D02*
X8803000Y-9271000D01*
X8889000Y-7072500D02*
X8889000Y-7152500D01*
X8849000Y-7112500D02*
X8929000Y-7112500D01*
X8889000Y-7326500D02*
X8889000Y-7406500D01*
X8849000Y-7366500D02*
X8929000Y-7366500D01*
X8890000Y-7707000D02*
X8890000Y-7787000D01*
X8850000Y-7747000D02*
X8930000Y-7747000D01*
X8890000Y-8088000D02*
X8890000Y-8168000D01*
X8850000Y-8128000D02*
X8930000Y-8128000D01*
X8890000Y-10183500D02*
X8890000Y-10263500D01*
X8850000Y-10223500D02*
X8930000Y-10223500D01*
X8890000Y-10945500D02*
X8890000Y-11025500D01*
X8850000Y-10985500D02*
X8930000Y-10985500D01*
X9144000Y-8469000D02*
X9144000Y-8549000D01*
X9104000Y-8509000D02*
X9184000Y-8509000D01*
X9144000Y-9231000D02*
X9144000Y-9311000D01*
X9104000Y-9271000D02*
X9184000Y-9271000D01*
X9148000Y-7643500D02*
X9148000Y-7723500D01*
X9108000Y-7683500D02*
X9188000Y-7683500D01*
X9525000Y-8469000D02*
X9525000Y-8549000D01*
X9485000Y-8509000D02*
X9565000Y-8509000D01*
X9525000Y-9231000D02*
X9525000Y-9311000D01*
X9485000Y-9271000D02*
X9565000Y-9271000D01*
X9648000Y-7643500D02*
X9648000Y-7723500D01*
X9608000Y-7683500D02*
X9688000Y-7683500D01*
X9935976Y-6923024D02*
X9935976Y-7003024D01*
X9895976Y-6963024D02*
X9975976Y-6963024D01*
X10118476Y-8002524D02*
X10118476Y-8082524D01*
X10078476Y-8042524D02*
X10158476Y-8042524D01*
X10160000Y-8473000D02*
X10160000Y-8553000D01*
X10120000Y-8513000D02*
X10200000Y-8513000D01*
X10160000Y-8973000D02*
X10160000Y-9053000D01*
X10120000Y-9013000D02*
X10200000Y-9013000D01*
X10372476Y-8002524D02*
X10372476Y-8082524D01*
X10332476Y-8042524D02*
X10412476Y-8042524D01*
X10435976Y-6923024D02*
X10435976Y-7003024D01*
X10395976Y-6963024D02*
X10475976Y-6963024D01*
X10541000Y-8469000D02*
X10541000Y-8549000D01*
X10501000Y-8509000D02*
X10581000Y-8509000D01*
X10541000Y-9231000D02*
X10541000Y-9311000D01*
X10501000Y-9271000D02*
X10581000Y-9271000D01*
X10626476Y-8002524D02*
X10626476Y-8082524D01*
X10586476Y-8042524D02*
X10666476Y-8042524D01*
X10753476Y-6859524D02*
X10753476Y-6939524D01*
X10713476Y-6899524D02*
X10793476Y-6899524D01*
X10753476Y-7621524D02*
X10753476Y-7701524D01*
X10713476Y-7661524D02*
X10793476Y-7661524D01*
X10859500Y-8470000D02*
X10859500Y-8550000D01*
X10819500Y-8510000D02*
X10899500Y-8510000D01*
X10859500Y-8724000D02*
X10859500Y-8804000D01*
X10819500Y-8764000D02*
X10899500Y-8764000D01*
X10859500Y-8978000D02*
X10859500Y-9058000D01*
X10819500Y-9018000D02*
X10899500Y-9018000D01*
X10859500Y-9232000D02*
X10859500Y-9312000D01*
X10819500Y-9272000D02*
X10899500Y-9272000D01*
X11069976Y-6860024D02*
X11069976Y-6940024D01*
X11029976Y-6900024D02*
X11109976Y-6900024D01*
X11069976Y-7114024D02*
X11069976Y-7194024D01*
X11029976Y-7154024D02*
X11109976Y-7154024D01*
X11070976Y-7494524D02*
X11070976Y-7574524D01*
X11030976Y-7534524D02*
X11110976Y-7534524D01*
X11621500Y-8470000D02*
X11621500Y-8550000D01*
X11581500Y-8510000D02*
X11661500Y-8510000D01*
X11621500Y-8724000D02*
X11621500Y-8804000D01*
X11581500Y-8764000D02*
X11661500Y-8764000D01*
X11621500Y-8978000D02*
X11621500Y-9058000D01*
X11581500Y-9018000D02*
X11661500Y-9018000D01*
X11621500Y-9232000D02*
X11621500Y-9312000D01*
X11581500Y-9272000D02*
X11661500Y-9272000D01*
X11831975Y-6860024D02*
X11831975Y-6940024D01*
X11791975Y-6900024D02*
X11871975Y-6900024D01*
X11831975Y-7114024D02*
X11831975Y-7194024D01*
X11791975Y-7154024D02*
X11871975Y-7154024D01*
X11832975Y-7494524D02*
X11832975Y-7574524D01*
X11792975Y-7534524D02*
X11872975Y-7534524D01*
X11938000Y-8469000D02*
X11938000Y-8549000D01*
X11898000Y-8509000D02*
X11978000Y-8509000D01*
X11938000Y-9231000D02*
X11938000Y-9311000D01*
X11898000Y-9271000D02*
X11978000Y-9271000D01*
X12150475Y-6804024D02*
X12150475Y-6884024D01*
X12110475Y-6844024D02*
X12190475Y-6844024D01*
X12150475Y-7304024D02*
X12150475Y-7384024D01*
X12110475Y-7344024D02*
X12190475Y-7344024D01*
X12319000Y-7707000D02*
X12319000Y-7787000D01*
X12279000Y-7747000D02*
X12359000Y-7747000D01*
X12319000Y-8469000D02*
X12319000Y-8549000D01*
X12279000Y-8509000D02*
X12359000Y-8509000D01*
X12319000Y-8727000D02*
X12319000Y-8807000D01*
X12279000Y-8767000D02*
X12359000Y-8767000D01*
X12319000Y-9227000D02*
X12319000Y-9307000D01*
X12279000Y-9267000D02*
X12359000Y-9267000D01*
X12446000Y-6881500D02*
X12446000Y-6961500D01*
X12406000Y-6921500D02*
X12486000Y-6921500D01*
X12446000Y-7199000D02*
X12446000Y-7279000D01*
X12406000Y-7239000D02*
X12486000Y-7239000D01*
X13208000Y-6881500D02*
X13208000Y-6961500D01*
X13168000Y-6921500D02*
X13248000Y-6921500D01*
X13208000Y-7199000D02*
X13208000Y-7279000D01*
X13168000Y-7239000D02*
X13248000Y-7239000D01*
X13847000Y-10374000D02*
X13847000Y-10454000D01*
X13807000Y-10414000D02*
X13887000Y-10414000D01*
X14097000Y-10374000D02*
X14097000Y-10454000D01*
X14057000Y-10414000D02*
X14137000Y-10414000D01*
D15*
X8858320Y-11271820D02*
X8858320Y-11208180D01*
X8794680Y-11208180D01*
X8794680Y-11271820D01*
X8858320Y-11271820D01*
X8858320Y-11525820D02*
X8858320Y-11462180D01*
X8794680Y-11462180D01*
X8794680Y-11525820D01*
X8858320Y-11525820D01*
X9556820Y-8032320D02*
X9556820Y-7968680D01*
X9493180Y-7968680D01*
X9493180Y-8032320D01*
X9556820Y-8032320D01*
X9556820Y-8286320D02*
X9556820Y-8222680D01*
X9493180Y-8222680D01*
X9493180Y-8286320D01*
X9556820Y-8286320D01*
X14001820Y-7016820D02*
X14001820Y-6953180D01*
X13938180Y-6953180D01*
X13938180Y-7016820D01*
X14001820Y-7016820D01*
X14001820Y-7524820D02*
X14001820Y-7461180D01*
X13938180Y-7461180D01*
X13938180Y-7524820D01*
X14001820Y-7524820D01*
X14255820Y-7016820D02*
X14255820Y-6953180D01*
X14192180Y-6953180D01*
X14192180Y-7016820D01*
X14255820Y-7016820D01*
X14255820Y-7524820D02*
X14255820Y-7461180D01*
X14192180Y-7461180D01*
X14192180Y-7524820D01*
X14255820Y-7524820D01*
D16*
X12901000Y-8205000D02*
X12947000Y-8159000D01*
X12901000Y-8113000D01*
X12855000Y-8159000D01*
X12901000Y-8205000D01*
X12901000Y-8455000D02*
X12947000Y-8409000D01*
X12901000Y-8363000D01*
X12855000Y-8409000D01*
X12901000Y-8455000D01*
X12901000Y-8655000D02*
X12947000Y-8609000D01*
X12901000Y-8563000D01*
X12855000Y-8609000D01*
X12901000Y-8655000D01*
X12901000Y-8905000D02*
X12947000Y-8859000D01*
X12901000Y-8813000D01*
X12855000Y-8859000D01*
X12901000Y-8905000D01*
X13163000Y-8205000D02*
X13209000Y-8159000D01*
X13163000Y-8113000D01*
X13117000Y-8159000D01*
X13163000Y-8205000D01*
X13163000Y-8455000D02*
X13209000Y-8409000D01*
X13163000Y-8363000D01*
X13117000Y-8409000D01*
X13163000Y-8455000D01*
X13163000Y-8655000D02*
X13209000Y-8609000D01*
X13163000Y-8563000D01*
X13117000Y-8609000D01*
X13163000Y-8655000D01*
X13163000Y-8905000D02*
X13209000Y-8859000D01*
X13163000Y-8813000D01*
X13117000Y-8859000D01*
X13163000Y-8905000D01*
D17*
X8207500Y-9870500D02*
X8302500Y-9965500D01*
X8302500Y-9870500D02*
X8207500Y-9965500D01*
X8302500Y-9918000D02*
G75*
G03*
X8302500Y-9918000I-47500J0D01*
G01*
X8207500Y-10120500D02*
X8302500Y-10215500D01*
X8302500Y-10120500D02*
X8207500Y-10215500D01*
X8302500Y-10168000D02*
G75*
G03*
X8302500Y-10168000I-47500J0D01*
G01*
X8207500Y-10370500D02*
X8302500Y-10465500D01*
X8302500Y-10370500D02*
X8207500Y-10465500D01*
X8302500Y-10418000D02*
G75*
G03*
X8302500Y-10418000I-47500J0D01*
G01*
X8207500Y-10620500D02*
X8302500Y-10715500D01*
X8302500Y-10620500D02*
X8207500Y-10715500D01*
X8302500Y-10668000D02*
G75*
G03*
X8302500Y-10668000I-47500J0D01*
G01*
D18*
X8642000Y-6255000D02*
X8742000Y-6355000D01*
X8742000Y-6255000D02*
X8642000Y-6355000D01*
X8692000Y-6255000D02*
X8692000Y-6355000D01*
X8642000Y-6305000D02*
X8742000Y-6305000D01*
X8642000Y-6509000D02*
X8742000Y-6609000D01*
X8742000Y-6509000D02*
X8642000Y-6609000D01*
X8692000Y-6509000D02*
X8692000Y-6609000D01*
X8642000Y-6559000D02*
X8742000Y-6559000D01*
X8840000Y-9602000D02*
X8940000Y-9702000D01*
X8940000Y-9602000D02*
X8840000Y-9702000D01*
X8890000Y-9602000D02*
X8890000Y-9702000D01*
X8840000Y-9652000D02*
X8940000Y-9652000D01*
X8840000Y-9856000D02*
X8940000Y-9956000D01*
X8940000Y-9856000D02*
X8840000Y-9956000D01*
X8890000Y-9856000D02*
X8890000Y-9956000D01*
X8840000Y-9906000D02*
X8940000Y-9906000D01*
X8896000Y-6255000D02*
X8996000Y-6355000D01*
X8996000Y-6255000D02*
X8896000Y-6355000D01*
X8946000Y-6255000D02*
X8946000Y-6355000D01*
X8896000Y-6305000D02*
X8996000Y-6305000D01*
X8896000Y-6509000D02*
X8996000Y-6609000D01*
X8996000Y-6509000D02*
X8896000Y-6609000D01*
X8946000Y-6509000D02*
X8946000Y-6609000D01*
X8896000Y-6559000D02*
X8996000Y-6559000D01*
X9150000Y-6255000D02*
X9250000Y-6355000D01*
X9250000Y-6255000D02*
X9150000Y-6355000D01*
X9200000Y-6255000D02*
X9200000Y-6355000D01*
X9150000Y-6305000D02*
X9250000Y-6305000D01*
X9150000Y-6509000D02*
X9250000Y-6609000D01*
X9250000Y-6509000D02*
X9150000Y-6609000D01*
X9200000Y-6509000D02*
X9200000Y-6609000D01*
X9150000Y-6559000D02*
X9250000Y-6559000D01*
X9284500Y-9602000D02*
X9384500Y-9702000D01*
X9384500Y-9602000D02*
X9284500Y-9702000D01*
X9334500Y-9602000D02*
X9334500Y-9702000D01*
X9284500Y-9652000D02*
X9384500Y-9652000D01*
X9284500Y-11380000D02*
X9384500Y-11480000D01*
X9384500Y-11380000D02*
X9284500Y-11480000D01*
X9334500Y-11380000D02*
X9334500Y-11480000D01*
X9284500Y-11430000D02*
X9384500Y-11430000D01*
X9404000Y-6255000D02*
X9504000Y-6355000D01*
X9504000Y-6255000D02*
X9404000Y-6355000D01*
X9454000Y-6255000D02*
X9454000Y-6355000D01*
X9404000Y-6305000D02*
X9504000Y-6305000D01*
X9404000Y-6509000D02*
X9504000Y-6609000D01*
X9504000Y-6509000D02*
X9404000Y-6609000D01*
X9454000Y-6509000D02*
X9454000Y-6609000D01*
X9404000Y-6559000D02*
X9504000Y-6559000D01*
X9658000Y-6255000D02*
X9758000Y-6355000D01*
X9758000Y-6255000D02*
X9658000Y-6355000D01*
X9708000Y-6255000D02*
X9708000Y-6355000D01*
X9658000Y-6305000D02*
X9758000Y-6305000D01*
X9658000Y-6509000D02*
X9758000Y-6609000D01*
X9758000Y-6509000D02*
X9658000Y-6609000D01*
X9708000Y-6509000D02*
X9708000Y-6609000D01*
X9658000Y-6559000D02*
X9758000Y-6559000D01*
X9912000Y-6255000D02*
X10012000Y-6355000D01*
X10012000Y-6255000D02*
X9912000Y-6355000D01*
X9962000Y-6255000D02*
X9962000Y-6355000D01*
X9912000Y-6305000D02*
X10012000Y-6305000D01*
X9912000Y-6509000D02*
X10012000Y-6609000D01*
X10012000Y-6509000D02*
X9912000Y-6609000D01*
X9962000Y-6509000D02*
X9962000Y-6609000D01*
X9912000Y-6559000D02*
X10012000Y-6559000D01*
X10166000Y-6255000D02*
X10266000Y-6355000D01*
X10266000Y-6255000D02*
X10166000Y-6355000D01*
X10216000Y-6255000D02*
X10216000Y-6355000D01*
X10166000Y-6305000D02*
X10266000Y-6305000D01*
X10166000Y-6509000D02*
X10266000Y-6609000D01*
X10266000Y-6509000D02*
X10166000Y-6609000D01*
X10216000Y-6509000D02*
X10216000Y-6609000D01*
X10166000Y-6559000D02*
X10266000Y-6559000D01*
X10420000Y-6255000D02*
X10520000Y-6355000D01*
X10520000Y-6255000D02*
X10420000Y-6355000D01*
X10470000Y-6255000D02*
X10470000Y-6355000D01*
X10420000Y-6305000D02*
X10520000Y-6305000D01*
X10420000Y-6509000D02*
X10520000Y-6609000D01*
X10520000Y-6509000D02*
X10420000Y-6609000D01*
X10470000Y-6509000D02*
X10470000Y-6609000D01*
X10420000Y-6559000D02*
X10520000Y-6559000D01*
X10674000Y-6255000D02*
X10774000Y-6355000D01*
X10774000Y-6255000D02*
X10674000Y-6355000D01*
X10724000Y-6255000D02*
X10724000Y-6355000D01*
X10674000Y-6305000D02*
X10774000Y-6305000D01*
X10674000Y-6509000D02*
X10774000Y-6609000D01*
X10774000Y-6509000D02*
X10674000Y-6609000D01*
X10724000Y-6509000D02*
X10724000Y-6609000D01*
X10674000Y-6559000D02*
X10774000Y-6559000D01*
X10928000Y-6255000D02*
X11028000Y-6355000D01*
X11028000Y-6255000D02*
X10928000Y-6355000D01*
X10978000Y-6255000D02*
X10978000Y-6355000D01*
X10928000Y-6305000D02*
X11028000Y-6305000D01*
X10928000Y-6509000D02*
X11028000Y-6609000D01*
X11028000Y-6509000D02*
X10928000Y-6609000D01*
X10978000Y-6509000D02*
X10978000Y-6609000D01*
X10928000Y-6559000D02*
X11028000Y-6559000D01*
X11182000Y-6255000D02*
X11282000Y-6355000D01*
X11282000Y-6255000D02*
X11182000Y-6355000D01*
X11232000Y-6255000D02*
X11232000Y-6355000D01*
X11182000Y-6305000D02*
X11282000Y-6305000D01*
X11182000Y-6509000D02*
X11282000Y-6609000D01*
X11282000Y-6509000D02*
X11182000Y-6609000D01*
X11232000Y-6509000D02*
X11232000Y-6609000D01*
X11182000Y-6559000D02*
X11282000Y-6559000D01*
X11436000Y-6255000D02*
X11536000Y-6355000D01*
X11536000Y-6255000D02*
X11436000Y-6355000D01*
X11486000Y-6255000D02*
X11486000Y-6355000D01*
X11436000Y-6305000D02*
X11536000Y-6305000D01*
X11436000Y-6509000D02*
X11536000Y-6609000D01*
X11536000Y-6509000D02*
X11436000Y-6609000D01*
X11486000Y-6509000D02*
X11486000Y-6609000D01*
X11436000Y-6559000D02*
X11536000Y-6559000D01*
X11690000Y-6255000D02*
X11790000Y-6355000D01*
X11790000Y-6255000D02*
X11690000Y-6355000D01*
X11740000Y-6255000D02*
X11740000Y-6355000D01*
X11690000Y-6305000D02*
X11790000Y-6305000D01*
X11690000Y-6509000D02*
X11790000Y-6609000D01*
X11790000Y-6509000D02*
X11690000Y-6609000D01*
X11740000Y-6509000D02*
X11740000Y-6609000D01*
X11690000Y-6559000D02*
X11790000Y-6559000D01*
X11944000Y-6255000D02*
X12044000Y-6355000D01*
X12044000Y-6255000D02*
X11944000Y-6355000D01*
X11994000Y-6255000D02*
X11994000Y-6355000D01*
X11944000Y-6305000D02*
X12044000Y-6305000D01*
X11944000Y-6509000D02*
X12044000Y-6609000D01*
X12044000Y-6509000D02*
X11944000Y-6609000D01*
X11994000Y-6509000D02*
X11994000Y-6609000D01*
X11944000Y-6559000D02*
X12044000Y-6559000D01*
X12198000Y-6255000D02*
X12298000Y-6355000D01*
X12298000Y-6255000D02*
X12198000Y-6355000D01*
X12248000Y-6255000D02*
X12248000Y-6355000D01*
X12198000Y-6305000D02*
X12298000Y-6305000D01*
X12198000Y-6509000D02*
X12298000Y-6609000D01*
X12298000Y-6509000D02*
X12198000Y-6609000D01*
X12248000Y-6509000D02*
X12248000Y-6609000D01*
X12198000Y-6559000D02*
X12298000Y-6559000D01*
X12452000Y-6255000D02*
X12552000Y-6355000D01*
X12552000Y-6255000D02*
X12452000Y-6355000D01*
X12502000Y-6255000D02*
X12502000Y-6355000D01*
X12452000Y-6305000D02*
X12552000Y-6305000D01*
X12452000Y-6509000D02*
X12552000Y-6609000D01*
X12552000Y-6509000D02*
X12452000Y-6609000D01*
X12502000Y-6509000D02*
X12502000Y-6609000D01*
X12452000Y-6559000D02*
X12552000Y-6559000D01*
X12706000Y-6255000D02*
X12806000Y-6355000D01*
X12806000Y-6255000D02*
X12706000Y-6355000D01*
X12756000Y-6255000D02*
X12756000Y-6355000D01*
X12706000Y-6305000D02*
X12806000Y-6305000D01*
X12706000Y-6509000D02*
X12806000Y-6609000D01*
X12806000Y-6509000D02*
X12706000Y-6609000D01*
X12756000Y-6509000D02*
X12756000Y-6609000D01*
X12706000Y-6559000D02*
X12806000Y-6559000D01*
X12960000Y-6255000D02*
X13060000Y-6355000D01*
X13060000Y-6255000D02*
X12960000Y-6355000D01*
X13010000Y-6255000D02*
X13010000Y-6355000D01*
X12960000Y-6305000D02*
X13060000Y-6305000D01*
X12960000Y-6509000D02*
X13060000Y-6609000D01*
X13060000Y-6509000D02*
X12960000Y-6609000D01*
X13010000Y-6509000D02*
X13010000Y-6609000D01*
X12960000Y-6559000D02*
X13060000Y-6559000D01*
X13214000Y-6255000D02*
X13314000Y-6355000D01*
X13314000Y-6255000D02*
X13214000Y-6355000D01*
X13264000Y-6255000D02*
X13264000Y-6355000D01*
X13214000Y-6305000D02*
X13314000Y-6305000D01*
X13214000Y-6509000D02*
X13314000Y-6609000D01*
X13314000Y-6509000D02*
X13214000Y-6609000D01*
X13264000Y-6509000D02*
X13264000Y-6609000D01*
X13214000Y-6559000D02*
X13314000Y-6559000D01*
X13348500Y-9602000D02*
X13448500Y-9702000D01*
X13448500Y-9602000D02*
X13348500Y-9702000D01*
X13398500Y-9602000D02*
X13398500Y-9702000D01*
X13348500Y-9652000D02*
X13448500Y-9652000D01*
X13348500Y-11380000D02*
X13448500Y-11480000D01*
X13448500Y-11380000D02*
X13348500Y-11480000D01*
X13398500Y-11380000D02*
X13398500Y-11480000D01*
X13348500Y-11430000D02*
X13448500Y-11430000D01*
X13468000Y-6255000D02*
X13568000Y-6355000D01*
X13568000Y-6255000D02*
X13468000Y-6355000D01*
X13518000Y-6255000D02*
X13518000Y-6355000D01*
X13468000Y-6305000D02*
X13568000Y-6305000D01*
X13468000Y-6509000D02*
X13568000Y-6609000D01*
X13568000Y-6509000D02*
X13468000Y-6609000D01*
X13518000Y-6509000D02*
X13518000Y-6609000D01*
X13468000Y-6559000D02*
X13568000Y-6559000D01*
X13720000Y-9602000D02*
X13820000Y-9702000D01*
X13820000Y-9602000D02*
X13720000Y-9702000D01*
X13770000Y-9602000D02*
X13770000Y-9702000D01*
X13720000Y-9652000D02*
X13820000Y-9652000D01*
X14120000Y-9602000D02*
X14220000Y-9702000D01*
X14220000Y-9602000D02*
X14120000Y-9702000D01*
X14170000Y-9602000D02*
X14170000Y-9702000D01*
X14120000Y-9652000D02*
X14220000Y-9652000D01*
D19*
X8327000Y-8581000D02*
X8437000Y-8691000D01*
X8437000Y-8581000D02*
X8327000Y-8691000D01*
X8420891Y-8674891D02*
X8420891Y-8597109D01*
X8343109Y-8597109D01*
X8343109Y-8674891D01*
X8420891Y-8674891D01*
X8327000Y-8835000D02*
X8437000Y-8945000D01*
X8437000Y-8835000D02*
X8327000Y-8945000D01*
X8420891Y-8928891D02*
X8420891Y-8851109D01*
X8343109Y-8851109D01*
X8343109Y-8928891D01*
X8420891Y-8928891D01*
X8327000Y-9089000D02*
X8437000Y-9199000D01*
X8437000Y-9089000D02*
X8327000Y-9199000D01*
X8420891Y-9182891D02*
X8420891Y-9105109D01*
X8343109Y-9105109D01*
X8343109Y-9182891D01*
X8420891Y-9182891D01*
D20*
X12751000Y-7737000D02*
X12981000Y-7967000D01*
X12981000Y-7737000D02*
X12751000Y-7967000D01*
X12866000Y-7967000D02*
X12981000Y-7852000D01*
X12866000Y-7737000D01*
X12751000Y-7852000D01*
X12866000Y-7967000D01*
X12751000Y-9051000D02*
X12981000Y-9281000D01*
X12981000Y-9051000D02*
X12751000Y-9281000D01*
X12866000Y-9281000D02*
X12981000Y-9166000D01*
X12866000Y-9051000D01*
X12751000Y-9166000D01*
X12866000Y-9281000D01*
X13319000Y-7737000D02*
X13549000Y-7967000D01*
X13549000Y-7737000D02*
X13319000Y-7967000D01*
X13434000Y-7967000D02*
X13549000Y-7852000D01*
X13434000Y-7737000D01*
X13319000Y-7852000D01*
X13434000Y-7967000D01*
X13319000Y-9051000D02*
X13549000Y-9281000D01*
X13549000Y-9051000D02*
X13319000Y-9281000D01*
X13434000Y-9281000D02*
X13549000Y-9166000D01*
X13434000Y-9051000D01*
X13319000Y-9166000D01*
X13434000Y-9281000D01*
D11*
X8097255Y-12007237D02*
X8097255Y-11807237D01*
X8144874Y-11807237D01*
X8173445Y-11816761D01*
X8192493Y-11835809D01*
X8202016Y-11854856D01*
X8211540Y-11892951D01*
X8211540Y-11921523D01*
X8202016Y-11959618D01*
X8192493Y-11978666D01*
X8173445Y-11997713D01*
X8144874Y-12007237D01*
X8097255Y-12007237D01*
X8297255Y-12007237D02*
X8297255Y-11873904D01*
X8297255Y-11911999D02*
X8306778Y-11892951D01*
X8316302Y-11883428D01*
X8335350Y-11873904D01*
X8354397Y-11873904D01*
X8421064Y-12007237D02*
X8421064Y-11873904D01*
X8421064Y-11807237D02*
X8411540Y-11816761D01*
X8421064Y-11826285D01*
X8430588Y-11816761D01*
X8421064Y-11807237D01*
X8421064Y-11826285D01*
X8544874Y-12007237D02*
X8525826Y-11997713D01*
X8516302Y-11978666D01*
X8516302Y-11807237D01*
X8649636Y-12007237D02*
X8630588Y-11997713D01*
X8621064Y-11978666D01*
X8621064Y-11807237D01*
X8878207Y-12007237D02*
X8878207Y-11807237D01*
X8944874Y-11950094D01*
X9011540Y-11807237D01*
X9011540Y-12007237D01*
X9192493Y-12007237D02*
X9192493Y-11902475D01*
X9182969Y-11883428D01*
X9163921Y-11873904D01*
X9125826Y-11873904D01*
X9106778Y-11883428D01*
X9192493Y-11997713D02*
X9173445Y-12007237D01*
X9125826Y-12007237D01*
X9106778Y-11997713D01*
X9097255Y-11978666D01*
X9097255Y-11959618D01*
X9106778Y-11940571D01*
X9125826Y-11931047D01*
X9173445Y-11931047D01*
X9192493Y-11921523D01*
X9287731Y-11873904D02*
X9287731Y-12073904D01*
X9287731Y-11883428D02*
X9306778Y-11873904D01*
X9344874Y-11873904D01*
X9363921Y-11883428D01*
X9373445Y-11892951D01*
X9382969Y-11911999D01*
X9382969Y-11969142D01*
X9373445Y-11988190D01*
X9363921Y-11997713D01*
X9344874Y-12007237D01*
X9306778Y-12007237D01*
X9287731Y-11997713D01*
X9468683Y-11988190D02*
X9478207Y-11997713D01*
X9468683Y-12007237D01*
X9459159Y-11997713D01*
X9468683Y-11988190D01*
X9468683Y-12007237D01*
X9468683Y-11883428D02*
X9478207Y-11892951D01*
X9468683Y-11902475D01*
X9459159Y-11892951D01*
X9468683Y-11883428D01*
X9468683Y-11902475D01*
D12*
X7789636Y-12311761D02*
X7839636Y-12361761D01*
X7839636Y-12311761D02*
X7789636Y-12361761D01*
D11*
X8135350Y-12227237D02*
X8154397Y-12227237D01*
X8173445Y-12236761D01*
X8182969Y-12246285D01*
X8192493Y-12265332D01*
X8202016Y-12303428D01*
X8202016Y-12351047D01*
X8192493Y-12389142D01*
X8182969Y-12408190D01*
X8173445Y-12417713D01*
X8154397Y-12427237D01*
X8135350Y-12427237D01*
X8116302Y-12417713D01*
X8106778Y-12408190D01*
X8097255Y-12389142D01*
X8087731Y-12351047D01*
X8087731Y-12303428D01*
X8097255Y-12265332D01*
X8106778Y-12246285D01*
X8116302Y-12236761D01*
X8135350Y-12227237D01*
X8287731Y-12408190D02*
X8297255Y-12417713D01*
X8287731Y-12427237D01*
X8278207Y-12417713D01*
X8287731Y-12408190D01*
X8287731Y-12427237D01*
X8478207Y-12227237D02*
X8382969Y-12227237D01*
X8373445Y-12322475D01*
X8382969Y-12312951D01*
X8402017Y-12303428D01*
X8449636Y-12303428D01*
X8468683Y-12312951D01*
X8478207Y-12322475D01*
X8487731Y-12341523D01*
X8487731Y-12389142D01*
X8478207Y-12408190D01*
X8468683Y-12417713D01*
X8449636Y-12427237D01*
X8402017Y-12427237D01*
X8382969Y-12417713D01*
X8373445Y-12408190D01*
X8611540Y-12227237D02*
X8630588Y-12227237D01*
X8649636Y-12236761D01*
X8659159Y-12246285D01*
X8668683Y-12265332D01*
X8678207Y-12303428D01*
X8678207Y-12351047D01*
X8668683Y-12389142D01*
X8659159Y-12408190D01*
X8649636Y-12417713D01*
X8630588Y-12427237D01*
X8611540Y-12427237D01*
X8592493Y-12417713D01*
X8582969Y-12408190D01*
X8573445Y-12389142D01*
X8563921Y-12351047D01*
X8563921Y-12303428D01*
X8573445Y-12265332D01*
X8582969Y-12246285D01*
X8592493Y-12236761D01*
X8611540Y-12227237D01*
X8802017Y-12227237D02*
X8821064Y-12227237D01*
X8840112Y-12236761D01*
X8849636Y-12246285D01*
X8859159Y-12265332D01*
X8868683Y-12303428D01*
X8868683Y-12351047D01*
X8859159Y-12389142D01*
X8849636Y-12408190D01*
X8840112Y-12417713D01*
X8821064Y-12427237D01*
X8802017Y-12427237D01*
X8782969Y-12417713D01*
X8773445Y-12408190D01*
X8763921Y-12389142D01*
X8754398Y-12351047D01*
X8754398Y-12303428D01*
X8763921Y-12265332D01*
X8773445Y-12246285D01*
X8782969Y-12236761D01*
X8802017Y-12227237D01*
X8954398Y-12427237D02*
X8954398Y-12293904D01*
X8954398Y-12312951D02*
X8963921Y-12303428D01*
X8982969Y-12293904D01*
X9011540Y-12293904D01*
X9030588Y-12303428D01*
X9040112Y-12322475D01*
X9040112Y-12427237D01*
X9040112Y-12322475D02*
X9049636Y-12303428D01*
X9068683Y-12293904D01*
X9097255Y-12293904D01*
X9116302Y-12303428D01*
X9125826Y-12322475D01*
X9125826Y-12427237D01*
X9221064Y-12427237D02*
X9221064Y-12293904D01*
X9221064Y-12312951D02*
X9230588Y-12303428D01*
X9249636Y-12293904D01*
X9278207Y-12293904D01*
X9297255Y-12303428D01*
X9306778Y-12322475D01*
X9306778Y-12427237D01*
X9306778Y-12322475D02*
X9316302Y-12303428D01*
X9335350Y-12293904D01*
X9363921Y-12293904D01*
X9382969Y-12303428D01*
X9392493Y-12322475D01*
X9392493Y-12427237D01*
X9782969Y-12217713D02*
X9611540Y-12474856D01*
X10040112Y-12227237D02*
X10059159Y-12227237D01*
X10078207Y-12236761D01*
X10087731Y-12246285D01*
X10097255Y-12265332D01*
X10106778Y-12303428D01*
X10106778Y-12351047D01*
X10097255Y-12389142D01*
X10087731Y-12408190D01*
X10078207Y-12417713D01*
X10059159Y-12427237D01*
X10040112Y-12427237D01*
X10021064Y-12417713D01*
X10011540Y-12408190D01*
X10002017Y-12389142D01*
X9992493Y-12351047D01*
X9992493Y-12303428D01*
X10002017Y-12265332D01*
X10011540Y-12246285D01*
X10021064Y-12236761D01*
X10040112Y-12227237D01*
X10192493Y-12408190D02*
X10202017Y-12417713D01*
X10192493Y-12427237D01*
X10182969Y-12417713D01*
X10192493Y-12408190D01*
X10192493Y-12427237D01*
X10325826Y-12227237D02*
X10344874Y-12227237D01*
X10363921Y-12236761D01*
X10373445Y-12246285D01*
X10382969Y-12265332D01*
X10392493Y-12303428D01*
X10392493Y-12351047D01*
X10382969Y-12389142D01*
X10373445Y-12408190D01*
X10363921Y-12417713D01*
X10344874Y-12427237D01*
X10325826Y-12427237D01*
X10306778Y-12417713D01*
X10297255Y-12408190D01*
X10287731Y-12389142D01*
X10278207Y-12351047D01*
X10278207Y-12303428D01*
X10287731Y-12265332D01*
X10297255Y-12246285D01*
X10306778Y-12236761D01*
X10325826Y-12227237D01*
X10582969Y-12427237D02*
X10468683Y-12427237D01*
X10525826Y-12427237D02*
X10525826Y-12227237D01*
X10506778Y-12255809D01*
X10487731Y-12274856D01*
X10468683Y-12284380D01*
X10678207Y-12427237D02*
X10716302Y-12427237D01*
X10735350Y-12417713D01*
X10744874Y-12408190D01*
X10763921Y-12379618D01*
X10773445Y-12341523D01*
X10773445Y-12265332D01*
X10763921Y-12246285D01*
X10754398Y-12236761D01*
X10735350Y-12227237D01*
X10697255Y-12227237D01*
X10678207Y-12236761D01*
X10668683Y-12246285D01*
X10659159Y-12265332D01*
X10659159Y-12312951D01*
X10668683Y-12331999D01*
X10678207Y-12341523D01*
X10697255Y-12351047D01*
X10735350Y-12351047D01*
X10754398Y-12341523D01*
X10763921Y-12331999D01*
X10773445Y-12312951D01*
X10840112Y-12227237D02*
X10973445Y-12227237D01*
X10887731Y-12427237D01*
X11040112Y-12227237D02*
X11040112Y-12265332D01*
X11116302Y-12227237D02*
X11116302Y-12265332D01*
X11411540Y-12503428D02*
X11402016Y-12493904D01*
X11382969Y-12465332D01*
X11373445Y-12446285D01*
X11363921Y-12417713D01*
X11354397Y-12370094D01*
X11354397Y-12331999D01*
X11363921Y-12284380D01*
X11373445Y-12255809D01*
X11382969Y-12236761D01*
X11402016Y-12208190D01*
X11411540Y-12198666D01*
X11592493Y-12427237D02*
X11478207Y-12427237D01*
X11535350Y-12427237D02*
X11535350Y-12227237D01*
X11516302Y-12255809D01*
X11497255Y-12274856D01*
X11478207Y-12284380D01*
X11830588Y-12427237D02*
X11830588Y-12227237D01*
X11916302Y-12427237D02*
X11916302Y-12322475D01*
X11906778Y-12303428D01*
X11887731Y-12293904D01*
X11859159Y-12293904D01*
X11840112Y-12303428D01*
X11830588Y-12312951D01*
X12040112Y-12427237D02*
X12021064Y-12417713D01*
X12011540Y-12408190D01*
X12002016Y-12389142D01*
X12002016Y-12331999D01*
X12011540Y-12312951D01*
X12021064Y-12303428D01*
X12040112Y-12293904D01*
X12068683Y-12293904D01*
X12087731Y-12303428D01*
X12097255Y-12312951D01*
X12106778Y-12331999D01*
X12106778Y-12389142D01*
X12097255Y-12408190D01*
X12087731Y-12417713D01*
X12068683Y-12427237D01*
X12040112Y-12427237D01*
X12221064Y-12427237D02*
X12202016Y-12417713D01*
X12192493Y-12398666D01*
X12192493Y-12227237D01*
X12373445Y-12417713D02*
X12354397Y-12427237D01*
X12316302Y-12427237D01*
X12297255Y-12417713D01*
X12287731Y-12398666D01*
X12287731Y-12322475D01*
X12297255Y-12303428D01*
X12316302Y-12293904D01*
X12354397Y-12293904D01*
X12373445Y-12303428D01*
X12382969Y-12322475D01*
X12382969Y-12341523D01*
X12287731Y-12360571D01*
X12449635Y-12503428D02*
X12459159Y-12493904D01*
X12478207Y-12465332D01*
X12487731Y-12446285D01*
X12497255Y-12417713D01*
X12506778Y-12370094D01*
X12506778Y-12331999D01*
X12497255Y-12284380D01*
X12487731Y-12255809D01*
X12478207Y-12236761D01*
X12459159Y-12208190D01*
X12449635Y-12198666D01*
D13*
X7839636Y-12600761D02*
G75*
G03*
X7839636Y-12600761I-37500J0D01*
G01*
D11*
X8135350Y-12491237D02*
X8154397Y-12491237D01*
X8173445Y-12500761D01*
X8182969Y-12510285D01*
X8192493Y-12529332D01*
X8202016Y-12567428D01*
X8202016Y-12615047D01*
X8192493Y-12653142D01*
X8182969Y-12672190D01*
X8173445Y-12681713D01*
X8154397Y-12691237D01*
X8135350Y-12691237D01*
X8116302Y-12681713D01*
X8106778Y-12672190D01*
X8097255Y-12653142D01*
X8087731Y-12615047D01*
X8087731Y-12567428D01*
X8097255Y-12529332D01*
X8106778Y-12510285D01*
X8116302Y-12500761D01*
X8135350Y-12491237D01*
X8287731Y-12672190D02*
X8297255Y-12681713D01*
X8287731Y-12691237D01*
X8278207Y-12681713D01*
X8287731Y-12672190D01*
X8287731Y-12691237D01*
X8363921Y-12491237D02*
X8497255Y-12491237D01*
X8411540Y-12691237D01*
X8668683Y-12491237D02*
X8573445Y-12491237D01*
X8563921Y-12586475D01*
X8573445Y-12576951D01*
X8592493Y-12567428D01*
X8640112Y-12567428D01*
X8659159Y-12576951D01*
X8668683Y-12586475D01*
X8678207Y-12605523D01*
X8678207Y-12653142D01*
X8668683Y-12672190D01*
X8659159Y-12681713D01*
X8640112Y-12691237D01*
X8592493Y-12691237D01*
X8573445Y-12681713D01*
X8563921Y-12672190D01*
X8802017Y-12491237D02*
X8821064Y-12491237D01*
X8840112Y-12500761D01*
X8849636Y-12510285D01*
X8859159Y-12529332D01*
X8868683Y-12567428D01*
X8868683Y-12615047D01*
X8859159Y-12653142D01*
X8849636Y-12672190D01*
X8840112Y-12681713D01*
X8821064Y-12691237D01*
X8802017Y-12691237D01*
X8782969Y-12681713D01*
X8773445Y-12672190D01*
X8763921Y-12653142D01*
X8754398Y-12615047D01*
X8754398Y-12567428D01*
X8763921Y-12529332D01*
X8773445Y-12510285D01*
X8782969Y-12500761D01*
X8802017Y-12491237D01*
X8954398Y-12691237D02*
X8954398Y-12557904D01*
X8954398Y-12576951D02*
X8963921Y-12567428D01*
X8982969Y-12557904D01*
X9011540Y-12557904D01*
X9030588Y-12567428D01*
X9040112Y-12586475D01*
X9040112Y-12691237D01*
X9040112Y-12586475D02*
X9049636Y-12567428D01*
X9068683Y-12557904D01*
X9097255Y-12557904D01*
X9116302Y-12567428D01*
X9125826Y-12586475D01*
X9125826Y-12691237D01*
X9221064Y-12691237D02*
X9221064Y-12557904D01*
X9221064Y-12576951D02*
X9230588Y-12567428D01*
X9249636Y-12557904D01*
X9278207Y-12557904D01*
X9297255Y-12567428D01*
X9306778Y-12586475D01*
X9306778Y-12691237D01*
X9306778Y-12586475D02*
X9316302Y-12567428D01*
X9335350Y-12557904D01*
X9363921Y-12557904D01*
X9382969Y-12567428D01*
X9392493Y-12586475D01*
X9392493Y-12691237D01*
X9782969Y-12481713D02*
X9611540Y-12738856D01*
X10040112Y-12491237D02*
X10059159Y-12491237D01*
X10078207Y-12500761D01*
X10087731Y-12510285D01*
X10097255Y-12529332D01*
X10106778Y-12567428D01*
X10106778Y-12615047D01*
X10097255Y-12653142D01*
X10087731Y-12672190D01*
X10078207Y-12681713D01*
X10059159Y-12691237D01*
X10040112Y-12691237D01*
X10021064Y-12681713D01*
X10011540Y-12672190D01*
X10002017Y-12653142D01*
X9992493Y-12615047D01*
X9992493Y-12567428D01*
X10002017Y-12529332D01*
X10011540Y-12510285D01*
X10021064Y-12500761D01*
X10040112Y-12491237D01*
X10192493Y-12672190D02*
X10202017Y-12681713D01*
X10192493Y-12691237D01*
X10182969Y-12681713D01*
X10192493Y-12672190D01*
X10192493Y-12691237D01*
X10325826Y-12491237D02*
X10344874Y-12491237D01*
X10363921Y-12500761D01*
X10373445Y-12510285D01*
X10382969Y-12529332D01*
X10392493Y-12567428D01*
X10392493Y-12615047D01*
X10382969Y-12653142D01*
X10373445Y-12672190D01*
X10363921Y-12681713D01*
X10344874Y-12691237D01*
X10325826Y-12691237D01*
X10306778Y-12681713D01*
X10297255Y-12672190D01*
X10287731Y-12653142D01*
X10278207Y-12615047D01*
X10278207Y-12567428D01*
X10287731Y-12529332D01*
X10297255Y-12510285D01*
X10306778Y-12500761D01*
X10325826Y-12491237D01*
X10468683Y-12510285D02*
X10478207Y-12500761D01*
X10497255Y-12491237D01*
X10544874Y-12491237D01*
X10563921Y-12500761D01*
X10573445Y-12510285D01*
X10582969Y-12529332D01*
X10582969Y-12548380D01*
X10573445Y-12576951D01*
X10459159Y-12691237D01*
X10582969Y-12691237D01*
X10678207Y-12691237D02*
X10716302Y-12691237D01*
X10735350Y-12681713D01*
X10744874Y-12672190D01*
X10763921Y-12643618D01*
X10773445Y-12605523D01*
X10773445Y-12529332D01*
X10763921Y-12510285D01*
X10754398Y-12500761D01*
X10735350Y-12491237D01*
X10697255Y-12491237D01*
X10678207Y-12500761D01*
X10668683Y-12510285D01*
X10659159Y-12529332D01*
X10659159Y-12576951D01*
X10668683Y-12595999D01*
X10678207Y-12605523D01*
X10697255Y-12615047D01*
X10735350Y-12615047D01*
X10754398Y-12605523D01*
X10763921Y-12595999D01*
X10773445Y-12576951D01*
X10954398Y-12491237D02*
X10859159Y-12491237D01*
X10849636Y-12586475D01*
X10859159Y-12576951D01*
X10878207Y-12567428D01*
X10925826Y-12567428D01*
X10944874Y-12576951D01*
X10954398Y-12586475D01*
X10963921Y-12605523D01*
X10963921Y-12653142D01*
X10954398Y-12672190D01*
X10944874Y-12681713D01*
X10925826Y-12691237D01*
X10878207Y-12691237D01*
X10859159Y-12681713D01*
X10849636Y-12672190D01*
X11040112Y-12491237D02*
X11040112Y-12529332D01*
X11116302Y-12491237D02*
X11116302Y-12529332D01*
X11411540Y-12767428D02*
X11402016Y-12757904D01*
X11382969Y-12729332D01*
X11373445Y-12710285D01*
X11363921Y-12681713D01*
X11354397Y-12634094D01*
X11354397Y-12595999D01*
X11363921Y-12548380D01*
X11373445Y-12519809D01*
X11382969Y-12500761D01*
X11402016Y-12472190D01*
X11411540Y-12462666D01*
X11497255Y-12691237D02*
X11535350Y-12691237D01*
X11554397Y-12681713D01*
X11563921Y-12672190D01*
X11582969Y-12643618D01*
X11592493Y-12605523D01*
X11592493Y-12529332D01*
X11582969Y-12510285D01*
X11573445Y-12500761D01*
X11554397Y-12491237D01*
X11516302Y-12491237D01*
X11497255Y-12500761D01*
X11487731Y-12510285D01*
X11478207Y-12529332D01*
X11478207Y-12576951D01*
X11487731Y-12595999D01*
X11497255Y-12605523D01*
X11516302Y-12615047D01*
X11554397Y-12615047D01*
X11573445Y-12605523D01*
X11582969Y-12595999D01*
X11592493Y-12576951D01*
X11830588Y-12691237D02*
X11830588Y-12491237D01*
X11916302Y-12691237D02*
X11916302Y-12586475D01*
X11906778Y-12567428D01*
X11887731Y-12557904D01*
X11859159Y-12557904D01*
X11840112Y-12567428D01*
X11830588Y-12576951D01*
X12040112Y-12691237D02*
X12021064Y-12681713D01*
X12011540Y-12672190D01*
X12002016Y-12653142D01*
X12002016Y-12595999D01*
X12011540Y-12576951D01*
X12021064Y-12567428D01*
X12040112Y-12557904D01*
X12068683Y-12557904D01*
X12087731Y-12567428D01*
X12097255Y-12576951D01*
X12106778Y-12595999D01*
X12106778Y-12653142D01*
X12097255Y-12672190D01*
X12087731Y-12681713D01*
X12068683Y-12691237D01*
X12040112Y-12691237D01*
X12221064Y-12691237D02*
X12202016Y-12681713D01*
X12192493Y-12662666D01*
X12192493Y-12491237D01*
X12373445Y-12681713D02*
X12354397Y-12691237D01*
X12316302Y-12691237D01*
X12297255Y-12681713D01*
X12287731Y-12662666D01*
X12287731Y-12586475D01*
X12297255Y-12567428D01*
X12316302Y-12557904D01*
X12354397Y-12557904D01*
X12373445Y-12567428D01*
X12382969Y-12586475D01*
X12382969Y-12605523D01*
X12287731Y-12624571D01*
X12459159Y-12681713D02*
X12478207Y-12691237D01*
X12516302Y-12691237D01*
X12535350Y-12681713D01*
X12544874Y-12662666D01*
X12544874Y-12653142D01*
X12535350Y-12634094D01*
X12516302Y-12624571D01*
X12487731Y-12624571D01*
X12468683Y-12615047D01*
X12459159Y-12595999D01*
X12459159Y-12586475D01*
X12468683Y-12567428D01*
X12487731Y-12557904D01*
X12516302Y-12557904D01*
X12535350Y-12567428D01*
X12611540Y-12767428D02*
X12621064Y-12757904D01*
X12640112Y-12729332D01*
X12649635Y-12710285D01*
X12659159Y-12681713D01*
X12668683Y-12634094D01*
X12668683Y-12595999D01*
X12659159Y-12548380D01*
X12649635Y-12519809D01*
X12640112Y-12500761D01*
X12621064Y-12472190D01*
X12611540Y-12462666D01*
D14*
X7799636Y-12824761D02*
X7799636Y-12904761D01*
X7759636Y-12864761D02*
X7839636Y-12864761D01*
D11*
X8135350Y-12755237D02*
X8154397Y-12755237D01*
X8173445Y-12764761D01*
X8182969Y-12774285D01*
X8192493Y-12793332D01*
X8202016Y-12831428D01*
X8202016Y-12879047D01*
X8192493Y-12917142D01*
X8182969Y-12936190D01*
X8173445Y-12945713D01*
X8154397Y-12955237D01*
X8135350Y-12955237D01*
X8116302Y-12945713D01*
X8106778Y-12936190D01*
X8097255Y-12917142D01*
X8087731Y-12879047D01*
X8087731Y-12831428D01*
X8097255Y-12793332D01*
X8106778Y-12774285D01*
X8116302Y-12764761D01*
X8135350Y-12755237D01*
X8287731Y-12936190D02*
X8297255Y-12945713D01*
X8287731Y-12955237D01*
X8278207Y-12945713D01*
X8287731Y-12936190D01*
X8287731Y-12955237D01*
X8411540Y-12840951D02*
X8392493Y-12831428D01*
X8382969Y-12821904D01*
X8373445Y-12802856D01*
X8373445Y-12793332D01*
X8382969Y-12774285D01*
X8392493Y-12764761D01*
X8411540Y-12755237D01*
X8449636Y-12755237D01*
X8468683Y-12764761D01*
X8478207Y-12774285D01*
X8487731Y-12793332D01*
X8487731Y-12802856D01*
X8478207Y-12821904D01*
X8468683Y-12831428D01*
X8449636Y-12840951D01*
X8411540Y-12840951D01*
X8392493Y-12850475D01*
X8382969Y-12859999D01*
X8373445Y-12879047D01*
X8373445Y-12917142D01*
X8382969Y-12936190D01*
X8392493Y-12945713D01*
X8411540Y-12955237D01*
X8449636Y-12955237D01*
X8468683Y-12945713D01*
X8478207Y-12936190D01*
X8487731Y-12917142D01*
X8487731Y-12879047D01*
X8478207Y-12859999D01*
X8468683Y-12850475D01*
X8449636Y-12840951D01*
X8611540Y-12755237D02*
X8630588Y-12755237D01*
X8649636Y-12764761D01*
X8659159Y-12774285D01*
X8668683Y-12793332D01*
X8678207Y-12831428D01*
X8678207Y-12879047D01*
X8668683Y-12917142D01*
X8659159Y-12936190D01*
X8649636Y-12945713D01*
X8630588Y-12955237D01*
X8611540Y-12955237D01*
X8592493Y-12945713D01*
X8582969Y-12936190D01*
X8573445Y-12917142D01*
X8563921Y-12879047D01*
X8563921Y-12831428D01*
X8573445Y-12793332D01*
X8582969Y-12774285D01*
X8592493Y-12764761D01*
X8611540Y-12755237D01*
X8802017Y-12755237D02*
X8821064Y-12755237D01*
X8840112Y-12764761D01*
X8849636Y-12774285D01*
X8859159Y-12793332D01*
X8868683Y-12831428D01*
X8868683Y-12879047D01*
X8859159Y-12917142D01*
X8849636Y-12936190D01*
X8840112Y-12945713D01*
X8821064Y-12955237D01*
X8802017Y-12955237D01*
X8782969Y-12945713D01*
X8773445Y-12936190D01*
X8763921Y-12917142D01*
X8754398Y-12879047D01*
X8754398Y-12831428D01*
X8763921Y-12793332D01*
X8773445Y-12774285D01*
X8782969Y-12764761D01*
X8802017Y-12755237D01*
X8954398Y-12955237D02*
X8954398Y-12821904D01*
X8954398Y-12840951D02*
X8963921Y-12831428D01*
X8982969Y-12821904D01*
X9011540Y-12821904D01*
X9030588Y-12831428D01*
X9040112Y-12850475D01*
X9040112Y-12955237D01*
X9040112Y-12850475D02*
X9049636Y-12831428D01*
X9068683Y-12821904D01*
X9097255Y-12821904D01*
X9116302Y-12831428D01*
X9125826Y-12850475D01*
X9125826Y-12955237D01*
X9221064Y-12955237D02*
X9221064Y-12821904D01*
X9221064Y-12840951D02*
X9230588Y-12831428D01*
X9249636Y-12821904D01*
X9278207Y-12821904D01*
X9297255Y-12831428D01*
X9306778Y-12850475D01*
X9306778Y-12955237D01*
X9306778Y-12850475D02*
X9316302Y-12831428D01*
X9335350Y-12821904D01*
X9363921Y-12821904D01*
X9382969Y-12831428D01*
X9392493Y-12850475D01*
X9392493Y-12955237D01*
X9782969Y-12745713D02*
X9611540Y-13002856D01*
X10040112Y-12755237D02*
X10059159Y-12755237D01*
X10078207Y-12764761D01*
X10087731Y-12774285D01*
X10097255Y-12793332D01*
X10106778Y-12831428D01*
X10106778Y-12879047D01*
X10097255Y-12917142D01*
X10087731Y-12936190D01*
X10078207Y-12945713D01*
X10059159Y-12955237D01*
X10040112Y-12955237D01*
X10021064Y-12945713D01*
X10011540Y-12936190D01*
X10002017Y-12917142D01*
X9992493Y-12879047D01*
X9992493Y-12831428D01*
X10002017Y-12793332D01*
X10011540Y-12774285D01*
X10021064Y-12764761D01*
X10040112Y-12755237D01*
X10192493Y-12936190D02*
X10202017Y-12945713D01*
X10192493Y-12955237D01*
X10182969Y-12945713D01*
X10192493Y-12936190D01*
X10192493Y-12955237D01*
X10325826Y-12755237D02*
X10344874Y-12755237D01*
X10363921Y-12764761D01*
X10373445Y-12774285D01*
X10382969Y-12793332D01*
X10392493Y-12831428D01*
X10392493Y-12879047D01*
X10382969Y-12917142D01*
X10373445Y-12936190D01*
X10363921Y-12945713D01*
X10344874Y-12955237D01*
X10325826Y-12955237D01*
X10306778Y-12945713D01*
X10297255Y-12936190D01*
X10287731Y-12917142D01*
X10278207Y-12879047D01*
X10278207Y-12831428D01*
X10287731Y-12793332D01*
X10297255Y-12774285D01*
X10306778Y-12764761D01*
X10325826Y-12755237D01*
X10459159Y-12755237D02*
X10582969Y-12755237D01*
X10516302Y-12831428D01*
X10544874Y-12831428D01*
X10563921Y-12840951D01*
X10573445Y-12850475D01*
X10582969Y-12869523D01*
X10582969Y-12917142D01*
X10573445Y-12936190D01*
X10563921Y-12945713D01*
X10544874Y-12955237D01*
X10487731Y-12955237D01*
X10468683Y-12945713D01*
X10459159Y-12936190D01*
X10773445Y-12955237D02*
X10659159Y-12955237D01*
X10716302Y-12955237D02*
X10716302Y-12755237D01*
X10697255Y-12783809D01*
X10678207Y-12802856D01*
X10659159Y-12812380D01*
X10954398Y-12755237D02*
X10859159Y-12755237D01*
X10849636Y-12850475D01*
X10859159Y-12840951D01*
X10878207Y-12831428D01*
X10925826Y-12831428D01*
X10944874Y-12840951D01*
X10954398Y-12850475D01*
X10963921Y-12869523D01*
X10963921Y-12917142D01*
X10954398Y-12936190D01*
X10944874Y-12945713D01*
X10925826Y-12955237D01*
X10878207Y-12955237D01*
X10859159Y-12945713D01*
X10849636Y-12936190D01*
X11040112Y-12755237D02*
X11040112Y-12793332D01*
X11116302Y-12755237D02*
X11116302Y-12793332D01*
X11411540Y-13031428D02*
X11402016Y-13021904D01*
X11382969Y-12993332D01*
X11373445Y-12974285D01*
X11363921Y-12945713D01*
X11354397Y-12898094D01*
X11354397Y-12859999D01*
X11363921Y-12812380D01*
X11373445Y-12783809D01*
X11382969Y-12764761D01*
X11402016Y-12736190D01*
X11411540Y-12726666D01*
X11582969Y-12755237D02*
X11487731Y-12755237D01*
X11478207Y-12850475D01*
X11487731Y-12840951D01*
X11506778Y-12831428D01*
X11554397Y-12831428D01*
X11573445Y-12840951D01*
X11582969Y-12850475D01*
X11592493Y-12869523D01*
X11592493Y-12917142D01*
X11582969Y-12936190D01*
X11573445Y-12945713D01*
X11554397Y-12955237D01*
X11506778Y-12955237D01*
X11487731Y-12945713D01*
X11478207Y-12936190D01*
X11659159Y-12755237D02*
X11792493Y-12755237D01*
X11706778Y-12955237D01*
X12021064Y-12955237D02*
X12021064Y-12755237D01*
X12106778Y-12955237D02*
X12106778Y-12850475D01*
X12097255Y-12831428D01*
X12078207Y-12821904D01*
X12049635Y-12821904D01*
X12030588Y-12831428D01*
X12021064Y-12840951D01*
X12230588Y-12955237D02*
X12211540Y-12945713D01*
X12202016Y-12936190D01*
X12192493Y-12917142D01*
X12192493Y-12859999D01*
X12202016Y-12840951D01*
X12211540Y-12831428D01*
X12230588Y-12821904D01*
X12259159Y-12821904D01*
X12278207Y-12831428D01*
X12287731Y-12840951D01*
X12297255Y-12859999D01*
X12297255Y-12917142D01*
X12287731Y-12936190D01*
X12278207Y-12945713D01*
X12259159Y-12955237D01*
X12230588Y-12955237D01*
X12411540Y-12955237D02*
X12392493Y-12945713D01*
X12382969Y-12926666D01*
X12382969Y-12755237D01*
X12563921Y-12945713D02*
X12544874Y-12955237D01*
X12506778Y-12955237D01*
X12487731Y-12945713D01*
X12478207Y-12926666D01*
X12478207Y-12850475D01*
X12487731Y-12831428D01*
X12506778Y-12821904D01*
X12544874Y-12821904D01*
X12563921Y-12831428D01*
X12573445Y-12850475D01*
X12573445Y-12869523D01*
X12478207Y-12888571D01*
X12649635Y-12945713D02*
X12668683Y-12955237D01*
X12706778Y-12955237D01*
X12725826Y-12945713D01*
X12735350Y-12926666D01*
X12735350Y-12917142D01*
X12725826Y-12898094D01*
X12706778Y-12888571D01*
X12678207Y-12888571D01*
X12659159Y-12879047D01*
X12649635Y-12859999D01*
X12649635Y-12850475D01*
X12659159Y-12831428D01*
X12678207Y-12821904D01*
X12706778Y-12821904D01*
X12725826Y-12831428D01*
X12802016Y-13031428D02*
X12811540Y-13021904D01*
X12830588Y-12993332D01*
X12840112Y-12974285D01*
X12849635Y-12945713D01*
X12859159Y-12898094D01*
X12859159Y-12859999D01*
X12849635Y-12812380D01*
X12840112Y-12783809D01*
X12830588Y-12764761D01*
X12811540Y-12736190D01*
X12802016Y-12726666D01*
D15*
X7826456Y-13160581D02*
X7826456Y-13096941D01*
X7762815Y-13096941D01*
X7762815Y-13160581D01*
X7826456Y-13160581D01*
D11*
X8135350Y-13019237D02*
X8154397Y-13019237D01*
X8173445Y-13028761D01*
X8182969Y-13038285D01*
X8192493Y-13057332D01*
X8202016Y-13095428D01*
X8202016Y-13143047D01*
X8192493Y-13181142D01*
X8182969Y-13200190D01*
X8173445Y-13209713D01*
X8154397Y-13219237D01*
X8135350Y-13219237D01*
X8116302Y-13209713D01*
X8106778Y-13200190D01*
X8097255Y-13181142D01*
X8087731Y-13143047D01*
X8087731Y-13095428D01*
X8097255Y-13057332D01*
X8106778Y-13038285D01*
X8116302Y-13028761D01*
X8135350Y-13019237D01*
X8287731Y-13200190D02*
X8297255Y-13209713D01*
X8287731Y-13219237D01*
X8278207Y-13209713D01*
X8287731Y-13200190D01*
X8287731Y-13219237D01*
X8392493Y-13219237D02*
X8430588Y-13219237D01*
X8449636Y-13209713D01*
X8459159Y-13200190D01*
X8478207Y-13171618D01*
X8487731Y-13133523D01*
X8487731Y-13057332D01*
X8478207Y-13038285D01*
X8468683Y-13028761D01*
X8449636Y-13019237D01*
X8411540Y-13019237D01*
X8392493Y-13028761D01*
X8382969Y-13038285D01*
X8373445Y-13057332D01*
X8373445Y-13104951D01*
X8382969Y-13123999D01*
X8392493Y-13133523D01*
X8411540Y-13143047D01*
X8449636Y-13143047D01*
X8468683Y-13133523D01*
X8478207Y-13123999D01*
X8487731Y-13104951D01*
X8611540Y-13019237D02*
X8630588Y-13019237D01*
X8649636Y-13028761D01*
X8659159Y-13038285D01*
X8668683Y-13057332D01*
X8678207Y-13095428D01*
X8678207Y-13143047D01*
X8668683Y-13181142D01*
X8659159Y-13200190D01*
X8649636Y-13209713D01*
X8630588Y-13219237D01*
X8611540Y-13219237D01*
X8592493Y-13209713D01*
X8582969Y-13200190D01*
X8573445Y-13181142D01*
X8563921Y-13143047D01*
X8563921Y-13095428D01*
X8573445Y-13057332D01*
X8582969Y-13038285D01*
X8592493Y-13028761D01*
X8611540Y-13019237D01*
X8802017Y-13019237D02*
X8821064Y-13019237D01*
X8840112Y-13028761D01*
X8849636Y-13038285D01*
X8859159Y-13057332D01*
X8868683Y-13095428D01*
X8868683Y-13143047D01*
X8859159Y-13181142D01*
X8849636Y-13200190D01*
X8840112Y-13209713D01*
X8821064Y-13219237D01*
X8802017Y-13219237D01*
X8782969Y-13209713D01*
X8773445Y-13200190D01*
X8763921Y-13181142D01*
X8754398Y-13143047D01*
X8754398Y-13095428D01*
X8763921Y-13057332D01*
X8773445Y-13038285D01*
X8782969Y-13028761D01*
X8802017Y-13019237D01*
X8954398Y-13219237D02*
X8954398Y-13085904D01*
X8954398Y-13104951D02*
X8963921Y-13095428D01*
X8982969Y-13085904D01*
X9011540Y-13085904D01*
X9030588Y-13095428D01*
X9040112Y-13114475D01*
X9040112Y-13219237D01*
X9040112Y-13114475D02*
X9049636Y-13095428D01*
X9068683Y-13085904D01*
X9097255Y-13085904D01*
X9116302Y-13095428D01*
X9125826Y-13114475D01*
X9125826Y-13219237D01*
X9221064Y-13219237D02*
X9221064Y-13085904D01*
X9221064Y-13104951D02*
X9230588Y-13095428D01*
X9249636Y-13085904D01*
X9278207Y-13085904D01*
X9297255Y-13095428D01*
X9306778Y-13114475D01*
X9306778Y-13219237D01*
X9306778Y-13114475D02*
X9316302Y-13095428D01*
X9335350Y-13085904D01*
X9363921Y-13085904D01*
X9382969Y-13095428D01*
X9392493Y-13114475D01*
X9392493Y-13219237D01*
X9782969Y-13009713D02*
X9611540Y-13266856D01*
X10040112Y-13019237D02*
X10059159Y-13019237D01*
X10078207Y-13028761D01*
X10087731Y-13038285D01*
X10097255Y-13057332D01*
X10106778Y-13095428D01*
X10106778Y-13143047D01*
X10097255Y-13181142D01*
X10087731Y-13200190D01*
X10078207Y-13209713D01*
X10059159Y-13219237D01*
X10040112Y-13219237D01*
X10021064Y-13209713D01*
X10011540Y-13200190D01*
X10002017Y-13181142D01*
X9992493Y-13143047D01*
X9992493Y-13095428D01*
X10002017Y-13057332D01*
X10011540Y-13038285D01*
X10021064Y-13028761D01*
X10040112Y-13019237D01*
X10192493Y-13200190D02*
X10202017Y-13209713D01*
X10192493Y-13219237D01*
X10182969Y-13209713D01*
X10192493Y-13200190D01*
X10192493Y-13219237D01*
X10325826Y-13019237D02*
X10344874Y-13019237D01*
X10363921Y-13028761D01*
X10373445Y-13038285D01*
X10382969Y-13057332D01*
X10392493Y-13095428D01*
X10392493Y-13143047D01*
X10382969Y-13181142D01*
X10373445Y-13200190D01*
X10363921Y-13209713D01*
X10344874Y-13219237D01*
X10325826Y-13219237D01*
X10306778Y-13209713D01*
X10297255Y-13200190D01*
X10287731Y-13181142D01*
X10278207Y-13143047D01*
X10278207Y-13095428D01*
X10287731Y-13057332D01*
X10297255Y-13038285D01*
X10306778Y-13028761D01*
X10325826Y-13019237D01*
X10459159Y-13019237D02*
X10582969Y-13019237D01*
X10516302Y-13095428D01*
X10544874Y-13095428D01*
X10563921Y-13104951D01*
X10573445Y-13114475D01*
X10582969Y-13133523D01*
X10582969Y-13181142D01*
X10573445Y-13200190D01*
X10563921Y-13209713D01*
X10544874Y-13219237D01*
X10487731Y-13219237D01*
X10468683Y-13209713D01*
X10459159Y-13200190D01*
X10763921Y-13019237D02*
X10668683Y-13019237D01*
X10659159Y-13114475D01*
X10668683Y-13104951D01*
X10687731Y-13095428D01*
X10735350Y-13095428D01*
X10754398Y-13104951D01*
X10763921Y-13114475D01*
X10773445Y-13133523D01*
X10773445Y-13181142D01*
X10763921Y-13200190D01*
X10754398Y-13209713D01*
X10735350Y-13219237D01*
X10687731Y-13219237D01*
X10668683Y-13209713D01*
X10659159Y-13200190D01*
X10944874Y-13085904D02*
X10944874Y-13219237D01*
X10897255Y-13009713D02*
X10849636Y-13152571D01*
X10973445Y-13152571D01*
X11040112Y-13019237D02*
X11040112Y-13057332D01*
X11116302Y-13019237D02*
X11116302Y-13057332D01*
X11411540Y-13295428D02*
X11402016Y-13285904D01*
X11382969Y-13257332D01*
X11373445Y-13238285D01*
X11363921Y-13209713D01*
X11354397Y-13162094D01*
X11354397Y-13123999D01*
X11363921Y-13076380D01*
X11373445Y-13047809D01*
X11382969Y-13028761D01*
X11402016Y-13000190D01*
X11411540Y-12990666D01*
X11516302Y-13104951D02*
X11497255Y-13095428D01*
X11487731Y-13085904D01*
X11478207Y-13066856D01*
X11478207Y-13057332D01*
X11487731Y-13038285D01*
X11497255Y-13028761D01*
X11516302Y-13019237D01*
X11554397Y-13019237D01*
X11573445Y-13028761D01*
X11582969Y-13038285D01*
X11592493Y-13057332D01*
X11592493Y-13066856D01*
X11582969Y-13085904D01*
X11573445Y-13095428D01*
X11554397Y-13104951D01*
X11516302Y-13104951D01*
X11497255Y-13114475D01*
X11487731Y-13123999D01*
X11478207Y-13143047D01*
X11478207Y-13181142D01*
X11487731Y-13200190D01*
X11497255Y-13209713D01*
X11516302Y-13219237D01*
X11554397Y-13219237D01*
X11573445Y-13209713D01*
X11582969Y-13200190D01*
X11592493Y-13181142D01*
X11592493Y-13143047D01*
X11582969Y-13123999D01*
X11573445Y-13114475D01*
X11554397Y-13104951D01*
X11830588Y-13219237D02*
X11830588Y-13019237D01*
X11916302Y-13219237D02*
X11916302Y-13114475D01*
X11906778Y-13095428D01*
X11887731Y-13085904D01*
X11859159Y-13085904D01*
X11840112Y-13095428D01*
X11830588Y-13104951D01*
X12040112Y-13219237D02*
X12021064Y-13209713D01*
X12011540Y-13200190D01*
X12002016Y-13181142D01*
X12002016Y-13123999D01*
X12011540Y-13104951D01*
X12021064Y-13095428D01*
X12040112Y-13085904D01*
X12068683Y-13085904D01*
X12087731Y-13095428D01*
X12097255Y-13104951D01*
X12106778Y-13123999D01*
X12106778Y-13181142D01*
X12097255Y-13200190D01*
X12087731Y-13209713D01*
X12068683Y-13219237D01*
X12040112Y-13219237D01*
X12221064Y-13219237D02*
X12202016Y-13209713D01*
X12192493Y-13190666D01*
X12192493Y-13019237D01*
X12373445Y-13209713D02*
X12354397Y-13219237D01*
X12316302Y-13219237D01*
X12297255Y-13209713D01*
X12287731Y-13190666D01*
X12287731Y-13114475D01*
X12297255Y-13095428D01*
X12316302Y-13085904D01*
X12354397Y-13085904D01*
X12373445Y-13095428D01*
X12382969Y-13114475D01*
X12382969Y-13133523D01*
X12287731Y-13152571D01*
X12459159Y-13209713D02*
X12478207Y-13219237D01*
X12516302Y-13219237D01*
X12535350Y-13209713D01*
X12544874Y-13190666D01*
X12544874Y-13181142D01*
X12535350Y-13162094D01*
X12516302Y-13152571D01*
X12487731Y-13152571D01*
X12468683Y-13143047D01*
X12459159Y-13123999D01*
X12459159Y-13114475D01*
X12468683Y-13095428D01*
X12487731Y-13085904D01*
X12516302Y-13085904D01*
X12535350Y-13095428D01*
X12611540Y-13295428D02*
X12621064Y-13285904D01*
X12640112Y-13257332D01*
X12649635Y-13238285D01*
X12659159Y-13209713D01*
X12668683Y-13162094D01*
X12668683Y-13123999D01*
X12659159Y-13076380D01*
X12649635Y-13047809D01*
X12640112Y-13028761D01*
X12621064Y-13000190D01*
X12611540Y-12990666D01*
D16*
X7793636Y-13438761D02*
X7839636Y-13392761D01*
X7793636Y-13346761D01*
X7747636Y-13392761D01*
X7793636Y-13438761D01*
D11*
X8135350Y-13283237D02*
X8154397Y-13283237D01*
X8173445Y-13292761D01*
X8182969Y-13302285D01*
X8192493Y-13321332D01*
X8202016Y-13359428D01*
X8202016Y-13407047D01*
X8192493Y-13445142D01*
X8182969Y-13464190D01*
X8173445Y-13473713D01*
X8154397Y-13483237D01*
X8135350Y-13483237D01*
X8116302Y-13473713D01*
X8106778Y-13464190D01*
X8097255Y-13445142D01*
X8087731Y-13407047D01*
X8087731Y-13359428D01*
X8097255Y-13321332D01*
X8106778Y-13302285D01*
X8116302Y-13292761D01*
X8135350Y-13283237D01*
X8287731Y-13464190D02*
X8297255Y-13473713D01*
X8287731Y-13483237D01*
X8278207Y-13473713D01*
X8287731Y-13464190D01*
X8287731Y-13483237D01*
X8392493Y-13483237D02*
X8430588Y-13483237D01*
X8449636Y-13473713D01*
X8459159Y-13464190D01*
X8478207Y-13435618D01*
X8487731Y-13397523D01*
X8487731Y-13321332D01*
X8478207Y-13302285D01*
X8468683Y-13292761D01*
X8449636Y-13283237D01*
X8411540Y-13283237D01*
X8392493Y-13292761D01*
X8382969Y-13302285D01*
X8373445Y-13321332D01*
X8373445Y-13368951D01*
X8382969Y-13387999D01*
X8392493Y-13397523D01*
X8411540Y-13407047D01*
X8449636Y-13407047D01*
X8468683Y-13397523D01*
X8478207Y-13387999D01*
X8487731Y-13368951D01*
X8563921Y-13302285D02*
X8573445Y-13292761D01*
X8592493Y-13283237D01*
X8640112Y-13283237D01*
X8659159Y-13292761D01*
X8668683Y-13302285D01*
X8678207Y-13321332D01*
X8678207Y-13340380D01*
X8668683Y-13368951D01*
X8554398Y-13483237D01*
X8678207Y-13483237D01*
X8802017Y-13283237D02*
X8821064Y-13283237D01*
X8840112Y-13292761D01*
X8849636Y-13302285D01*
X8859159Y-13321332D01*
X8868683Y-13359428D01*
X8868683Y-13407047D01*
X8859159Y-13445142D01*
X8849636Y-13464190D01*
X8840112Y-13473713D01*
X8821064Y-13483237D01*
X8802017Y-13483237D01*
X8782969Y-13473713D01*
X8773445Y-13464190D01*
X8763921Y-13445142D01*
X8754398Y-13407047D01*
X8754398Y-13359428D01*
X8763921Y-13321332D01*
X8773445Y-13302285D01*
X8782969Y-13292761D01*
X8802017Y-13283237D01*
X8954398Y-13483237D02*
X8954398Y-13349904D01*
X8954398Y-13368951D02*
X8963921Y-13359428D01*
X8982969Y-13349904D01*
X9011540Y-13349904D01*
X9030588Y-13359428D01*
X9040112Y-13378475D01*
X9040112Y-13483237D01*
X9040112Y-13378475D02*
X9049636Y-13359428D01*
X9068683Y-13349904D01*
X9097255Y-13349904D01*
X9116302Y-13359428D01*
X9125826Y-13378475D01*
X9125826Y-13483237D01*
X9221064Y-13483237D02*
X9221064Y-13349904D01*
X9221064Y-13368951D02*
X9230588Y-13359428D01*
X9249636Y-13349904D01*
X9278207Y-13349904D01*
X9297255Y-13359428D01*
X9306778Y-13378475D01*
X9306778Y-13483237D01*
X9306778Y-13378475D02*
X9316302Y-13359428D01*
X9335350Y-13349904D01*
X9363921Y-13349904D01*
X9382969Y-13359428D01*
X9392493Y-13378475D01*
X9392493Y-13483237D01*
X9782969Y-13273713D02*
X9611540Y-13530856D01*
X10040112Y-13283237D02*
X10059159Y-13283237D01*
X10078207Y-13292761D01*
X10087731Y-13302285D01*
X10097255Y-13321332D01*
X10106778Y-13359428D01*
X10106778Y-13407047D01*
X10097255Y-13445142D01*
X10087731Y-13464190D01*
X10078207Y-13473713D01*
X10059159Y-13483237D01*
X10040112Y-13483237D01*
X10021064Y-13473713D01*
X10011540Y-13464190D01*
X10002017Y-13445142D01*
X9992493Y-13407047D01*
X9992493Y-13359428D01*
X10002017Y-13321332D01*
X10011540Y-13302285D01*
X10021064Y-13292761D01*
X10040112Y-13283237D01*
X10192493Y-13464190D02*
X10202017Y-13473713D01*
X10192493Y-13483237D01*
X10182969Y-13473713D01*
X10192493Y-13464190D01*
X10192493Y-13483237D01*
X10325826Y-13283237D02*
X10344874Y-13283237D01*
X10363921Y-13292761D01*
X10373445Y-13302285D01*
X10382969Y-13321332D01*
X10392493Y-13359428D01*
X10392493Y-13407047D01*
X10382969Y-13445142D01*
X10373445Y-13464190D01*
X10363921Y-13473713D01*
X10344874Y-13483237D01*
X10325826Y-13483237D01*
X10306778Y-13473713D01*
X10297255Y-13464190D01*
X10287731Y-13445142D01*
X10278207Y-13407047D01*
X10278207Y-13359428D01*
X10287731Y-13321332D01*
X10297255Y-13302285D01*
X10306778Y-13292761D01*
X10325826Y-13283237D01*
X10459159Y-13283237D02*
X10582969Y-13283237D01*
X10516302Y-13359428D01*
X10544874Y-13359428D01*
X10563921Y-13368951D01*
X10573445Y-13378475D01*
X10582969Y-13397523D01*
X10582969Y-13445142D01*
X10573445Y-13464190D01*
X10563921Y-13473713D01*
X10544874Y-13483237D01*
X10487731Y-13483237D01*
X10468683Y-13473713D01*
X10459159Y-13464190D01*
X10754398Y-13283237D02*
X10716302Y-13283237D01*
X10697255Y-13292761D01*
X10687731Y-13302285D01*
X10668683Y-13330856D01*
X10659159Y-13368951D01*
X10659159Y-13445142D01*
X10668683Y-13464190D01*
X10678207Y-13473713D01*
X10697255Y-13483237D01*
X10735350Y-13483237D01*
X10754398Y-13473713D01*
X10763921Y-13464190D01*
X10773445Y-13445142D01*
X10773445Y-13397523D01*
X10763921Y-13378475D01*
X10754398Y-13368951D01*
X10735350Y-13359428D01*
X10697255Y-13359428D01*
X10678207Y-13368951D01*
X10668683Y-13378475D01*
X10659159Y-13397523D01*
X10849636Y-13302285D02*
X10859159Y-13292761D01*
X10878207Y-13283237D01*
X10925826Y-13283237D01*
X10944874Y-13292761D01*
X10954398Y-13302285D01*
X10963921Y-13321332D01*
X10963921Y-13340380D01*
X10954398Y-13368951D01*
X10840112Y-13483237D01*
X10963921Y-13483237D01*
X11040112Y-13283237D02*
X11040112Y-13321332D01*
X11116302Y-13283237D02*
X11116302Y-13321332D01*
X11411540Y-13559428D02*
X11402016Y-13549904D01*
X11382969Y-13521332D01*
X11373445Y-13502285D01*
X11363921Y-13473713D01*
X11354397Y-13426094D01*
X11354397Y-13387999D01*
X11363921Y-13340380D01*
X11373445Y-13311809D01*
X11382969Y-13292761D01*
X11402016Y-13264190D01*
X11411540Y-13254666D01*
X11516302Y-13368951D02*
X11497255Y-13359428D01*
X11487731Y-13349904D01*
X11478207Y-13330856D01*
X11478207Y-13321332D01*
X11487731Y-13302285D01*
X11497255Y-13292761D01*
X11516302Y-13283237D01*
X11554397Y-13283237D01*
X11573445Y-13292761D01*
X11582969Y-13302285D01*
X11592493Y-13321332D01*
X11592493Y-13330856D01*
X11582969Y-13349904D01*
X11573445Y-13359428D01*
X11554397Y-13368951D01*
X11516302Y-13368951D01*
X11497255Y-13378475D01*
X11487731Y-13387999D01*
X11478207Y-13407047D01*
X11478207Y-13445142D01*
X11487731Y-13464190D01*
X11497255Y-13473713D01*
X11516302Y-13483237D01*
X11554397Y-13483237D01*
X11573445Y-13473713D01*
X11582969Y-13464190D01*
X11592493Y-13445142D01*
X11592493Y-13407047D01*
X11582969Y-13387999D01*
X11573445Y-13378475D01*
X11554397Y-13368951D01*
X11830588Y-13483237D02*
X11830588Y-13283237D01*
X11916302Y-13483237D02*
X11916302Y-13378475D01*
X11906778Y-13359428D01*
X11887731Y-13349904D01*
X11859159Y-13349904D01*
X11840112Y-13359428D01*
X11830588Y-13368951D01*
X12040112Y-13483237D02*
X12021064Y-13473713D01*
X12011540Y-13464190D01*
X12002016Y-13445142D01*
X12002016Y-13387999D01*
X12011540Y-13368951D01*
X12021064Y-13359428D01*
X12040112Y-13349904D01*
X12068683Y-13349904D01*
X12087731Y-13359428D01*
X12097255Y-13368951D01*
X12106778Y-13387999D01*
X12106778Y-13445142D01*
X12097255Y-13464190D01*
X12087731Y-13473713D01*
X12068683Y-13483237D01*
X12040112Y-13483237D01*
X12221064Y-13483237D02*
X12202016Y-13473713D01*
X12192493Y-13454666D01*
X12192493Y-13283237D01*
X12373445Y-13473713D02*
X12354397Y-13483237D01*
X12316302Y-13483237D01*
X12297255Y-13473713D01*
X12287731Y-13454666D01*
X12287731Y-13378475D01*
X12297255Y-13359428D01*
X12316302Y-13349904D01*
X12354397Y-13349904D01*
X12373445Y-13359428D01*
X12382969Y-13378475D01*
X12382969Y-13397523D01*
X12287731Y-13416571D01*
X12459159Y-13473713D02*
X12478207Y-13483237D01*
X12516302Y-13483237D01*
X12535350Y-13473713D01*
X12544874Y-13454666D01*
X12544874Y-13445142D01*
X12535350Y-13426094D01*
X12516302Y-13416571D01*
X12487731Y-13416571D01*
X12468683Y-13407047D01*
X12459159Y-13387999D01*
X12459159Y-13378475D01*
X12468683Y-13359428D01*
X12487731Y-13349904D01*
X12516302Y-13349904D01*
X12535350Y-13359428D01*
X12611540Y-13559428D02*
X12621064Y-13549904D01*
X12640112Y-13521332D01*
X12649635Y-13502285D01*
X12659159Y-13473713D01*
X12668683Y-13426094D01*
X12668683Y-13387999D01*
X12659159Y-13340380D01*
X12649635Y-13311809D01*
X12640112Y-13292761D01*
X12621064Y-13264190D01*
X12611540Y-13254666D01*
D17*
X7744636Y-13609261D02*
X7839636Y-13704261D01*
X7839636Y-13609261D02*
X7744636Y-13704261D01*
X7839636Y-13656761D02*
G75*
G03*
X7839636Y-13656761I-47500J0D01*
G01*
D11*
X8135350Y-13547237D02*
X8154397Y-13547237D01*
X8173445Y-13556761D01*
X8182969Y-13566285D01*
X8192493Y-13585332D01*
X8202016Y-13623428D01*
X8202016Y-13671047D01*
X8192493Y-13709142D01*
X8182969Y-13728190D01*
X8173445Y-13737713D01*
X8154397Y-13747237D01*
X8135350Y-13747237D01*
X8116302Y-13737713D01*
X8106778Y-13728190D01*
X8097255Y-13709142D01*
X8087731Y-13671047D01*
X8087731Y-13623428D01*
X8097255Y-13585332D01*
X8106778Y-13566285D01*
X8116302Y-13556761D01*
X8135350Y-13547237D01*
X8287731Y-13728190D02*
X8297255Y-13737713D01*
X8287731Y-13747237D01*
X8278207Y-13737713D01*
X8287731Y-13728190D01*
X8287731Y-13747237D01*
X8392493Y-13747237D02*
X8430588Y-13747237D01*
X8449636Y-13737713D01*
X8459159Y-13728190D01*
X8478207Y-13699618D01*
X8487731Y-13661523D01*
X8487731Y-13585332D01*
X8478207Y-13566285D01*
X8468683Y-13556761D01*
X8449636Y-13547237D01*
X8411540Y-13547237D01*
X8392493Y-13556761D01*
X8382969Y-13566285D01*
X8373445Y-13585332D01*
X8373445Y-13632951D01*
X8382969Y-13651999D01*
X8392493Y-13661523D01*
X8411540Y-13671047D01*
X8449636Y-13671047D01*
X8468683Y-13661523D01*
X8478207Y-13651999D01*
X8487731Y-13632951D01*
X8668683Y-13547237D02*
X8573445Y-13547237D01*
X8563921Y-13642475D01*
X8573445Y-13632951D01*
X8592493Y-13623428D01*
X8640112Y-13623428D01*
X8659159Y-13632951D01*
X8668683Y-13642475D01*
X8678207Y-13661523D01*
X8678207Y-13709142D01*
X8668683Y-13728190D01*
X8659159Y-13737713D01*
X8640112Y-13747237D01*
X8592493Y-13747237D01*
X8573445Y-13737713D01*
X8563921Y-13728190D01*
X8802017Y-13547237D02*
X8821064Y-13547237D01*
X8840112Y-13556761D01*
X8849636Y-13566285D01*
X8859159Y-13585332D01*
X8868683Y-13623428D01*
X8868683Y-13671047D01*
X8859159Y-13709142D01*
X8849636Y-13728190D01*
X8840112Y-13737713D01*
X8821064Y-13747237D01*
X8802017Y-13747237D01*
X8782969Y-13737713D01*
X8773445Y-13728190D01*
X8763921Y-13709142D01*
X8754398Y-13671047D01*
X8754398Y-13623428D01*
X8763921Y-13585332D01*
X8773445Y-13566285D01*
X8782969Y-13556761D01*
X8802017Y-13547237D01*
X8954398Y-13747237D02*
X8954398Y-13613904D01*
X8954398Y-13632951D02*
X8963921Y-13623428D01*
X8982969Y-13613904D01*
X9011540Y-13613904D01*
X9030588Y-13623428D01*
X9040112Y-13642475D01*
X9040112Y-13747237D01*
X9040112Y-13642475D02*
X9049636Y-13623428D01*
X9068683Y-13613904D01*
X9097255Y-13613904D01*
X9116302Y-13623428D01*
X9125826Y-13642475D01*
X9125826Y-13747237D01*
X9221064Y-13747237D02*
X9221064Y-13613904D01*
X9221064Y-13632951D02*
X9230588Y-13623428D01*
X9249636Y-13613904D01*
X9278207Y-13613904D01*
X9297255Y-13623428D01*
X9306778Y-13642475D01*
X9306778Y-13747237D01*
X9306778Y-13642475D02*
X9316302Y-13623428D01*
X9335350Y-13613904D01*
X9363921Y-13613904D01*
X9382969Y-13623428D01*
X9392493Y-13642475D01*
X9392493Y-13747237D01*
X9782969Y-13537713D02*
X9611540Y-13794856D01*
X10040112Y-13547237D02*
X10059159Y-13547237D01*
X10078207Y-13556761D01*
X10087731Y-13566285D01*
X10097255Y-13585332D01*
X10106778Y-13623428D01*
X10106778Y-13671047D01*
X10097255Y-13709142D01*
X10087731Y-13728190D01*
X10078207Y-13737713D01*
X10059159Y-13747237D01*
X10040112Y-13747237D01*
X10021064Y-13737713D01*
X10011540Y-13728190D01*
X10002017Y-13709142D01*
X9992493Y-13671047D01*
X9992493Y-13623428D01*
X10002017Y-13585332D01*
X10011540Y-13566285D01*
X10021064Y-13556761D01*
X10040112Y-13547237D01*
X10192493Y-13728190D02*
X10202017Y-13737713D01*
X10192493Y-13747237D01*
X10182969Y-13737713D01*
X10192493Y-13728190D01*
X10192493Y-13747237D01*
X10325826Y-13547237D02*
X10344874Y-13547237D01*
X10363921Y-13556761D01*
X10373445Y-13566285D01*
X10382969Y-13585332D01*
X10392493Y-13623428D01*
X10392493Y-13671047D01*
X10382969Y-13709142D01*
X10373445Y-13728190D01*
X10363921Y-13737713D01*
X10344874Y-13747237D01*
X10325826Y-13747237D01*
X10306778Y-13737713D01*
X10297255Y-13728190D01*
X10287731Y-13709142D01*
X10278207Y-13671047D01*
X10278207Y-13623428D01*
X10287731Y-13585332D01*
X10297255Y-13566285D01*
X10306778Y-13556761D01*
X10325826Y-13547237D01*
X10459159Y-13547237D02*
X10582969Y-13547237D01*
X10516302Y-13623428D01*
X10544874Y-13623428D01*
X10563921Y-13632951D01*
X10573445Y-13642475D01*
X10582969Y-13661523D01*
X10582969Y-13709142D01*
X10573445Y-13728190D01*
X10563921Y-13737713D01*
X10544874Y-13747237D01*
X10487731Y-13747237D01*
X10468683Y-13737713D01*
X10459159Y-13728190D01*
X10649636Y-13547237D02*
X10782969Y-13547237D01*
X10697255Y-13747237D01*
X10944874Y-13613904D02*
X10944874Y-13747237D01*
X10897255Y-13537713D02*
X10849636Y-13680571D01*
X10973445Y-13680571D01*
X11040112Y-13547237D02*
X11040112Y-13585332D01*
X11116302Y-13547237D02*
X11116302Y-13585332D01*
X11411540Y-13823428D02*
X11402016Y-13813904D01*
X11382969Y-13785332D01*
X11373445Y-13766285D01*
X11363921Y-13737713D01*
X11354397Y-13690094D01*
X11354397Y-13651999D01*
X11363921Y-13604380D01*
X11373445Y-13575809D01*
X11382969Y-13556761D01*
X11402016Y-13528190D01*
X11411540Y-13518666D01*
X11573445Y-13613904D02*
X11573445Y-13747237D01*
X11525826Y-13537713D02*
X11478207Y-13680571D01*
X11602016Y-13680571D01*
X11830588Y-13747237D02*
X11830588Y-13547237D01*
X11916302Y-13747237D02*
X11916302Y-13642475D01*
X11906778Y-13623428D01*
X11887731Y-13613904D01*
X11859159Y-13613904D01*
X11840112Y-13623428D01*
X11830588Y-13632951D01*
X12040112Y-13747237D02*
X12021064Y-13737713D01*
X12011540Y-13728190D01*
X12002016Y-13709142D01*
X12002016Y-13651999D01*
X12011540Y-13632951D01*
X12021064Y-13623428D01*
X12040112Y-13613904D01*
X12068683Y-13613904D01*
X12087731Y-13623428D01*
X12097255Y-13632951D01*
X12106778Y-13651999D01*
X12106778Y-13709142D01*
X12097255Y-13728190D01*
X12087731Y-13737713D01*
X12068683Y-13747237D01*
X12040112Y-13747237D01*
X12221064Y-13747237D02*
X12202016Y-13737713D01*
X12192493Y-13718666D01*
X12192493Y-13547237D01*
X12373445Y-13737713D02*
X12354397Y-13747237D01*
X12316302Y-13747237D01*
X12297255Y-13737713D01*
X12287731Y-13718666D01*
X12287731Y-13642475D01*
X12297255Y-13623428D01*
X12316302Y-13613904D01*
X12354397Y-13613904D01*
X12373445Y-13623428D01*
X12382969Y-13642475D01*
X12382969Y-13661523D01*
X12287731Y-13680571D01*
X12459159Y-13737713D02*
X12478207Y-13747237D01*
X12516302Y-13747237D01*
X12535350Y-13737713D01*
X12544874Y-13718666D01*
X12544874Y-13709142D01*
X12535350Y-13690094D01*
X12516302Y-13680571D01*
X12487731Y-13680571D01*
X12468683Y-13671047D01*
X12459159Y-13651999D01*
X12459159Y-13642475D01*
X12468683Y-13623428D01*
X12487731Y-13613904D01*
X12516302Y-13613904D01*
X12535350Y-13623428D01*
X12611540Y-13823428D02*
X12621064Y-13813904D01*
X12640112Y-13785332D01*
X12649635Y-13766285D01*
X12659159Y-13737713D01*
X12668683Y-13690094D01*
X12668683Y-13651999D01*
X12659159Y-13604380D01*
X12649635Y-13575809D01*
X12640112Y-13556761D01*
X12621064Y-13528190D01*
X12611540Y-13518666D01*
D18*
X7739636Y-13870761D02*
X7839636Y-13970761D01*
X7839636Y-13870761D02*
X7739636Y-13970761D01*
X7789636Y-13870761D02*
X7789636Y-13970761D01*
X7739636Y-13920761D02*
X7839636Y-13920761D01*
D11*
X8202016Y-14011237D02*
X8087731Y-14011237D01*
X8144874Y-14011237D02*
X8144874Y-13811237D01*
X8125826Y-13839809D01*
X8106778Y-13858856D01*
X8087731Y-13868380D01*
X8287731Y-13992190D02*
X8297255Y-14001713D01*
X8287731Y-14011237D01*
X8278207Y-14001713D01*
X8287731Y-13992190D01*
X8287731Y-14011237D01*
X8421064Y-13811237D02*
X8440112Y-13811237D01*
X8459159Y-13820761D01*
X8468683Y-13830285D01*
X8478207Y-13849332D01*
X8487731Y-13887428D01*
X8487731Y-13935047D01*
X8478207Y-13973142D01*
X8468683Y-13992190D01*
X8459159Y-14001713D01*
X8440112Y-14011237D01*
X8421064Y-14011237D01*
X8402017Y-14001713D01*
X8392493Y-13992190D01*
X8382969Y-13973142D01*
X8373445Y-13935047D01*
X8373445Y-13887428D01*
X8382969Y-13849332D01*
X8392493Y-13830285D01*
X8402017Y-13820761D01*
X8421064Y-13811237D01*
X8611540Y-13811237D02*
X8630588Y-13811237D01*
X8649636Y-13820761D01*
X8659159Y-13830285D01*
X8668683Y-13849332D01*
X8678207Y-13887428D01*
X8678207Y-13935047D01*
X8668683Y-13973142D01*
X8659159Y-13992190D01*
X8649636Y-14001713D01*
X8630588Y-14011237D01*
X8611540Y-14011237D01*
X8592493Y-14001713D01*
X8582969Y-13992190D01*
X8573445Y-13973142D01*
X8563921Y-13935047D01*
X8563921Y-13887428D01*
X8573445Y-13849332D01*
X8582969Y-13830285D01*
X8592493Y-13820761D01*
X8611540Y-13811237D01*
X8802017Y-13811237D02*
X8821064Y-13811237D01*
X8840112Y-13820761D01*
X8849636Y-13830285D01*
X8859159Y-13849332D01*
X8868683Y-13887428D01*
X8868683Y-13935047D01*
X8859159Y-13973142D01*
X8849636Y-13992190D01*
X8840112Y-14001713D01*
X8821064Y-14011237D01*
X8802017Y-14011237D01*
X8782969Y-14001713D01*
X8773445Y-13992190D01*
X8763921Y-13973142D01*
X8754398Y-13935047D01*
X8754398Y-13887428D01*
X8763921Y-13849332D01*
X8773445Y-13830285D01*
X8782969Y-13820761D01*
X8802017Y-13811237D01*
X8954398Y-14011237D02*
X8954398Y-13877904D01*
X8954398Y-13896951D02*
X8963921Y-13887428D01*
X8982969Y-13877904D01*
X9011540Y-13877904D01*
X9030588Y-13887428D01*
X9040112Y-13906475D01*
X9040112Y-14011237D01*
X9040112Y-13906475D02*
X9049636Y-13887428D01*
X9068683Y-13877904D01*
X9097255Y-13877904D01*
X9116302Y-13887428D01*
X9125826Y-13906475D01*
X9125826Y-14011237D01*
X9221064Y-14011237D02*
X9221064Y-13877904D01*
X9221064Y-13896951D02*
X9230588Y-13887428D01*
X9249636Y-13877904D01*
X9278207Y-13877904D01*
X9297255Y-13887428D01*
X9306778Y-13906475D01*
X9306778Y-14011237D01*
X9306778Y-13906475D02*
X9316302Y-13887428D01*
X9335350Y-13877904D01*
X9363921Y-13877904D01*
X9382969Y-13887428D01*
X9392493Y-13906475D01*
X9392493Y-14011237D01*
X9782969Y-13801713D02*
X9611540Y-14058856D01*
X10040112Y-13811237D02*
X10059159Y-13811237D01*
X10078207Y-13820761D01*
X10087731Y-13830285D01*
X10097255Y-13849332D01*
X10106778Y-13887428D01*
X10106778Y-13935047D01*
X10097255Y-13973142D01*
X10087731Y-13992190D01*
X10078207Y-14001713D01*
X10059159Y-14011237D01*
X10040112Y-14011237D01*
X10021064Y-14001713D01*
X10011540Y-13992190D01*
X10002017Y-13973142D01*
X9992493Y-13935047D01*
X9992493Y-13887428D01*
X10002017Y-13849332D01*
X10011540Y-13830285D01*
X10021064Y-13820761D01*
X10040112Y-13811237D01*
X10192493Y-13992190D02*
X10202017Y-14001713D01*
X10192493Y-14011237D01*
X10182969Y-14001713D01*
X10192493Y-13992190D01*
X10192493Y-14011237D01*
X10325826Y-13811237D02*
X10344874Y-13811237D01*
X10363921Y-13820761D01*
X10373445Y-13830285D01*
X10382969Y-13849332D01*
X10392493Y-13887428D01*
X10392493Y-13935047D01*
X10382969Y-13973142D01*
X10373445Y-13992190D01*
X10363921Y-14001713D01*
X10344874Y-14011237D01*
X10325826Y-14011237D01*
X10306778Y-14001713D01*
X10297255Y-13992190D01*
X10287731Y-13973142D01*
X10278207Y-13935047D01*
X10278207Y-13887428D01*
X10287731Y-13849332D01*
X10297255Y-13830285D01*
X10306778Y-13820761D01*
X10325826Y-13811237D01*
X10459159Y-13811237D02*
X10582969Y-13811237D01*
X10516302Y-13887428D01*
X10544874Y-13887428D01*
X10563921Y-13896951D01*
X10573445Y-13906475D01*
X10582969Y-13925523D01*
X10582969Y-13973142D01*
X10573445Y-13992190D01*
X10563921Y-14001713D01*
X10544874Y-14011237D01*
X10487731Y-14011237D01*
X10468683Y-14001713D01*
X10459159Y-13992190D01*
X10678207Y-14011237D02*
X10716302Y-14011237D01*
X10735350Y-14001713D01*
X10744874Y-13992190D01*
X10763921Y-13963618D01*
X10773445Y-13925523D01*
X10773445Y-13849332D01*
X10763921Y-13830285D01*
X10754398Y-13820761D01*
X10735350Y-13811237D01*
X10697255Y-13811237D01*
X10678207Y-13820761D01*
X10668683Y-13830285D01*
X10659159Y-13849332D01*
X10659159Y-13896951D01*
X10668683Y-13915999D01*
X10678207Y-13925523D01*
X10697255Y-13935047D01*
X10735350Y-13935047D01*
X10754398Y-13925523D01*
X10763921Y-13915999D01*
X10773445Y-13896951D01*
X10944874Y-13877904D02*
X10944874Y-14011237D01*
X10897255Y-13801713D02*
X10849636Y-13944571D01*
X10973445Y-13944571D01*
X11040112Y-13811237D02*
X11040112Y-13849332D01*
X11116302Y-13811237D02*
X11116302Y-13849332D01*
X11411540Y-14087428D02*
X11402016Y-14077904D01*
X11382969Y-14049332D01*
X11373445Y-14030285D01*
X11363921Y-14001713D01*
X11354397Y-13954094D01*
X11354397Y-13915999D01*
X11363921Y-13868380D01*
X11373445Y-13839809D01*
X11382969Y-13820761D01*
X11402016Y-13792190D01*
X11411540Y-13782666D01*
X11573445Y-13877904D02*
X11573445Y-14011237D01*
X11525826Y-13801713D02*
X11478207Y-13944571D01*
X11602016Y-13944571D01*
X11706778Y-13896951D02*
X11687731Y-13887428D01*
X11678207Y-13877904D01*
X11668683Y-13858856D01*
X11668683Y-13849332D01*
X11678207Y-13830285D01*
X11687731Y-13820761D01*
X11706778Y-13811237D01*
X11744874Y-13811237D01*
X11763921Y-13820761D01*
X11773445Y-13830285D01*
X11782969Y-13849332D01*
X11782969Y-13858856D01*
X11773445Y-13877904D01*
X11763921Y-13887428D01*
X11744874Y-13896951D01*
X11706778Y-13896951D01*
X11687731Y-13906475D01*
X11678207Y-13915999D01*
X11668683Y-13935047D01*
X11668683Y-13973142D01*
X11678207Y-13992190D01*
X11687731Y-14001713D01*
X11706778Y-14011237D01*
X11744874Y-14011237D01*
X11763921Y-14001713D01*
X11773445Y-13992190D01*
X11782969Y-13973142D01*
X11782969Y-13935047D01*
X11773445Y-13915999D01*
X11763921Y-13906475D01*
X11744874Y-13896951D01*
X12021064Y-14011237D02*
X12021064Y-13811237D01*
X12106778Y-14011237D02*
X12106778Y-13906475D01*
X12097255Y-13887428D01*
X12078207Y-13877904D01*
X12049635Y-13877904D01*
X12030588Y-13887428D01*
X12021064Y-13896951D01*
X12230588Y-14011237D02*
X12211540Y-14001713D01*
X12202016Y-13992190D01*
X12192493Y-13973142D01*
X12192493Y-13915999D01*
X12202016Y-13896951D01*
X12211540Y-13887428D01*
X12230588Y-13877904D01*
X12259159Y-13877904D01*
X12278207Y-13887428D01*
X12287731Y-13896951D01*
X12297255Y-13915999D01*
X12297255Y-13973142D01*
X12287731Y-13992190D01*
X12278207Y-14001713D01*
X12259159Y-14011237D01*
X12230588Y-14011237D01*
X12411540Y-14011237D02*
X12392493Y-14001713D01*
X12382969Y-13982666D01*
X12382969Y-13811237D01*
X12563921Y-14001713D02*
X12544874Y-14011237D01*
X12506778Y-14011237D01*
X12487731Y-14001713D01*
X12478207Y-13982666D01*
X12478207Y-13906475D01*
X12487731Y-13887428D01*
X12506778Y-13877904D01*
X12544874Y-13877904D01*
X12563921Y-13887428D01*
X12573445Y-13906475D01*
X12573445Y-13925523D01*
X12478207Y-13944571D01*
X12649635Y-14001713D02*
X12668683Y-14011237D01*
X12706778Y-14011237D01*
X12725826Y-14001713D01*
X12735350Y-13982666D01*
X12735350Y-13973142D01*
X12725826Y-13954094D01*
X12706778Y-13944571D01*
X12678207Y-13944571D01*
X12659159Y-13935047D01*
X12649635Y-13915999D01*
X12649635Y-13906475D01*
X12659159Y-13887428D01*
X12678207Y-13877904D01*
X12706778Y-13877904D01*
X12725826Y-13887428D01*
X12802016Y-14087428D02*
X12811540Y-14077904D01*
X12830588Y-14049332D01*
X12840112Y-14030285D01*
X12849635Y-14001713D01*
X12859159Y-13954094D01*
X12859159Y-13915999D01*
X12849635Y-13868380D01*
X12840112Y-13839809D01*
X12830588Y-13820761D01*
X12811540Y-13792190D01*
X12802016Y-13782666D01*
D19*
X7729636Y-14129761D02*
X7839636Y-14239761D01*
X7839636Y-14129761D02*
X7729636Y-14239761D01*
X7823527Y-14223652D02*
X7823527Y-14145870D01*
X7745744Y-14145870D01*
X7745744Y-14223652D01*
X7823527Y-14223652D01*
D11*
X8202016Y-14275237D02*
X8087731Y-14275237D01*
X8144874Y-14275237D02*
X8144874Y-14075237D01*
X8125826Y-14103809D01*
X8106778Y-14122856D01*
X8087731Y-14132380D01*
X8287731Y-14256190D02*
X8297255Y-14265713D01*
X8287731Y-14275237D01*
X8278207Y-14265713D01*
X8287731Y-14256190D01*
X8287731Y-14275237D01*
X8487731Y-14275237D02*
X8373445Y-14275237D01*
X8430588Y-14275237D02*
X8430588Y-14075237D01*
X8411540Y-14103809D01*
X8392493Y-14122856D01*
X8373445Y-14132380D01*
X8611540Y-14075237D02*
X8630588Y-14075237D01*
X8649636Y-14084761D01*
X8659159Y-14094285D01*
X8668683Y-14113332D01*
X8678207Y-14151428D01*
X8678207Y-14199047D01*
X8668683Y-14237142D01*
X8659159Y-14256190D01*
X8649636Y-14265713D01*
X8630588Y-14275237D01*
X8611540Y-14275237D01*
X8592493Y-14265713D01*
X8582969Y-14256190D01*
X8573445Y-14237142D01*
X8563921Y-14199047D01*
X8563921Y-14151428D01*
X8573445Y-14113332D01*
X8582969Y-14094285D01*
X8592493Y-14084761D01*
X8611540Y-14075237D01*
X8802017Y-14075237D02*
X8821064Y-14075237D01*
X8840112Y-14084761D01*
X8849636Y-14094285D01*
X8859159Y-14113332D01*
X8868683Y-14151428D01*
X8868683Y-14199047D01*
X8859159Y-14237142D01*
X8849636Y-14256190D01*
X8840112Y-14265713D01*
X8821064Y-14275237D01*
X8802017Y-14275237D01*
X8782969Y-14265713D01*
X8773445Y-14256190D01*
X8763921Y-14237142D01*
X8754398Y-14199047D01*
X8754398Y-14151428D01*
X8763921Y-14113332D01*
X8773445Y-14094285D01*
X8782969Y-14084761D01*
X8802017Y-14075237D01*
X8954398Y-14275237D02*
X8954398Y-14141904D01*
X8954398Y-14160951D02*
X8963921Y-14151428D01*
X8982969Y-14141904D01*
X9011540Y-14141904D01*
X9030588Y-14151428D01*
X9040112Y-14170475D01*
X9040112Y-14275237D01*
X9040112Y-14170475D02*
X9049636Y-14151428D01*
X9068683Y-14141904D01*
X9097255Y-14141904D01*
X9116302Y-14151428D01*
X9125826Y-14170475D01*
X9125826Y-14275237D01*
X9221064Y-14275237D02*
X9221064Y-14141904D01*
X9221064Y-14160951D02*
X9230588Y-14151428D01*
X9249636Y-14141904D01*
X9278207Y-14141904D01*
X9297255Y-14151428D01*
X9306778Y-14170475D01*
X9306778Y-14275237D01*
X9306778Y-14170475D02*
X9316302Y-14151428D01*
X9335350Y-14141904D01*
X9363921Y-14141904D01*
X9382969Y-14151428D01*
X9392493Y-14170475D01*
X9392493Y-14275237D01*
X9782969Y-14065713D02*
X9611540Y-14322856D01*
X10040112Y-14075237D02*
X10059159Y-14075237D01*
X10078207Y-14084761D01*
X10087731Y-14094285D01*
X10097255Y-14113332D01*
X10106778Y-14151428D01*
X10106778Y-14199047D01*
X10097255Y-14237142D01*
X10087731Y-14256190D01*
X10078207Y-14265713D01*
X10059159Y-14275237D01*
X10040112Y-14275237D01*
X10021064Y-14265713D01*
X10011540Y-14256190D01*
X10002017Y-14237142D01*
X9992493Y-14199047D01*
X9992493Y-14151428D01*
X10002017Y-14113332D01*
X10011540Y-14094285D01*
X10021064Y-14084761D01*
X10040112Y-14075237D01*
X10192493Y-14256190D02*
X10202017Y-14265713D01*
X10192493Y-14275237D01*
X10182969Y-14265713D01*
X10192493Y-14256190D01*
X10192493Y-14275237D01*
X10325826Y-14075237D02*
X10344874Y-14075237D01*
X10363921Y-14084761D01*
X10373445Y-14094285D01*
X10382969Y-14113332D01*
X10392493Y-14151428D01*
X10392493Y-14199047D01*
X10382969Y-14237142D01*
X10373445Y-14256190D01*
X10363921Y-14265713D01*
X10344874Y-14275237D01*
X10325826Y-14275237D01*
X10306778Y-14265713D01*
X10297255Y-14256190D01*
X10287731Y-14237142D01*
X10278207Y-14199047D01*
X10278207Y-14151428D01*
X10287731Y-14113332D01*
X10297255Y-14094285D01*
X10306778Y-14084761D01*
X10325826Y-14075237D01*
X10563921Y-14141904D02*
X10563921Y-14275237D01*
X10516302Y-14065713D02*
X10468683Y-14208571D01*
X10592493Y-14208571D01*
X10649636Y-14075237D02*
X10773445Y-14075237D01*
X10706778Y-14151428D01*
X10735350Y-14151428D01*
X10754398Y-14160951D01*
X10763921Y-14170475D01*
X10773445Y-14189523D01*
X10773445Y-14237142D01*
X10763921Y-14256190D01*
X10754398Y-14265713D01*
X10735350Y-14275237D01*
X10678207Y-14275237D01*
X10659159Y-14265713D01*
X10649636Y-14256190D01*
X10840112Y-14075237D02*
X10963921Y-14075237D01*
X10897255Y-14151428D01*
X10925826Y-14151428D01*
X10944874Y-14160951D01*
X10954398Y-14170475D01*
X10963921Y-14189523D01*
X10963921Y-14237142D01*
X10954398Y-14256190D01*
X10944874Y-14265713D01*
X10925826Y-14275237D01*
X10868683Y-14275237D01*
X10849636Y-14265713D01*
X10840112Y-14256190D01*
X11040112Y-14075237D02*
X11040112Y-14113332D01*
X11116302Y-14075237D02*
X11116302Y-14113332D01*
X11411540Y-14351428D02*
X11402016Y-14341904D01*
X11382969Y-14313332D01*
X11373445Y-14294285D01*
X11363921Y-14265713D01*
X11354397Y-14218094D01*
X11354397Y-14179999D01*
X11363921Y-14132380D01*
X11373445Y-14103809D01*
X11382969Y-14084761D01*
X11402016Y-14056190D01*
X11411540Y-14046666D01*
X11468683Y-14075237D02*
X11592493Y-14075237D01*
X11525826Y-14151428D01*
X11554397Y-14151428D01*
X11573445Y-14160951D01*
X11582969Y-14170475D01*
X11592493Y-14189523D01*
X11592493Y-14237142D01*
X11582969Y-14256190D01*
X11573445Y-14265713D01*
X11554397Y-14275237D01*
X11497255Y-14275237D01*
X11478207Y-14265713D01*
X11468683Y-14256190D01*
X11830588Y-14275237D02*
X11830588Y-14075237D01*
X11916302Y-14275237D02*
X11916302Y-14170475D01*
X11906778Y-14151428D01*
X11887731Y-14141904D01*
X11859159Y-14141904D01*
X11840112Y-14151428D01*
X11830588Y-14160951D01*
X12040112Y-14275237D02*
X12021064Y-14265713D01*
X12011540Y-14256190D01*
X12002016Y-14237142D01*
X12002016Y-14179999D01*
X12011540Y-14160951D01*
X12021064Y-14151428D01*
X12040112Y-14141904D01*
X12068683Y-14141904D01*
X12087731Y-14151428D01*
X12097255Y-14160951D01*
X12106778Y-14179999D01*
X12106778Y-14237142D01*
X12097255Y-14256190D01*
X12087731Y-14265713D01*
X12068683Y-14275237D01*
X12040112Y-14275237D01*
X12221064Y-14275237D02*
X12202016Y-14265713D01*
X12192493Y-14246666D01*
X12192493Y-14075237D01*
X12373445Y-14265713D02*
X12354397Y-14275237D01*
X12316302Y-14275237D01*
X12297255Y-14265713D01*
X12287731Y-14246666D01*
X12287731Y-14170475D01*
X12297255Y-14151428D01*
X12316302Y-14141904D01*
X12354397Y-14141904D01*
X12373445Y-14151428D01*
X12382969Y-14170475D01*
X12382969Y-14189523D01*
X12287731Y-14208571D01*
X12459159Y-14265713D02*
X12478207Y-14275237D01*
X12516302Y-14275237D01*
X12535350Y-14265713D01*
X12544874Y-14246666D01*
X12544874Y-14237142D01*
X12535350Y-14218094D01*
X12516302Y-14208571D01*
X12487731Y-14208571D01*
X12468683Y-14199047D01*
X12459159Y-14179999D01*
X12459159Y-14170475D01*
X12468683Y-14151428D01*
X12487731Y-14141904D01*
X12516302Y-14141904D01*
X12535350Y-14151428D01*
X12611540Y-14351428D02*
X12621064Y-14341904D01*
X12640112Y-14313332D01*
X12649635Y-14294285D01*
X12659159Y-14265713D01*
X12668683Y-14218094D01*
X12668683Y-14179999D01*
X12659159Y-14132380D01*
X12649635Y-14103809D01*
X12640112Y-14084761D01*
X12621064Y-14056190D01*
X12611540Y-14046666D01*
X7639636Y-14348761D02*
X7839636Y-14548761D01*
X7839636Y-14348761D02*
X7639636Y-14548761D01*
X7739636Y-14548761D02*
X7839636Y-14448761D01*
X7739636Y-14348761D01*
X7639636Y-14448761D01*
X7739636Y-14548761D01*
X8087731Y-14358285D02*
X8097255Y-14348761D01*
X8116302Y-14339237D01*
X8163921Y-14339237D01*
X8182969Y-14348761D01*
X8192493Y-14358285D01*
X8202016Y-14377332D01*
X8202016Y-14396380D01*
X8192493Y-14424951D01*
X8078207Y-14539237D01*
X8202016Y-14539237D01*
X8287731Y-14520190D02*
X8297255Y-14529713D01*
X8287731Y-14539237D01*
X8278207Y-14529713D01*
X8287731Y-14520190D01*
X8287731Y-14539237D01*
X8363921Y-14339237D02*
X8487731Y-14339237D01*
X8421064Y-14415428D01*
X8449636Y-14415428D01*
X8468683Y-14424951D01*
X8478207Y-14434475D01*
X8487731Y-14453523D01*
X8487731Y-14501142D01*
X8478207Y-14520190D01*
X8468683Y-14529713D01*
X8449636Y-14539237D01*
X8392493Y-14539237D01*
X8373445Y-14529713D01*
X8363921Y-14520190D01*
X8611540Y-14339237D02*
X8630588Y-14339237D01*
X8649636Y-14348761D01*
X8659159Y-14358285D01*
X8668683Y-14377332D01*
X8678207Y-14415428D01*
X8678207Y-14463047D01*
X8668683Y-14501142D01*
X8659159Y-14520190D01*
X8649636Y-14529713D01*
X8630588Y-14539237D01*
X8611540Y-14539237D01*
X8592493Y-14529713D01*
X8582969Y-14520190D01*
X8573445Y-14501142D01*
X8563921Y-14463047D01*
X8563921Y-14415428D01*
X8573445Y-14377332D01*
X8582969Y-14358285D01*
X8592493Y-14348761D01*
X8611540Y-14339237D01*
X8802017Y-14339237D02*
X8821064Y-14339237D01*
X8840112Y-14348761D01*
X8849636Y-14358285D01*
X8859159Y-14377332D01*
X8868683Y-14415428D01*
X8868683Y-14463047D01*
X8859159Y-14501142D01*
X8849636Y-14520190D01*
X8840112Y-14529713D01*
X8821064Y-14539237D01*
X8802017Y-14539237D01*
X8782969Y-14529713D01*
X8773445Y-14520190D01*
X8763921Y-14501142D01*
X8754398Y-14463047D01*
X8754398Y-14415428D01*
X8763921Y-14377332D01*
X8773445Y-14358285D01*
X8782969Y-14348761D01*
X8802017Y-14339237D01*
X8954398Y-14539237D02*
X8954398Y-14405904D01*
X8954398Y-14424951D02*
X8963921Y-14415428D01*
X8982969Y-14405904D01*
X9011540Y-14405904D01*
X9030588Y-14415428D01*
X9040112Y-14434475D01*
X9040112Y-14539237D01*
X9040112Y-14434475D02*
X9049636Y-14415428D01*
X9068683Y-14405904D01*
X9097255Y-14405904D01*
X9116302Y-14415428D01*
X9125826Y-14434475D01*
X9125826Y-14539237D01*
X9221064Y-14539237D02*
X9221064Y-14405904D01*
X9221064Y-14424951D02*
X9230588Y-14415428D01*
X9249636Y-14405904D01*
X9278207Y-14405904D01*
X9297255Y-14415428D01*
X9306778Y-14434475D01*
X9306778Y-14539237D01*
X9306778Y-14434475D02*
X9316302Y-14415428D01*
X9335350Y-14405904D01*
X9363921Y-14405904D01*
X9382969Y-14415428D01*
X9392493Y-14434475D01*
X9392493Y-14539237D01*
X9782969Y-14329713D02*
X9611540Y-14586856D01*
X10040112Y-14339237D02*
X10059159Y-14339237D01*
X10078207Y-14348761D01*
X10087731Y-14358285D01*
X10097255Y-14377332D01*
X10106778Y-14415428D01*
X10106778Y-14463047D01*
X10097255Y-14501142D01*
X10087731Y-14520190D01*
X10078207Y-14529713D01*
X10059159Y-14539237D01*
X10040112Y-14539237D01*
X10021064Y-14529713D01*
X10011540Y-14520190D01*
X10002017Y-14501142D01*
X9992493Y-14463047D01*
X9992493Y-14415428D01*
X10002017Y-14377332D01*
X10011540Y-14358285D01*
X10021064Y-14348761D01*
X10040112Y-14339237D01*
X10192493Y-14520190D02*
X10202017Y-14529713D01*
X10192493Y-14539237D01*
X10182969Y-14529713D01*
X10192493Y-14520190D01*
X10192493Y-14539237D01*
X10325826Y-14339237D02*
X10344874Y-14339237D01*
X10363921Y-14348761D01*
X10373445Y-14358285D01*
X10382969Y-14377332D01*
X10392493Y-14415428D01*
X10392493Y-14463047D01*
X10382969Y-14501142D01*
X10373445Y-14520190D01*
X10363921Y-14529713D01*
X10344874Y-14539237D01*
X10325826Y-14539237D01*
X10306778Y-14529713D01*
X10297255Y-14520190D01*
X10287731Y-14501142D01*
X10278207Y-14463047D01*
X10278207Y-14415428D01*
X10287731Y-14377332D01*
X10297255Y-14358285D01*
X10306778Y-14348761D01*
X10325826Y-14339237D01*
X10487731Y-14539237D02*
X10525826Y-14539237D01*
X10544874Y-14529713D01*
X10554398Y-14520190D01*
X10573445Y-14491618D01*
X10582969Y-14453523D01*
X10582969Y-14377332D01*
X10573445Y-14358285D01*
X10563921Y-14348761D01*
X10544874Y-14339237D01*
X10506778Y-14339237D01*
X10487731Y-14348761D01*
X10478207Y-14358285D01*
X10468683Y-14377332D01*
X10468683Y-14424951D01*
X10478207Y-14443999D01*
X10487731Y-14453523D01*
X10506778Y-14463047D01*
X10544874Y-14463047D01*
X10563921Y-14453523D01*
X10573445Y-14443999D01*
X10582969Y-14424951D01*
X10706778Y-14339237D02*
X10725826Y-14339237D01*
X10744874Y-14348761D01*
X10754398Y-14358285D01*
X10763921Y-14377332D01*
X10773445Y-14415428D01*
X10773445Y-14463047D01*
X10763921Y-14501142D01*
X10754398Y-14520190D01*
X10744874Y-14529713D01*
X10725826Y-14539237D01*
X10706778Y-14539237D01*
X10687731Y-14529713D01*
X10678207Y-14520190D01*
X10668683Y-14501142D01*
X10659159Y-14463047D01*
X10659159Y-14415428D01*
X10668683Y-14377332D01*
X10678207Y-14358285D01*
X10687731Y-14348761D01*
X10706778Y-14339237D01*
X10944874Y-14339237D02*
X10906778Y-14339237D01*
X10887731Y-14348761D01*
X10878207Y-14358285D01*
X10859159Y-14386856D01*
X10849636Y-14424951D01*
X10849636Y-14501142D01*
X10859159Y-14520190D01*
X10868683Y-14529713D01*
X10887731Y-14539237D01*
X10925826Y-14539237D01*
X10944874Y-14529713D01*
X10954398Y-14520190D01*
X10963921Y-14501142D01*
X10963921Y-14453523D01*
X10954398Y-14434475D01*
X10944874Y-14424951D01*
X10925826Y-14415428D01*
X10887731Y-14415428D01*
X10868683Y-14424951D01*
X10859159Y-14434475D01*
X10849636Y-14453523D01*
X11040112Y-14339237D02*
X11040112Y-14377332D01*
X11116302Y-14339237D02*
X11116302Y-14377332D01*
X11411540Y-14615428D02*
X11402016Y-14605904D01*
X11382969Y-14577332D01*
X11373445Y-14558285D01*
X11363921Y-14529713D01*
X11354397Y-14482094D01*
X11354397Y-14443999D01*
X11363921Y-14396380D01*
X11373445Y-14367809D01*
X11382969Y-14348761D01*
X11402016Y-14320190D01*
X11411540Y-14310666D01*
X11573445Y-14405904D02*
X11573445Y-14539237D01*
X11525826Y-14329713D02*
X11478207Y-14472571D01*
X11602016Y-14472571D01*
X11830588Y-14539237D02*
X11830588Y-14339237D01*
X11916302Y-14539237D02*
X11916302Y-14434475D01*
X11906778Y-14415428D01*
X11887731Y-14405904D01*
X11859159Y-14405904D01*
X11840112Y-14415428D01*
X11830588Y-14424951D01*
X12040112Y-14539237D02*
X12021064Y-14529713D01*
X12011540Y-14520190D01*
X12002016Y-14501142D01*
X12002016Y-14443999D01*
X12011540Y-14424951D01*
X12021064Y-14415428D01*
X12040112Y-14405904D01*
X12068683Y-14405904D01*
X12087731Y-14415428D01*
X12097255Y-14424951D01*
X12106778Y-14443999D01*
X12106778Y-14501142D01*
X12097255Y-14520190D01*
X12087731Y-14529713D01*
X12068683Y-14539237D01*
X12040112Y-14539237D01*
X12221064Y-14539237D02*
X12202016Y-14529713D01*
X12192493Y-14510666D01*
X12192493Y-14339237D01*
X12373445Y-14529713D02*
X12354397Y-14539237D01*
X12316302Y-14539237D01*
X12297255Y-14529713D01*
X12287731Y-14510666D01*
X12287731Y-14434475D01*
X12297255Y-14415428D01*
X12316302Y-14405904D01*
X12354397Y-14405904D01*
X12373445Y-14415428D01*
X12382969Y-14434475D01*
X12382969Y-14453523D01*
X12287731Y-14472571D01*
X12459159Y-14529713D02*
X12478207Y-14539237D01*
X12516302Y-14539237D01*
X12535350Y-14529713D01*
X12544874Y-14510666D01*
X12544874Y-14501142D01*
X12535350Y-14482094D01*
X12516302Y-14472571D01*
X12487731Y-14472571D01*
X12468683Y-14463047D01*
X12459159Y-14443999D01*
X12459159Y-14434475D01*
X12468683Y-14415428D01*
X12487731Y-14405904D01*
X12516302Y-14405904D01*
X12535350Y-14415428D01*
X12611540Y-14615428D02*
X12621064Y-14605904D01*
X12640112Y-14577332D01*
X12649635Y-14558285D01*
X12659159Y-14529713D01*
X12668683Y-14482094D01*
X12668683Y-14443999D01*
X12659159Y-14396380D01*
X12649635Y-14367809D01*
X12640112Y-14348761D01*
X12621064Y-14320190D01*
X12611540Y-14310666D01*
M02*
