M48
; DRILL file {KiCad (5.99.0-12255-gad1ee958b0)} date Sat Dec  4 14:30:31 2021
; FORMAT={-:-/ absolute / metric / decimal}
; #@! TF.CreationDate,2021-12-04T14:30:31+01:00
; #@! TF.GenerationSoftware,Kicad,Pcbnew,(5.99.0-12255-gad1ee958b0)
; #@! TF.FileFunction,Plated,1,2,PTH
FMAT,2
METRIC
; #@! TA.AperFunction,Plated,PTH,ComponentDrill
T1C0.500
; #@! TA.AperFunction,Plated,PTH,ComponentDrill
T2C0.750
; #@! TA.AperFunction,Plated,PTH,ComponentDrill
T3C0.800
; #@! TA.AperFunction,Plated,PTH,ComponentDrill
T4C0.900
; #@! TA.AperFunction,Plated,PTH,ComponentDrill
T5C0.920
; #@! TA.AperFunction,Plated,PTH,ComponentDrill
T6C0.950
; #@! TA.AperFunction,Plated,PTH,ComponentDrill
T7C1.000
; #@! TA.AperFunction,Plated,PTH,ComponentDrill
T8C1.100
; #@! TA.AperFunction,Plated,PTH,ComponentDrill
T9C2.300
%
G90
G05
T1
X101.6Y-92.71
T2
X99.915Y-74.075
X101.185Y-75.345
X102.455Y-74.075
X111.98Y-79.155
X111.98Y-81.695
X113.25Y-80.425
X117.695Y-80.425
X118.965Y-79.155
X118.965Y-81.695
T3
X81.27Y-71.125
X81.27Y-73.665
X81.28Y-77.47
X81.28Y-81.28
X86.36Y-85.09
X86.36Y-92.71
X88.89Y-71.125
X88.89Y-73.665
X88.9Y-77.47
X88.9Y-81.28
X88.9Y-102.235
X88.9Y-109.855
X90.17Y-85.09
X90.17Y-92.71
X91.48Y-76.835
X93.98Y-85.09
X93.98Y-92.71
X96.48Y-76.835
X97.79Y-85.09
X97.79Y-92.71
X99.36Y-69.63
X101.185Y-80.425
X101.6Y-85.13
X101.6Y-90.13
X103.725Y-80.425
X104.36Y-69.63
X105.41Y-85.09
X105.41Y-92.71
X106.265Y-80.425
X107.535Y-68.995
X107.535Y-76.615
X108.595Y-85.1
X108.595Y-87.64
X108.595Y-90.18
X108.595Y-92.72
X110.7Y-69.0
X110.7Y-71.54
X110.71Y-75.345
X116.215Y-85.1
X116.215Y-87.64
X116.215Y-90.18
X116.215Y-92.72
X118.32Y-69.0
X118.32Y-71.54
X118.33Y-75.345
X119.38Y-85.09
X119.38Y-92.71
X121.505Y-68.44
X121.505Y-73.44
X123.19Y-77.47
X123.19Y-85.09
X123.19Y-87.67
X123.19Y-92.67
X124.46Y-69.215
X124.46Y-72.39
X132.08Y-69.215
X132.08Y-72.39
X138.47Y-104.14
X140.97Y-104.14
T4
X88.265Y-112.4
X88.265Y-114.94
X95.25Y-80.005
X95.25Y-82.545
X139.7Y-69.85
X139.7Y-74.93
X142.24Y-69.85
X142.24Y-74.93
T5
X129.01Y-81.59
X129.01Y-84.09
X129.01Y-86.09
X129.01Y-88.59
X131.63Y-81.59
X131.63Y-84.09
X131.63Y-86.09
X131.63Y-88.59
T6
X82.55Y-99.18
X82.55Y-101.68
X82.55Y-104.18
X82.55Y-106.68
T7
X86.92Y-63.05
X86.92Y-65.59
X88.9Y-96.52
X88.9Y-99.06
X89.46Y-63.05
X89.46Y-65.59
X92.0Y-63.05
X92.0Y-65.59
X93.345Y-96.52
X93.345Y-114.3
X94.54Y-63.05
X94.54Y-65.59
X97.08Y-63.05
X97.08Y-65.59
X99.62Y-63.05
X99.62Y-65.59
X102.16Y-63.05
X102.16Y-65.59
X104.7Y-63.05
X104.7Y-65.59
X107.24Y-63.05
X107.24Y-65.59
X109.78Y-63.05
X109.78Y-65.59
X112.32Y-63.05
X112.32Y-65.59
X114.86Y-63.05
X114.86Y-65.59
X117.4Y-63.05
X117.4Y-65.59
X119.94Y-63.05
X119.94Y-65.59
X122.48Y-63.05
X122.48Y-65.59
X125.02Y-63.05
X125.02Y-65.59
X127.56Y-63.05
X127.56Y-65.59
X130.1Y-63.05
X130.1Y-65.59
X132.64Y-63.05
X132.64Y-65.59
X133.985Y-96.52
X133.985Y-114.3
X135.18Y-63.05
X135.18Y-65.59
X137.7Y-96.52
X141.7Y-96.52
T8
X82.225Y-86.36
X82.225Y-88.9
X82.225Y-91.44
T9
X128.66Y-78.52
X128.66Y-91.66
X134.34Y-78.52
X134.34Y-91.66
T0
M30
