%TF.GenerationSoftware,KiCad,Pcbnew,(5.99.0-12255-gad1ee958b0)*%
%TF.CreationDate,2021-12-04T14:30:29+01:00*%
%TF.ProjectId,RPi_car_HAT,5250695f-6361-4725-9f48-41542e6b6963,rev?*%
%TF.SameCoordinates,Original*%
%TF.FileFunction,Legend,Top*%
%TF.FilePolarity,Positive*%
%FSLAX46Y46*%
G04 Gerber Fmt 4.6, Leading zero omitted, Abs format (unit mm)*
G04 Created by KiCad (PCBNEW (5.99.0-12255-gad1ee958b0)) date 2021-12-04 14:30:29*
%MOMM*%
%LPD*%
G01*
G04 APERTURE LIST*
G04 Aperture macros list*
%AMRoundRect*
0 Rectangle with rounded corners*
0 $1 Rounding radius*
0 $2 $3 $4 $5 $6 $7 $8 $9 X,Y pos of 4 corners*
0 Add a 4 corners polygon primitive as box body*
4,1,4,$2,$3,$4,$5,$6,$7,$8,$9,$2,$3,0*
0 Add four circle primitives for the rounded corners*
1,1,$1+$1,$2,$3*
1,1,$1+$1,$4,$5*
1,1,$1+$1,$6,$7*
1,1,$1+$1,$8,$9*
0 Add four rect primitives between the rounded corners*
20,1,$1+$1,$2,$3,$4,$5,0*
20,1,$1+$1,$4,$5,$6,$7,0*
20,1,$1+$1,$6,$7,$8,$9,0*
20,1,$1+$1,$8,$9,$2,$3,0*%
G04 Aperture macros list end*
%ADD10C,0.150000*%
%ADD11C,0.120000*%
%ADD12C,3.000000*%
%ADD13C,1.000000*%
%ADD14C,1.600000*%
%ADD15O,1.600000X1.600000*%
%ADD16C,1.440000*%
%ADD17R,1.600000X1.600000*%
%ADD18R,1.500000X1.500000*%
%ADD19C,1.500000*%
%ADD20R,1.800000X1.100000*%
%ADD21RoundRect,0.275000X0.625000X-0.275000X0.625000X0.275000X-0.625000X0.275000X-0.625000X-0.275000X0*%
%ADD22R,1.800000X1.800000*%
%ADD23C,1.800000*%
%ADD24RoundRect,0.275000X-0.625000X0.275000X-0.625000X-0.275000X0.625000X-0.275000X0.625000X0.275000X0*%
%ADD25RoundRect,0.250000X0.725000X-0.600000X0.725000X0.600000X-0.725000X0.600000X-0.725000X-0.600000X0*%
%ADD26O,1.950000X1.700000*%
%ADD27R,1.100000X1.800000*%
%ADD28RoundRect,0.275000X0.275000X0.625000X-0.275000X0.625000X-0.275000X-0.625000X0.275000X-0.625000X0*%
%ADD29R,2.540000X2.540000*%
%ADD30C,2.540000*%
%ADD31R,2.000000X1.905000*%
%ADD32O,2.000000X1.905000*%
%ADD33C,2.000000*%
%ADD34R,1.700000X1.700000*%
%ADD35O,1.700000X1.700000*%
G04 APERTURE END LIST*
D10*
X101608095Y-91622380D02*
X102179523Y-91622380D01*
X101893809Y-92622380D02*
X101893809Y-91622380D01*
X102512857Y-92622380D02*
X102512857Y-91622380D01*
X102893809Y-91622380D01*
X102989047Y-91670000D01*
X103036666Y-91717619D01*
X103084285Y-91812857D01*
X103084285Y-91955714D01*
X103036666Y-92050952D01*
X102989047Y-92098571D01*
X102893809Y-92146190D01*
X102512857Y-92146190D01*
X104036666Y-92622380D02*
X103465238Y-92622380D01*
X103750952Y-92622380D02*
X103750952Y-91622380D01*
X103655714Y-91765238D01*
X103560476Y-91860476D01*
X103465238Y-91908095D01*
X119832380Y-89066666D02*
X119356190Y-89400000D01*
X119832380Y-89638095D02*
X118832380Y-89638095D01*
X118832380Y-89257142D01*
X118880000Y-89161904D01*
X118927619Y-89114285D01*
X119022857Y-89066666D01*
X119165714Y-89066666D01*
X119260952Y-89114285D01*
X119308571Y-89161904D01*
X119356190Y-89257142D01*
X119356190Y-89638095D01*
X118832380Y-88209523D02*
X118832380Y-88400000D01*
X118880000Y-88495238D01*
X118927619Y-88542857D01*
X119070476Y-88638095D01*
X119260952Y-88685714D01*
X119641904Y-88685714D01*
X119737142Y-88638095D01*
X119784761Y-88590476D01*
X119832380Y-88495238D01*
X119832380Y-88304761D01*
X119784761Y-88209523D01*
X119737142Y-88161904D01*
X119641904Y-88114285D01*
X119403809Y-88114285D01*
X119308571Y-88161904D01*
X119260952Y-88209523D01*
X119213333Y-88304761D01*
X119213333Y-88495238D01*
X119260952Y-88590476D01*
X119308571Y-88638095D01*
X119403809Y-88685714D01*
X103129516Y-82621380D02*
X102796183Y-82145190D01*
X102558088Y-82621380D02*
X102558088Y-81621380D01*
X102939040Y-81621380D01*
X103034278Y-81669000D01*
X103081897Y-81716619D01*
X103129516Y-81811857D01*
X103129516Y-81954714D01*
X103081897Y-82049952D01*
X103034278Y-82097571D01*
X102939040Y-82145190D01*
X102558088Y-82145190D01*
X103415231Y-81621380D02*
X103748564Y-82621380D01*
X104081897Y-81621380D01*
X104939040Y-82621380D02*
X104367612Y-82621380D01*
X104653326Y-82621380D02*
X104653326Y-81621380D01*
X104558088Y-81764238D01*
X104462850Y-81859476D01*
X104367612Y-81907095D01*
X84318095Y-71842380D02*
X84318095Y-72651904D01*
X84365714Y-72747142D01*
X84413333Y-72794761D01*
X84508571Y-72842380D01*
X84699047Y-72842380D01*
X84794285Y-72794761D01*
X84841904Y-72747142D01*
X84889523Y-72651904D01*
X84889523Y-71842380D01*
X85889523Y-72842380D02*
X85318095Y-72842380D01*
X85603809Y-72842380D02*
X85603809Y-71842380D01*
X85508571Y-71985238D01*
X85413333Y-72080476D01*
X85318095Y-72128095D01*
X136612380Y-85423333D02*
X137326666Y-85423333D01*
X137469523Y-85470952D01*
X137564761Y-85566190D01*
X137612380Y-85709047D01*
X137612380Y-85804285D01*
X136945714Y-84518571D02*
X137612380Y-84518571D01*
X136564761Y-84756666D02*
X137279047Y-84994761D01*
X137279047Y-84375714D01*
X127627142Y-69667380D02*
X127293809Y-69191190D01*
X127055714Y-69667380D02*
X127055714Y-68667380D01*
X127436666Y-68667380D01*
X127531904Y-68715000D01*
X127579523Y-68762619D01*
X127627142Y-68857857D01*
X127627142Y-69000714D01*
X127579523Y-69095952D01*
X127531904Y-69143571D01*
X127436666Y-69191190D01*
X127055714Y-69191190D01*
X128579523Y-69667380D02*
X128008095Y-69667380D01*
X128293809Y-69667380D02*
X128293809Y-68667380D01*
X128198571Y-68810238D01*
X128103333Y-68905476D01*
X128008095Y-68953095D01*
X129198571Y-68667380D02*
X129293809Y-68667380D01*
X129389047Y-68715000D01*
X129436666Y-68762619D01*
X129484285Y-68857857D01*
X129531904Y-69048333D01*
X129531904Y-69286428D01*
X129484285Y-69476904D01*
X129436666Y-69572142D01*
X129389047Y-69619761D01*
X129293809Y-69667380D01*
X129198571Y-69667380D01*
X129103333Y-69619761D01*
X129055714Y-69572142D01*
X129008095Y-69476904D01*
X128960476Y-69286428D01*
X128960476Y-69048333D01*
X129008095Y-68857857D01*
X129055714Y-68762619D01*
X129103333Y-68715000D01*
X129198571Y-68667380D01*
X107987135Y-72971910D02*
X107510945Y-73305244D01*
X107987135Y-73543339D02*
X106987135Y-73543339D01*
X106987135Y-73162386D01*
X107034755Y-73067148D01*
X107082374Y-73019529D01*
X107177612Y-72971910D01*
X107320469Y-72971910D01*
X107415707Y-73019529D01*
X107463326Y-73067148D01*
X107510945Y-73162386D01*
X107510945Y-73543339D01*
X106987135Y-72638577D02*
X106987135Y-72019529D01*
X107368088Y-72352863D01*
X107368088Y-72210005D01*
X107415707Y-72114767D01*
X107463326Y-72067148D01*
X107558564Y-72019529D01*
X107796659Y-72019529D01*
X107891897Y-72067148D01*
X107939516Y-72114767D01*
X107987135Y-72210005D01*
X107987135Y-72495720D01*
X107939516Y-72590958D01*
X107891897Y-72638577D01*
X86812380Y-89066666D02*
X86336190Y-89400000D01*
X86812380Y-89638095D02*
X85812380Y-89638095D01*
X85812380Y-89257142D01*
X85860000Y-89161904D01*
X85907619Y-89114285D01*
X86002857Y-89066666D01*
X86145714Y-89066666D01*
X86240952Y-89114285D01*
X86288571Y-89161904D01*
X86336190Y-89257142D01*
X86336190Y-89638095D01*
X86812380Y-88114285D02*
X86812380Y-88685714D01*
X86812380Y-88400000D02*
X85812380Y-88400000D01*
X85955238Y-88495238D01*
X86050476Y-88590476D01*
X86098095Y-88685714D01*
X115982761Y-83351619D02*
X115887523Y-83304000D01*
X115792285Y-83208761D01*
X115649428Y-83065904D01*
X115554190Y-83018285D01*
X115458952Y-83018285D01*
X115506571Y-83256380D02*
X115411333Y-83208761D01*
X115316095Y-83113523D01*
X115268476Y-82923047D01*
X115268476Y-82589714D01*
X115316095Y-82399238D01*
X115411333Y-82304000D01*
X115506571Y-82256380D01*
X115697047Y-82256380D01*
X115792285Y-82304000D01*
X115887523Y-82399238D01*
X115935142Y-82589714D01*
X115935142Y-82923047D01*
X115887523Y-83113523D01*
X115792285Y-83208761D01*
X115697047Y-83256380D01*
X115506571Y-83256380D01*
X116316095Y-82351619D02*
X116363714Y-82304000D01*
X116458952Y-82256380D01*
X116697047Y-82256380D01*
X116792285Y-82304000D01*
X116839904Y-82351619D01*
X116887523Y-82446857D01*
X116887523Y-82542095D01*
X116839904Y-82684952D01*
X116268476Y-83256380D01*
X116887523Y-83256380D01*
X93813333Y-77192142D02*
X93765714Y-77239761D01*
X93622857Y-77287380D01*
X93527619Y-77287380D01*
X93384761Y-77239761D01*
X93289523Y-77144523D01*
X93241904Y-77049285D01*
X93194285Y-76858809D01*
X93194285Y-76715952D01*
X93241904Y-76525476D01*
X93289523Y-76430238D01*
X93384761Y-76335000D01*
X93527619Y-76287380D01*
X93622857Y-76287380D01*
X93765714Y-76335000D01*
X93813333Y-76382619D01*
X94670476Y-76287380D02*
X94480000Y-76287380D01*
X94384761Y-76335000D01*
X94337142Y-76382619D01*
X94241904Y-76525476D01*
X94194285Y-76715952D01*
X94194285Y-77096904D01*
X94241904Y-77192142D01*
X94289523Y-77239761D01*
X94384761Y-77287380D01*
X94575238Y-77287380D01*
X94670476Y-77239761D01*
X94718095Y-77192142D01*
X94765714Y-77096904D01*
X94765714Y-76858809D01*
X94718095Y-76763571D01*
X94670476Y-76715952D01*
X94575238Y-76668333D01*
X94384761Y-76668333D01*
X94289523Y-76715952D01*
X94241904Y-76763571D01*
X94194285Y-76858809D01*
X111643095Y-88352380D02*
X111643095Y-89161904D01*
X111690714Y-89257142D01*
X111738333Y-89304761D01*
X111833571Y-89352380D01*
X112024047Y-89352380D01*
X112119285Y-89304761D01*
X112166904Y-89257142D01*
X112214523Y-89161904D01*
X112214523Y-88352380D01*
X112595476Y-88352380D02*
X113214523Y-88352380D01*
X112881190Y-88733333D01*
X113024047Y-88733333D01*
X113119285Y-88780952D01*
X113166904Y-88828571D01*
X113214523Y-88923809D01*
X113214523Y-89161904D01*
X113166904Y-89257142D01*
X113119285Y-89304761D01*
X113024047Y-89352380D01*
X112738333Y-89352380D01*
X112643095Y-89304761D01*
X112595476Y-89257142D01*
X84351904Y-112720380D02*
X84351904Y-111720380D01*
X84590000Y-111720380D01*
X84732857Y-111768000D01*
X84828095Y-111863238D01*
X84875714Y-111958476D01*
X84923333Y-112148952D01*
X84923333Y-112291809D01*
X84875714Y-112482285D01*
X84828095Y-112577523D01*
X84732857Y-112672761D01*
X84590000Y-112720380D01*
X84351904Y-112720380D01*
X85875714Y-112720380D02*
X85304285Y-112720380D01*
X85590000Y-112720380D02*
X85590000Y-111720380D01*
X85494761Y-111863238D01*
X85399523Y-111958476D01*
X85304285Y-112006095D01*
X136421904Y-74112380D02*
X136421904Y-73112380D01*
X136660000Y-73112380D01*
X136802857Y-73160000D01*
X136898095Y-73255238D01*
X136945714Y-73350476D01*
X136993333Y-73540952D01*
X136993333Y-73683809D01*
X136945714Y-73874285D01*
X136898095Y-73969523D01*
X136802857Y-74064761D01*
X136660000Y-74112380D01*
X136421904Y-74112380D01*
X137850476Y-73445714D02*
X137850476Y-74112380D01*
X137612380Y-73064761D02*
X137374285Y-73779047D01*
X137993333Y-73779047D01*
X114204761Y-78472932D02*
X114109523Y-78425313D01*
X114014285Y-78330074D01*
X113871428Y-78187217D01*
X113776190Y-78139598D01*
X113680952Y-78139598D01*
X113728571Y-78377693D02*
X113633333Y-78330074D01*
X113538095Y-78234836D01*
X113490476Y-78044360D01*
X113490476Y-77711027D01*
X113538095Y-77520551D01*
X113633333Y-77425313D01*
X113728571Y-77377693D01*
X113919047Y-77377693D01*
X114014285Y-77425313D01*
X114109523Y-77520551D01*
X114157142Y-77711027D01*
X114157142Y-78044360D01*
X114109523Y-78234836D01*
X114014285Y-78330074D01*
X113919047Y-78377693D01*
X113728571Y-78377693D01*
X114490476Y-77377693D02*
X115109523Y-77377693D01*
X114776190Y-77758646D01*
X114919047Y-77758646D01*
X115014285Y-77806265D01*
X115061904Y-77853884D01*
X115109523Y-77949122D01*
X115109523Y-78187217D01*
X115061904Y-78282455D01*
X115014285Y-78330074D01*
X114919047Y-78377693D01*
X114633333Y-78377693D01*
X114538095Y-78330074D01*
X114490476Y-78282455D01*
X89352380Y-106211666D02*
X88876190Y-106545000D01*
X89352380Y-106783095D02*
X88352380Y-106783095D01*
X88352380Y-106402142D01*
X88400000Y-106306904D01*
X88447619Y-106259285D01*
X88542857Y-106211666D01*
X88685714Y-106211666D01*
X88780952Y-106259285D01*
X88828571Y-106306904D01*
X88876190Y-106402142D01*
X88876190Y-106783095D01*
X88780952Y-105640238D02*
X88733333Y-105735476D01*
X88685714Y-105783095D01*
X88590476Y-105830714D01*
X88542857Y-105830714D01*
X88447619Y-105783095D01*
X88400000Y-105735476D01*
X88352380Y-105640238D01*
X88352380Y-105449761D01*
X88400000Y-105354523D01*
X88447619Y-105306904D01*
X88542857Y-105259285D01*
X88590476Y-105259285D01*
X88685714Y-105306904D01*
X88733333Y-105354523D01*
X88780952Y-105449761D01*
X88780952Y-105640238D01*
X88828571Y-105735476D01*
X88876190Y-105783095D01*
X88971428Y-105830714D01*
X89161904Y-105830714D01*
X89257142Y-105783095D01*
X89304761Y-105735476D01*
X89352380Y-105640238D01*
X89352380Y-105449761D01*
X89304761Y-105354523D01*
X89257142Y-105306904D01*
X89161904Y-105259285D01*
X88971428Y-105259285D01*
X88876190Y-105306904D01*
X88828571Y-105354523D01*
X88780952Y-105449761D01*
X136421904Y-69223772D02*
X136421904Y-68223772D01*
X136660000Y-68223772D01*
X136802857Y-68271392D01*
X136898095Y-68366630D01*
X136945714Y-68461868D01*
X136993333Y-68652344D01*
X136993333Y-68795201D01*
X136945714Y-68985677D01*
X136898095Y-69080915D01*
X136802857Y-69176153D01*
X136660000Y-69223772D01*
X136421904Y-69223772D01*
X137326666Y-68223772D02*
X137945714Y-68223772D01*
X137612380Y-68604725D01*
X137755238Y-68604725D01*
X137850476Y-68652344D01*
X137898095Y-68699963D01*
X137945714Y-68795201D01*
X137945714Y-69033296D01*
X137898095Y-69128534D01*
X137850476Y-69176153D01*
X137755238Y-69223772D01*
X137469523Y-69223772D01*
X137374285Y-69176153D01*
X137326666Y-69128534D01*
X127627142Y-72842380D02*
X127293809Y-72366190D01*
X127055714Y-72842380D02*
X127055714Y-71842380D01*
X127436666Y-71842380D01*
X127531904Y-71890000D01*
X127579523Y-71937619D01*
X127627142Y-72032857D01*
X127627142Y-72175714D01*
X127579523Y-72270952D01*
X127531904Y-72318571D01*
X127436666Y-72366190D01*
X127055714Y-72366190D01*
X128579523Y-72842380D02*
X128008095Y-72842380D01*
X128293809Y-72842380D02*
X128293809Y-71842380D01*
X128198571Y-71985238D01*
X128103333Y-72080476D01*
X128008095Y-72128095D01*
X128960476Y-71937619D02*
X129008095Y-71890000D01*
X129103333Y-71842380D01*
X129341428Y-71842380D01*
X129436666Y-71890000D01*
X129484285Y-71937619D01*
X129531904Y-72032857D01*
X129531904Y-72128095D01*
X129484285Y-72270952D01*
X128912857Y-72842380D01*
X129531904Y-72842380D01*
X94432380Y-89066666D02*
X93956190Y-89400000D01*
X94432380Y-89638095D02*
X93432380Y-89638095D01*
X93432380Y-89257142D01*
X93480000Y-89161904D01*
X93527619Y-89114285D01*
X93622857Y-89066666D01*
X93765714Y-89066666D01*
X93860952Y-89114285D01*
X93908571Y-89161904D01*
X93956190Y-89257142D01*
X93956190Y-89638095D01*
X94432380Y-88590476D02*
X94432380Y-88400000D01*
X94384761Y-88304761D01*
X94337142Y-88257142D01*
X94194285Y-88161904D01*
X94003809Y-88114285D01*
X93622857Y-88114285D01*
X93527619Y-88161904D01*
X93480000Y-88209523D01*
X93432380Y-88304761D01*
X93432380Y-88495238D01*
X93480000Y-88590476D01*
X93527619Y-88638095D01*
X93622857Y-88685714D01*
X93860952Y-88685714D01*
X93956190Y-88638095D01*
X94003809Y-88590476D01*
X94051428Y-88495238D01*
X94051428Y-88304761D01*
X94003809Y-88209523D01*
X93956190Y-88161904D01*
X93860952Y-88114285D01*
X105862380Y-89542857D02*
X105386190Y-89876190D01*
X105862380Y-90114285D02*
X104862380Y-90114285D01*
X104862380Y-89733333D01*
X104910000Y-89638095D01*
X104957619Y-89590476D01*
X105052857Y-89542857D01*
X105195714Y-89542857D01*
X105290952Y-89590476D01*
X105338571Y-89638095D01*
X105386190Y-89733333D01*
X105386190Y-90114285D01*
X105862380Y-88590476D02*
X105862380Y-89161904D01*
X105862380Y-88876190D02*
X104862380Y-88876190D01*
X105005238Y-88971428D01*
X105100476Y-89066666D01*
X105148095Y-89161904D01*
X104862380Y-88257142D02*
X104862380Y-87638095D01*
X105243333Y-87971428D01*
X105243333Y-87828571D01*
X105290952Y-87733333D01*
X105338571Y-87685714D01*
X105433809Y-87638095D01*
X105671904Y-87638095D01*
X105767142Y-87685714D01*
X105814761Y-87733333D01*
X105862380Y-87828571D01*
X105862380Y-88114285D01*
X105814761Y-88209523D01*
X105767142Y-88257142D01*
X83780380Y-103457333D02*
X84494666Y-103457333D01*
X84637523Y-103504952D01*
X84732761Y-103600190D01*
X84780380Y-103743047D01*
X84780380Y-103838285D01*
X84780380Y-102457333D02*
X84780380Y-103028761D01*
X84780380Y-102743047D02*
X83780380Y-102743047D01*
X83923238Y-102838285D01*
X84018476Y-102933523D01*
X84066095Y-103028761D01*
X113747850Y-69717624D02*
X113747850Y-70527148D01*
X113795469Y-70622386D01*
X113843088Y-70670005D01*
X113938326Y-70717624D01*
X114128802Y-70717624D01*
X114224040Y-70670005D01*
X114271659Y-70622386D01*
X114319278Y-70527148D01*
X114319278Y-69717624D01*
X114747850Y-69812863D02*
X114795469Y-69765244D01*
X114890707Y-69717624D01*
X115128802Y-69717624D01*
X115224040Y-69765244D01*
X115271659Y-69812863D01*
X115319278Y-69908101D01*
X115319278Y-70003339D01*
X115271659Y-70146196D01*
X114700231Y-70717624D01*
X115319278Y-70717624D01*
X103790761Y-77001619D02*
X103695523Y-76954000D01*
X103600285Y-76858761D01*
X103457428Y-76715904D01*
X103362190Y-76668285D01*
X103266952Y-76668285D01*
X103314571Y-76906380D02*
X103219333Y-76858761D01*
X103124095Y-76763523D01*
X103076476Y-76573047D01*
X103076476Y-76239714D01*
X103124095Y-76049238D01*
X103219333Y-75954000D01*
X103314571Y-75906380D01*
X103505047Y-75906380D01*
X103600285Y-75954000D01*
X103695523Y-76049238D01*
X103743142Y-76239714D01*
X103743142Y-76573047D01*
X103695523Y-76763523D01*
X103600285Y-76858761D01*
X103505047Y-76906380D01*
X103314571Y-76906380D01*
X104695523Y-76906380D02*
X104124095Y-76906380D01*
X104409809Y-76906380D02*
X104409809Y-75906380D01*
X104314571Y-76049238D01*
X104219333Y-76144476D01*
X104124095Y-76192095D01*
X84923333Y-77922380D02*
X84590000Y-77446190D01*
X84351904Y-77922380D02*
X84351904Y-76922380D01*
X84732857Y-76922380D01*
X84828095Y-76970000D01*
X84875714Y-77017619D01*
X84923333Y-77112857D01*
X84923333Y-77255714D01*
X84875714Y-77350952D01*
X84828095Y-77398571D01*
X84732857Y-77446190D01*
X84351904Y-77446190D01*
X85780476Y-77255714D02*
X85780476Y-77922380D01*
X85542380Y-76874761D02*
X85304285Y-77589047D01*
X85923333Y-77589047D01*
X139553333Y-108897142D02*
X139505714Y-108944761D01*
X139362857Y-108992380D01*
X139267619Y-108992380D01*
X139124761Y-108944761D01*
X139029523Y-108849523D01*
X138981904Y-108754285D01*
X138934285Y-108563809D01*
X138934285Y-108420952D01*
X138981904Y-108230476D01*
X139029523Y-108135238D01*
X139124761Y-108040000D01*
X139267619Y-107992380D01*
X139362857Y-107992380D01*
X139505714Y-108040000D01*
X139553333Y-108087619D01*
X140410476Y-108325714D02*
X140410476Y-108992380D01*
X140172380Y-107944761D02*
X139934285Y-108659047D01*
X140553333Y-108659047D01*
X95229761Y-104929798D02*
X95229761Y-105739322D01*
X95277380Y-105834560D01*
X95324999Y-105882179D01*
X95420237Y-105929798D01*
X95610713Y-105929798D01*
X95705951Y-105882179D01*
X95753570Y-105834560D01*
X95801189Y-105739322D01*
X95801189Y-104929798D01*
X96705951Y-105263132D02*
X96705951Y-105929798D01*
X96467856Y-104882179D02*
X96229761Y-105596465D01*
X96848808Y-105596465D01*
X98242380Y-89542857D02*
X97766190Y-89876190D01*
X98242380Y-90114285D02*
X97242380Y-90114285D01*
X97242380Y-89733333D01*
X97290000Y-89638095D01*
X97337619Y-89590476D01*
X97432857Y-89542857D01*
X97575714Y-89542857D01*
X97670952Y-89590476D01*
X97718571Y-89638095D01*
X97766190Y-89733333D01*
X97766190Y-90114285D01*
X98242380Y-88590476D02*
X98242380Y-89161904D01*
X98242380Y-88876190D02*
X97242380Y-88876190D01*
X97385238Y-88971428D01*
X97480476Y-89066666D01*
X97528095Y-89161904D01*
X97575714Y-87733333D02*
X98242380Y-87733333D01*
X97194761Y-87971428D02*
X97909047Y-88209523D01*
X97909047Y-87590476D01*
X80303619Y-88995238D02*
X80256000Y-89090476D01*
X80160761Y-89185714D01*
X80017904Y-89328571D01*
X79970285Y-89423809D01*
X79970285Y-89519047D01*
X80208380Y-89471428D02*
X80160761Y-89566666D01*
X80065523Y-89661904D01*
X79875047Y-89709523D01*
X79541714Y-89709523D01*
X79351238Y-89661904D01*
X79256000Y-89566666D01*
X79208380Y-89471428D01*
X79208380Y-89280952D01*
X79256000Y-89185714D01*
X79351238Y-89090476D01*
X79541714Y-89042857D01*
X79875047Y-89042857D01*
X80065523Y-89090476D01*
X80160761Y-89185714D01*
X80208380Y-89280952D01*
X80208380Y-89471428D01*
X79541714Y-88185714D02*
X80208380Y-88185714D01*
X79160761Y-88423809D02*
X79875047Y-88661904D01*
X79875047Y-88042857D01*
X123547142Y-90336666D02*
X123594761Y-90384285D01*
X123642380Y-90527142D01*
X123642380Y-90622380D01*
X123594761Y-90765238D01*
X123499523Y-90860476D01*
X123404285Y-90908095D01*
X123213809Y-90955714D01*
X123070952Y-90955714D01*
X122880476Y-90908095D01*
X122785238Y-90860476D01*
X122690000Y-90765238D01*
X122642380Y-90622380D01*
X122642380Y-90527142D01*
X122690000Y-90384285D01*
X122737619Y-90336666D01*
X122642380Y-90003333D02*
X122642380Y-89384285D01*
X123023333Y-89717619D01*
X123023333Y-89574761D01*
X123070952Y-89479523D01*
X123118571Y-89431904D01*
X123213809Y-89384285D01*
X123451904Y-89384285D01*
X123547142Y-89431904D01*
X123594761Y-89479523D01*
X123642380Y-89574761D01*
X123642380Y-89860476D01*
X123594761Y-89955714D01*
X123547142Y-90003333D01*
X90701904Y-80167380D02*
X90701904Y-79167380D01*
X90940000Y-79167380D01*
X91082857Y-79215000D01*
X91178095Y-79310238D01*
X91225714Y-79405476D01*
X91273333Y-79595952D01*
X91273333Y-79738809D01*
X91225714Y-79929285D01*
X91178095Y-80024523D01*
X91082857Y-80119761D01*
X90940000Y-80167380D01*
X90701904Y-80167380D01*
X91654285Y-79262619D02*
X91701904Y-79215000D01*
X91797142Y-79167380D01*
X92035238Y-79167380D01*
X92130476Y-79215000D01*
X92178095Y-79262619D01*
X92225714Y-79357857D01*
X92225714Y-79453095D01*
X92178095Y-79595952D01*
X91606666Y-80167380D01*
X92225714Y-80167380D01*
X114353088Y-75797624D02*
X114019755Y-75321434D01*
X113781659Y-75797624D02*
X113781659Y-74797624D01*
X114162612Y-74797624D01*
X114257850Y-74845244D01*
X114305469Y-74892863D01*
X114353088Y-74988101D01*
X114353088Y-75130958D01*
X114305469Y-75226196D01*
X114257850Y-75273815D01*
X114162612Y-75321434D01*
X113781659Y-75321434D01*
X114686421Y-74797624D02*
X115353088Y-74797624D01*
X114924516Y-75797624D01*
X101957142Y-87796666D02*
X102004761Y-87844285D01*
X102052380Y-87987142D01*
X102052380Y-88082380D01*
X102004761Y-88225238D01*
X101909523Y-88320476D01*
X101814285Y-88368095D01*
X101623809Y-88415714D01*
X101480952Y-88415714D01*
X101290476Y-88368095D01*
X101195238Y-88320476D01*
X101100000Y-88225238D01*
X101052380Y-88082380D01*
X101052380Y-87987142D01*
X101100000Y-87844285D01*
X101147619Y-87796666D01*
X101147619Y-87415714D02*
X101100000Y-87368095D01*
X101052380Y-87272857D01*
X101052380Y-87034761D01*
X101100000Y-86939523D01*
X101147619Y-86891904D01*
X101242857Y-86844285D01*
X101338095Y-86844285D01*
X101480952Y-86891904D01*
X102052380Y-87463333D01*
X102052380Y-86844285D01*
X139533333Y-96972380D02*
X139057142Y-96972380D01*
X139057142Y-95972380D01*
X140390476Y-96972380D02*
X139819047Y-96972380D01*
X140104761Y-96972380D02*
X140104761Y-95972380D01*
X140009523Y-96115238D01*
X139914285Y-96210476D01*
X139819047Y-96258095D01*
X86026666Y-94642380D02*
X86026666Y-95356666D01*
X85979047Y-95499523D01*
X85883809Y-95594761D01*
X85740952Y-95642380D01*
X85645714Y-95642380D01*
X86455238Y-94737619D02*
X86502857Y-94690000D01*
X86598095Y-94642380D01*
X86836190Y-94642380D01*
X86931428Y-94690000D01*
X86979047Y-94737619D01*
X87026666Y-94832857D01*
X87026666Y-94928095D01*
X86979047Y-95070952D01*
X86407619Y-95642380D01*
X87026666Y-95642380D01*
X90622380Y-89542857D02*
X90146190Y-89876190D01*
X90622380Y-90114285D02*
X89622380Y-90114285D01*
X89622380Y-89733333D01*
X89670000Y-89638095D01*
X89717619Y-89590476D01*
X89812857Y-89542857D01*
X89955714Y-89542857D01*
X90050952Y-89590476D01*
X90098571Y-89638095D01*
X90146190Y-89733333D01*
X90146190Y-90114285D01*
X90622380Y-88590476D02*
X90622380Y-89161904D01*
X90622380Y-88876190D02*
X89622380Y-88876190D01*
X89765238Y-88971428D01*
X89860476Y-89066666D01*
X89908095Y-89161904D01*
X90622380Y-87638095D02*
X90622380Y-88209523D01*
X90622380Y-87923809D02*
X89622380Y-87923809D01*
X89765238Y-88019047D01*
X89860476Y-88114285D01*
X89908095Y-88209523D01*
X123642380Y-81446666D02*
X123166190Y-81780000D01*
X123642380Y-82018095D02*
X122642380Y-82018095D01*
X122642380Y-81637142D01*
X122690000Y-81541904D01*
X122737619Y-81494285D01*
X122832857Y-81446666D01*
X122975714Y-81446666D01*
X123070952Y-81494285D01*
X123118571Y-81541904D01*
X123166190Y-81637142D01*
X123166190Y-82018095D01*
X122642380Y-80541904D02*
X122642380Y-81018095D01*
X123118571Y-81065714D01*
X123070952Y-81018095D01*
X123023333Y-80922857D01*
X123023333Y-80684761D01*
X123070952Y-80589523D01*
X123118571Y-80541904D01*
X123213809Y-80494285D01*
X123451904Y-80494285D01*
X123547142Y-80541904D01*
X123594761Y-80589523D01*
X123642380Y-80684761D01*
X123642380Y-80922857D01*
X123594761Y-81018095D01*
X123547142Y-81065714D01*
X101693088Y-69987386D02*
X101645469Y-70035005D01*
X101502612Y-70082624D01*
X101407374Y-70082624D01*
X101264516Y-70035005D01*
X101169278Y-69939767D01*
X101121659Y-69844529D01*
X101074040Y-69654053D01*
X101074040Y-69511196D01*
X101121659Y-69320720D01*
X101169278Y-69225482D01*
X101264516Y-69130244D01*
X101407374Y-69082624D01*
X101502612Y-69082624D01*
X101645469Y-69130244D01*
X101693088Y-69177863D01*
X102645469Y-70082624D02*
X102074040Y-70082624D01*
X102359755Y-70082624D02*
X102359755Y-69082624D01*
X102264516Y-69225482D01*
X102169278Y-69320720D01*
X102074040Y-69368339D01*
X84923333Y-81732380D02*
X84590000Y-81256190D01*
X84351904Y-81732380D02*
X84351904Y-80732380D01*
X84732857Y-80732380D01*
X84828095Y-80780000D01*
X84875714Y-80827619D01*
X84923333Y-80922857D01*
X84923333Y-81065714D01*
X84875714Y-81160952D01*
X84828095Y-81208571D01*
X84732857Y-81256190D01*
X84351904Y-81256190D01*
X85304285Y-80827619D02*
X85351904Y-80780000D01*
X85447142Y-80732380D01*
X85685238Y-80732380D01*
X85780476Y-80780000D01*
X85828095Y-80827619D01*
X85875714Y-80922857D01*
X85875714Y-81018095D01*
X85828095Y-81160952D01*
X85256666Y-81732380D01*
X85875714Y-81732380D01*
X121861897Y-71106910D02*
X121909516Y-71154529D01*
X121957135Y-71297386D01*
X121957135Y-71392624D01*
X121909516Y-71535482D01*
X121814278Y-71630720D01*
X121719040Y-71678339D01*
X121528564Y-71725958D01*
X121385707Y-71725958D01*
X121195231Y-71678339D01*
X121099993Y-71630720D01*
X121004755Y-71535482D01*
X120957135Y-71392624D01*
X120957135Y-71297386D01*
X121004755Y-71154529D01*
X121052374Y-71106910D01*
X120957135Y-70202148D02*
X120957135Y-70678339D01*
X121433326Y-70725958D01*
X121385707Y-70678339D01*
X121338088Y-70583101D01*
X121338088Y-70345005D01*
X121385707Y-70249767D01*
X121433326Y-70202148D01*
X121528564Y-70154529D01*
X121766659Y-70154529D01*
X121861897Y-70202148D01*
X121909516Y-70249767D01*
X121957135Y-70345005D01*
X121957135Y-70583101D01*
X121909516Y-70678339D01*
X121861897Y-70725958D01*
D11*
X102300000Y-92710000D02*
G75*
G03*
X102300000Y-92710000I-700000J0D01*
G01*
X118010000Y-92170000D02*
X118010000Y-85630000D01*
X118010000Y-85630000D02*
X118340000Y-85630000D01*
X120750000Y-92170000D02*
X120750000Y-85630000D01*
X120420000Y-92170000D02*
X120750000Y-92170000D01*
X120750000Y-85630000D02*
X120420000Y-85630000D01*
X118340000Y-92170000D02*
X118010000Y-92170000D01*
X108609755Y-82955244D02*
X98839755Y-82955244D01*
X108609755Y-77885244D02*
X98839755Y-77885244D01*
X108609755Y-82955244D02*
X108609755Y-77885244D01*
X98839755Y-82955244D02*
X98839755Y-77885244D01*
X82430000Y-69795000D02*
X82430000Y-74995000D01*
X86080000Y-74995000D02*
X87730000Y-74995000D01*
X87730000Y-69795000D02*
X82430000Y-69795000D01*
X82430000Y-74995000D02*
X84080000Y-74995000D01*
X87730000Y-74995000D02*
X87730000Y-69795000D01*
X84080000Y-74995000D02*
G75*
G02*
X86080000Y-74995000I1000000J0D01*
G01*
X144060000Y-92400000D02*
X144060000Y-91400000D01*
X144680000Y-77780000D02*
X144680000Y-92400000D01*
X132590000Y-91400000D02*
X130410000Y-91400000D01*
X132590000Y-78780000D02*
X130410000Y-78780000D01*
X144680000Y-92400000D02*
X144060000Y-92400000D01*
X144060000Y-78780000D02*
X144060000Y-77780000D01*
X127560000Y-90280000D02*
X127560000Y-79900000D01*
X136090000Y-78780000D02*
X144060000Y-78780000D01*
X144060000Y-91400000D02*
X136090000Y-91400000D01*
X127410000Y-88190000D02*
X127410000Y-88990000D01*
X144060000Y-77780000D02*
X144680000Y-77780000D01*
X125000000Y-67845000D02*
X131540000Y-67845000D01*
X125000000Y-70255000D02*
X125000000Y-70585000D01*
X125000000Y-68175000D02*
X125000000Y-67845000D01*
X131540000Y-70585000D02*
X131540000Y-70255000D01*
X125000000Y-70585000D02*
X131540000Y-70585000D01*
X131540000Y-67845000D02*
X131540000Y-68175000D01*
X106164755Y-76075244D02*
X106164755Y-69535244D01*
X106494755Y-76075244D02*
X106164755Y-76075244D01*
X106164755Y-69535244D02*
X106494755Y-69535244D01*
X108574755Y-76075244D02*
X108904755Y-76075244D01*
X108904755Y-76075244D02*
X108904755Y-69535244D01*
X108904755Y-69535244D02*
X108574755Y-69535244D01*
X87730000Y-92170000D02*
X87730000Y-85630000D01*
X87730000Y-85630000D02*
X87400000Y-85630000D01*
X84990000Y-92170000D02*
X84990000Y-85630000D01*
X85320000Y-92170000D02*
X84990000Y-92170000D01*
X87400000Y-92170000D02*
X87730000Y-92170000D01*
X84990000Y-85630000D02*
X85320000Y-85630000D01*
X120814755Y-82225244D02*
X120814755Y-78625244D01*
X120792439Y-78616799D02*
G75*
G03*
X116514755Y-79645244I-1827684J-1808445D01*
G01*
X120806496Y-82237119D02*
G75*
G02*
X116514755Y-81245244I-1841741J1811875D01*
G01*
X91510000Y-75465000D02*
X96450000Y-75465000D01*
X91510000Y-78205000D02*
X96450000Y-78205000D01*
X91510000Y-77890000D02*
X91510000Y-78205000D01*
X96450000Y-77890000D02*
X96450000Y-78205000D01*
X96450000Y-75465000D02*
X96450000Y-75780000D01*
X91510000Y-75465000D02*
X91510000Y-75780000D01*
X109755000Y-83770000D02*
X109755000Y-94050000D01*
X109755000Y-94050000D02*
X115055000Y-94050000D01*
X115055000Y-94050000D02*
X115055000Y-83770000D01*
X115055000Y-83770000D02*
X113405000Y-83770000D01*
X111405000Y-83770000D02*
X109755000Y-83770000D01*
X113405000Y-83770000D02*
G75*
G02*
X111405000Y-83770000I-1000000J0D01*
G01*
X87029000Y-115230000D02*
X87185000Y-115230000D01*
X89345000Y-115230000D02*
X89501000Y-115230000D01*
X87186392Y-111997665D02*
G75*
G03*
X87029484Y-115230000I1078608J-1672335D01*
G01*
X89343608Y-111997665D02*
G75*
G02*
X89500516Y-115230000I-1078608J-1672335D01*
G01*
X87185163Y-112628870D02*
G75*
G03*
X87185000Y-114710961I1079837J-1041130D01*
G01*
X89344837Y-112628870D02*
G75*
G02*
X89345000Y-114710961I-1079837J-1041130D01*
G01*
X142530000Y-73850000D02*
X142530000Y-73694000D01*
X142530000Y-76166000D02*
X142530000Y-76010000D01*
X139928870Y-73850163D02*
G75*
G02*
X142010961Y-73850000I1041130J-1079837D01*
G01*
X139928870Y-76009837D02*
G75*
G03*
X142010961Y-76010000I1041130J1079837D01*
G01*
X139297665Y-76008608D02*
G75*
G03*
X142530000Y-76165516I1672335J1078608D01*
G01*
X139297665Y-73851392D02*
G75*
G02*
X142530000Y-73694484I1672335J-1078608D01*
G01*
X110129755Y-78625244D02*
X110129755Y-82225244D01*
X110138014Y-78613369D02*
G75*
G02*
X114429755Y-79605244I1841741J-1811875D01*
G01*
X110152071Y-82233689D02*
G75*
G03*
X114429755Y-81205244I1827684J1808445D01*
G01*
X90270000Y-102775000D02*
X90270000Y-109315000D01*
X90270000Y-109315000D02*
X89940000Y-109315000D01*
X87530000Y-109315000D02*
X87860000Y-109315000D01*
X89940000Y-102775000D02*
X90270000Y-102775000D01*
X87860000Y-102775000D02*
X87530000Y-102775000D01*
X87530000Y-102775000D02*
X87530000Y-109315000D01*
X142530000Y-68770000D02*
X142530000Y-68614000D01*
X142530000Y-71086000D02*
X142530000Y-70930000D01*
X139928870Y-68770163D02*
G75*
G02*
X142010961Y-68770000I1041130J-1079837D01*
G01*
X139928870Y-70929837D02*
G75*
G03*
X142010961Y-70930000I1041130J1079837D01*
G01*
X139297665Y-70928608D02*
G75*
G03*
X142530000Y-71085516I1672335J1078608D01*
G01*
X139297665Y-68771392D02*
G75*
G02*
X142530000Y-68614484I1672335J-1078608D01*
G01*
X125000000Y-73430000D02*
X125000000Y-73760000D01*
X131540000Y-71020000D02*
X131540000Y-71350000D01*
X125000000Y-71350000D02*
X125000000Y-71020000D01*
X125000000Y-71020000D02*
X131540000Y-71020000D01*
X131540000Y-73760000D02*
X131540000Y-73430000D01*
X125000000Y-73760000D02*
X131540000Y-73760000D01*
X95350000Y-85630000D02*
X95020000Y-85630000D01*
X95020000Y-92170000D02*
X95350000Y-92170000D01*
X95350000Y-92170000D02*
X95350000Y-85630000D01*
X92610000Y-85630000D02*
X92940000Y-85630000D01*
X92940000Y-92170000D02*
X92610000Y-92170000D01*
X92610000Y-92170000D02*
X92610000Y-85630000D01*
X106450000Y-92170000D02*
X106780000Y-92170000D01*
X104040000Y-92170000D02*
X104040000Y-85630000D01*
X106780000Y-92170000D02*
X106780000Y-85630000D01*
X104040000Y-85630000D02*
X104370000Y-85630000D01*
X106780000Y-85630000D02*
X106450000Y-85630000D01*
X104370000Y-92170000D02*
X104040000Y-92170000D01*
X80850000Y-99930000D02*
X80100000Y-99930000D01*
X80100000Y-96630000D02*
X80100000Y-98430000D01*
X85300000Y-97380000D02*
X85300000Y-102930000D01*
X82350000Y-97380000D02*
X85300000Y-97380000D01*
X80100000Y-109230000D02*
X80850000Y-109230000D01*
X82350000Y-109230000D02*
X82350000Y-108480000D01*
X80850000Y-96630000D02*
X80100000Y-96630000D01*
X80850000Y-105930000D02*
X80850000Y-99930000D01*
X80850000Y-109230000D02*
X80850000Y-107430000D01*
X80100000Y-98430000D02*
X80850000Y-98430000D01*
X79800000Y-109530000D02*
X81050000Y-109530000D01*
X86060000Y-109240000D02*
X86060000Y-96620000D01*
X80850000Y-107430000D02*
X80100000Y-107430000D01*
X79800000Y-108280000D02*
X79800000Y-109530000D01*
X80090000Y-109240000D02*
X86060000Y-109240000D01*
X80100000Y-99930000D02*
X80100000Y-105930000D01*
X80850000Y-98430000D02*
X80850000Y-96630000D01*
X86060000Y-96620000D02*
X80090000Y-96620000D01*
X80100000Y-107430000D02*
X80100000Y-109230000D01*
X82350000Y-108480000D02*
X85300000Y-108480000D01*
X82350000Y-96630000D02*
X82350000Y-97380000D01*
X80090000Y-96620000D02*
X80090000Y-109240000D01*
X85300000Y-108480000D02*
X85300000Y-102930000D01*
X80100000Y-105930000D02*
X80850000Y-105930000D01*
X117159755Y-67670244D02*
X111859755Y-67670244D01*
X115509755Y-72870244D02*
X117159755Y-72870244D01*
X111859755Y-72870244D02*
X113509755Y-72870244D01*
X117159755Y-72870244D02*
X117159755Y-67670244D01*
X111859755Y-67670244D02*
X111859755Y-72870244D01*
X113509755Y-72870244D02*
G75*
G02*
X115509755Y-72870244I1000000J0D01*
G01*
X102984755Y-72225244D02*
X99384755Y-72225244D01*
X102996630Y-72233503D02*
G75*
G02*
X102004755Y-76525244I-1811875J-1841741D01*
G01*
X99376310Y-72247560D02*
G75*
G03*
X100404755Y-76525244I1808445J-1827684D01*
G01*
X88360000Y-78840000D02*
X88360000Y-78510000D01*
X81820000Y-76430000D02*
X81820000Y-76100000D01*
X81820000Y-76100000D02*
X88360000Y-76100000D01*
X81820000Y-78510000D02*
X81820000Y-78840000D01*
X88360000Y-76100000D02*
X88360000Y-76430000D01*
X81820000Y-78840000D02*
X88360000Y-78840000D01*
X139360000Y-107351000D02*
X139360000Y-105180000D01*
X138959000Y-107281000D02*
X138959000Y-105180000D01*
X138319000Y-107056000D02*
X138319000Y-105180000D01*
X138679000Y-107201000D02*
X138679000Y-105180000D01*
X138279000Y-107036000D02*
X138279000Y-105180000D01*
X137439000Y-106445000D02*
X137439000Y-105180000D01*
X142905241Y-106294000D02*
X142905241Y-105664000D01*
X139640000Y-107370000D02*
X139640000Y-100910000D01*
X139360000Y-103100000D02*
X139360000Y-100929000D01*
X138919000Y-107271000D02*
X138919000Y-105180000D01*
X137279000Y-106277000D02*
X137279000Y-102003000D01*
X139480000Y-107362000D02*
X139480000Y-105180000D01*
X137399000Y-106405000D02*
X137399000Y-101875000D01*
X138519000Y-107142000D02*
X138519000Y-105180000D01*
X137999000Y-103100000D02*
X137999000Y-101398000D01*
X139440000Y-107358000D02*
X139440000Y-105180000D01*
X138599000Y-107173000D02*
X138599000Y-105180000D01*
X139320000Y-107346000D02*
X139320000Y-105180000D01*
X136919000Y-105790000D02*
X136919000Y-102490000D01*
X137559000Y-103100000D02*
X137559000Y-101724000D01*
X137639000Y-103100000D02*
X137639000Y-101656000D01*
X136959000Y-105854000D02*
X136959000Y-102426000D01*
X138639000Y-107187000D02*
X138639000Y-105180000D01*
X138959000Y-103100000D02*
X138959000Y-100999000D01*
X136799000Y-105572000D02*
X136799000Y-102708000D01*
X136479000Y-104542000D02*
X136479000Y-103738000D01*
X139720000Y-107370000D02*
X139720000Y-100910000D01*
X136879000Y-105721000D02*
X136879000Y-102559000D01*
X137919000Y-106830000D02*
X137919000Y-105180000D01*
X136719000Y-105402000D02*
X136719000Y-102878000D01*
X138159000Y-106974000D02*
X138159000Y-105180000D01*
X137039000Y-105974000D02*
X137039000Y-102306000D01*
X138359000Y-103100000D02*
X138359000Y-101206000D01*
X138919000Y-103100000D02*
X138919000Y-101009000D01*
X137119000Y-106084000D02*
X137119000Y-102196000D01*
X139200000Y-103100000D02*
X139200000Y-100951000D01*
X137719000Y-103100000D02*
X137719000Y-101592000D01*
X139040000Y-107299000D02*
X139040000Y-105180000D01*
X138759000Y-103100000D02*
X138759000Y-101054000D01*
X137799000Y-103100000D02*
X137799000Y-101533000D01*
X138079000Y-106930000D02*
X138079000Y-105180000D01*
X138679000Y-103100000D02*
X138679000Y-101079000D01*
X136559000Y-104942000D02*
X136559000Y-103338000D01*
X139160000Y-107322000D02*
X139160000Y-105180000D01*
X138119000Y-103100000D02*
X138119000Y-101328000D01*
X139600000Y-107368000D02*
X139600000Y-100912000D01*
X138639000Y-103100000D02*
X138639000Y-101093000D01*
X138079000Y-103100000D02*
X138079000Y-101350000D01*
X139280000Y-103100000D02*
X139280000Y-100939000D01*
X138719000Y-103100000D02*
X138719000Y-101066000D01*
X139120000Y-103100000D02*
X139120000Y-100965000D01*
X137159000Y-106135000D02*
X137159000Y-102145000D01*
X138479000Y-103100000D02*
X138479000Y-101154000D01*
X139240000Y-103100000D02*
X139240000Y-100945000D01*
X137959000Y-103100000D02*
X137959000Y-101424000D01*
X139280000Y-107341000D02*
X139280000Y-105180000D01*
X138359000Y-107074000D02*
X138359000Y-105180000D01*
X139120000Y-107315000D02*
X139120000Y-105180000D01*
X138239000Y-107016000D02*
X138239000Y-105180000D01*
X139200000Y-107329000D02*
X139200000Y-105180000D01*
X139240000Y-107335000D02*
X139240000Y-105180000D01*
X138879000Y-107261000D02*
X138879000Y-105180000D01*
X136599000Y-105080000D02*
X136599000Y-103200000D01*
X137919000Y-103100000D02*
X137919000Y-101450000D01*
X137599000Y-103100000D02*
X137599000Y-101690000D01*
X137319000Y-106322000D02*
X137319000Y-101958000D01*
X137759000Y-106718000D02*
X137759000Y-105180000D01*
X139480000Y-103100000D02*
X139480000Y-100918000D01*
X136519000Y-104773000D02*
X136519000Y-103507000D01*
X137799000Y-106747000D02*
X137799000Y-105180000D01*
X138319000Y-103100000D02*
X138319000Y-101224000D01*
X138119000Y-106952000D02*
X138119000Y-105180000D01*
X138399000Y-103100000D02*
X138399000Y-101188000D01*
X139400000Y-103100000D02*
X139400000Y-100925000D01*
X138199000Y-103100000D02*
X138199000Y-101284000D01*
X139440000Y-103100000D02*
X139440000Y-100922000D01*
X138879000Y-103100000D02*
X138879000Y-101019000D01*
X138239000Y-103100000D02*
X138239000Y-101264000D01*
X136999000Y-105916000D02*
X136999000Y-102364000D01*
X138599000Y-103100000D02*
X138599000Y-101107000D01*
X138799000Y-103100000D02*
X138799000Y-101042000D01*
X139080000Y-107307000D02*
X139080000Y-105180000D01*
X136639000Y-105199000D02*
X136639000Y-103081000D01*
X137679000Y-103100000D02*
X137679000Y-101624000D01*
X136759000Y-105490000D02*
X136759000Y-102790000D01*
X137639000Y-106624000D02*
X137639000Y-105180000D01*
X137999000Y-106882000D02*
X137999000Y-105180000D01*
X137199000Y-106184000D02*
X137199000Y-102096000D01*
X139040000Y-103100000D02*
X139040000Y-100981000D01*
X139560000Y-107367000D02*
X139560000Y-100913000D01*
X138159000Y-103100000D02*
X138159000Y-101306000D01*
X139160000Y-103100000D02*
X139160000Y-100958000D01*
X138799000Y-107238000D02*
X138799000Y-105180000D01*
X137839000Y-106776000D02*
X137839000Y-105180000D01*
X137479000Y-106483000D02*
X137479000Y-105180000D01*
X138199000Y-106996000D02*
X138199000Y-105180000D01*
X136679000Y-105305000D02*
X136679000Y-102975000D01*
X139320000Y-103100000D02*
X139320000Y-100934000D01*
X139680000Y-107370000D02*
X139680000Y-100910000D01*
X139400000Y-107355000D02*
X139400000Y-105180000D01*
X138439000Y-107110000D02*
X138439000Y-105180000D01*
X138839000Y-107250000D02*
X138839000Y-105180000D01*
X138999000Y-107290000D02*
X138999000Y-105180000D01*
X137519000Y-106520000D02*
X137519000Y-105180000D01*
X137479000Y-103100000D02*
X137479000Y-101797000D01*
X137839000Y-103100000D02*
X137839000Y-101504000D01*
X136839000Y-105649000D02*
X136839000Y-102631000D01*
X138039000Y-106906000D02*
X138039000Y-105180000D01*
X137679000Y-106656000D02*
X137679000Y-105180000D01*
X138039000Y-103100000D02*
X138039000Y-101374000D01*
X137759000Y-103100000D02*
X137759000Y-101562000D01*
X137559000Y-106556000D02*
X137559000Y-105180000D01*
X139080000Y-103100000D02*
X139080000Y-100973000D01*
X138559000Y-103100000D02*
X138559000Y-101122000D01*
X138279000Y-103100000D02*
X138279000Y-101244000D01*
X138759000Y-107226000D02*
X138759000Y-105180000D01*
X137439000Y-103100000D02*
X137439000Y-101835000D01*
X137879000Y-106804000D02*
X137879000Y-105180000D01*
X138719000Y-107214000D02*
X138719000Y-105180000D01*
X137719000Y-106688000D02*
X137719000Y-105180000D01*
X138479000Y-107126000D02*
X138479000Y-105180000D01*
X139520000Y-107364000D02*
X139520000Y-100916000D01*
X137959000Y-106856000D02*
X137959000Y-105180000D01*
X137239000Y-106232000D02*
X137239000Y-102048000D01*
X138519000Y-103100000D02*
X138519000Y-101138000D01*
X137599000Y-106590000D02*
X137599000Y-105180000D01*
X137359000Y-106364000D02*
X137359000Y-101916000D01*
X138999000Y-103100000D02*
X138999000Y-100990000D01*
X138399000Y-107092000D02*
X138399000Y-105180000D01*
X138439000Y-103100000D02*
X138439000Y-101170000D01*
X138839000Y-103100000D02*
X138839000Y-101030000D01*
X137879000Y-103100000D02*
X137879000Y-101476000D01*
X143220241Y-105979000D02*
X142590241Y-105979000D01*
X137079000Y-106030000D02*
X137079000Y-102250000D01*
X137519000Y-103100000D02*
X137519000Y-101760000D01*
X138559000Y-107158000D02*
X138559000Y-105180000D01*
X142990000Y-104140000D02*
G75*
G03*
X142990000Y-104140000I-3270000J0D01*
G01*
X102095233Y-96157610D02*
X103745233Y-95866671D01*
X102094233Y-97524149D02*
X102094233Y-97685687D01*
X107076636Y-113078217D02*
X107076636Y-114828217D01*
X129993681Y-96220296D02*
X130793681Y-96220296D01*
X112255233Y-105509106D02*
X112255233Y-96157610D01*
X102826636Y-114828217D02*
X102376636Y-114828217D01*
X117705553Y-97002294D02*
X119784014Y-97002294D01*
X106526636Y-115203217D02*
X102926636Y-115203217D01*
X104195233Y-110216670D02*
X104195233Y-105586670D01*
X106627636Y-113314696D02*
X106627636Y-113220144D01*
X117693594Y-96527294D02*
X117705553Y-96502295D01*
X125012397Y-102605796D02*
X115312397Y-102605796D01*
X103745233Y-95866671D02*
X110605233Y-95866671D01*
X102826636Y-115103217D02*
X102826636Y-112803217D01*
X116694783Y-95152295D02*
X126594783Y-95152295D01*
X132405000Y-115880000D02*
X132405000Y-112720000D01*
X135540000Y-94685000D02*
X91790000Y-94685000D01*
X105895233Y-110216670D02*
X105895233Y-105586670D01*
X105055233Y-110216670D02*
X105895233Y-110216670D01*
X94925000Y-97790000D02*
X94925000Y-98100000D01*
X130793681Y-95900296D02*
X129993681Y-95900296D01*
X130793681Y-95900296D02*
X130793681Y-97500295D01*
X91795000Y-98095000D02*
X94925000Y-98100000D01*
X91795000Y-112720000D02*
X94925000Y-112720000D01*
X107595233Y-110216670D02*
X107595233Y-105586670D01*
X91795000Y-94940000D02*
X93095000Y-94940000D01*
X117693594Y-96527294D02*
X117700764Y-96496075D01*
X113812397Y-104105796D02*
X113812397Y-113805796D01*
X109295233Y-110216670D02*
X109295233Y-105586670D01*
X130793681Y-97180295D02*
X129993681Y-97180295D01*
X107076636Y-114828217D02*
X106626636Y-114828217D01*
X117693594Y-96527294D02*
X117669147Y-96522062D01*
X102095233Y-105509106D02*
X102095233Y-96157610D01*
X126512397Y-113805796D02*
X126512397Y-104105796D01*
X132405000Y-98100000D02*
X135565000Y-98100000D01*
X112177670Y-105586670D02*
X112255233Y-105509106D01*
X105756358Y-112803217D02*
X105756358Y-115103217D01*
X132405000Y-115880000D02*
X135520000Y-115880000D01*
X91795000Y-115880000D02*
X94925000Y-115880000D01*
X116644783Y-100102294D02*
X116644783Y-95202295D01*
X103355233Y-110216670D02*
X103355233Y-105586670D01*
X105055233Y-110216670D02*
X105055233Y-105586670D01*
X102376636Y-113078217D02*
X102826636Y-113078217D01*
X106626636Y-112803217D02*
X106626636Y-115103217D01*
X110995233Y-110216670D02*
X110995233Y-105586670D01*
X126594783Y-100152294D02*
X116694783Y-100152294D01*
X125287312Y-95151295D02*
X125253357Y-95151295D01*
X102376636Y-114828217D02*
X102376636Y-113078217D01*
X106755233Y-110216670D02*
X107595233Y-110216670D01*
X102926636Y-112703217D02*
X106526636Y-112703217D01*
X115312397Y-115305796D02*
X125012397Y-115305796D01*
X102095233Y-105509106D02*
X102172797Y-105586670D01*
X106755233Y-110216670D02*
X106755233Y-105586670D01*
X91790000Y-116135000D02*
X135540000Y-116135000D01*
X110605233Y-95866671D02*
X112255233Y-96157610D01*
X91790000Y-94685000D02*
X91790000Y-116135000D01*
X103355233Y-110216670D02*
X104195233Y-110216670D01*
X108455233Y-110216670D02*
X109295233Y-110216670D01*
X126644783Y-95202295D02*
X126644783Y-100102294D01*
X94925000Y-112720000D02*
X94925000Y-115880000D01*
X110155233Y-110216670D02*
X110155233Y-105586670D01*
X132405000Y-112720000D02*
X135520000Y-112720000D01*
X130793681Y-97500295D02*
X129993681Y-97500295D01*
X117681385Y-96470900D02*
X117705553Y-96502295D01*
X110155233Y-110216670D02*
X110995233Y-110216670D01*
X135540000Y-116135000D02*
X135540000Y-94685000D01*
X108455233Y-110216670D02*
X108455233Y-105586670D01*
X129993681Y-97500295D02*
X129993681Y-95900296D01*
X112255233Y-96946670D02*
X102095233Y-96946670D01*
X119784014Y-96502295D02*
X117705553Y-96502295D01*
X132405000Y-98100000D02*
X132405000Y-94940000D01*
X132405000Y-94940000D02*
X135520000Y-94940000D01*
X106626636Y-113078217D02*
X107076636Y-113078217D01*
X102172797Y-105586670D02*
X112177670Y-105586670D01*
X125203978Y-95151295D02*
X125159106Y-95151295D01*
X125164577Y-106120184D02*
G75*
G02*
X125198662Y-105986011I86994J49316D01*
G01*
X117192611Y-113992062D02*
G75*
G02*
X117326783Y-113957976I84857J-52908D01*
G01*
X125198663Y-111925582D02*
G75*
G02*
X125164576Y-111791410I52908J84857D01*
G01*
X126594783Y-95152295D02*
G75*
G02*
X126644783Y-95202295I0J-50000D01*
G01*
X123132183Y-103919531D02*
G75*
G02*
X122998011Y-103953617I-84857J52908D01*
G01*
X102826636Y-112803217D02*
G75*
G02*
X102926636Y-112703217I100000J0D01*
G01*
X123132183Y-103919531D02*
G75*
G02*
X125198662Y-105986011I1272855J-793625D01*
G01*
X102926636Y-115203217D02*
G75*
G02*
X102826636Y-115103217I0J100000D01*
G01*
X116694783Y-100152294D02*
G75*
G02*
X116644783Y-100102294I0J50000D01*
G01*
X106626636Y-115103217D02*
G75*
G02*
X106526636Y-115203217I-100000J0D01*
G01*
X126512397Y-113805796D02*
G75*
G02*
X125012397Y-115305796I-1500000J0D01*
G01*
X116644783Y-95202295D02*
G75*
G02*
X116694783Y-95152295I50000J0D01*
G01*
X115126132Y-105986011D02*
G75*
G02*
X117192611Y-103919531I793624J1272855D01*
G01*
X115312397Y-115305796D02*
G75*
G02*
X113812397Y-113805796I0J1500000D01*
G01*
X126644783Y-100102294D02*
G75*
G02*
X126594783Y-100152294I-50000J0D01*
G01*
X106526636Y-112703217D02*
G75*
G02*
X106626636Y-112803217I0J-100000D01*
G01*
X125198662Y-111925582D02*
G75*
G02*
X123132183Y-113992062I-793624J-1272855D01*
G01*
X117669147Y-96982527D02*
G75*
G02*
X117681385Y-97033690I1075636J230233D01*
G01*
X115160217Y-111791409D02*
G75*
G02*
X115126132Y-111925582I-86994J-49316D01*
G01*
X117326783Y-103953618D02*
G75*
G02*
X117192611Y-103919531I-49315J86995D01*
G01*
X122998011Y-113957976D02*
G75*
G02*
X117326783Y-113957976I-2835614J5002180D01*
G01*
X125164576Y-106120183D02*
G75*
G02*
X125164576Y-111791410I-5002179J-2835613D01*
G01*
X115126131Y-105986011D02*
G75*
G02*
X115160218Y-106120183I-52908J-84857D01*
G01*
X113812397Y-104105796D02*
G75*
G02*
X115312397Y-102605796I1500000J0D01*
G01*
X125012397Y-102605796D02*
G75*
G02*
X126512397Y-104105796I0J-1500000D01*
G01*
X117192611Y-113992062D02*
G75*
G02*
X115126132Y-111925582I-1272855J793625D01*
G01*
X117326784Y-103953617D02*
G75*
G02*
X122998011Y-103953617I2835613J-5002179D01*
G01*
X122998011Y-113957975D02*
G75*
G02*
X123132183Y-113992062I49315J-86995D01*
G01*
X115160218Y-111791410D02*
G75*
G02*
X115160218Y-106120183I5002179J2835614D01*
G01*
X125412397Y-108955796D02*
G75*
G03*
X125412397Y-108955796I-5250000J0D01*
G01*
X100023999Y-97155000D02*
G75*
G03*
X100023999Y-97155000I-1598999J0D01*
G01*
X130504000Y-113665000D02*
G75*
G03*
X130504000Y-113665000I-1599000J0D01*
G01*
X99991666Y-105477418D02*
G75*
G03*
X99991666Y-105477418I-4000000J0D01*
G01*
X135374307Y-105975206D02*
G75*
G03*
X135374307Y-105975206I-4000000J0D01*
G01*
X103393179Y-104674594D02*
G75*
G03*
X103393179Y-104674594I-375000J0D01*
G01*
X96420000Y-85630000D02*
X96420000Y-92170000D01*
X98830000Y-85630000D02*
X99160000Y-85630000D01*
X99160000Y-92170000D02*
X98830000Y-92170000D01*
X99160000Y-85630000D02*
X99160000Y-92170000D01*
X96750000Y-85630000D02*
X96420000Y-85630000D01*
X96420000Y-92170000D02*
X96750000Y-92170000D01*
X80465000Y-94020000D02*
X80465000Y-83780000D01*
X83596000Y-94020000D02*
X83596000Y-83780000D01*
X78955000Y-90750000D02*
X80465000Y-90750000D01*
X78955000Y-87049000D02*
X80465000Y-87049000D01*
X78955000Y-94020000D02*
X83596000Y-94020000D01*
X78955000Y-94020000D02*
X78955000Y-83780000D01*
X78955000Y-83780000D02*
X83596000Y-83780000D01*
X122135000Y-92640000D02*
X121820000Y-92640000D01*
X122135000Y-87700000D02*
X121820000Y-87700000D01*
X121820000Y-87700000D02*
X121820000Y-92640000D01*
X124560000Y-92640000D02*
X124245000Y-92640000D01*
X124560000Y-87700000D02*
X124245000Y-87700000D01*
X124560000Y-87700000D02*
X124560000Y-92640000D01*
X96486000Y-79715000D02*
X96330000Y-79715000D01*
X94170000Y-79715000D02*
X94014000Y-79715000D01*
X96328608Y-82947335D02*
G75*
G03*
X96485516Y-79715000I-1078608J1672335D01*
G01*
X94170163Y-82316130D02*
G75*
G02*
X94170000Y-80234039I1079837J1041130D01*
G01*
X94171392Y-82947335D02*
G75*
G02*
X94014484Y-79715000I1078608J1672335D01*
G01*
X96329837Y-82316130D02*
G75*
G03*
X96330000Y-80234039I-1079837J1041130D01*
G01*
X117789755Y-73975244D02*
X111249755Y-73975244D01*
X111249755Y-73975244D02*
X111249755Y-74305244D01*
X117789755Y-74305244D02*
X117789755Y-73975244D01*
X117789755Y-76385244D02*
X117789755Y-76715244D01*
X111249755Y-76715244D02*
X111249755Y-76385244D01*
X117789755Y-76715244D02*
X111249755Y-76715244D01*
X103321000Y-90300000D02*
X103321000Y-84960000D01*
X99879000Y-84960000D02*
X100545000Y-84960000D01*
X99879000Y-90300000D02*
X100545000Y-90300000D01*
X99879000Y-90300000D02*
X99879000Y-84960000D01*
X102655000Y-84960000D02*
X103321000Y-84960000D01*
X102655000Y-90300000D02*
X103321000Y-90300000D01*
X142554260Y-97780000D02*
G75*
G02*
X136845740Y-97780000I-2854260J1260000D01*
G01*
X142554260Y-95260000D02*
G75*
G03*
X136845740Y-95260000I-2854260J-1260000D01*
G01*
X87570000Y-100390000D02*
X90230000Y-100390000D01*
X87570000Y-97790000D02*
X87570000Y-100390000D01*
X87570000Y-97790000D02*
X90230000Y-97790000D01*
X87570000Y-96520000D02*
X87570000Y-95190000D01*
X87570000Y-95190000D02*
X88900000Y-95190000D01*
X90230000Y-97790000D02*
X90230000Y-100390000D01*
X91540000Y-92170000D02*
X91540000Y-85630000D01*
X88800000Y-85630000D02*
X89130000Y-85630000D01*
X91540000Y-85630000D02*
X91210000Y-85630000D01*
X88800000Y-92170000D02*
X88800000Y-85630000D01*
X89130000Y-92170000D02*
X88800000Y-92170000D01*
X91210000Y-92170000D02*
X91540000Y-92170000D01*
X122150000Y-84550000D02*
X121820000Y-84550000D01*
X121820000Y-78010000D02*
X122150000Y-78010000D01*
X124230000Y-84550000D02*
X124560000Y-84550000D01*
X121820000Y-84550000D02*
X121820000Y-78010000D01*
X124560000Y-84550000D02*
X124560000Y-78010000D01*
X124560000Y-78010000D02*
X124230000Y-78010000D01*
X104329755Y-71000244D02*
X104329755Y-70685244D01*
X104329755Y-68575244D02*
X104329755Y-68260244D01*
X99389755Y-68575244D02*
X99389755Y-68260244D01*
X104329755Y-68260244D02*
X99389755Y-68260244D01*
X99389755Y-71000244D02*
X99389755Y-70685244D01*
X104329755Y-71000244D02*
X99389755Y-71000244D01*
X88360000Y-82650000D02*
X88360000Y-82320000D01*
X81820000Y-82650000D02*
X88360000Y-82650000D01*
X88360000Y-79910000D02*
X88360000Y-80240000D01*
X81820000Y-80240000D02*
X81820000Y-79910000D01*
X81820000Y-82320000D02*
X81820000Y-82650000D01*
X81820000Y-79910000D02*
X88360000Y-79910000D01*
X122874755Y-73410244D02*
X122874755Y-68470244D01*
X122559755Y-68470244D02*
X122874755Y-68470244D01*
X120134755Y-73410244D02*
X120134755Y-68470244D01*
X120134755Y-73410244D02*
X120449755Y-73410244D01*
X120134755Y-68470244D02*
X120449755Y-68470244D01*
X122559755Y-73410244D02*
X122874755Y-73410244D01*
%LPC*%
D12*
X82040000Y-64310000D03*
X140040000Y-64330000D03*
X82040000Y-113320000D03*
X140030000Y-113310000D03*
D13*
X101600000Y-92710000D03*
D14*
X119380000Y-92710000D03*
D15*
X119380000Y-85090000D03*
D16*
X101184755Y-80425244D03*
X103724755Y-80425244D03*
X106264755Y-80425244D03*
D17*
X88890000Y-73665000D03*
D15*
X88890000Y-71125000D03*
X81270000Y-71125000D03*
X81270000Y-73665000D03*
D18*
X129010000Y-88590000D03*
D19*
X129010000Y-86090000D03*
X129010000Y-84090000D03*
X129010000Y-81590000D03*
X131630000Y-88590000D03*
X131630000Y-86090000D03*
X131630000Y-84090000D03*
X131630000Y-81590000D03*
D12*
X128660000Y-78520000D03*
X134340000Y-78520000D03*
X128660000Y-91660000D03*
X134340000Y-91660000D03*
D14*
X124460000Y-69215000D03*
D15*
X132080000Y-69215000D03*
D14*
X107534755Y-76615244D03*
D15*
X107534755Y-68995244D03*
D14*
X86360000Y-92710000D03*
D15*
X86360000Y-85090000D03*
D20*
X119364755Y-81695244D03*
D21*
X117294755Y-80425244D03*
X119364755Y-79155244D03*
D14*
X91480000Y-76835000D03*
X96480000Y-76835000D03*
D17*
X108595000Y-85100000D03*
D15*
X108595000Y-87640000D03*
X108595000Y-90180000D03*
X108595000Y-92720000D03*
X116215000Y-92720000D03*
X116215000Y-90180000D03*
X116215000Y-87640000D03*
X116215000Y-85100000D03*
D22*
X88265000Y-114940000D03*
D23*
X88265000Y-112400000D03*
D22*
X142240000Y-74930000D03*
D23*
X139700000Y-74930000D03*
D20*
X111579755Y-79155244D03*
D24*
X113649755Y-80425244D03*
X111579755Y-81695244D03*
D14*
X88900000Y-102235000D03*
D15*
X88900000Y-109855000D03*
D22*
X142240000Y-69850000D03*
D23*
X139700000Y-69850000D03*
D14*
X124460000Y-72390000D03*
D15*
X132080000Y-72390000D03*
D14*
X93980000Y-92710000D03*
D15*
X93980000Y-85090000D03*
D14*
X105410000Y-92710000D03*
D15*
X105410000Y-85090000D03*
D25*
X82550000Y-106680000D03*
D26*
X82550000Y-104180000D03*
X82550000Y-101680000D03*
X82550000Y-99180000D03*
D17*
X118319755Y-71540244D03*
D15*
X118319755Y-69000244D03*
X110699755Y-69000244D03*
X110699755Y-71540244D03*
D27*
X102454755Y-73675244D03*
D28*
X101184755Y-75745244D03*
X99914755Y-73675244D03*
D14*
X81280000Y-77470000D03*
D15*
X88900000Y-77470000D03*
D17*
X140970000Y-104140000D03*
D14*
X138470000Y-104140000D03*
D29*
X93345000Y-96520000D03*
D30*
X93345000Y-114300000D03*
X133985000Y-114300000D03*
X133985000Y-96520000D03*
D14*
X97790000Y-85090000D03*
D15*
X97790000Y-92710000D03*
D31*
X82225000Y-91440000D03*
D32*
X82225000Y-88900000D03*
X82225000Y-86360000D03*
D14*
X123190000Y-87670000D03*
X123190000Y-92670000D03*
D22*
X95250000Y-80005000D03*
D23*
X95250000Y-82545000D03*
D14*
X118329755Y-75345244D03*
D15*
X110709755Y-75345244D03*
D14*
X101600000Y-90130000D03*
X101600000Y-85130000D03*
D33*
X137700000Y-96520000D03*
X141700000Y-96520000D03*
D34*
X88900000Y-96520000D03*
D35*
X88900000Y-99060000D03*
D14*
X90170000Y-92710000D03*
D15*
X90170000Y-85090000D03*
D14*
X123190000Y-85090000D03*
D15*
X123190000Y-77470000D03*
D14*
X104359755Y-69630244D03*
X99359755Y-69630244D03*
X81280000Y-81280000D03*
D15*
X88900000Y-81280000D03*
D14*
X121504755Y-73440244D03*
X121504755Y-68440244D03*
D34*
X86920000Y-65590000D03*
D35*
X86920000Y-63050000D03*
X89460000Y-65590000D03*
X89460000Y-63050000D03*
X92000000Y-65590000D03*
X92000000Y-63050000D03*
X94540000Y-65590000D03*
X94540000Y-63050000D03*
X97080000Y-65590000D03*
X97080000Y-63050000D03*
X99620000Y-65590000D03*
X99620000Y-63050000D03*
X102160000Y-65590000D03*
X102160000Y-63050000D03*
X104700000Y-65590000D03*
X104700000Y-63050000D03*
X107240000Y-65590000D03*
X107240000Y-63050000D03*
X109780000Y-65590000D03*
X109780000Y-63050000D03*
X112320000Y-65590000D03*
X112320000Y-63050000D03*
X114860000Y-65590000D03*
X114860000Y-63050000D03*
X117400000Y-65590000D03*
X117400000Y-63050000D03*
X119940000Y-65590000D03*
X119940000Y-63050000D03*
X122480000Y-65590000D03*
X122480000Y-63050000D03*
X125020000Y-65590000D03*
X125020000Y-63050000D03*
X127560000Y-65590000D03*
X127560000Y-63050000D03*
X130100000Y-65590000D03*
X130100000Y-63050000D03*
X132640000Y-65590000D03*
X132640000Y-63050000D03*
X135180000Y-65590000D03*
X135180000Y-63050000D03*
M02*
