%TF.GenerationSoftware,KiCad,Pcbnew,(5.99.0-12255-gad1ee958b0)*%
%TF.CreationDate,2021-12-04T14:30:29+01:00*%
%TF.ProjectId,RPi_car_HAT,5250695f-6361-4725-9f48-41542e6b6963,rev?*%
%TF.SameCoordinates,Original*%
%TF.FileFunction,Soldermask,Top*%
%TF.FilePolarity,Negative*%
%FSLAX46Y46*%
G04 Gerber Fmt 4.6, Leading zero omitted, Abs format (unit mm)*
G04 Created by KiCad (PCBNEW (5.99.0-12255-gad1ee958b0)) date 2021-12-04 14:30:29*
%MOMM*%
%LPD*%
G01*
G04 APERTURE LIST*
G04 Aperture macros list*
%AMRoundRect*
0 Rectangle with rounded corners*
0 $1 Rounding radius*
0 $2 $3 $4 $5 $6 $7 $8 $9 X,Y pos of 4 corners*
0 Add a 4 corners polygon primitive as box body*
4,1,4,$2,$3,$4,$5,$6,$7,$8,$9,$2,$3,0*
0 Add four circle primitives for the rounded corners*
1,1,$1+$1,$2,$3*
1,1,$1+$1,$4,$5*
1,1,$1+$1,$6,$7*
1,1,$1+$1,$8,$9*
0 Add four rect primitives between the rounded corners*
20,1,$1+$1,$2,$3,$4,$5,0*
20,1,$1+$1,$4,$5,$6,$7,0*
20,1,$1+$1,$6,$7,$8,$9,0*
20,1,$1+$1,$8,$9,$2,$3,0*%
G04 Aperture macros list end*
%ADD10C,3.000000*%
%ADD11C,1.000000*%
%ADD12C,1.600000*%
%ADD13O,1.600000X1.600000*%
%ADD14C,1.440000*%
%ADD15R,1.600000X1.600000*%
%ADD16R,1.500000X1.500000*%
%ADD17C,1.500000*%
%ADD18R,1.800000X1.100000*%
%ADD19RoundRect,0.275000X0.625000X-0.275000X0.625000X0.275000X-0.625000X0.275000X-0.625000X-0.275000X0*%
%ADD20R,1.800000X1.800000*%
%ADD21C,1.800000*%
%ADD22RoundRect,0.275000X-0.625000X0.275000X-0.625000X-0.275000X0.625000X-0.275000X0.625000X0.275000X0*%
%ADD23RoundRect,0.250000X0.725000X-0.600000X0.725000X0.600000X-0.725000X0.600000X-0.725000X-0.600000X0*%
%ADD24O,1.950000X1.700000*%
%ADD25R,1.100000X1.800000*%
%ADD26RoundRect,0.275000X0.275000X0.625000X-0.275000X0.625000X-0.275000X-0.625000X0.275000X-0.625000X0*%
%ADD27R,2.540000X2.540000*%
%ADD28C,2.540000*%
%ADD29R,2.000000X1.905000*%
%ADD30O,2.000000X1.905000*%
%ADD31C,2.000000*%
%ADD32R,1.700000X1.700000*%
%ADD33O,1.700000X1.700000*%
G04 APERTURE END LIST*
D10*
X82040000Y-64310000D03*
X140040000Y-64330000D03*
X82040000Y-113320000D03*
X140030000Y-113310000D03*
D11*
X101600000Y-92710000D03*
D12*
X119380000Y-92710000D03*
D13*
X119380000Y-85090000D03*
D14*
X101184755Y-80425244D03*
X103724755Y-80425244D03*
X106264755Y-80425244D03*
D15*
X88890000Y-73665000D03*
D13*
X88890000Y-71125000D03*
X81270000Y-71125000D03*
X81270000Y-73665000D03*
D16*
X129010000Y-88590000D03*
D17*
X129010000Y-86090000D03*
X129010000Y-84090000D03*
X129010000Y-81590000D03*
X131630000Y-88590000D03*
X131630000Y-86090000D03*
X131630000Y-84090000D03*
X131630000Y-81590000D03*
D10*
X128660000Y-78520000D03*
X134340000Y-78520000D03*
X128660000Y-91660000D03*
X134340000Y-91660000D03*
D12*
X124460000Y-69215000D03*
D13*
X132080000Y-69215000D03*
D12*
X107534755Y-76615244D03*
D13*
X107534755Y-68995244D03*
D12*
X86360000Y-92710000D03*
D13*
X86360000Y-85090000D03*
D18*
X119364755Y-81695244D03*
D19*
X117294755Y-80425244D03*
X119364755Y-79155244D03*
D12*
X91480000Y-76835000D03*
X96480000Y-76835000D03*
D15*
X108595000Y-85100000D03*
D13*
X108595000Y-87640000D03*
X108595000Y-90180000D03*
X108595000Y-92720000D03*
X116215000Y-92720000D03*
X116215000Y-90180000D03*
X116215000Y-87640000D03*
X116215000Y-85100000D03*
D20*
X88265000Y-114940000D03*
D21*
X88265000Y-112400000D03*
D20*
X142240000Y-74930000D03*
D21*
X139700000Y-74930000D03*
D18*
X111579755Y-79155244D03*
D22*
X113649755Y-80425244D03*
X111579755Y-81695244D03*
D12*
X88900000Y-102235000D03*
D13*
X88900000Y-109855000D03*
D20*
X142240000Y-69850000D03*
D21*
X139700000Y-69850000D03*
D12*
X124460000Y-72390000D03*
D13*
X132080000Y-72390000D03*
D12*
X93980000Y-92710000D03*
D13*
X93980000Y-85090000D03*
D12*
X105410000Y-92710000D03*
D13*
X105410000Y-85090000D03*
D23*
X82550000Y-106680000D03*
D24*
X82550000Y-104180000D03*
X82550000Y-101680000D03*
X82550000Y-99180000D03*
D15*
X118319755Y-71540244D03*
D13*
X118319755Y-69000244D03*
X110699755Y-69000244D03*
X110699755Y-71540244D03*
D25*
X102454755Y-73675244D03*
D26*
X101184755Y-75745244D03*
X99914755Y-73675244D03*
D12*
X81280000Y-77470000D03*
D13*
X88900000Y-77470000D03*
D15*
X140970000Y-104140000D03*
D12*
X138470000Y-104140000D03*
D27*
X93345000Y-96520000D03*
D28*
X93345000Y-114300000D03*
X133985000Y-114300000D03*
X133985000Y-96520000D03*
D12*
X97790000Y-85090000D03*
D13*
X97790000Y-92710000D03*
D29*
X82225000Y-91440000D03*
D30*
X82225000Y-88900000D03*
X82225000Y-86360000D03*
D12*
X123190000Y-87670000D03*
X123190000Y-92670000D03*
D20*
X95250000Y-80005000D03*
D21*
X95250000Y-82545000D03*
D12*
X118329755Y-75345244D03*
D13*
X110709755Y-75345244D03*
D12*
X101600000Y-90130000D03*
X101600000Y-85130000D03*
D31*
X137700000Y-96520000D03*
X141700000Y-96520000D03*
D32*
X88900000Y-96520000D03*
D33*
X88900000Y-99060000D03*
D12*
X90170000Y-92710000D03*
D13*
X90170000Y-85090000D03*
D12*
X123190000Y-85090000D03*
D13*
X123190000Y-77470000D03*
D12*
X104359755Y-69630244D03*
X99359755Y-69630244D03*
X81280000Y-81280000D03*
D13*
X88900000Y-81280000D03*
D12*
X121504755Y-73440244D03*
X121504755Y-68440244D03*
D32*
X86920000Y-65590000D03*
D33*
X86920000Y-63050000D03*
X89460000Y-65590000D03*
X89460000Y-63050000D03*
X92000000Y-65590000D03*
X92000000Y-63050000D03*
X94540000Y-65590000D03*
X94540000Y-63050000D03*
X97080000Y-65590000D03*
X97080000Y-63050000D03*
X99620000Y-65590000D03*
X99620000Y-63050000D03*
X102160000Y-65590000D03*
X102160000Y-63050000D03*
X104700000Y-65590000D03*
X104700000Y-63050000D03*
X107240000Y-65590000D03*
X107240000Y-63050000D03*
X109780000Y-65590000D03*
X109780000Y-63050000D03*
X112320000Y-65590000D03*
X112320000Y-63050000D03*
X114860000Y-65590000D03*
X114860000Y-63050000D03*
X117400000Y-65590000D03*
X117400000Y-63050000D03*
X119940000Y-65590000D03*
X119940000Y-63050000D03*
X122480000Y-65590000D03*
X122480000Y-63050000D03*
X125020000Y-65590000D03*
X125020000Y-63050000D03*
X127560000Y-65590000D03*
X127560000Y-63050000D03*
X130100000Y-65590000D03*
X130100000Y-63050000D03*
X132640000Y-65590000D03*
X132640000Y-63050000D03*
X135180000Y-65590000D03*
X135180000Y-63050000D03*
M02*
